<svg width="345" height="456" viewBox="0 0 345 456" fill="none" xmlns="http://www.w3.org/2000/svg">
<g clip-path="url(#clip0_50_11420)">
<path d="M0 7.345C0 3.28846 3.28847 0 7.345 0H336.952C341.009 0 344.297 3.28847 344.297 7.345V455.39H0V7.345Z" fill="white"/>
<path d="M25.81 126.363C27.6903 126.363 29.2622 125.305 29.2622 123.16V115.889H27.9107V123.16C27.9107 124.438 27.0733 125.026 25.81 125.026C24.8111 125.026 24.0766 124.673 23.7534 123.851L22.5929 124.527C23.1364 125.746 24.3557 126.363 25.81 126.363ZM36.2637 118.827V122.72C36.2637 124.453 35.3088 125.144 34.1336 125.144C33.0025 125.144 32.312 124.468 32.312 123.263V118.827H31.034V123.337C31.034 125.217 32.1651 126.363 33.8839 126.363C34.9122 126.363 35.7201 125.981 36.2637 125.114V126.172H37.5417V118.827H36.2637ZM43.1452 118.636C42.1169 118.636 41.309 119.018 40.7655 119.885V118.827H39.4874V126.172H40.7655V122.279C40.7655 120.546 41.7203 119.855 42.8955 119.855C44.0266 119.855 44.7171 120.531 44.7171 121.735V126.172H45.9951V121.662C45.9951 119.782 44.864 118.636 43.1452 118.636ZM48.6753 123.087H54.8305C54.8598 122.896 54.8745 122.705 54.8745 122.514C54.8745 120.457 53.4349 118.636 51.2167 118.636C48.9251 118.636 47.3679 120.325 47.3679 122.499C47.3679 124.703 48.9398 126.363 51.3048 126.363C52.7739 126.363 53.8903 125.702 54.5367 124.703L53.4496 124.086C53.0823 124.688 52.3478 125.158 51.3342 125.158C49.9681 125.158 48.9251 124.409 48.6753 123.087ZM51.2167 119.84C52.3185 119.84 53.3615 120.516 53.5818 121.971H48.6753C48.881 120.693 49.8358 119.84 51.2167 119.84ZM59.5754 126.172H66.2153V124.85H61.5586L64.1881 122.235C65.2017 121.221 66.0243 120.12 66.0243 118.842C66.0243 116.814 64.4231 115.698 62.8219 115.698C61.4851 115.698 60.2365 116.359 59.5754 117.725L60.7213 118.401C61.162 117.475 61.8965 117.02 62.8366 117.02C63.7915 117.02 64.6582 117.652 64.6582 118.856C64.6582 119.723 64.0118 120.546 63.2039 121.354L59.5754 125.055V126.172ZM71.2772 126.363C73.8332 126.363 75.2435 124.203 75.2435 121.03C75.2435 117.857 73.8332 115.698 71.2772 115.698C68.7358 115.698 67.3109 117.857 67.3109 121.03C67.3109 124.203 68.7358 126.363 71.2772 126.363ZM71.2772 125.026C69.6172 125.026 68.677 123.586 68.677 121.03C68.677 118.474 69.6172 117.02 71.2772 117.02C72.9371 117.02 73.892 118.474 73.892 121.03C73.892 123.586 72.9371 125.026 71.2772 125.026ZM76.2451 126.172H82.885V124.85H78.2283L80.8578 122.235C81.8714 121.221 82.6941 120.12 82.6941 118.842C82.6941 116.814 81.0929 115.698 79.4916 115.698C78.1548 115.698 76.9062 116.359 76.2451 117.725L77.391 118.401C77.8317 117.475 78.5662 117.02 79.5063 117.02C80.4612 117.02 81.3279 117.652 81.3279 118.856C81.3279 119.723 80.6815 120.546 79.8736 121.354L76.2451 125.055V126.172ZM86.2999 115.889L83.5969 116.829L83.9348 118.004L86.1236 117.358V126.172H87.4751V115.889H86.2999Z" fill="#3C4043"/>
<rect width="36.725" height="36.725" transform="translate(154.244 148.734)" fill="#E7F0FE"/>
<path d="M170.098 170.734H175.078V169.743H171.586L173.558 167.782C174.318 167.021 174.935 166.195 174.935 165.237C174.935 163.716 173.734 162.879 172.533 162.879C171.531 162.879 170.594 163.375 170.098 164.399L170.958 164.906C171.288 164.212 171.839 163.87 172.544 163.87C173.26 163.87 173.91 164.344 173.91 165.248C173.91 165.898 173.426 166.515 172.82 167.121L170.098 169.897V170.734Z" fill="#3C4043"/>
<rect width="36.725" height="36.725" transform="translate(154.244 187.297)" fill="#E7F0FE"/>
<path d="M175.261 204.031C175.261 202.499 174.16 201.441 172.606 201.441C171.053 201.441 169.951 202.499 169.951 204.031C169.951 205.562 171.053 206.62 172.606 206.62C172.738 206.62 172.86 206.609 172.981 206.598L171.152 209.297H172.309L174.799 205.584H174.788C175.096 205.154 175.261 204.636 175.261 204.031ZM170.965 204.031C170.965 203.061 171.637 202.422 172.606 202.422C173.576 202.422 174.248 203.05 174.248 204.031C174.248 205.011 173.576 205.65 172.606 205.65C171.637 205.65 170.965 205.011 170.965 204.031Z" fill="#3C4043"/>
<rect width="36.725" height="36.725" transform="translate(154.244 225.859)" fill="#E7F0FE"/>
<path d="M169.86 240.147L167.833 240.852L168.087 241.734L169.728 241.249V247.859H170.742V240.147H169.86ZM174.57 242.813C174.449 242.813 174.327 242.824 174.206 242.835L176.024 240.147H174.856L172.377 243.86C172.08 244.279 171.915 244.808 171.915 245.402C171.915 246.934 173.016 248.003 174.57 248.003C176.112 248.003 177.225 246.934 177.225 245.402C177.225 243.871 176.112 242.813 174.57 242.813ZM174.57 247.022C173.6 247.022 172.928 246.383 172.928 245.402C172.928 244.422 173.6 243.794 174.57 243.794C175.528 243.794 176.211 244.433 176.211 245.402C176.211 246.383 175.528 247.022 174.57 247.022Z" fill="#3C4043"/>
<rect width="36.725" height="36.725" transform="translate(154.244 264.418)" fill="#E7F0FE"/>
<path d="M167.204 286.418H172.184V285.426H168.691L170.664 283.465C171.424 282.705 172.041 281.879 172.041 280.92C172.041 279.4 170.84 278.562 169.639 278.562C168.636 278.562 167.7 279.058 167.204 280.083L168.063 280.59C168.394 279.896 168.945 279.554 169.65 279.554C170.366 279.554 171.016 280.028 171.016 280.931C171.016 281.581 170.531 282.198 169.925 282.804L167.204 285.581V286.418ZM175.991 281.868L177.666 279.609V278.706H173.039V279.664H176.465L174.68 282.077L175.088 282.705H175.352C176.278 282.705 176.972 283.212 176.972 284.137C176.972 285.052 176.278 285.559 175.352 285.559C174.515 285.559 173.909 285.206 173.678 284.49L172.818 284.997C173.215 286.032 174.218 286.561 175.352 286.561C176.741 286.561 177.997 285.702 177.997 284.137C177.997 282.859 177.104 282.077 175.991 281.868Z" fill="#3C4043"/>
<path d="M154.244 302.98H172.607C182.748 302.98 190.969 311.202 190.969 321.343V321.343C190.969 331.484 182.748 339.705 172.607 339.705H154.244V302.98Z" fill="#E7F0FE"/>
<path d="M169.67 320.43L171.345 318.172V317.268H166.718V318.227H170.144L168.359 320.64L168.767 321.268H169.031C169.957 321.268 170.651 321.774 170.651 322.7C170.651 323.614 169.957 324.121 169.031 324.121C168.194 324.121 167.588 323.769 167.357 323.052L166.497 323.559C166.894 324.595 167.896 325.124 169.031 325.124C170.419 325.124 171.675 324.264 171.675 322.7C171.675 321.422 170.783 320.64 169.67 320.43ZM175.555 325.124C177.472 325.124 178.53 323.504 178.53 321.124C178.53 318.745 177.472 317.125 175.555 317.125C173.649 317.125 172.581 318.745 172.581 321.124C172.581 323.504 173.649 325.124 175.555 325.124ZM175.555 324.121C174.31 324.121 173.605 323.041 173.605 321.124C173.605 319.207 174.31 318.117 175.555 318.117C176.8 318.117 177.516 319.207 177.516 321.124C177.516 323.041 176.8 324.121 175.555 324.121Z" fill="#3C4043"/>
<rect width="36.725" height="36.725" transform="translate(117.52 148.734)" fill="#E7F0FE"/>
<path d="M136.1 163.022L134.073 163.727L134.326 164.609L135.968 164.124V170.734H136.981V163.022H136.1Z" fill="#3C4043"/>
<rect width="36.725" height="36.725" transform="translate(117.52 187.297)" fill="#E7F0FE"/>
<path d="M137.322 205.309C137.883 204.956 138.269 204.383 138.269 203.623C138.269 202.147 137.101 201.441 135.878 201.441C134.666 201.441 133.498 202.147 133.498 203.623C133.498 204.383 133.884 204.956 134.446 205.309C133.708 205.683 133.245 206.344 133.245 207.182C133.245 208.625 134.38 209.44 135.878 209.44C137.388 209.44 138.522 208.625 138.522 207.182C138.522 206.344 138.06 205.683 137.322 205.309ZM135.878 202.422C136.605 202.422 137.244 202.786 137.244 203.645C137.244 204.46 136.605 204.879 135.878 204.879C135.162 204.879 134.512 204.46 134.512 203.645C134.512 202.786 135.162 202.422 135.878 202.422ZM135.878 208.46C134.942 208.46 134.259 208.008 134.259 207.115C134.259 206.234 134.942 205.782 135.878 205.782C136.826 205.782 137.509 206.234 137.509 207.115C137.509 208.008 136.826 208.46 135.878 208.46Z" fill="#3C4043"/>
<rect width="36.725" height="36.725" transform="translate(80.7949 187.297)" fill="#E7F0FE"/>
<path d="M96.6552 201.585V202.554H100.379L97.5917 209.297H98.6603L101.47 202.499V201.585H96.6552Z" fill="#3C4043"/>
<rect width="36.725" height="36.725" transform="translate(117.52 225.859)" fill="#E7F0FE"/>
<path d="M133.109 240.147L131.082 240.852L131.335 241.734L132.977 241.249V247.859H133.99V240.147H133.109ZM137.829 243.155H136.705L136.838 241.106H140.132V240.147H135.912L135.626 244.146H137.807C138.722 244.146 139.416 244.653 139.416 245.579C139.416 246.493 138.722 247 137.785 247C136.948 247 136.32 246.614 136.111 245.854L135.24 246.35C135.615 247.452 136.65 248.003 137.785 248.003C139.173 248.003 140.429 247.143 140.429 245.579C140.429 244.003 139.206 243.155 137.829 243.155Z" fill="#3C4043"/>
<rect width="36.725" height="36.725" transform="translate(117.52 264.418)" fill="#E7F0FE"/>
<path d="M130.469 286.418H135.449V285.426H131.956L133.928 283.465C134.688 282.705 135.305 281.879 135.305 280.92C135.305 279.4 134.104 278.562 132.904 278.562C131.901 278.562 130.964 279.058 130.469 280.083L131.328 280.59C131.659 279.896 132.209 279.554 132.915 279.554C133.631 279.554 134.281 280.028 134.281 280.931C134.281 281.581 133.796 282.198 133.19 282.804L130.469 285.581V286.418ZM136.279 286.418H141.259V285.426H137.766L139.738 283.465C140.498 282.705 141.115 281.879 141.115 280.92C141.115 279.4 139.914 278.562 138.714 278.562C137.711 278.562 136.774 279.058 136.279 280.083L137.138 280.59C137.469 279.896 138.019 279.554 138.725 279.554C139.441 279.554 140.091 280.028 140.091 280.931C140.091 281.581 139.606 282.198 139 282.804L136.279 285.581V286.418Z" fill="#3C4043"/>
<rect width="36.725" height="36.725" transform="translate(117.52 302.98)" fill="#E7F0FE"/>
<path d="M130.426 324.98H135.406V323.989H131.913L133.885 322.028C134.645 321.268 135.262 320.441 135.262 319.483C135.262 317.962 134.061 317.125 132.86 317.125C131.858 317.125 130.921 317.621 130.426 318.645L131.285 319.152C131.616 318.458 132.166 318.117 132.872 318.117C133.588 318.117 134.238 318.59 134.238 319.494C134.238 320.144 133.753 320.761 133.147 321.367L130.426 324.143V324.98ZM141.426 319.714C141.426 318.183 140.324 317.125 138.77 317.125C137.217 317.125 136.115 318.183 136.115 319.714C136.115 321.246 137.217 322.303 138.77 322.303C138.903 322.303 139.024 322.292 139.145 322.281L137.316 324.98H138.473L140.963 321.268H140.952C141.26 320.838 141.426 320.32 141.426 319.714ZM137.129 319.714C137.129 318.745 137.801 318.106 138.77 318.106C139.74 318.106 140.412 318.734 140.412 319.714C140.412 320.695 139.74 321.334 138.77 321.334C137.801 321.334 137.129 320.695 137.129 319.714Z" fill="#3C4043"/>
<rect width="36.725" height="36.725" transform="translate(80.7949 225.859)" fill="#E7F0FE"/>
<path d="M96.1798 240.147L94.1526 240.852L94.406 241.734L96.0476 241.249V247.859H97.0612V240.147H96.1798ZM104.084 245.436H103.148V243.254H102.123V245.436H99.2917L102.057 240.147H100.955L98.1899 245.436V246.394H102.123V247.859H103.148V246.394H104.084V245.436Z" fill="#3C4043"/>
<rect width="36.725" height="36.725" transform="translate(80.7949 264.418)" fill="#E7F0FE"/>
<path d="M94.7124 286.418H99.6923V285.426H96.1997L98.1719 283.465C98.9321 282.705 99.5491 281.879 99.5491 280.92C99.5491 279.4 98.3482 278.562 97.1473 278.562C96.1447 278.562 95.2082 279.058 94.7124 280.083L95.5717 280.59C95.9023 279.896 96.4531 279.554 97.1583 279.554C97.8744 279.554 98.5244 280.028 98.5244 280.931C98.5244 281.581 98.0397 282.198 97.4337 282.804L94.7124 285.581V286.418ZM102.253 278.706L100.226 279.411L100.48 280.292L102.121 279.807V286.418H103.135V278.706H102.253Z" fill="#3C4043"/>
<rect width="36.725" height="36.725" transform="translate(80.7949 302.98)" fill="#E7F0FE"/>
<path d="M93.6203 324.98H98.6002V323.989H95.1077L97.0798 322.028C97.84 321.268 98.457 320.441 98.457 319.483C98.457 317.962 97.2561 317.125 96.0552 317.125C95.0526 317.125 94.1161 317.621 93.6203 318.645L94.4797 319.152C94.8102 318.458 95.3611 318.117 96.0662 318.117C96.7823 318.117 97.4324 318.59 97.4324 319.494C97.4324 320.144 96.9476 320.761 96.3416 321.367L93.6203 324.143V324.98ZM103.475 320.992C104.037 320.64 104.423 320.067 104.423 319.306C104.423 317.83 103.255 317.125 102.032 317.125C100.82 317.125 99.652 317.83 99.652 319.306C99.652 320.067 100.038 320.64 100.599 320.992C99.8613 321.367 99.3986 322.028 99.3986 322.865C99.3986 324.308 100.533 325.124 102.032 325.124C103.541 325.124 104.676 324.308 104.676 322.865C104.676 322.028 104.213 321.367 103.475 320.992ZM102.032 318.106C102.759 318.106 103.398 318.469 103.398 319.328C103.398 320.144 102.759 320.562 102.032 320.562C101.316 320.562 100.666 320.144 100.666 319.328C100.666 318.469 101.316 318.106 102.032 318.106ZM102.032 324.143C101.095 324.143 100.412 323.691 100.412 322.799C100.412 321.918 101.095 321.466 102.032 321.466C102.979 321.466 103.662 321.918 103.662 322.799C103.662 323.691 102.979 324.143 102.032 324.143Z" fill="#3C4043"/>
<rect width="36.725" height="36.725" transform="translate(44.0703 187.297)" fill="#E7F0FE"/>
<path d="M62.4323 204.251C62.3112 204.251 62.19 204.262 62.0688 204.273L63.8867 201.585H62.7188L60.2399 205.298C59.9424 205.716 59.7771 206.245 59.7771 206.84C59.7771 208.371 60.8789 209.44 62.4323 209.44C63.9748 209.44 65.0876 208.371 65.0876 206.84C65.0876 205.309 63.9748 204.251 62.4323 204.251ZM62.4323 208.46C61.4628 208.46 60.7907 207.821 60.7907 206.84C60.7907 205.859 61.4628 205.231 62.4323 205.231C63.3909 205.231 64.074 205.87 64.074 206.84C64.074 207.821 63.3909 208.46 62.4323 208.46Z" fill="#3C4043"/>
<rect width="36.725" height="36.725" transform="translate(44.0703 225.859)" fill="#E7F0FE"/>
<path d="M59.7027 240.147L57.6755 240.852L57.9289 241.734L59.5705 241.249V247.859H60.5841V240.147H59.7027ZM64.9299 243.309L66.6045 241.051V240.147H61.9772V241.106H65.4036L63.6188 243.518L64.0264 244.146H64.2909C65.2163 244.146 65.9104 244.653 65.9104 245.579C65.9104 246.493 65.2163 247 64.2909 247C63.4535 247 62.8476 246.647 62.6162 245.931L61.7568 246.438C62.1535 247.474 63.1561 248.003 64.2909 248.003C65.6791 248.003 66.9351 247.143 66.9351 245.579C66.9351 244.301 66.0426 243.518 64.9299 243.309Z" fill="#3C4043"/>
<rect width="36.725" height="36.725" transform="translate(44.0703 264.418)" fill="#E7F0FE"/>
<path d="M56.5084 286.418H61.4883V285.426H57.9957L59.9679 283.465C60.7281 282.705 61.3451 281.879 61.3451 280.92C61.3451 279.4 60.1441 278.562 58.9432 278.562C57.9406 278.562 57.0042 279.058 56.5084 280.083L57.3677 280.59C57.6983 279.896 58.2491 279.554 58.9543 279.554C59.6704 279.554 60.3204 280.028 60.3204 280.931C60.3204 281.581 59.8357 282.198 59.2297 282.804L56.5084 285.581V286.418ZM65.2847 286.561C67.2017 286.561 68.2594 284.942 68.2594 282.562C68.2594 280.182 67.2017 278.562 65.2847 278.562C63.3786 278.562 62.3099 280.182 62.3099 282.562C62.3099 284.942 63.3786 286.561 65.2847 286.561ZM65.2847 285.559C64.0397 285.559 63.3346 284.479 63.3346 282.562C63.3346 280.645 64.0397 279.554 65.2847 279.554C66.5297 279.554 67.2458 280.645 67.2458 282.562C67.2458 284.479 66.5297 285.559 65.2847 285.559Z" fill="#3C4043"/>
<rect width="36.725" height="36.725" transform="translate(44.0703 302.98)" fill="#E7F0FE"/>
<path d="M57.3315 324.98H62.3114V323.989H58.8188L60.791 322.028C61.5512 321.268 62.1681 320.441 62.1681 319.483C62.1681 317.962 60.9672 317.125 59.7663 317.125C58.7637 317.125 57.8272 317.621 57.3315 318.645L58.1908 319.152C58.5213 318.458 59.0722 318.117 59.7773 318.117C60.4935 318.117 61.1435 318.59 61.1435 319.494C61.1435 320.144 60.6587 320.761 60.0528 321.367L57.3315 324.143V324.98ZM62.728 317.268V318.238H66.4519L63.6645 324.98H64.7332L67.5426 318.183V317.268H62.728Z" fill="#3C4043"/>
<rect width="36.725" height="36.725" transform="translate(190.971 148.734)" fill="#E7F0FE"/>
<path d="M209.867 166.184L211.541 163.926V163.022H206.914V163.981H210.34L208.556 166.393L208.963 167.021H209.228C210.153 167.021 210.847 167.528 210.847 168.454C210.847 169.368 210.153 169.875 209.228 169.875C208.39 169.875 207.784 169.522 207.553 168.806L206.694 169.313C207.09 170.349 208.093 170.878 209.228 170.878C210.616 170.878 211.872 170.018 211.872 168.454C211.872 167.176 210.979 166.393 209.867 166.184Z" fill="#3C4043"/>
<rect width="36.725" height="36.725" transform="translate(190.971 187.297)" fill="#E7F0FE"/>
<path d="M206.081 201.585L204.054 202.29L204.307 203.171L205.949 202.686V209.297H206.963V201.585H206.081ZM211.297 209.44C213.214 209.44 214.272 207.821 214.272 205.441C214.272 203.061 213.214 201.441 211.297 201.441C209.391 201.441 208.323 203.061 208.323 205.441C208.323 207.821 209.391 209.44 211.297 209.44ZM211.297 208.438C210.052 208.438 209.347 207.358 209.347 205.441C209.347 203.524 210.052 202.433 211.297 202.433C212.542 202.433 213.259 203.524 213.259 205.441C213.259 207.358 212.542 208.438 211.297 208.438Z" fill="#3C4043"/>
<rect width="36.725" height="36.725" transform="translate(190.971 225.859)" fill="#E7F0FE"/>
<path d="M206.851 240.147L204.823 240.852L205.077 241.734L206.718 241.249V247.859H207.732V240.147H206.851ZM208.795 240.147V241.117H212.518L209.731 247.859H210.8L213.609 241.062V240.147H208.795Z" fill="#3C4043"/>
<rect width="36.725" height="36.725" transform="translate(190.971 264.418)" fill="#E7F0FE"/>
<path d="M203.726 286.418H208.706V285.426H205.214L207.186 283.465C207.946 282.705 208.563 281.879 208.563 280.92C208.563 279.4 207.362 278.562 206.161 278.562C205.158 278.562 204.222 279.058 203.726 280.083L204.586 280.59C204.916 279.896 205.467 279.554 206.172 279.554C206.888 279.554 207.538 280.028 207.538 280.931C207.538 281.581 207.053 282.198 206.447 282.804L203.726 285.581V286.418ZM215.105 283.994H214.168V281.813H213.144V283.994H210.312L213.077 278.706H211.976L209.21 283.994V284.953H213.144V286.418H214.168V284.953H215.105V283.994Z" fill="#3C4043"/>
<rect width="36.725" height="36.725" transform="translate(227.693 148.734)" fill="#E7F0FE"/>
<path d="M249.019 168.311H248.083V166.129H247.058V168.311H244.227L246.992 163.022H245.89L243.125 168.311V169.269H247.058V170.734H248.083V169.269H249.019V168.311Z" fill="#3C4043"/>
<rect width="36.725" height="36.725" transform="translate(227.693 187.297)" fill="#E7F0FE"/>
<path d="M244.31 201.585L242.283 202.29L242.536 203.171L244.178 202.686V209.297H245.192V201.585H244.31ZM248.237 201.585L246.21 202.29L246.464 203.171L248.105 202.686V209.297H249.119V201.585H248.237Z" fill="#3C4043"/>
<rect width="36.725" height="36.725" transform="translate(227.693 225.859)" fill="#E7F0FE"/>
<path d="M243.218 240.147L241.191 240.852L241.444 241.734L243.086 241.249V247.859H244.1V240.147H243.218ZM249.459 243.871C250.021 243.518 250.406 242.946 250.406 242.185C250.406 240.709 249.239 240.004 248.016 240.004C246.804 240.004 245.636 240.709 245.636 242.185C245.636 242.946 246.021 243.518 246.583 243.871C245.845 244.246 245.382 244.907 245.382 245.744C245.382 247.187 246.517 248.003 248.016 248.003C249.525 248.003 250.66 247.187 250.66 245.744C250.66 244.907 250.197 244.246 249.459 243.871ZM248.016 240.984C248.743 240.984 249.382 241.348 249.382 242.207C249.382 243.023 248.743 243.441 248.016 243.441C247.3 243.441 246.649 243.023 246.649 242.207C246.649 241.348 247.3 240.984 248.016 240.984ZM248.016 247.022C247.079 247.022 246.396 246.57 246.396 245.678C246.396 244.797 247.079 244.345 248.016 244.345C248.963 244.345 249.646 244.797 249.646 245.678C249.646 246.57 248.963 247.022 248.016 247.022Z" fill="#3C4043"/>
<rect width="36.725" height="36.725" transform="translate(227.693 264.418)" fill="#E7F0FE"/>
<path d="M240.599 286.418H245.579V285.426H242.087L244.059 283.465C244.819 282.705 245.436 281.879 245.436 280.92C245.436 279.4 244.235 278.562 243.034 278.562C242.032 278.562 241.095 279.058 240.599 280.083L241.459 280.59C241.789 279.896 242.34 279.554 243.045 279.554C243.761 279.554 244.412 280.028 244.412 280.931C244.412 281.581 243.927 282.198 243.321 282.804L240.599 285.581V286.418ZM248.901 281.713H247.778L247.91 279.664H251.204V278.706H246.984L246.698 282.705H248.879C249.794 282.705 250.488 283.212 250.488 284.137C250.488 285.052 249.794 285.559 248.857 285.559C248.02 285.559 247.392 285.173 247.183 284.413L246.312 284.909C246.687 286.01 247.723 286.561 248.857 286.561C250.246 286.561 251.502 285.702 251.502 284.137C251.502 282.562 250.279 281.713 248.901 281.713Z" fill="#3C4043"/>
<rect width="36.725" height="36.725" transform="translate(264.42 148.734)" fill="#E7F0FE"/>
<path d="M282.766 166.03H281.642L281.774 163.981H285.069V163.022H280.849L280.563 167.021H282.744C283.658 167.021 284.353 167.528 284.353 168.454C284.353 169.368 283.658 169.875 282.722 169.875C281.885 169.875 281.257 169.489 281.047 168.729L280.177 169.225C280.552 170.327 281.587 170.878 282.722 170.878C284.11 170.878 285.366 170.018 285.366 168.454C285.366 166.878 284.143 166.03 282.766 166.03Z" fill="#3C4043"/>
<rect width="36.725" height="36.725" transform="translate(264.42 187.297)" fill="#E7F0FE"/>
<path d="M280.095 201.585L278.068 202.29L278.322 203.171L279.963 202.686V209.297H280.977V201.585H280.095ZM282.238 209.297H287.218V208.305H283.725L285.697 206.344C286.457 205.584 287.074 204.758 287.074 203.799C287.074 202.279 285.873 201.441 284.672 201.441C283.67 201.441 282.733 201.937 282.238 202.962L283.097 203.469C283.428 202.775 283.978 202.433 284.684 202.433C285.4 202.433 286.05 202.907 286.05 203.81C286.05 204.46 285.565 205.077 284.959 205.683L282.238 208.46V209.297Z" fill="#3C4043"/>
<rect width="36.725" height="36.725" transform="translate(264.42 225.859)" fill="#E7F0FE"/>
<path d="M280.036 240.147L278.009 240.852L278.262 241.734L279.904 241.249V247.859H280.918V240.147H280.036ZM287.401 242.593C287.401 241.062 286.299 240.004 284.746 240.004C283.192 240.004 282.09 241.062 282.09 242.593C282.09 244.124 283.192 245.182 284.746 245.182C284.878 245.182 284.999 245.171 285.12 245.16L283.291 247.859H284.448L286.938 244.146H286.927C287.235 243.717 287.401 243.199 287.401 242.593ZM283.104 242.593C283.104 241.623 283.776 240.984 284.746 240.984C285.715 240.984 286.387 241.612 286.387 242.593C286.387 243.574 285.715 244.213 284.746 244.213C283.776 244.213 283.104 243.574 283.104 242.593Z" fill="#3C4043"/>
<rect width="36.725" height="36.725" transform="translate(264.42 264.418)" fill="#E7F0FE"/>
<path d="M277.407 286.418H282.387V285.426H278.894L280.866 283.465C281.626 282.705 282.243 281.879 282.243 280.92C282.243 279.4 281.042 278.562 279.842 278.562C278.839 278.562 277.902 279.058 277.407 280.083L278.266 280.59C278.597 279.896 279.147 279.554 279.853 279.554C280.569 279.554 281.219 280.028 281.219 280.931C281.219 281.581 280.734 282.198 280.128 282.804L277.407 285.581V286.418ZM285.59 281.372C285.469 281.372 285.348 281.383 285.227 281.394L287.044 278.706H285.877L283.398 282.419C283.1 282.837 282.935 283.366 282.935 283.961C282.935 285.492 284.037 286.561 285.59 286.561C287.133 286.561 288.245 285.492 288.245 283.961C288.245 282.43 287.133 281.372 285.59 281.372ZM285.59 285.581C284.621 285.581 283.949 284.942 283.949 283.961C283.949 282.981 284.621 282.353 285.59 282.353C286.549 282.353 287.232 282.992 287.232 283.961C287.232 284.942 286.549 285.581 285.59 285.581Z" fill="#3C4043"/>
<path d="M22.5633 28.6875H24.0176L20.1835 18.4045H18.6411L14.807 28.6875H16.2613L17.0986 26.3812H21.726L22.5633 28.6875ZM17.5687 25.1031L19.4049 20.0351L21.2559 25.1031H17.5687ZM29.9531 21.3425L27.6467 27.3213L25.3404 21.3425H23.9595L26.8975 28.6875H28.3959L31.3339 21.3425H29.9531ZM38.2095 21.3425V22.6058C37.6219 21.7097 36.6818 21.1515 35.4331 21.1515C33.3912 21.1515 31.7165 22.8409 31.7165 25.015C31.7165 27.1891 33.3912 28.8785 35.4331 28.8785C36.6818 28.8785 37.6219 28.3202 38.2095 27.4242V28.6875H39.4876V21.3425H38.2095ZM35.5947 27.6445C34.1257 27.6445 32.9946 26.5134 32.9946 25.015C32.9946 23.5166 34.1257 22.3855 35.5947 22.3855C37.0784 22.3855 38.2095 23.5166 38.2095 25.015C38.2095 26.5134 37.0784 27.6445 35.5947 27.6445ZM42.0702 20.0057C42.5403 20.0057 42.9223 19.6238 42.9223 19.1537C42.9223 18.6836 42.5403 18.287 42.0702 18.287C41.5855 18.287 41.2035 18.6836 41.2035 19.1537C41.2035 19.6238 41.5855 20.0057 42.0702 20.0057ZM41.4239 28.6875H42.7019V21.3425H41.4239V28.6875ZM44.6517 28.6875H45.9297V17.9638H44.6517V28.6875ZM53.9611 21.3425V22.6058C53.3735 21.7097 52.4334 21.1515 51.1847 21.1515C49.1428 21.1515 47.4681 22.8409 47.4681 25.015C47.4681 27.1891 49.1428 28.8785 51.1847 28.8785C52.4334 28.8785 53.3735 28.3202 53.9611 27.4242V28.6875H55.2391V21.3425H53.9611ZM51.3463 27.6445C49.8773 27.6445 48.7462 26.5134 48.7462 25.015C48.7462 23.5166 49.8773 22.3855 51.3463 22.3855C52.83 22.3855 53.9611 23.5166 53.9611 25.015C53.9611 26.5134 52.83 27.6445 51.3463 27.6445ZM61.2299 21.1515C59.9813 21.1515 59.0411 21.7097 58.4535 22.6058V18.4045H57.1755V28.6875H58.4535V27.4242C59.0411 28.3202 59.9813 28.8785 61.2299 28.8785C63.2718 28.8785 64.9465 27.1891 64.9465 25.015C64.9465 22.8409 63.2718 21.1515 61.2299 21.1515ZM61.0683 27.6445C59.5846 27.6445 58.4535 26.5134 58.4535 25.015C58.4535 23.5166 59.5846 22.3855 61.0683 22.3855C62.5373 22.3855 63.6685 23.5166 63.6685 25.015C63.6685 26.5134 62.5373 27.6445 61.0683 27.6445ZM66.4715 28.6875H67.7495V17.9638H66.4715V28.6875ZM70.5954 25.6026H76.7505C76.7799 25.4116 76.7945 25.2207 76.7945 25.0297C76.7945 22.9731 75.3549 21.1515 73.1367 21.1515C70.8451 21.1515 69.288 22.8409 69.288 25.015C69.288 27.2185 70.8598 28.8785 73.2249 28.8785C74.6939 28.8785 75.8103 28.2174 76.4567 27.2185L75.3696 26.6015C75.0024 27.2038 74.2679 27.6739 73.2543 27.6739C71.8881 27.6739 70.8451 26.9247 70.5954 25.6026ZM73.1367 22.3561C74.2385 22.3561 75.2815 23.0318 75.5018 24.4862H70.5954C70.801 23.2081 71.7559 22.3561 73.1367 22.3561ZM85.7115 19.4475V18.2135C83.6108 18.0666 82.4944 19.1684 82.4944 21.1221V21.3425H81.3192V22.5765H82.4944V28.6875H83.7724V22.5765H85.7115V21.3425H83.7724V21.1221C83.7724 19.8441 84.4335 19.3447 85.7115 19.4475ZM87.9626 22.5765V21.3425H86.6846V28.6875H87.9626V24.7946C87.9626 23.0612 89.1525 22.503 90.2543 22.5471V21.2103C89.3288 21.2103 88.4327 21.5482 87.9626 22.5765ZM94.5552 28.8785C96.7 28.8785 98.4334 27.1891 98.4334 25.015C98.4334 22.8409 96.7 21.1515 94.5552 21.1515C92.4105 21.1515 90.6917 22.8409 90.6917 25.015C90.6917 27.1891 92.4105 28.8785 94.5552 28.8785ZM94.5552 27.6298C93.1009 27.6298 91.9698 26.4987 91.9698 25.015C91.9698 23.5313 93.1009 22.4002 94.5552 22.4002C96.0242 22.4002 97.1554 23.5313 97.1554 25.015C97.1554 26.4987 96.0242 27.6298 94.5552 27.6298ZM107.873 21.1515C106.918 21.1515 106.08 21.5628 105.566 22.4002C105.14 21.6069 104.406 21.1515 103.407 21.1515C102.511 21.1515 101.747 21.5041 101.218 22.3267V21.3425H99.94V28.6875H101.218V24.6037C101.218 23.0172 102.114 22.3708 103.098 22.3708C104.053 22.3708 104.656 23.0025 104.656 24.163V28.6875H105.934V24.6037C105.934 23.0172 106.712 22.3708 107.74 22.3708C108.71 22.3708 109.356 23.0025 109.356 24.163V28.6875H110.634V24.1189C110.634 22.2827 109.503 21.1515 107.873 21.1515Z" fill="#3C4043"/>
<rect x="15.1495" y="48.2052" width="151.491" height="35.8069" rx="5.04969" stroke="#DADCE0" stroke-width="0.918125"/>
<path d="M75.1145 68.2623V61.7915H76.3195V68.2623C76.3195 68.8648 76.1961 69.3732 75.9492 69.7874C75.7023 70.2016 75.3613 70.5175 74.9262 70.7351C74.4952 70.9485 73.9994 71.0552 73.4387 71.0552C72.878 71.0552 72.3801 70.959 71.945 70.7665C71.5098 70.574 71.1688 70.2811 70.9219 69.8878C70.6751 69.4945 70.5516 68.9987 70.5516 68.4004H71.763C71.763 68.7853 71.8341 69.1012 71.9763 69.3481C72.1186 69.5949 72.3153 69.777 72.5663 69.8941C72.8215 70.0113 73.1123 70.0698 73.4387 70.0698C73.7567 70.0698 74.0412 70.0029 74.2923 69.869C74.5475 69.7309 74.7484 69.528 74.8948 69.2602C75.0412 68.9882 75.1145 68.6556 75.1145 68.2623ZM82.5162 69.3606V64.1388H83.6836V70.9297H82.5727L82.5162 69.3606ZM82.7359 67.9296L83.2192 67.9171C83.2192 68.369 83.1711 68.7874 83.0748 69.1723C82.9828 69.5531 82.8322 69.8836 82.6229 70.164C82.4137 70.4443 82.1397 70.664 81.8008 70.823C81.4618 70.9778 81.0497 71.0552 80.5643 71.0552C80.2338 71.0552 79.9304 71.0071 79.6543 70.9109C79.3823 70.8146 79.148 70.6661 78.9513 70.4652C78.7547 70.2644 78.602 70.0029 78.4932 69.6807C78.3886 69.3585 78.3363 68.9715 78.3363 68.5196V64.1388H79.4974V68.5322C79.4974 68.8376 79.5308 69.0907 79.5978 69.2916C79.6689 69.4882 79.7631 69.6451 79.8802 69.7623C80.0016 69.8753 80.1355 69.9548 80.2819 70.0008C80.4325 70.0468 80.5873 70.0698 80.7463 70.0698C81.2401 70.0698 81.6313 69.9757 81.92 69.7874C82.2087 69.5949 82.4158 69.3376 82.5414 69.0154C82.6711 68.6891 82.7359 68.3271 82.7359 67.9296ZM86.7799 65.5886V70.9297H85.6188V64.1388H86.7171L86.7799 65.5886ZM86.5037 67.2769L86.0205 67.2581C86.0247 66.7936 86.0937 66.3648 86.2276 65.9715C86.3615 65.574 86.5498 65.2288 86.7925 64.9359C87.0351 64.643 87.3238 64.417 87.6586 64.258C87.9975 64.0949 88.372 64.0133 88.782 64.0133C89.1168 64.0133 89.418 64.0593 89.6858 64.1513C89.9536 64.2392 90.1816 64.3815 90.3699 64.5781C90.5624 64.7748 90.7088 65.03 90.8093 65.3438C90.9097 65.6535 90.9599 66.0321 90.9599 66.4798V70.9297H89.7925V66.4673C89.7925 66.1116 89.7402 65.8271 89.6356 65.6137C89.531 65.3961 89.3783 65.2392 89.1774 65.143C88.9766 65.0426 88.7297 64.9924 88.4368 64.9924C88.1481 64.9924 87.8845 65.053 87.646 65.1744C87.4117 65.2957 87.2088 65.4631 87.0372 65.6765C86.8699 65.8899 86.7381 66.1346 86.6418 66.4108C86.5498 66.6828 86.5037 66.9715 86.5037 67.2769ZM95.7068 71.0552C95.234 71.0552 94.8051 70.9757 94.4202 70.8167C94.0394 70.6535 93.711 70.4255 93.4348 70.1326C93.1628 69.8397 92.9536 69.4924 92.8072 69.0907C92.6607 68.6891 92.5875 68.2497 92.5875 67.7727V67.5091C92.5875 66.9568 92.6691 66.4652 92.8323 66.0342C92.9955 65.5991 93.2172 65.2309 93.4976 64.9296C93.7779 64.6283 94.0959 64.4003 94.4516 64.2455C94.8072 64.0907 95.1754 64.0133 95.5562 64.0133C96.0415 64.0133 96.46 64.0969 96.8114 64.2643C97.1671 64.4317 97.4579 64.666 97.6838 64.9673C97.9098 65.2643 98.0771 65.6158 98.1859 66.0217C98.2947 66.4233 98.3491 66.8627 98.3491 67.3397V67.8606H93.2779V66.9129H97.188V66.825C97.1713 66.5238 97.1085 66.2309 96.9997 65.9463C96.8951 65.6618 96.7277 65.4275 96.4976 65.2434C96.2675 65.0593 95.9537 64.9673 95.5562 64.9673C95.2926 64.9673 95.0499 65.0237 94.8281 65.1367C94.6064 65.2455 94.416 65.4087 94.257 65.6263C94.098 65.8438 93.9746 66.1095 93.8867 66.4233C93.7988 66.7372 93.7549 67.0991 93.7549 67.5091V67.7727C93.7549 68.0949 93.7988 68.3983 93.8867 68.6828C93.9787 68.9631 94.1105 69.21 94.2821 69.4234C94.4578 69.6368 94.6691 69.8041 94.916 69.9255C95.167 70.0468 95.4516 70.1075 95.7696 70.1075C96.1796 70.1075 96.5269 70.0238 96.8114 69.8564C97.0959 69.6891 97.3449 69.4652 97.5583 69.1849L98.2612 69.7435C98.1148 69.9652 97.9286 70.1765 97.7026 70.3774C97.4767 70.5782 97.1985 70.7414 96.8679 70.8669C96.5415 70.9924 96.1545 71.0552 95.7068 71.0552ZM106.914 61.7413V70.9297H105.753V63.1911L103.412 64.0446V62.9965L106.732 61.7413H106.914Z" fill="#3C4043"/>
<path d="M237.197 68.2623V61.7915H238.402V68.2623C238.402 68.8648 238.279 69.3732 238.032 69.7874C237.785 70.2016 237.444 70.5175 237.009 70.7351C236.578 70.9485 236.082 71.0552 235.521 71.0552C234.961 71.0552 234.463 70.959 234.028 70.7665C233.593 70.574 233.252 70.2811 233.005 69.8878C232.758 69.4945 232.634 68.9987 232.634 68.4004H233.846C233.846 68.7853 233.917 69.1012 234.059 69.3481C234.201 69.5949 234.398 69.777 234.649 69.8941C234.904 70.0113 235.195 70.0698 235.521 70.0698C235.839 70.0698 236.124 70.0029 236.375 69.869C236.63 69.7309 236.831 69.528 236.978 69.2602C237.124 68.9882 237.197 68.6556 237.197 68.2623ZM244.599 69.3606V64.1388H245.766V70.9297H244.655L244.599 69.3606ZM244.819 67.9296L245.302 67.9171C245.302 68.369 245.254 68.7874 245.158 69.1723C245.066 69.5531 244.915 69.8836 244.706 70.164C244.496 70.4443 244.222 70.664 243.884 70.823C243.545 70.9778 243.132 71.0552 242.647 71.0552C242.317 71.0552 242.013 71.0071 241.737 70.9109C241.465 70.8146 241.231 70.6661 241.034 70.4652C240.837 70.2644 240.685 70.0029 240.576 69.6807C240.471 69.3585 240.419 68.9715 240.419 68.5196V64.1388H241.58V68.5322C241.58 68.8376 241.614 69.0907 241.681 69.2916C241.752 69.4882 241.846 69.6451 241.963 69.7623C242.084 69.8753 242.218 69.9548 242.365 70.0008C242.515 70.0468 242.67 70.0698 242.829 70.0698C243.323 70.0698 243.714 69.9757 244.003 69.7874C244.291 69.5949 244.499 69.3376 244.624 69.0154C244.754 68.6891 244.819 68.3271 244.819 67.9296ZM248.963 61.2894V70.9297H247.796V61.2894H248.963ZM252.9 70.2267L254.79 64.1388H256.032L253.308 71.9778C253.246 72.1452 253.162 72.3251 253.057 72.5176C252.957 72.7142 252.827 72.9004 252.668 73.0762C252.509 73.2519 252.317 73.3942 252.091 73.5029C251.869 73.6159 251.603 73.6724 251.294 73.6724C251.202 73.6724 251.084 73.6599 250.942 73.6348C250.8 73.6096 250.699 73.5887 250.641 73.572L250.635 72.6306C250.668 72.6347 250.72 72.6389 250.792 72.6431C250.867 72.6515 250.919 72.6557 250.948 72.6557C251.212 72.6557 251.436 72.6201 251.62 72.549C251.804 72.482 251.959 72.3669 252.084 72.2038C252.214 72.0448 252.325 71.8251 252.417 71.5448L252.9 70.2267ZM251.513 64.1388L253.277 69.4108L253.578 70.6347L252.743 71.0615L250.246 64.1388H251.513ZM264.29 61.7413V70.9297H263.129V63.1911L260.787 64.0446V62.9965L264.108 61.7413H264.29ZM269.338 66.5802L268.409 66.3418L268.867 61.7915H273.555V62.8647H269.852L269.576 65.3501C269.744 65.2539 269.955 65.1639 270.21 65.0802C270.47 64.9965 270.767 64.9547 271.101 64.9547C271.524 64.9547 271.903 65.0279 272.237 65.1744C272.572 65.3166 272.857 65.5217 273.091 65.7894C273.33 66.0572 273.512 66.3794 273.637 66.756C273.763 67.1326 273.825 67.5531 273.825 68.0175C273.825 68.4568 273.765 68.8606 273.643 69.2288C273.526 69.597 273.348 69.9192 273.11 70.1954C272.871 70.4673 272.57 70.6786 272.206 70.8293C271.846 70.9799 271.422 71.0552 270.932 71.0552C270.564 71.0552 270.214 71.005 269.884 70.9046C269.557 70.8 269.265 70.6431 269.005 70.4339C268.75 70.2205 268.541 69.9569 268.378 69.6431C268.219 69.3251 268.118 68.9527 268.076 68.5259H269.181C269.231 68.869 269.332 69.1577 269.482 69.392C269.633 69.6263 269.829 69.8041 270.072 69.9255C270.319 70.0426 270.606 70.1012 270.932 70.1012C271.208 70.1012 271.453 70.0531 271.666 69.9569C271.88 69.8606 272.06 69.7226 272.206 69.5426C272.353 69.3627 272.463 69.1451 272.539 68.8899C272.618 68.6347 272.658 68.3481 272.658 68.0301C272.658 67.7414 272.618 67.4736 272.539 67.2267C272.459 66.9798 272.34 66.7644 272.181 66.5802C272.026 66.3961 271.836 66.2539 271.61 66.1535C271.384 66.0489 271.124 65.9966 270.832 65.9966C270.442 65.9966 270.147 66.0489 269.947 66.1535C269.75 66.2581 269.547 66.4003 269.338 66.5802Z" fill="#3C4043"/>
<rect x="177.657" y="48.2052" width="151.491" height="35.8069" rx="5.04969" stroke="#DADCE0" stroke-width="0.918125"/>
<line x1="-4.01325e-08" y1="100.537" x2="344.297" y2="100.537" stroke="white" stroke-width="0.918125"/>
<path d="M315.458 116.976L319.663 121.19L315.458 125.405L316.753 126.699L322.262 121.19L316.753 115.682L315.458 116.976Z" fill="#5F6368"/>
<rect x="308.031" y="110.631" width="21.1169" height="21.1169" rx="3.21344" stroke="white" stroke-width="0.918125"/>
<path d="M281.323 125.407L277.118 121.192L281.323 116.978L280.028 115.684L274.52 121.192L280.028 126.701L281.323 125.407Z" fill="#5F6368"/>
<rect x="288.75" y="131.752" width="21.1169" height="21.1169" rx="3.21344" transform="rotate(-180 288.75 131.752)" stroke="white" stroke-width="0.918125"/>
<rect width="344.297" height="70.6956" transform="translate(0 384.695)" fill="white"/>
<path d="M17.2216 412.733L14.8566 413.568L15.2165 414.828L17.0288 414.314V421.73H18.507V412.733H17.2216ZM20.0081 421.73H25.9337V420.304H22.2061L24.237 418.273C25.0982 417.399 25.7666 416.46 25.7666 415.342C25.7666 413.555 24.3656 412.566 22.8874 412.566C21.692 412.566 20.5609 413.157 19.9824 414.391L21.2292 415.124C21.5763 414.404 22.1547 414.005 22.9002 414.005C23.6715 414.005 24.2884 414.494 24.2884 415.394C24.2884 416.075 23.7871 416.73 23.1445 417.373L20.0081 420.574V421.73ZM33.5992 418.736H32.5709V416.396H31.0799V418.736H28.2649L31.3627 412.733H29.7559L26.6582 418.736V420.111H31.0799V421.73H32.5709V420.111H33.5992V418.736ZM39.4564 417.052C40.0733 416.653 40.4847 416.011 40.4847 415.149C40.4847 413.414 39.1222 412.566 37.6311 412.566C36.1272 412.566 34.7776 413.414 34.7776 415.149C34.7776 416.011 35.1889 416.653 35.793 417.052C34.9704 417.514 34.4691 418.299 34.4691 419.237C34.4691 420.908 35.7545 421.898 37.6311 421.898C39.5078 421.898 40.7803 420.908 40.7803 419.237C40.7803 418.286 40.2919 417.514 39.4564 417.052ZM37.6311 413.967C38.3766 413.967 39.0065 414.378 39.0065 415.214C39.0065 416.011 38.3766 416.46 37.6311 416.46C36.8728 416.46 36.2558 416.011 36.2558 415.214C36.2558 414.378 36.8728 413.967 37.6311 413.967ZM37.6311 420.497C36.6542 420.497 35.9473 420.008 35.9473 419.095C35.9473 418.17 36.6542 417.694 37.6311 417.694C38.5952 417.694 39.3021 418.17 39.3021 419.095C39.3021 420.008 38.5952 420.497 37.6311 420.497ZM50.7416 421.73H52.3612L50.3175 418.234C51.3715 417.81 52.1041 416.782 52.1041 415.625C52.1041 414.018 50.8188 412.733 49.212 412.733H45.613V421.73H47.0912V418.453H48.8393L50.7416 421.73ZM47.0912 414.121H49.212C49.9961 414.121 50.626 414.777 50.626 415.625C50.626 416.46 49.9961 417.129 49.212 417.129H47.0912V414.121ZM54.2974 419.108H59.4131C59.4389 418.928 59.4646 418.723 59.4646 418.53C59.4646 416.679 58.1535 415.136 56.2383 415.136C54.2202 415.136 52.8449 416.615 52.8449 418.517C52.8449 420.445 54.2202 421.898 56.3411 421.898C57.6008 421.898 58.5648 421.371 59.1561 420.497L58.0121 419.828C57.7036 420.278 57.1252 420.625 56.354 420.625C55.3257 420.625 54.5159 420.111 54.2974 419.108ZM54.2845 417.977C54.4773 417.013 55.1843 416.396 56.2254 416.396C57.0609 416.396 57.8707 416.872 58.0635 417.977H54.2845ZM61.8196 417.077C61.8196 416.615 62.2566 416.396 62.7579 416.396C63.2849 416.396 63.7348 416.628 63.9661 417.129L65.1358 416.473C64.6859 415.625 63.8119 415.136 62.7579 415.136C61.4468 415.136 60.4056 415.895 60.4056 417.103C60.4056 419.404 63.8633 418.761 63.8633 419.905C63.8633 420.419 63.3877 420.625 62.7707 420.625C62.0638 420.625 61.5496 420.278 61.344 419.7L60.1486 420.394C60.5599 421.319 61.4854 421.898 62.7707 421.898C64.1589 421.898 65.2772 421.203 65.2772 419.918C65.2772 417.54 61.8196 418.247 61.8196 417.077ZM70.8916 415.304V418.748C70.8916 420.059 70.1718 420.599 69.2592 420.599C68.3852 420.599 67.8196 420.085 67.8196 419.108V415.304H66.4314V419.25C66.4314 420.921 67.4597 421.898 68.8993 421.898C69.7734 421.898 70.4675 421.576 70.8916 420.908V421.73H72.2798V415.304H70.8916ZM74.0409 421.73H75.4291V412.347H74.0409V421.73ZM80.7648 416.64V415.304H79.1709V413.504L77.7827 413.915V415.304H76.6002V416.64H77.7827V419.725C77.7827 421.396 78.6311 421.988 80.7648 421.73V420.484C79.7108 420.535 79.1709 420.548 79.1709 419.725V416.64H80.7648ZM83.1699 417.077C83.1699 416.615 83.6069 416.396 84.1082 416.396C84.6352 416.396 85.0851 416.628 85.3165 417.129L86.4862 416.473C86.0363 415.625 85.1622 415.136 84.1082 415.136C82.7972 415.136 81.756 415.895 81.756 417.103C81.756 419.404 85.2137 418.761 85.2137 419.905C85.2137 420.419 84.7381 420.625 84.1211 420.625C83.4141 420.625 82.9 420.278 82.6943 419.7L81.4989 420.394C81.9102 421.319 82.8357 421.898 84.1211 421.898C85.5093 421.898 86.6276 421.203 86.6276 419.918C86.6276 417.54 83.1699 418.247 83.1699 417.077Z" fill="#3C4043"/>
<rect x="256.157" y="399.383" width="73.45" height="33.0525" rx="3.6725" fill="#366CA5"/>
<path d="M283.099 411.85H280.07V419.562H283.099C285.226 419.562 286.79 417.855 286.79 415.706C286.79 413.547 285.226 411.85 283.099 411.85ZM283.099 418.351H281.337V413.062H283.099C284.565 413.062 285.567 414.175 285.567 415.706C285.567 417.227 284.565 418.351 283.099 418.351ZM290.468 419.706C292.088 419.706 293.377 418.439 293.377 416.808C293.377 415.167 292.088 413.911 290.468 413.911C288.86 413.911 287.56 415.167 287.56 416.808C287.56 418.439 288.86 419.706 290.468 419.706ZM290.468 418.549C289.499 418.549 288.75 417.811 288.75 416.808C288.75 415.806 289.499 415.067 290.468 415.067C291.438 415.067 292.187 415.806 292.187 416.808C292.187 417.811 291.438 418.549 290.468 418.549ZM297.351 413.911C296.601 413.911 296.006 414.186 295.643 414.759V414.054H294.453V419.562H295.643V416.61C295.643 415.486 296.26 415.023 297.042 415.023C297.791 415.023 298.276 415.464 298.276 416.301V419.562H299.466V416.18C299.466 414.748 298.585 413.911 297.351 413.911ZM301.684 417.315H306.069C306.091 417.161 306.113 416.984 306.113 416.819C306.113 415.233 304.989 413.911 303.347 413.911C301.618 413.911 300.439 415.178 300.439 416.808C300.439 418.461 301.618 419.706 303.435 419.706C304.515 419.706 305.342 419.254 305.848 418.505L304.868 417.932C304.603 418.318 304.108 418.615 303.446 418.615C302.565 418.615 301.871 418.174 301.684 417.315ZM301.673 416.345C301.838 415.519 302.444 414.99 303.336 414.99C304.052 414.99 304.747 415.398 304.912 416.345H301.673Z" fill="white"/>
<path d="M202.642 419.706C204.063 419.706 205.319 418.979 205.958 417.855L204.856 417.227C204.46 417.987 203.611 418.472 202.642 418.472C200.978 418.472 199.876 417.293 199.876 415.706C199.876 414.12 200.978 412.941 202.642 412.941C203.611 412.941 204.449 413.426 204.856 414.186L205.958 413.547C205.308 412.423 204.052 411.707 202.642 411.707C200.295 411.707 198.609 413.47 198.609 415.706C198.609 417.943 200.295 419.706 202.642 419.706ZM206.987 419.562H208.177V411.52H206.987V419.562ZM210.495 417.315H214.88C214.902 417.161 214.924 416.984 214.924 416.819C214.924 415.233 213.801 413.911 212.159 413.911C210.429 413.911 209.25 415.178 209.25 416.808C209.25 418.461 210.429 419.706 212.247 419.706C213.327 419.706 214.153 419.254 214.66 418.505L213.679 417.932C213.415 418.318 212.919 418.615 212.258 418.615C211.377 418.615 210.683 418.174 210.495 417.315ZM210.484 416.345C210.65 415.519 211.256 414.99 212.148 414.99C212.864 414.99 213.558 415.398 213.723 416.345H210.484ZM220.302 414.054V414.836C219.883 414.263 219.233 413.911 218.374 413.911C216.876 413.911 215.631 415.167 215.631 416.808C215.631 418.439 216.876 419.706 218.374 419.706C219.233 419.706 219.883 419.353 220.302 418.769V419.562H221.492V414.054H220.302ZM218.561 418.571C217.57 418.571 216.82 417.833 216.82 416.808C216.82 415.783 217.57 415.045 218.561 415.045C219.553 415.045 220.302 415.783 220.302 416.808C220.302 417.833 219.553 418.571 218.561 418.571ZM224.069 414.979V414.054H222.879V419.562H224.069V416.786C224.069 415.552 224.983 415.189 225.765 415.244V413.955C225.071 413.955 224.399 414.23 224.069 414.979Z" fill="#5F6368"/>
<rect x="175.821" y="399.842" width="72.5319" height="32.1344" rx="3.21344" stroke="#DADCE0" stroke-width="0.918125"/>
</g>
<defs>
<clipPath id="clip0_50_11420">
<path d="M0 7.345C0 3.28846 3.28847 0 7.345 0H336.952C341.009 0 344.297 3.28847 344.297 7.345V455.39H0V7.345Z" fill="white"/>
</clipPath>
</defs>
</svg>
