<svg width="230" height="473" viewBox="0 0 230 473" fill="none" xmlns="http://www.w3.org/2000/svg">
<g clip-path="url(#clip0_5056_14041)">
<path fill-rule="evenodd" clip-rule="evenodd" d="M27.8483 0.603516C12.4699 0.603516 0.0032537 13.0702 0.0032537 28.4486V86.0878H-0.553647C-1.78392 86.0878 -2.78125 87.0851 -2.78125 88.3154V122.286C-2.78125 123.517 -1.78392 124.514 -0.553647 124.514H0.0032537V131.475H-0.553647C-1.78392 131.475 -2.78125 132.473 -2.78125 133.703V166.56C-2.78125 167.79 -1.78392 168.788 -0.553647 168.788H0.0032537V445.01C0.0032537 460.389 12.4699 472.855 27.8483 472.855H202.158C217.537 472.855 230.003 460.389 230.003 445.01V149.018C231.695 149.018 233.066 147.646 233.066 145.955V108.085C233.066 106.394 231.695 105.022 230.003 105.022V28.4486C230.003 13.0702 217.537 0.603516 202.158 0.603516H27.8483ZM28.4052 10.6277H54.0226V13.4122C54.0226 19.5636 59.0093 24.5502 65.1606 24.5502H165.403C171.554 24.5502 176.541 19.5636 176.541 13.4122V10.6277H201.601C211.443 10.6277 219.422 18.6064 219.422 28.4486V445.01C219.422 454.853 211.443 462.831 201.601 462.831H28.4052C18.563 462.831 10.5844 454.853 10.5844 445.01V28.4486C10.5844 18.6064 18.563 10.6277 28.4052 10.6277Z" fill="#303030"/>
<rect opacity="0.4" x="93.5625" y="10.627" width="47.8935" height="4.45521" rx="2.2276" fill="#333333"/>
<rect opacity="0.5" x="149.25" y="7.84375" width="10.0242" height="10.0242" rx="5.01211" fill="#313131"/>
<rect opacity="0.5" x="151.477" y="10.0703" width="5.56901" height="5.56901" rx="2.7845" fill="white"/>
<rect opacity="0.5" x="66.8281" y="10.627" width="4.45521" height="4.45521" rx="2.2276" fill="#333333"/>
<line x1="11" y1="171.5" x2="219" y2="171.5" stroke="black"/>
</g>
<defs>
<clipPath id="clip0_5056_14041">
<rect width="230" height="473" fill="white"/>
</clipPath>
</defs>
</svg>
