<svg width="344" height="84" viewBox="0 0 344 84" fill="none" xmlns="http://www.w3.org/2000/svg">
<g clip-path="url(#clip0_56_12221)">
<g filter="url(#filter0_d_56_12221)">
<rect width="344.297" height="70.6956" transform="translate(0 13)" fill="white"/>
<g filter="url(#filter1_d_56_12221)">
<path d="M196.479 27.692C196.479 25.6638 198.123 24.0195 200.151 24.0195H325.566C327.594 24.0195 329.239 25.6638 329.239 27.692V57.072C329.239 59.1003 327.594 60.7445 325.566 60.7445H200.151C198.123 60.7445 196.479 59.1003 196.479 57.072V27.692Z" fill="#366CA5"/>
<path d="M229.229 46.0251C230.837 46.0251 231.961 45.1657 231.961 43.7555C231.961 42.224 230.672 41.8274 229.394 41.4197C228.27 41.0672 227.841 40.8138 227.841 40.2188C227.841 39.6349 228.314 39.2603 229.053 39.2603C229.912 39.2603 230.397 39.7231 230.672 40.34L231.741 39.7231C231.256 38.6984 230.32 38.0264 229.053 38.0264C227.753 38.0264 226.574 38.8306 226.574 40.2519C226.574 41.7062 227.742 42.1469 228.942 42.5105C230.088 42.863 230.694 43.0944 230.694 43.7775C230.694 44.3394 230.265 44.7911 229.262 44.7911C228.215 44.7911 227.62 44.2733 227.345 43.491L226.254 44.1301C226.662 45.2759 227.708 46.0251 229.229 46.0251ZM235.91 46.0251C236.99 46.0251 237.926 45.4632 238.389 44.5928L237.364 44.0089C237.1 44.5157 236.56 44.8572 235.899 44.8572C234.93 44.8572 234.191 44.119 234.191 43.1275C234.191 42.1359 234.93 41.3977 235.899 41.3977C236.56 41.3977 237.1 41.7282 237.342 42.2461L238.367 41.6511C237.926 40.7917 236.99 40.2299 235.91 40.2299C234.246 40.2299 233.001 41.4859 233.001 43.1275C233.001 44.7581 234.246 46.0251 235.91 46.0251ZM242.33 40.2299C241.581 40.2299 240.986 40.5053 240.623 41.0782V38.1696H239.433V45.8818H240.623V42.9291C240.623 41.8054 241.24 41.3426 242.022 41.3426C242.771 41.3426 243.256 41.7833 243.256 42.6207V45.8818H244.446V42.4995C244.446 41.0672 243.564 40.2299 242.33 40.2299ZM246.847 43.6343H251.232C251.254 43.48 251.276 43.3037 251.276 43.1385C251.276 41.552 250.152 40.2299 248.511 40.2299C246.781 40.2299 245.602 41.4969 245.602 43.1275C245.602 44.7801 246.781 46.0251 248.599 46.0251C249.678 46.0251 250.505 45.5733 251.012 44.8242L250.031 44.2512C249.767 44.6369 249.271 44.9343 248.61 44.9343C247.728 44.9343 247.034 44.4936 246.847 43.6343ZM246.836 42.6647C247.001 41.8384 247.607 41.3096 248.5 41.3096C249.216 41.3096 249.91 41.7172 250.075 42.6647H246.836ZM256.837 38.1696V41.1553C256.419 40.5824 255.769 40.2299 254.909 40.2299C253.411 40.2299 252.166 41.4859 252.166 43.1275C252.166 44.7581 253.411 46.0251 254.909 46.0251C255.769 46.0251 256.419 45.6725 256.837 45.0886V45.8818H258.027V38.1696H256.837ZM255.097 44.8903C254.105 44.8903 253.356 44.1521 253.356 43.1275C253.356 42.1028 254.105 41.3647 255.097 41.3647C256.088 41.3647 256.837 42.1028 256.837 43.1275C256.837 44.1521 256.088 44.8903 255.097 44.8903ZM263.311 40.3731V43.3258C263.311 44.4496 262.694 44.9123 261.911 44.9123C261.162 44.9123 260.677 44.4716 260.677 43.6343V40.3731H259.488V43.7555C259.488 45.1877 260.369 46.0251 261.603 46.0251C262.352 46.0251 262.947 45.7496 263.311 45.1767V45.8818H264.501V40.3731H263.311ZM266.076 45.8818H267.265V37.8391H266.076V45.8818ZM269.767 43.6343H274.152C274.174 43.48 274.196 43.3037 274.196 43.1385C274.196 41.552 273.072 40.2299 271.431 40.2299C269.701 40.2299 268.522 41.4969 268.522 43.1275C268.522 44.7801 269.701 46.0251 271.519 46.0251C272.599 46.0251 273.425 45.5733 273.932 44.8242L272.951 44.2512C272.687 44.6369 272.191 44.9343 271.53 44.9343C270.649 44.9343 269.954 44.4936 269.767 43.6343ZM269.756 42.6647C269.921 41.8384 270.527 41.3096 271.42 41.3096C272.136 41.3096 272.83 41.7172 272.995 42.6647H269.756ZM283.455 38.1696H277.836V39.3815H280.017V45.8818H281.284V39.3815H283.455V38.1696ZM286.109 46.0251C287.728 46.0251 289.017 44.7581 289.017 43.1275C289.017 41.4859 287.728 40.2299 286.109 40.2299C284.5 40.2299 283.2 41.4859 283.2 43.1275C283.2 44.7581 284.5 46.0251 286.109 46.0251ZM286.109 44.8682C285.139 44.8682 284.39 44.1301 284.39 43.1275C284.39 42.1249 285.139 41.3867 286.109 41.3867C287.078 41.3867 287.827 42.1249 287.827 43.1275C287.827 44.1301 287.078 44.8682 286.109 44.8682ZM293.99 40.3731V43.3258C293.99 44.4496 293.373 44.9123 292.59 44.9123C291.841 44.9123 291.356 44.4716 291.356 43.6343V40.3731H290.167V43.7555C290.167 45.1877 291.048 46.0251 292.282 46.0251C293.031 46.0251 293.626 45.7496 293.99 45.1767V45.8818H295.18V40.3731H293.99ZM297.944 41.2986V40.3731H296.755V45.8818H297.944V43.1054C297.944 41.8715 298.859 41.5079 299.641 41.563V40.2739C298.947 40.2739 298.275 40.5494 297.944 41.2986Z" fill="white"/>
</g>
<path d="M17.554 57.1979C19.0303 57.1979 20.2092 56.3606 20.2092 54.719V49.3424H18.9422V54.719C18.9422 55.5122 18.4464 55.964 17.565 55.964C16.8599 55.964 16.4192 55.6995 16.1658 55.1487L15.0751 55.7877C15.5268 56.7242 16.4302 57.1979 17.554 57.1979ZM25.3153 51.5459V54.4986C25.3153 55.6224 24.6983 56.0851 23.9161 56.0851C23.1669 56.0851 22.6821 55.6444 22.6821 54.8071V51.5459H21.4922V54.9283C21.4922 56.3606 22.3736 57.1979 23.6076 57.1979C24.3568 57.1979 24.9517 56.9225 25.3153 56.3496V57.0547H26.5052V51.5459H25.3153ZM30.7942 51.4027C30.045 51.4027 29.4501 51.6781 29.0865 52.2511V51.5459H27.8966V57.0547H29.0865V54.102C29.0865 52.9782 29.7035 52.5155 30.4857 52.5155C31.2349 52.5155 31.7197 52.9562 31.7197 53.7935V57.0547H32.9096V53.6723C32.9096 52.24 32.0282 51.4027 30.7942 51.4027ZM38.4215 49.3424L36.3943 50.0586L36.7028 51.1383L38.2562 50.6976V57.0547H39.5233V49.3424H38.4215ZM43.8759 54.2783H49.4949V53.1325H43.8759V54.2783ZM55.8893 57.1979C57.3657 57.1979 58.5445 56.3606 58.5445 54.719V49.3424H57.2775V54.719C57.2775 55.5122 56.7817 55.964 55.9003 55.964C55.1952 55.964 54.7545 55.6995 54.5011 55.1487L53.4104 55.7877C53.8621 56.7242 54.7655 57.1979 55.8893 57.1979ZM63.6506 51.5459V54.4986C63.6506 55.6224 63.0337 56.0851 62.2514 56.0851C61.5022 56.0851 61.0175 55.6444 61.0175 54.8071V51.5459H59.8276V54.9283C59.8276 56.3606 60.709 57.1979 61.9429 57.1979C62.6921 57.1979 63.2871 56.9225 63.6506 56.3496V57.0547H64.8405V51.5459H63.6506ZM66.2319 57.0547H67.4218V49.0119H66.2319V57.0547ZM73.0341 49.3424L71.0069 50.0586L71.3154 51.1383L72.8688 50.6976V57.0547H74.1359V49.3424H73.0341ZM77.9928 52.2511H77.0232L77.1554 50.5323H80.2844V49.3424H75.9876L75.6901 53.485H77.9377C78.775 53.485 79.3479 53.9478 79.3479 54.719C79.3479 55.4902 78.775 55.964 77.9156 55.964C77.1114 55.964 76.5825 55.6004 76.3842 54.9173L75.2935 55.5453C75.7011 56.6581 76.7478 57.1979 77.9156 57.1979C79.3369 57.1979 80.6149 56.3385 80.6149 54.719C80.6149 53.1104 79.392 52.2511 77.9928 52.2511Z" fill="#366CA5"/>
<path d="M23.2005 37.6869C23.2005 35.5881 21.614 34.927 19.9944 34.3321V30.5311C20.7711 30.6798 21.3495 31.1425 21.6801 31.9688L22.9691 31.2417C22.3907 29.9196 21.2834 29.1924 19.9944 29.0272V27.5563H18.9532V29.0106C17.251 29.1759 15.8298 30.3162 15.8298 32.1672C15.8298 34.2164 17.3171 34.8775 18.9532 35.4724V39.4718C17.7303 39.3396 16.9536 38.7281 16.59 37.7365L15.2679 38.4967C15.8298 39.951 17.1519 40.8434 18.9532 40.9757V42.43H19.9944V40.9591C21.8453 40.7443 23.2005 39.5213 23.2005 37.6869ZM17.3502 32.1672C17.3502 31.2582 17.9947 30.6467 18.9532 30.5145V33.9355C17.8955 33.4893 17.3502 33.0431 17.3502 32.1672ZM19.9944 39.4387V35.8525C21.019 36.2822 21.6635 36.7284 21.6635 37.7035C21.6635 38.5959 21.0686 39.2735 19.9944 39.4387ZM27.3784 29.209L24.3376 30.2666L24.7177 31.5887L27.1801 30.8616V40.7773H28.7005V29.209H27.3784ZM30.6249 29.209V30.6633H36.2108L32.0296 40.7773H33.6327L37.8469 30.5806V29.209H30.6249ZM47.1881 32.8778C47.1881 30.5806 45.5355 28.9941 43.2053 28.9941C40.875 28.9941 39.2224 30.5806 39.2224 32.8778C39.2224 35.1749 40.875 36.7615 43.2053 36.7615C43.4036 36.7615 43.5854 36.7449 43.7671 36.7284L41.0238 40.7773H42.759L46.494 35.208H46.4774C46.9402 34.5635 47.1881 33.7867 47.1881 32.8778ZM40.7428 32.8778C40.7428 31.4235 41.7509 30.465 43.2053 30.465C44.6596 30.465 45.6677 31.407 45.6677 32.8778C45.6677 34.3486 44.6596 35.3072 43.2053 35.3072C41.7509 35.3072 40.7428 34.3486 40.7428 32.8778ZM52.1221 33.7206H50.4364L50.6347 30.6467H55.5761V29.209H49.2465L48.8168 35.208H52.089C53.4607 35.208 54.5019 35.9682 54.5019 37.3564C54.5019 38.7281 53.4607 39.4883 52.056 39.4883C50.8 39.4883 49.858 38.9099 49.544 37.7696L48.2384 38.5132C48.8003 40.1659 50.3538 40.9922 52.056 40.9922C54.1383 40.9922 56.0223 39.7031 56.0223 37.3564C56.0223 34.9932 54.1879 33.7206 52.1221 33.7206ZM65.0286 34.2991H62.153V31.44H60.7813V34.2991H57.9223V35.6707H60.7813V38.5463H62.153V35.6707H65.0286V34.2991Z" fill="#202124"/>
</g>
</g>
<defs>
<filter id="filter0_d_56_12221" x="-3.6725" y="7.49125" width="351.642" height="78.0408" filterUnits="userSpaceOnUse" color-interpolation-filters="sRGB">
<feFlood flood-opacity="0" result="BackgroundImageFix"/>
<feColorMatrix in="SourceAlpha" type="matrix" values="0 0 0 0 0 0 0 0 0 0 0 0 0 0 0 0 0 0 127 0" result="hardAlpha"/>
<feOffset dy="-1.83625"/>
<feGaussianBlur stdDeviation="1.83625"/>
<feColorMatrix type="matrix" values="0 0 0 0 0.235294 0 0 0 0 0.25098 0 0 0 0 0.262745 0 0 0 0.1 0"/>
<feBlend mode="normal" in2="BackgroundImageFix" result="effect1_dropShadow_56_12221"/>
<feBlend mode="normal" in="SourceGraphic" in2="effect1_dropShadow_56_12221" result="shape"/>
</filter>
<filter id="filter1_d_56_12221" x="194.642" y="23.1014" width="136.432" height="40.3976" filterUnits="userSpaceOnUse" color-interpolation-filters="sRGB">
<feFlood flood-opacity="0" result="BackgroundImageFix"/>
<feColorMatrix in="SourceAlpha" type="matrix" values="0 0 0 0 0 0 0 0 0 0 0 0 0 0 0 0 0 0 127 0" result="hardAlpha"/>
<feOffset dy="0.918125"/>
<feGaussianBlur stdDeviation="0.918125"/>
<feColorMatrix type="matrix" values="0 0 0 0 0.235294 0 0 0 0 0.25098 0 0 0 0 0.262745 0 0 0 0.3 0"/>
<feBlend mode="normal" in2="BackgroundImageFix" result="effect1_dropShadow_56_12221"/>
<feBlend mode="normal" in="SourceGraphic" in2="effect1_dropShadow_56_12221" result="shape"/>
</filter>
<clipPath id="clip0_56_12221">
<rect width="344" height="84" fill="white"/>
</clipPath>
</defs>
</svg>
