<svg width="256" height="71" viewBox="0 0 256 71" fill="none" xmlns="http://www.w3.org/2000/svg">
<g clip-path="url(#clip0_601_31382)">
<rect width="255.071" height="70.6351" fill="white"/>
<g clip-path="url(#clip1_601_31382)">
<path d="M17.6562 24.8562H29.4288V23.5481H17.6562V24.8562ZM17.6562 21.586H29.4288V20.278H17.6562V21.586ZM17.6562 17.0078V18.3159H29.4288V17.0078H17.6562Z" fill="#5F6368"/>
</g>
<path d="M44.6076 24.1972C45.917 24.1972 46.8235 23.483 46.8235 22.3567C46.8235 21.1206 45.7705 20.791 44.6534 20.4247C43.7561 20.1409 43.3074 19.9211 43.3074 19.326C43.3074 18.7399 43.7836 18.3737 44.4703 18.3737C45.2486 18.3737 45.6973 18.8132 45.9262 19.3626L46.6404 18.9505C46.2833 18.1448 45.5233 17.5496 44.4703 17.5496C43.399 17.5496 42.4559 18.2089 42.4559 19.3626C42.4559 20.5529 43.4448 20.8734 44.4703 21.203C45.4134 21.496 45.9811 21.7158 45.9811 22.375C45.9811 22.9519 45.5324 23.3639 44.626 23.3639C43.692 23.3639 43.1426 22.9061 42.9137 22.2011L42.1812 22.6223C42.52 23.5837 43.3898 24.1972 44.6076 24.1972ZM48.4153 22.1553H52.2518C52.2701 22.0362 52.2793 21.9172 52.2793 21.7982C52.2793 20.5163 51.3819 19.3809 49.9993 19.3809C48.5709 19.3809 47.6004 20.4339 47.6004 21.789C47.6004 23.1625 48.5801 24.1972 50.0543 24.1972C50.9699 24.1972 51.6658 23.7851 52.0687 23.1625L51.3911 22.7779C51.1622 23.1533 50.7044 23.4463 50.0726 23.4463C49.221 23.4463 48.5709 22.9794 48.4153 22.1553ZM49.9993 20.1317C50.6861 20.1317 51.3362 20.5529 51.4735 21.4594H48.4153C48.5435 20.6628 49.1386 20.1317 49.9993 20.1317ZM56.9768 19.4999V20.2874C56.6105 19.7288 56.0245 19.3809 55.2462 19.3809C53.9735 19.3809 52.9297 20.4339 52.9297 21.789C52.9297 23.1442 53.9735 24.1972 55.2462 24.1972C56.0245 24.1972 56.6105 23.8492 56.9768 23.2907V24.0781H57.7734V19.4999H56.9768ZM55.347 23.428C54.4313 23.428 53.7263 22.723 53.7263 21.789C53.7263 20.8551 54.4313 20.15 55.347 20.15C56.2717 20.15 56.9768 20.8551 56.9768 21.789C56.9768 22.723 56.2717 23.428 55.347 23.428ZM59.7769 20.2691V19.4999H58.9803V24.0781H59.7769V21.6517C59.7769 20.5712 60.5186 20.2233 61.2053 20.2508V19.4175C60.6285 19.4175 60.0699 19.6281 59.7769 20.2691ZM63.8861 24.1972C64.7835 24.1972 65.5618 23.721 65.9463 23.0068L65.2688 22.6131C65.0124 23.0892 64.5088 23.4097 63.8861 23.4097C62.9705 23.4097 62.2746 22.7047 62.2746 21.789C62.2746 20.8642 62.9705 20.1592 63.8861 20.1592C64.4996 20.1592 65.0124 20.4797 65.2413 20.9649L65.9097 20.5804C65.5618 19.857 64.7926 19.3809 63.8861 19.3809C62.5035 19.3809 61.478 20.4339 61.478 21.789C61.478 23.1442 62.5035 24.1972 63.8861 24.1972ZM69.0128 19.3809C68.3719 19.3809 67.8683 19.619 67.5295 20.1592V17.6686H66.7329V24.0781H67.5295V21.6517C67.5295 20.5712 68.1246 20.1409 68.8571 20.1409C69.5622 20.1409 69.9925 20.5621 69.9925 21.3129V24.0781H70.7891V21.2671C70.7891 20.0951 70.0841 19.3809 69.0128 19.3809ZM76.7175 19.3809C75.9392 19.3809 75.3532 19.7288 74.9869 20.2874V17.6686H74.1903V24.0781H74.9869V23.2907C75.3532 23.8492 75.9392 24.1972 76.7175 24.1972C77.9902 24.1972 79.0341 23.1442 79.0341 21.789C79.0341 20.4339 77.9902 19.3809 76.7175 19.3809ZM76.6168 23.428C75.692 23.428 74.9869 22.723 74.9869 21.789C74.9869 20.8551 75.692 20.15 76.6168 20.15C77.5324 20.15 78.2374 20.8551 78.2374 21.789C78.2374 22.723 77.5324 23.428 76.6168 23.428ZM83.0013 19.4999L81.6828 23.0892L80.1262 19.4999H79.2747L81.2708 24.0598L81.1884 24.2338C80.9503 24.8381 80.5657 25.2135 79.9523 25.1677V25.9094C80.8862 25.9735 81.6004 25.3875 81.985 24.362L83.8529 19.4999H83.0013ZM86.8072 24.0781H87.6038V17.394H86.8072V24.0781ZM90.9708 24.1972C92.3077 24.1972 93.3881 23.1442 93.3881 21.789C93.3881 20.4339 92.3077 19.3809 90.9708 19.3809C89.634 19.3809 88.5627 20.4339 88.5627 21.789C88.5627 23.1442 89.634 24.1972 90.9708 24.1972ZM90.9708 23.4189C90.0644 23.4189 89.3593 22.7138 89.3593 21.789C89.3593 20.8642 90.0644 20.1592 90.9708 20.1592C91.8865 20.1592 92.5915 20.8642 92.5915 21.789C92.5915 22.7138 91.8865 23.4189 90.9708 23.4189ZM96.479 24.1972C97.3763 24.1972 98.1546 23.721 98.5392 23.0068L97.8616 22.6131C97.6052 23.0892 97.1016 23.4097 96.479 23.4097C95.5634 23.4097 94.8675 22.7047 94.8675 21.789C94.8675 20.8642 95.5634 20.1592 96.479 20.1592C97.0925 20.1592 97.6052 20.4797 97.8341 20.9649L98.5026 20.5804C98.1546 19.857 97.3855 19.3809 96.479 19.3809C95.0964 19.3809 94.0709 20.4339 94.0709 21.789C94.0709 23.1442 95.0964 24.1972 96.479 24.1972ZM103.054 19.4999V20.2874C102.688 19.7288 102.102 19.3809 101.323 19.3809C100.051 19.3809 99.0067 20.4339 99.0067 21.789C99.0067 23.1442 100.051 24.1972 101.323 24.1972C102.102 24.1972 102.688 23.8492 103.054 23.2907V24.0781H103.85V19.4999H103.054ZM101.424 23.428C100.508 23.428 99.8033 22.723 99.8033 21.789C99.8033 20.8551 100.508 20.15 101.424 20.15C102.349 20.15 103.054 20.8551 103.054 21.789C103.054 22.723 102.349 23.428 101.424 23.428ZM107.548 20.2691V19.4999H106.33V18.218L105.534 18.4561V19.4999H104.627V20.2691H105.534V22.7504C105.534 23.895 106.174 24.2613 107.548 24.0781V23.3639C106.733 23.4006 106.33 23.4463 106.33 22.7504V20.2691H107.548ZM108.894 18.6667C109.187 18.6667 109.425 18.4286 109.425 18.1356C109.425 17.8426 109.187 17.5954 108.894 17.5954C108.592 17.5954 108.354 17.8426 108.354 18.1356C108.354 18.4286 108.592 18.6667 108.894 18.6667ZM108.491 24.0781H109.288V19.4999H108.491V24.0781ZM112.655 24.1972C113.992 24.1972 115.072 23.1442 115.072 21.789C115.072 20.4339 113.992 19.3809 112.655 19.3809C111.318 19.3809 110.247 20.4339 110.247 21.789C110.247 23.1442 111.318 24.1972 112.655 24.1972ZM112.655 23.4189C111.748 23.4189 111.043 22.7138 111.043 21.789C111.043 20.8642 111.748 20.1592 112.655 20.1592C113.57 20.1592 114.275 20.8642 114.275 21.789C114.275 22.7138 113.57 23.4189 112.655 23.4189ZM118.291 19.3809C117.65 19.3809 117.146 19.619 116.808 20.1592V19.4999H116.011V24.0781H116.808V21.6517C116.808 20.5712 117.403 20.1409 118.135 20.1409C118.84 20.1409 119.271 20.5621 119.271 21.3129V24.0781H120.067V21.2671C120.067 20.0951 119.362 19.3809 118.291 19.3809ZM125.62 24.1972C126.957 24.1972 128.038 23.1442 128.038 21.789C128.038 20.4339 126.957 19.3809 125.62 19.3809C124.283 19.3809 123.212 20.4339 123.212 21.789C123.212 23.1442 124.283 24.1972 125.62 24.1972ZM125.62 23.4189C124.714 23.4189 124.009 22.7138 124.009 21.789C124.009 20.8642 124.714 20.1592 125.62 20.1592C126.536 20.1592 127.241 20.8642 127.241 21.789C127.241 22.7138 126.536 23.4189 125.62 23.4189ZM129.773 20.2691V19.4999H128.977V24.0781H129.773V21.6517C129.773 20.5712 130.515 20.2233 131.202 20.2508V19.4175C130.625 19.4175 130.066 19.6281 129.773 20.2691ZM136.422 24.1972C137.319 24.1972 138.098 23.721 138.482 23.0068L137.805 22.6131C137.548 23.0892 137.045 23.4097 136.422 23.4097C135.506 23.4097 134.81 22.7047 134.81 21.789C134.81 20.8642 135.506 20.1592 136.422 20.1592C137.035 20.1592 137.548 20.4797 137.777 20.9649L138.446 20.5804C138.098 19.857 137.328 19.3809 136.422 19.3809C135.039 19.3809 134.014 20.4339 134.014 21.789C134.014 23.1442 135.039 24.1972 136.422 24.1972ZM141.358 24.1972C142.695 24.1972 143.775 23.1442 143.775 21.789C143.775 20.4339 142.695 19.3809 141.358 19.3809C140.021 19.3809 138.95 20.4339 138.95 21.789C138.95 23.1442 140.021 24.1972 141.358 24.1972ZM141.358 23.4189C140.451 23.4189 139.746 22.7138 139.746 21.789C139.746 20.8642 140.451 20.1592 141.358 20.1592C142.274 20.1592 142.979 20.8642 142.979 21.789C142.979 22.7138 142.274 23.4189 141.358 23.4189ZM149.659 19.3809C149.064 19.3809 148.542 19.6373 148.221 20.1592C147.956 19.6647 147.498 19.3809 146.875 19.3809C146.317 19.3809 145.84 19.6006 145.511 20.1134V19.4999H144.714V24.0781H145.511V21.5326C145.511 20.5438 146.069 20.1409 146.683 20.1409C147.278 20.1409 147.653 20.5346 147.653 21.258V24.0781H148.45V21.5326C148.45 20.5438 148.935 20.1409 149.576 20.1409C150.181 20.1409 150.584 20.5346 150.584 21.258V24.0781H151.38V21.2305C151.38 20.0859 150.675 19.3809 149.659 19.3809ZM157.429 19.3809C156.834 19.3809 156.312 19.6373 155.992 20.1592C155.726 19.6647 155.268 19.3809 154.646 19.3809C154.087 19.3809 153.611 19.6006 153.281 20.1134V19.4999H152.485V24.0781H153.281V21.5326C153.281 20.5438 153.84 20.1409 154.453 20.1409C155.048 20.1409 155.424 20.5346 155.424 21.258V24.0781H156.22V21.5326C156.22 20.5438 156.706 20.1409 157.347 20.1409C157.951 20.1409 158.354 20.5346 158.354 21.258V24.0781H159.151V21.2305C159.151 20.0859 158.445 19.3809 157.429 19.3809ZM163.414 19.4999V21.9264C163.414 23.0068 162.819 23.4372 162.086 23.4372C161.381 23.4372 160.951 23.016 160.951 22.2652V19.4999H160.154V22.3109C160.154 23.483 160.859 24.1972 161.931 24.1972C162.572 24.1972 163.075 23.9591 163.414 23.4189V24.0781H164.211V19.4999H163.414ZM167.914 20.2691V19.4999H166.696V18.218L165.9 18.4561V19.4999H164.993V20.2691H165.9V22.7504C165.9 23.895 166.541 24.2613 167.914 24.0781V23.3639C167.099 23.4006 166.696 23.4463 166.696 22.7504V20.2691H167.914ZM169.183 22.1553H173.02C173.038 22.0362 173.047 21.9172 173.047 21.7982C173.047 20.5163 172.15 19.3809 170.767 19.3809C169.339 19.3809 168.368 20.4339 168.368 21.789C168.368 23.1625 169.348 24.1972 170.822 24.1972C171.738 24.1972 172.434 23.7851 172.837 23.1625L172.159 22.7779C171.93 23.1533 171.472 23.4463 170.84 23.4463C169.989 23.4463 169.339 22.9794 169.183 22.1553ZM170.767 20.1317C171.454 20.1317 172.104 20.5529 172.241 21.4594H169.183C169.311 20.6628 169.907 20.1317 170.767 20.1317Z" fill="#5F6368"/>
<g clip-path="url(#clip2_601_31382)">
<path d="M230.865 17.6591H234.789V18.9671H230.865V17.6591ZM230.865 20.2752H234.789V21.5833H230.865V20.2752ZM230.865 22.8913H234.789V24.1994H230.865V22.8913ZM228.249 17.6591H229.557V18.9671H228.249V17.6591ZM228.249 20.2752H229.557V21.5833H228.249V20.2752ZM228.249 22.8913H229.557V24.1994H228.249V22.8913ZM236.817 15.043H226.221C225.894 15.043 225.633 15.3046 225.633 15.6316V26.2269C225.633 26.4885 225.894 26.8155 226.221 26.8155H236.817C237.078 26.8155 237.405 26.4885 237.405 26.2269V15.6316C237.405 15.3046 237.078 15.043 236.817 15.043V15.043ZM236.097 25.5074H226.941V16.351H236.097V25.5074Z" fill="#5F6368"/>
</g>
<rect x="212.562" y="11.7734" width="0.654028" height="18.3128" fill="#DDDDDD"/>
<rect x="5.55358" y="5.56139" width="243.953" height="30.7393" rx="4.90521" stroke="#DADCE0" stroke-width="0.654028"/>
<rect x="5.23438" y="41.8594" width="70.6351" height="23.545" rx="5.23223" fill="#E7F0FE"/>
<path d="M17.4978 52.6491H16.5168V53.6301H17.4978V52.6491ZM19.4599 52.6491H18.4789V53.6301H19.4599V52.6491ZM21.422 52.6491H20.4409V53.6301H21.422V52.6491ZM22.403 49.2154H21.9125V48.2344H20.9315V49.2154H17.0073V48.2344H16.0263V49.2154H15.5357C14.9913 49.2154 14.5547 49.6569 14.5547 50.1965V57.0638C14.5547 57.3239 14.658 57.5735 14.842 57.7575C15.026 57.9414 15.2755 58.0448 15.5357 58.0448H22.403C22.6632 58.0448 22.9127 57.9414 23.0967 57.7575C23.2807 57.5735 23.3841 57.3239 23.3841 57.0638V50.1965C23.3841 49.9363 23.2807 49.6867 23.0967 49.5028C22.9127 49.3188 22.6632 49.2154 22.403 49.2154ZM22.403 57.0638H15.5357V51.668H22.403V57.0638Z" fill="#366CA5"/>
<path d="M32.1265 56.8481C33.1782 56.8481 34.018 56.2516 34.018 55.0822V51.2523H33.1154V55.0822C33.1154 55.6473 32.7622 55.9691 32.1344 55.9691C31.6321 55.9691 31.3181 55.7807 31.1376 55.3883L30.3606 55.8435C30.6824 56.5106 31.326 56.8481 32.1265 56.8481ZM38.0724 52.8219V53.3792C37.7741 52.971 37.3111 52.7199 36.6989 52.7199C35.6315 52.7199 34.7447 53.6146 34.7447 54.784C34.7447 55.9456 35.6315 56.8481 36.6989 56.8481C37.3111 56.8481 37.7741 56.597 38.0724 56.181V56.7461H38.92V52.8219H38.0724ZM36.8323 56.0397C36.126 56.0397 35.5923 55.5139 35.5923 54.784C35.5923 54.0541 36.126 53.5283 36.8323 53.5283C37.5387 53.5283 38.0724 54.0541 38.0724 54.784C38.0724 55.5139 37.5387 56.0397 36.8323 56.0397ZM41.9721 52.7199C41.4384 52.7199 41.0146 52.9161 40.7556 53.3242V52.8219H39.908V56.7461H40.7556V54.6427C40.7556 53.8422 41.1951 53.5126 41.7523 53.5126C42.286 53.5126 42.6313 53.8265 42.6313 54.423V56.7461H43.4789V54.3367C43.4789 53.3164 42.8511 52.7199 41.9721 52.7199ZM46.1026 56.7461H49.7206V55.8749H47.4446L48.6847 54.6349C49.2105 54.1012 49.6186 53.5283 49.6186 52.8455C49.6186 51.7545 48.7632 51.1502 47.8606 51.1502C47.1307 51.1502 46.44 51.5112 46.0869 52.2647L46.8482 52.712C47.0601 52.2725 47.4132 52.0292 47.8684 52.0292C48.3393 52.0292 48.7161 52.3275 48.7161 52.8769C48.7161 53.2928 48.41 53.6931 48.0176 54.0855L46.1026 56.0397V56.7461ZM51.4828 51.2523L50.0388 51.7624L50.2585 52.5315L51.3651 52.2176V56.7461H52.2677V51.2523H51.4828ZM55.3683 54.7683H59.371V53.9521H55.3683V54.7683ZM62.8901 56.8403C63.2119 56.8403 63.4787 56.5734 63.4787 56.2516C63.4787 55.922 63.2119 55.663 62.8901 55.663C62.5605 55.663 62.3015 55.922 62.3015 56.2516C62.3015 56.5734 62.5605 56.8403 62.8901 56.8403ZM64.8905 56.8403C65.2123 56.8403 65.4791 56.5734 65.4791 56.2516C65.4791 55.922 65.2123 55.663 64.8905 55.663C64.5609 55.663 64.3019 55.922 64.3019 56.2516C64.3019 56.5734 64.5609 56.8403 64.8905 56.8403ZM66.8909 56.8403C67.2127 56.8403 67.4795 56.5734 67.4795 56.2516C67.4795 55.922 67.2127 55.663 66.8909 55.663C66.5613 55.663 66.3023 55.922 66.3023 56.2516C66.3023 56.5734 66.5613 56.8403 66.8909 56.8403Z" fill="#202124"/>
<rect x="79.7891" y="41.8594" width="73.2512" height="23.545" rx="5.23223" fill="#E7F0FE"/>
<path d="M94.3233 55.2392C94.3233 54.1954 93.5228 53.8971 92.7772 53.6146V52.0606C93.0989 52.1313 93.3344 52.3275 93.4757 52.6807L94.237 52.2411C93.9544 51.5976 93.4129 51.2523 92.7772 51.1659V50.4674H92.267V51.1581C91.4508 51.2366 90.7366 51.7702 90.7366 52.6963C90.7366 53.7009 91.5057 54.0384 92.267 54.321V55.9534C91.7569 55.8985 91.4351 55.6238 91.2624 55.1843L90.4855 55.6316C90.7601 56.3458 91.3959 56.7853 92.267 56.8403V57.5309H92.7772V56.8324C93.6719 56.7225 94.3233 56.1496 94.3233 55.2392ZM91.6392 52.6963C91.6392 52.3432 91.8825 52.1077 92.267 52.0449V53.4105C91.8275 53.2065 91.6392 53.026 91.6392 52.6963ZM92.7772 55.9456V54.5172C93.1774 54.6977 93.4207 54.8782 93.4207 55.2471C93.4207 55.5845 93.2088 55.8592 92.7772 55.9456ZM96.1035 51.2523L94.6594 51.7624L94.8792 52.5315L95.9858 52.2176V56.7461H96.8883V51.2523H96.1035ZM98.4821 56.8403C98.8039 56.8403 99.0707 56.5734 99.0707 56.2516C99.0707 55.922 98.8039 55.663 98.4821 55.663C98.1525 55.663 97.8935 55.922 97.8935 56.2516C97.8935 56.5734 98.1525 56.8403 98.4821 56.8403ZM101.636 53.3242H100.946L101.04 52.0999H103.269V51.2523H100.208L99.9959 54.2032H101.597C102.193 54.2032 102.602 54.5329 102.602 55.0822C102.602 55.6316 102.193 55.9691 101.581 55.9691C101.008 55.9691 100.632 55.7101 100.49 55.2235L99.7134 55.6709C100.004 56.4636 100.749 56.8481 101.581 56.8481C102.594 56.8481 103.504 56.236 103.504 55.0822C103.504 53.9364 102.633 53.3242 101.636 53.3242ZM108.448 56.7461L106.148 53.9285L108.369 51.2523H107.294L105.207 53.7166V51.2523H104.304V56.7461H105.207V54.1326L107.373 56.7461H108.448ZM110.995 54.7683H114.998V53.9521H110.995V54.7683ZM121.586 55.2392C121.586 54.1954 120.785 53.8971 120.039 53.6146V52.0606C120.361 52.1313 120.597 52.3275 120.738 52.6807L121.499 52.2411C121.217 51.5976 120.675 51.2523 120.039 51.1659V50.4674H119.529V51.1581C118.713 51.2366 117.999 51.7702 117.999 52.6963C117.999 53.7009 118.768 54.0384 119.529 54.321V55.9534C119.019 55.8985 118.697 55.6238 118.525 55.1843L117.748 55.6316C118.022 56.3458 118.658 56.7853 119.529 56.8403V57.5309H120.039V56.8324C120.934 56.7225 121.586 56.1496 121.586 55.2392ZM118.901 52.6963C118.901 52.3432 119.145 52.1077 119.529 52.0449V53.4105C119.09 53.2065 118.901 53.026 118.901 52.6963ZM120.039 55.9456V54.5172C120.44 54.6977 120.683 54.8782 120.683 55.2471C120.683 55.5845 120.471 55.8592 120.039 55.9456ZM124.441 53.4969L125.555 52.0214V51.2523H122.181V52.0999H124.48L123.295 53.6617L123.656 54.2032H123.86C124.48 54.2032 124.881 54.5329 124.881 55.0822C124.881 55.6316 124.48 55.9691 123.86 55.9691C123.311 55.9691 122.942 55.7258 122.785 55.2628L122.016 55.7101C122.322 56.4793 123.052 56.8481 123.86 56.8481C124.873 56.8481 125.783 56.236 125.783 55.0822C125.783 54.2268 125.194 53.6774 124.441 53.4969ZM130.751 56.7461L128.452 53.9285L130.673 51.2523H129.598L127.51 53.7166V51.2523H126.607V56.7461H127.51V54.1326L129.676 56.7461H130.751Z" fill="#202124"/>
<g clip-path="url(#clip3_601_31382)">
<path d="M139.203 52.5391L141.928 55.2642L144.653 52.5391H139.203Z" fill="#366CA5"/>
</g>
<rect x="156.969" y="41.8594" width="60.1706" height="23.545" rx="5.23223" fill="#E7F0FE"/>
<path d="M168.976 51.2523L167.532 51.7624L167.751 52.5315L168.858 52.2176V56.7461H169.761V51.2523H168.976ZM174.235 53.5989H172.908V52.2725H172.108V53.5989H170.781V54.3994H172.108V55.7258H172.908V54.3994H174.235V53.5989ZM180.41 53.8971C180.755 53.646 180.967 53.2536 180.967 52.7748C180.967 51.8958 180.245 51.2523 179.358 51.2523H177.176V56.7461H179.531C180.441 56.7461 181.179 56.0868 181.179 55.1764C181.179 54.5878 180.873 54.1404 180.41 53.8971ZM179.358 52.0999C179.758 52.0999 180.065 52.4138 180.065 52.8219C180.065 53.23 179.758 53.544 179.358 53.544H178.079V52.0999H179.358ZM179.531 55.8985H178.079V54.3602H179.531C179.955 54.3602 180.276 54.6977 180.276 55.1293C180.276 55.561 179.955 55.8985 179.531 55.8985ZM182.617 55.145H185.741C185.756 55.0352 185.772 54.9096 185.772 54.7919C185.772 53.6617 184.972 52.7199 183.802 52.7199C182.57 52.7199 181.73 53.6225 181.73 54.784C181.73 55.9613 182.57 56.8481 183.865 56.8481C184.634 56.8481 185.223 56.5263 185.584 55.9927L184.885 55.5845C184.697 55.8592 184.344 56.0711 183.873 56.0711C183.245 56.0711 182.751 55.7572 182.617 55.145ZM182.609 54.4544C182.727 53.8658 183.159 53.489 183.794 53.489C184.304 53.489 184.799 53.7794 184.917 54.4544H182.609ZM189.603 51.2523V53.3792C189.305 52.971 188.842 52.7199 188.229 52.7199C187.162 52.7199 186.275 53.6146 186.275 54.784C186.275 55.9456 187.162 56.8481 188.229 56.8481C188.842 56.8481 189.305 56.597 189.603 56.181V56.7461H190.451V51.2523H189.603ZM188.363 56.0397C187.657 56.0397 187.123 55.5139 187.123 54.784C187.123 54.0541 187.657 53.5283 188.363 53.5283C189.069 53.5283 189.603 54.0541 189.603 54.784C189.603 55.5139 189.069 56.0397 188.363 56.0397ZM192.177 53.905C192.177 53.6225 192.444 53.489 192.75 53.489C193.072 53.489 193.346 53.6303 193.487 53.9364L194.202 53.5361C193.927 53.0181 193.393 52.7199 192.75 52.7199C191.949 52.7199 191.313 53.1829 191.313 53.9207C191.313 55.3255 193.425 54.9331 193.425 55.6316C193.425 55.9456 193.134 56.0711 192.758 56.0711C192.326 56.0711 192.012 55.8592 191.886 55.5061L191.157 55.9299C191.408 56.4949 191.973 56.8481 192.758 56.8481C193.605 56.8481 194.288 56.4243 194.288 55.6395C194.288 54.1875 192.177 54.6192 192.177 53.905Z" fill="#202124"/>
<g clip-path="url(#clip4_601_31382)">
<path d="M203.297 52.5391L206.022 55.2642L208.747 52.5391H203.297Z" fill="#366CA5"/>
</g>
<rect x="221.062" y="41.8594" width="117.725" height="23.545" rx="5.23223" fill="#E7F0FE"/>
<path d="M232.073 51.2523V56.7461H232.975V51.2523H232.073ZM236.082 52.7199C235.549 52.7199 235.125 52.9161 234.866 53.3242V52.8219H234.018V56.7461H234.866V54.6427C234.866 53.8422 235.305 53.5126 235.863 53.5126C236.396 53.5126 236.742 53.8265 236.742 54.423V56.7461H237.589V54.3367C237.589 53.3164 236.961 52.7199 236.082 52.7199ZM243.109 52.8219V54.9253C243.109 55.7258 242.669 56.0554 242.112 56.0554C241.579 56.0554 241.233 55.7415 241.233 55.145V52.8219H240.386V55.2314C240.386 56.2516 241.013 56.8481 241.892 56.8481C242.426 56.8481 242.85 56.6519 243.109 56.2438V56.7461H243.957V52.8219H243.109ZM247.012 52.7199C246.478 52.7199 246.054 52.9161 245.795 53.3242V52.8219H244.948V56.7461H245.795V54.6427C245.795 53.8422 246.235 53.5126 246.792 53.5126C247.326 53.5126 247.671 53.8265 247.671 54.423V56.7461H248.519V54.3367C248.519 53.3164 247.891 52.7199 247.012 52.7199ZM249.855 52.2333C250.153 52.2333 250.397 51.9822 250.397 51.6918C250.397 51.3935 250.153 51.1502 249.855 51.1502C249.557 51.1502 249.314 51.3935 249.314 51.6918C249.314 51.9822 249.557 52.2333 249.855 52.2333ZM249.431 56.7461H250.279V52.8219H249.431V56.7461ZM253.453 53.6382V52.8219H252.48V51.7232L251.632 51.9743V52.8219H250.91V53.6382H251.632V55.5218C251.632 56.542 252.15 56.9031 253.453 56.7461V55.9848C252.809 56.0162 252.48 56.024 252.48 55.5218V53.6382H253.453ZM256.222 56.7461H257.07V51.0168H256.222V56.7461ZM261.162 52.8219V53.3792C260.864 52.971 260.4 52.7199 259.788 52.7199C258.721 52.7199 257.834 53.6146 257.834 54.784C257.834 55.9456 258.721 56.8481 259.788 56.8481C260.4 56.8481 260.864 56.597 261.162 56.181V56.7461H262.009V52.8219H261.162ZM259.922 56.0397C259.215 56.0397 258.682 55.5139 258.682 54.784C258.682 54.0541 259.215 53.5283 259.922 53.5283C260.628 53.5283 261.162 54.0541 261.162 54.784C261.162 55.5139 260.628 56.0397 259.922 56.0397ZM265.642 52.8219V54.9253C265.642 55.7258 265.203 56.0554 264.646 56.0554C264.112 56.0554 263.767 55.7415 263.767 55.145V52.8219H262.919V55.2314C262.919 56.2516 263.547 56.8481 264.426 56.8481C264.959 56.8481 265.383 56.6519 265.642 56.2438V56.7461H266.49V52.8219H265.642ZM269.545 52.7199C269.011 52.7199 268.588 52.9161 268.329 53.3242V52.8219H267.481V56.7461H268.329V54.6427C268.329 53.8422 268.768 53.5126 269.325 53.5126C269.859 53.5126 270.204 53.8265 270.204 54.423V56.7461H271.052V54.3367C271.052 53.3164 270.424 52.7199 269.545 52.7199ZM275.073 51.2523V53.3792C274.774 52.971 274.311 52.7199 273.699 52.7199C272.632 52.7199 271.745 53.6146 271.745 54.784C271.745 55.9456 272.632 56.8481 273.699 56.8481C274.311 56.8481 274.774 56.597 275.073 56.181V56.7461H275.92V51.2523H275.073ZM273.833 56.0397C273.126 56.0397 272.593 55.5139 272.593 54.784C272.593 54.0541 273.126 53.5283 273.833 53.5283C274.539 53.5283 275.073 54.0541 275.073 54.784C275.073 55.5139 274.539 56.0397 273.833 56.0397ZM277.756 53.4812V52.8219H276.908V56.7461H277.756V54.7683C277.756 53.8893 278.407 53.6303 278.965 53.6695V52.7513C278.47 52.7513 277.991 52.9475 277.756 53.4812ZM282.312 52.8219L281.308 55.6709L280.138 52.8219H279.212L280.876 56.6755L280.837 56.7539C280.641 57.2719 280.342 57.5545 279.793 57.5231V58.3158C280.696 58.3707 281.339 57.8684 281.708 56.8717L283.215 52.8219H282.312ZM289.097 53.5989H287.771V52.2725H286.971V53.5989H285.644V54.3994H286.971V55.7258H287.771V54.3994H289.097V53.5989ZM294.111 53.4969L295.225 52.0214V51.2523H291.851V52.0999H294.15L292.965 53.6617L293.326 54.2032H293.53C294.15 54.2032 294.551 54.5329 294.551 55.0822C294.551 55.6316 294.15 55.9691 293.53 55.9691C292.981 55.9691 292.612 55.7258 292.455 55.2628L291.686 55.7101C291.992 56.4793 292.722 56.8481 293.53 56.8481C294.543 56.8481 295.453 56.236 295.453 55.0822C295.453 54.2268 294.864 53.6774 294.111 53.4969ZM302.47 52.7199C301.944 52.7199 301.528 52.9318 301.269 53.3399C301.041 52.9475 300.665 52.7199 300.155 52.7199C299.668 52.7199 299.283 52.9083 299.032 53.2928V52.8219H298.185V56.7461H299.032V54.5486C299.032 53.8344 299.425 53.5126 299.903 53.5126C300.366 53.5126 300.641 53.8187 300.641 54.368V56.7461H301.489V54.5486C301.489 53.8344 301.842 53.5126 302.344 53.5126C302.807 53.5126 303.106 53.8187 303.106 54.368V56.7461H303.953V54.3131C303.953 53.3321 303.357 52.7199 302.47 52.7199ZM306.713 56.8481C307.866 56.8481 308.784 55.9456 308.784 54.784C308.784 53.6146 307.866 52.7199 306.713 52.7199C305.567 52.7199 304.641 53.6146 304.641 54.784C304.641 55.9456 305.567 56.8481 306.713 56.8481ZM306.713 56.024C306.022 56.024 305.488 55.4982 305.488 54.784C305.488 54.0698 306.022 53.544 306.713 53.544C307.403 53.544 307.937 54.0698 307.937 54.784C307.937 55.4982 307.403 56.024 306.713 56.024ZM310.399 53.4812V52.8219H309.551V56.7461H310.399V54.7683C310.399 53.8893 311.05 53.6303 311.607 53.6695V52.7513C311.113 52.7513 310.634 52.9475 310.399 53.4812ZM312.717 55.145H315.84C315.856 55.0352 315.872 54.9096 315.872 54.7919C315.872 53.6617 315.071 52.7199 313.902 52.7199C312.67 52.7199 311.83 53.6225 311.83 54.784C311.83 55.9613 312.67 56.8481 313.965 56.8481C314.734 56.8481 315.322 56.5263 315.683 55.9927L314.985 55.5845C314.796 55.8592 314.443 56.0711 313.972 56.0711C313.344 56.0711 312.85 55.7572 312.717 55.145ZM312.709 54.4544C312.826 53.8658 313.258 53.489 313.894 53.489C314.404 53.489 314.898 53.7794 315.016 54.4544H312.709Z" fill="#202124"/>
</g>
<defs>
<clipPath id="clip0_601_31382">
<rect width="255.071" height="70.6351" fill="white"/>
</clipPath>
<clipPath id="clip1_601_31382">
<rect width="15.6967" height="15.6967" fill="white" transform="translate(15.6953 13.0781)"/>
</clipPath>
<clipPath id="clip2_601_31382">
<rect width="15.6967" height="15.6967" fill="white" transform="translate(223.68 13.0781)"/>
</clipPath>
<clipPath id="clip3_601_31382">
<rect width="11.7725" height="11.7725" fill="white" transform="translate(136.039 47.7461)"/>
</clipPath>
<clipPath id="clip4_601_31382">
<rect width="11.7725" height="11.7725" fill="white" transform="translate(200.133 47.7461)"/>
</clipPath>
</defs>
</svg>
