<svg width="199" height="79" viewBox="0 0 199 79" fill="none" xmlns="http://www.w3.org/2000/svg">
<g clip-path="url(#clip0_632_32318)">
<rect width="198.419" height="78.3076" fill="white"/>
<g clip-path="url(#clip1_632_32318)">
<path d="M14.2852 41.2693H23.8093V40.2111H14.2852V41.2693ZM14.2852 38.6237H23.8093V37.5655H14.2852V38.6237ZM14.2852 34.9199V35.9782H23.8093V34.9199H14.2852Z" fill="#5F6368"/>
</g>
<path d="M36.092 40.8419C37.1513 40.8419 37.8847 40.2641 37.8847 39.353C37.8847 38.3529 37.0328 38.0863 36.129 37.79C35.4031 37.5603 35.0401 37.3825 35.0401 36.901C35.0401 36.4269 35.4253 36.1306 35.9809 36.1306C36.6105 36.1306 36.9735 36.4862 37.1587 36.9307L37.7365 36.5973C37.4476 35.9454 36.8328 35.4639 35.9809 35.4639C35.1142 35.4639 34.3512 35.9973 34.3512 36.9307C34.3512 37.8937 35.1512 38.1529 35.9809 38.4196C36.7439 38.6566 37.2032 38.8344 37.2032 39.3678C37.2032 39.8345 36.8402 40.1678 36.1068 40.1678C35.3512 40.1678 34.9068 39.7974 34.7216 39.227L34.129 39.5678C34.4031 40.3456 35.1068 40.8419 36.092 40.8419ZM39.1724 39.19H42.2762C42.2911 39.0937 42.2985 38.9974 42.2985 38.9011C42.2985 37.864 41.5725 36.9455 40.454 36.9455C39.2984 36.9455 38.5132 37.7974 38.5132 38.8937C38.5132 40.0048 39.3058 40.8419 40.4984 40.8419C41.2392 40.8419 41.8022 40.5086 42.1281 40.0048L41.5799 39.6937C41.3947 39.9974 41.0243 40.2345 40.5132 40.2345C39.8243 40.2345 39.2984 39.8567 39.1724 39.19ZM40.454 37.5529C41.0095 37.5529 41.5355 37.8937 41.6466 38.627H39.1724C39.2761 37.9826 39.7576 37.5529 40.454 37.5529ZM46.0988 37.0418V37.6788C45.8025 37.227 45.3284 36.9455 44.6988 36.9455C43.6691 36.9455 42.8246 37.7974 42.8246 38.8937C42.8246 39.99 43.6691 40.8419 44.6988 40.8419C45.3284 40.8419 45.8025 40.5604 46.0988 40.1085V40.7456H46.7433V37.0418H46.0988ZM44.7803 40.2197C44.0395 40.2197 43.4691 39.6493 43.4691 38.8937C43.4691 38.1381 44.0395 37.5677 44.7803 37.5677C45.5284 37.5677 46.0988 38.1381 46.0988 38.8937C46.0988 39.6493 45.5284 40.2197 44.7803 40.2197ZM48.3642 37.664V37.0418H47.7197V40.7456H48.3642V38.7826C48.3642 37.9085 48.9642 37.627 49.5198 37.6492V36.9751C49.0531 36.9751 48.6012 37.1455 48.3642 37.664ZM51.6886 40.8419C52.4145 40.8419 53.0442 40.4567 53.3553 39.8789L52.8071 39.5604C52.5997 39.9456 52.1923 40.2048 51.6886 40.2048C50.9478 40.2048 50.3848 39.6345 50.3848 38.8937C50.3848 38.1455 50.9478 37.5751 51.6886 37.5751C52.1849 37.5751 52.5997 37.8344 52.7849 38.227L53.3257 37.9159C53.0442 37.3307 52.4219 36.9455 51.6886 36.9455C50.57 36.9455 49.7404 37.7974 49.7404 38.8937C49.7404 39.99 50.57 40.8419 51.6886 40.8419ZM55.8361 36.9455C55.3176 36.9455 54.9102 37.1381 54.6361 37.5751V35.5602H53.9916V40.7456H54.6361V38.7826C54.6361 37.9085 55.1176 37.5603 55.7102 37.5603C56.2806 37.5603 56.6287 37.9011 56.6287 38.5085V40.7456H57.2732V38.4715C57.2732 37.5233 56.7028 36.9455 55.8361 36.9455ZM62.0693 36.9455C61.4397 36.9455 60.9656 37.227 60.6693 37.6788V35.5602H60.0248V40.7456H60.6693V40.1085C60.9656 40.5604 61.4397 40.8419 62.0693 40.8419C63.099 40.8419 63.9435 39.99 63.9435 38.8937C63.9435 37.7974 63.099 36.9455 62.0693 36.9455ZM61.9878 40.2197C61.2397 40.2197 60.6693 39.6493 60.6693 38.8937C60.6693 38.1381 61.2397 37.5677 61.9878 37.5677C62.7286 37.5677 63.299 38.1381 63.299 38.8937C63.299 39.6493 62.7286 40.2197 61.9878 40.2197ZM67.153 37.0418L66.0863 39.9456L64.827 37.0418H64.1381L65.753 40.7308L65.6863 40.8715C65.4937 41.3604 65.1826 41.6642 64.6863 41.6271V42.2271C65.4419 42.279 66.0197 41.8049 66.3308 40.9752L67.842 37.0418H67.153ZM70.232 40.7456H70.8765V35.338H70.232V40.7456ZM73.6005 40.8419C74.682 40.8419 75.5561 39.99 75.5561 38.8937C75.5561 37.7974 74.682 36.9455 73.6005 36.9455C72.519 36.9455 71.6523 37.7974 71.6523 38.8937C71.6523 39.99 72.519 40.8419 73.6005 40.8419ZM73.6005 40.2123C72.8671 40.2123 72.2967 39.6419 72.2967 38.8937C72.2967 38.1455 72.8671 37.5751 73.6005 37.5751C74.3412 37.5751 74.9116 38.1455 74.9116 38.8937C74.9116 39.6419 74.3412 40.2123 73.6005 40.2123ZM78.0566 40.8419C78.7826 40.8419 79.4123 40.4567 79.7234 39.8789L79.1752 39.5604C78.9678 39.9456 78.5604 40.2048 78.0566 40.2048C77.3159 40.2048 76.7529 39.6345 76.7529 38.8937C76.7529 38.1455 77.3159 37.5751 78.0566 37.5751C78.553 37.5751 78.9678 37.8344 79.153 38.227L79.6937 37.9159C79.4123 37.3307 78.79 36.9455 78.0566 36.9455C76.9381 36.9455 76.1084 37.7974 76.1084 38.8937C76.1084 39.99 76.9381 40.8419 78.0566 40.8419ZM83.3758 37.0418V37.6788C83.0795 37.227 82.6054 36.9455 81.9758 36.9455C80.9461 36.9455 80.1016 37.7974 80.1016 38.8937C80.1016 39.99 80.9461 40.8419 81.9758 40.8419C82.6054 40.8419 83.0795 40.5604 83.3758 40.1085V40.7456H84.0203V37.0418H83.3758ZM82.0572 40.2197C81.3165 40.2197 80.7461 39.6493 80.7461 38.8937C80.7461 38.1381 81.3165 37.5677 82.0572 37.5677C82.8054 37.5677 83.3758 38.1381 83.3758 38.8937C83.3758 39.6493 82.8054 40.2197 82.0572 40.2197ZM87.0116 37.664V37.0418H86.0264V36.0047L85.3819 36.1973V37.0418H84.6485V37.664H85.3819V39.6715C85.3819 40.5975 85.9004 40.8938 87.0116 40.7456V40.1678C86.3523 40.1974 86.0264 40.2345 86.0264 39.6715V37.664H87.0116ZM88.1005 36.3677C88.3375 36.3677 88.5301 36.1751 88.5301 35.938C88.5301 35.701 88.3375 35.501 88.1005 35.501C87.856 35.501 87.6635 35.701 87.6635 35.938C87.6635 36.1751 87.856 36.3677 88.1005 36.3677ZM87.7746 40.7456H88.419V37.0418H87.7746V40.7456ZM91.143 40.8419C92.2245 40.8419 93.0986 39.99 93.0986 38.8937C93.0986 37.7974 92.2245 36.9455 91.143 36.9455C90.0615 36.9455 89.1948 37.7974 89.1948 38.8937C89.1948 39.99 90.0615 40.8419 91.143 40.8419ZM91.143 40.2123C90.4097 40.2123 89.8393 39.6419 89.8393 38.8937C89.8393 38.1455 90.4097 37.5751 91.143 37.5751C91.8838 37.5751 92.4542 38.1455 92.4542 38.8937C92.4542 39.6419 91.8838 40.2123 91.143 40.2123ZM95.7029 36.9455C95.1844 36.9455 94.7769 37.1381 94.5029 37.5751V37.0418H93.8584V40.7456H94.5029V38.7826C94.5029 37.9085 94.9844 37.5603 95.577 37.5603C96.1474 37.5603 96.4955 37.9011 96.4955 38.5085V40.7456H97.14V38.4715C97.14 37.5233 96.5696 36.9455 95.7029 36.9455ZM101.632 40.8419C102.714 40.8419 103.588 39.99 103.588 38.8937C103.588 37.7974 102.714 36.9455 101.632 36.9455C100.551 36.9455 99.6842 37.7974 99.6842 38.8937C99.6842 39.99 100.551 40.8419 101.632 40.8419ZM101.632 40.2123C100.899 40.2123 100.329 39.6419 100.329 38.8937C100.329 38.1455 100.899 37.5751 101.632 37.5751C102.373 37.5751 102.944 38.1455 102.944 38.8937C102.944 39.6419 102.373 40.2123 101.632 40.2123ZM104.992 37.664V37.0418H104.348V40.7456H104.992V38.7826C104.992 37.9085 105.592 37.627 106.148 37.6492V36.9751C105.681 36.9751 105.229 37.1455 104.992 37.664ZM110.371 40.8419C111.097 40.8419 111.727 40.4567 112.038 39.8789L111.49 39.5604C111.282 39.9456 110.875 40.2048 110.371 40.2048C109.63 40.2048 109.067 39.6345 109.067 38.8937C109.067 38.1455 109.63 37.5751 110.371 37.5751C110.867 37.5751 111.282 37.8344 111.467 38.227L112.008 37.9159C111.727 37.3307 111.104 36.9455 110.371 36.9455C109.253 36.9455 108.423 37.7974 108.423 38.8937C108.423 39.99 109.253 40.8419 110.371 40.8419ZM114.364 40.8419C115.446 40.8419 116.32 39.99 116.32 38.8937C116.32 37.7974 115.446 36.9455 114.364 36.9455C113.283 36.9455 112.416 37.7974 112.416 38.8937C112.416 39.99 113.283 40.8419 114.364 40.8419ZM114.364 40.2123C113.631 40.2123 113.061 39.6419 113.061 38.8937C113.061 38.1455 113.631 37.5751 114.364 37.5751C115.105 37.5751 115.675 38.1455 115.675 38.8937C115.675 39.6419 115.105 40.2123 114.364 40.2123ZM121.08 36.9455C120.598 36.9455 120.176 37.1529 119.917 37.5751C119.702 37.1751 119.332 36.9455 118.828 36.9455C118.376 36.9455 117.991 37.1233 117.724 37.5381V37.0418H117.08V40.7456H117.724V38.6863C117.724 37.8863 118.176 37.5603 118.672 37.5603C119.154 37.5603 119.458 37.8788 119.458 38.464V40.7456H120.102V38.6863C120.102 37.8863 120.495 37.5603 121.013 37.5603C121.502 37.5603 121.828 37.8788 121.828 38.464V40.7456H122.472V38.4418C122.472 37.5159 121.902 36.9455 121.08 36.9455ZM127.366 36.9455C126.885 36.9455 126.462 37.1529 126.203 37.5751C125.988 37.1751 125.618 36.9455 125.114 36.9455C124.662 36.9455 124.277 37.1233 124.01 37.5381V37.0418H123.366V40.7456H124.01V38.6863C124.01 37.8863 124.462 37.5603 124.959 37.5603C125.44 37.5603 125.744 37.8788 125.744 38.464V40.7456H126.388V38.6863C126.388 37.8863 126.781 37.5603 127.299 37.5603C127.788 37.5603 128.114 37.8788 128.114 38.464V40.7456H128.759V38.4418C128.759 37.5159 128.188 36.9455 127.366 36.9455ZM132.208 37.0418V39.0048C132.208 39.8789 131.727 40.2271 131.134 40.2271C130.564 40.2271 130.215 39.8863 130.215 39.2789V37.0418H129.571V39.3159C129.571 40.2641 130.141 40.8419 131.008 40.8419C131.527 40.8419 131.934 40.6493 132.208 40.2123V40.7456H132.853V37.0418H132.208ZM135.849 37.664V37.0418H134.863V36.0047L134.219 36.1973V37.0418H133.486V37.664H134.219V39.6715C134.219 40.5975 134.737 40.8938 135.849 40.7456V40.1678C135.189 40.1974 134.863 40.2345 134.863 39.6715V37.664H135.849ZM136.875 39.19H139.979C139.994 39.0937 140.001 38.9974 140.001 38.9011C140.001 37.864 139.275 36.9455 138.157 36.9455C137.001 36.9455 136.216 37.7974 136.216 38.8937C136.216 40.0048 137.009 40.8419 138.201 40.8419C138.942 40.8419 139.505 40.5086 139.831 40.0048L139.283 39.6937C139.098 39.9974 138.727 40.2345 138.216 40.2345C137.527 40.2345 137.001 39.8567 136.875 39.19ZM138.157 37.5529C138.712 37.5529 139.238 37.8937 139.349 38.627H136.875C136.979 37.9826 137.461 37.5529 138.157 37.5529Z" fill="#5F6368"/>
<g clip-path="url(#clip2_632_32318)">
<path d="M178.839 35.45H182.014V36.5082H178.839V35.45ZM178.839 37.5664H182.014V38.6247H178.839V37.5664ZM178.839 39.6829H182.014V40.7412H178.839V39.6829ZM176.723 35.45H177.781V36.5082H176.723V35.45ZM176.723 37.5664H177.781V38.6247H176.723V37.5664ZM176.723 39.6829H177.781V40.7412H176.723V39.6829ZM183.654 33.3335H175.083C174.818 33.3335 174.606 33.5451 174.606 33.8097V42.3814C174.606 42.5931 174.818 42.8576 175.083 42.8576H183.654C183.866 42.8576 184.131 42.5931 184.131 42.3814V33.8097C184.131 33.5451 183.866 33.3335 183.654 33.3335V33.3335ZM183.072 41.7994H175.665V34.3917H183.072V41.7994Z" fill="#5F6368"/>
</g>
<rect x="164.023" y="30.686" width="0.529118" height="14.8153" fill="#DDDDDD"/>
<rect x="4.496" y="25.6601" width="189.424" height="24.8686" rx="3.96839" stroke="#DADCE0" stroke-width="0.529118"/>
<rect x="4.49698" y="55.2904" width="57.6739" height="18.5191" rx="3.96839" fill="white"/>
<path d="M14.1535 63.7561H13.3598V64.5498H14.1535V63.7561ZM15.7408 63.7561H14.9472V64.5498H15.7408V63.7561ZM17.3282 63.7561H16.5345V64.5498H17.3282V63.7561ZM18.1219 60.9782H17.725V60.1846H16.9314V60.9782H13.7567V60.1846H12.963V60.9782H12.5661C12.1256 60.9782 11.7725 61.3354 11.7725 61.7719V67.3277C11.7725 67.5382 11.8561 67.74 12.0049 67.8889C12.1538 68.0377 12.3556 68.1213 12.5661 68.1213H18.1219C18.3324 68.1213 18.5343 68.0377 18.6831 67.8889C18.8319 67.74 18.9156 67.5382 18.9156 67.3277V61.7719C18.9156 61.5614 18.8319 61.3596 18.6831 61.2107C18.5343 61.0619 18.3324 60.9782 18.1219 60.9782ZM18.1219 67.3277H12.5661V62.9624H18.1219V67.3277Z" fill="#366CA5"/>
<path d="M26.2627 66.8706C27.1898 66.8706 27.8374 66.3754 27.8374 65.5626C27.8374 64.6801 27.0945 64.4515 26.358 64.2166C25.7103 64.0134 25.4627 63.8674 25.4627 63.5245C25.4627 63.188 25.7357 62.9721 26.1611 62.9721C26.6564 62.9721 26.9358 63.2388 27.0945 63.5943L27.7104 63.2388C27.431 62.6483 26.8913 62.261 26.1611 62.261C25.4119 62.261 24.7325 62.7245 24.7325 63.5435C24.7325 64.3817 25.4056 64.6356 26.0977 64.8452C26.758 65.0483 27.1072 65.1817 27.1072 65.5753C27.1072 65.8992 26.8596 66.1595 26.2818 66.1595C25.6786 66.1595 25.3357 65.8611 25.177 65.4103L24.5484 65.7785C24.7833 66.4389 25.3865 66.8706 26.2627 66.8706ZM29.0485 65.4928H31.5756C31.5883 65.4039 31.601 65.3023 31.601 65.2071C31.601 64.2928 30.9534 63.5308 30.0073 63.5308C29.0105 63.5308 28.3311 64.261 28.3311 65.2007C28.3311 66.1531 29.0105 66.8706 30.0581 66.8706C30.6803 66.8706 31.1566 66.6103 31.4486 66.1785L30.8835 65.8484C30.7311 66.0706 30.4454 66.242 30.0645 66.242C29.5565 66.242 29.1565 65.9881 29.0485 65.4928ZM29.0422 64.9341C29.1374 64.4578 29.4867 64.1531 30.001 64.1531C30.4137 64.1531 30.8137 64.388 30.9089 64.9341H29.0422ZM34.0013 63.5308C33.506 63.5308 33.1314 63.734 32.8901 64.0705V63.6134H32.2044V68.058H32.8901V66.3373C33.1314 66.6674 33.506 66.8706 34.0013 66.8706C34.8648 66.8706 35.5823 66.1468 35.5823 65.2007C35.5823 64.261 34.8648 63.5308 34.0013 63.5308ZM33.8934 66.2166C33.3219 66.2166 32.8901 65.7912 32.8901 65.2007C32.8901 64.6102 33.3219 64.1848 33.8934 64.1848C34.4648 64.1848 34.8966 64.6102 34.8966 65.2007C34.8966 65.7912 34.4648 66.2166 33.8934 66.2166ZM38.642 62.3435L37.4737 62.7562L37.6515 63.3784L38.5467 63.1245V66.7881H39.2769V62.3435H38.642ZM41.7536 66.8706C42.8711 66.8706 43.4997 65.9373 43.4997 64.5658C43.4997 63.1943 42.8711 62.261 41.7536 62.261C40.6361 62.261 40.0075 63.1943 40.0075 64.5658C40.0075 65.9373 40.6361 66.8706 41.7536 66.8706ZM41.7536 66.1595C41.0996 66.1595 40.7377 65.588 40.7377 64.5658C40.7377 63.5435 41.0996 62.9721 41.7536 62.9721C42.414 62.9721 42.7695 63.5435 42.7695 64.5658C42.7695 65.588 42.414 66.1595 41.7536 66.1595ZM45.7848 65.188H49.023V64.5277H45.7848V65.188ZM51.87 66.8643C52.1303 66.8643 52.3462 66.6484 52.3462 66.3881C52.3462 66.1214 52.1303 65.9119 51.87 65.9119C51.6033 65.9119 51.3938 66.1214 51.3938 66.3881C51.3938 66.6484 51.6033 66.8643 51.87 66.8643ZM53.4883 66.8643C53.7487 66.8643 53.9646 66.6484 53.9646 66.3881C53.9646 66.1214 53.7487 65.9119 53.4883 65.9119C53.2217 65.9119 53.0121 66.1214 53.0121 66.3881C53.0121 66.6484 53.2217 66.8643 53.4883 66.8643ZM55.1067 66.8643C55.367 66.8643 55.5829 66.6484 55.5829 66.3881C55.5829 66.1214 55.367 65.9119 55.1067 65.9119C54.84 65.9119 54.6305 66.1214 54.6305 66.3881C54.6305 66.6484 54.84 66.8643 55.1067 66.8643Z" fill="#3C4043"/>
<rect x="4.49698" y="55.2904" width="57.6739" height="18.5191" rx="3.96839" stroke="#DADCE0" stroke-width="0.529118"/>
<rect x="65.8739" y="55.2904" width="40.7421" height="18.5191" rx="3.96839" fill="white"/>
<path d="M76.1578 62.3435H74.5197V66.7881H75.2498V65.2642H76.1578C76.9959 65.2642 77.6309 64.6229 77.6309 63.8039C77.6309 62.9784 76.9959 62.3435 76.1578 62.3435ZM76.1578 64.5785H75.2498V63.0292H76.1578C76.5896 63.0292 76.9007 63.3531 76.9007 63.8039C76.9007 64.2483 76.5896 64.5785 76.1578 64.5785ZM78.8441 64.1467V63.6134H78.1584V66.7881H78.8441V65.188C78.8441 64.4769 79.3711 64.2674 79.8219 64.2991V63.5562C79.4219 63.5562 79.0346 63.715 78.8441 64.1467ZM80.6714 63.1372C80.9127 63.1372 81.1096 62.934 81.1096 62.6991C81.1096 62.4578 80.9127 62.261 80.6714 62.261C80.4302 62.261 80.2333 62.4578 80.2333 62.6991C80.2333 62.934 80.4302 63.1372 80.6714 63.1372ZM80.3286 66.7881H81.0143V63.6134H80.3286V66.7881ZM83.309 66.8706C83.9312 66.8706 84.4709 66.5468 84.7376 66.0452L84.1471 65.7087C83.9947 66.0008 83.6836 66.1976 83.3026 66.1976C82.7439 66.1976 82.3185 65.7722 82.3185 65.2007C82.3185 64.6293 82.7439 64.2039 83.3026 64.2039C83.6836 64.2039 83.9947 64.3944 84.1344 64.6928L84.7249 64.3499C84.4709 63.8547 83.9312 63.5308 83.309 63.5308C82.3502 63.5308 81.6327 64.2547 81.6327 65.2007C81.6327 66.1404 82.3502 66.8706 83.309 66.8706ZM85.7233 65.4928H88.2504C88.2631 65.4039 88.2758 65.3023 88.2758 65.2071C88.2758 64.2928 87.6282 63.5308 86.6821 63.5308C85.6853 63.5308 85.0059 64.261 85.0059 65.2007C85.0059 66.1531 85.6853 66.8706 86.7329 66.8706C87.3552 66.8706 87.8314 66.6103 88.1234 66.1785L87.5583 65.8484C87.4059 66.0706 87.1202 66.242 86.7393 66.242C86.2313 66.242 85.8313 65.9881 85.7233 65.4928ZM85.717 64.9341C85.8122 64.4578 86.1615 64.1531 86.6758 64.1531C87.0885 64.1531 87.4885 64.388 87.5837 64.9341H85.717Z" fill="#3C4043"/>
<g clip-path="url(#clip3_632_32318)">
<path d="M95.6797 63.6675L97.8843 65.8721L100.089 63.6675H95.6797Z" fill="#3C4043"/>
</g>
<rect x="65.8739" y="55.2904" width="40.7421" height="18.5191" rx="3.96839" stroke="#DADCE0" stroke-width="0.529118"/>
<rect x="110.32" y="55.2904" width="46.0333" height="18.5191" rx="3.96839" fill="white"/>
<path d="M121.499 66.7881H122.299L121.29 65.061C121.81 64.8515 122.172 64.3436 122.172 63.7721C122.172 62.9784 121.537 62.3435 120.744 62.3435H118.966V66.7881H119.696V65.169H120.56L121.499 66.7881ZM119.696 63.0292H120.744C121.131 63.0292 121.442 63.3531 121.442 63.7721C121.442 64.1848 121.131 64.515 120.744 64.515H119.696V63.0292ZM124.147 66.8706C125.08 66.8706 125.823 66.1404 125.823 65.2007C125.823 64.2547 125.08 63.5308 124.147 63.5308C123.22 63.5308 122.47 64.2547 122.47 65.2007C122.47 66.1404 123.22 66.8706 124.147 66.8706ZM124.147 66.2039C123.588 66.2039 123.156 65.7785 123.156 65.2007C123.156 64.6229 123.588 64.1975 124.147 64.1975C124.705 64.1975 125.137 64.6229 125.137 65.2007C125.137 65.7785 124.705 66.2039 124.147 66.2039ZM127.941 66.8706C128.875 66.8706 129.618 66.1404 129.618 65.2007C129.618 64.2547 128.875 63.5308 127.941 63.5308C127.014 63.5308 126.265 64.2547 126.265 65.2007C126.265 66.1404 127.014 66.8706 127.941 66.8706ZM127.941 66.2039C127.383 66.2039 126.951 65.7785 126.951 65.2007C126.951 64.6229 127.383 64.1975 127.941 64.1975C128.5 64.1975 128.932 64.6229 128.932 65.2007C128.932 65.7785 128.5 66.2039 127.941 66.2039ZM133.704 63.5308C133.279 63.5308 132.942 63.7023 132.733 64.0324C132.549 63.715 132.244 63.5308 131.831 63.5308C131.438 63.5308 131.127 63.6832 130.923 63.9943V63.6134H130.238V66.7881H130.923V65.0102C130.923 64.4325 131.241 64.1721 131.628 64.1721C132.003 64.1721 132.225 64.4198 132.225 64.8642V66.7881H132.911V65.0102C132.911 64.4325 133.196 64.1721 133.603 64.1721C133.977 64.1721 134.219 64.4198 134.219 64.8642V66.7881H134.904V64.8198C134.904 64.0261 134.422 63.5308 133.704 63.5308ZM136.254 64.4896C136.254 64.261 136.47 64.1531 136.718 64.1531C136.978 64.1531 137.2 64.2674 137.315 64.515L137.892 64.1912C137.67 63.7721 137.238 63.5308 136.718 63.5308C136.07 63.5308 135.556 63.9055 135.556 64.5023C135.556 65.6388 137.264 65.3214 137.264 65.8865C137.264 66.1404 137.029 66.242 136.724 66.242C136.375 66.242 136.121 66.0706 136.019 65.7849L135.429 66.1277C135.632 66.5849 136.089 66.8706 136.724 66.8706C137.41 66.8706 137.962 66.5278 137.962 65.8928C137.962 64.7182 136.254 65.0674 136.254 64.4896Z" fill="#3C4043"/>
<g clip-path="url(#clip4_632_32318)">
<path d="M145.419 63.6675L147.624 65.8721L149.828 63.6675H145.419Z" fill="#3C4043"/>
</g>
<rect x="110.32" y="55.2904" width="46.0333" height="18.5191" rx="3.96839" stroke="#DADCE0" stroke-width="0.529118"/>
<rect x="160.058" y="55.2904" width="55.0283" height="18.5191" rx="3.96839" fill="white"/>
<path d="M171.599 66.7881H172.386L170.78 62.3435H169.903L168.291 66.7881H169.084L169.395 65.8928H171.287L171.599 66.7881ZM169.637 65.2071L170.341 63.2007L171.046 65.2071H169.637ZM176.286 63.5308C175.861 63.5308 175.524 63.7023 175.315 64.0324C175.131 63.715 174.826 63.5308 174.413 63.5308C174.019 63.5308 173.708 63.6832 173.505 63.9943V63.6134H172.819V66.7881H173.505V65.0102C173.505 64.4325 173.823 64.1721 174.21 64.1721C174.585 64.1721 174.807 64.4198 174.807 64.8642V66.7881H175.493V65.0102C175.493 64.4325 175.778 64.1721 176.185 64.1721C176.559 64.1721 176.8 64.4198 176.8 64.8642V66.7881H177.486V64.8198C177.486 64.0261 177.004 63.5308 176.286 63.5308ZM178.76 65.4928H181.287C181.3 65.4039 181.312 65.3023 181.312 65.2071C181.312 64.2928 180.665 63.5308 179.719 63.5308C178.722 63.5308 178.042 64.261 178.042 65.2007C178.042 66.1531 178.722 66.8706 179.769 66.8706C180.392 66.8706 180.868 66.6103 181.16 66.1785L180.595 65.8484C180.442 66.0706 180.157 66.242 179.776 66.242C179.268 66.242 178.868 65.9881 178.76 65.4928ZM178.753 64.9341C178.849 64.4578 179.198 64.1531 179.712 64.1531C180.125 64.1531 180.525 64.388 180.62 64.9341H178.753ZM183.586 63.5308C183.154 63.5308 182.811 63.6896 182.601 64.0197V63.6134H181.916V66.7881H182.601V65.0864C182.601 64.4388 182.957 64.1721 183.408 64.1721C183.84 64.1721 184.119 64.4261 184.119 64.9087V66.7881H184.805V64.8388C184.805 64.0134 184.297 63.5308 183.586 63.5308ZM185.886 63.1372C186.127 63.1372 186.324 62.934 186.324 62.6991C186.324 62.4578 186.127 62.261 185.886 62.261C185.645 62.261 185.448 62.4578 185.448 62.6991C185.448 62.934 185.645 63.1372 185.886 63.1372ZM185.543 66.7881H186.229V63.6134H185.543V66.7881ZM188.796 64.2737V63.6134H188.009V62.7245L187.323 62.9276V63.6134H186.739V64.2737H187.323V65.7976C187.323 66.623 187.742 66.9151 188.796 66.7881V66.1722C188.276 66.1976 188.009 66.2039 188.009 65.7976V64.2737H188.796ZM189.761 63.1372C190.003 63.1372 190.199 62.934 190.199 62.6991C190.199 62.4578 190.003 62.261 189.761 62.261C189.52 62.261 189.323 62.4578 189.323 62.6991C189.323 62.934 189.52 63.1372 189.761 63.1372ZM189.418 66.7881H190.104V63.6134H189.418V66.7881ZM191.44 65.4928H193.967C193.98 65.4039 193.993 65.3023 193.993 65.2071C193.993 64.2928 193.345 63.5308 192.399 63.5308C191.402 63.5308 190.723 64.261 190.723 65.2007C190.723 66.1531 191.402 66.8706 192.45 66.8706C193.072 66.8706 193.548 66.6103 193.84 66.1785L193.275 65.8484C193.123 66.0706 192.837 66.242 192.456 66.242C191.948 66.242 191.548 65.9881 191.44 65.4928ZM191.434 64.9341C191.529 64.4578 191.878 64.1531 192.392 64.1531C192.805 64.1531 193.205 64.388 193.3 64.9341H191.434ZM195.088 64.4896C195.088 64.261 195.304 64.1531 195.551 64.1531C195.812 64.1531 196.034 64.2674 196.148 64.515L196.726 64.1912C196.504 63.7721 196.072 63.5308 195.551 63.5308C194.904 63.5308 194.389 63.9055 194.389 64.5023C194.389 65.6388 196.097 65.3214 196.097 65.8865C196.097 66.1404 195.862 66.242 195.558 66.242C195.208 66.242 194.954 66.0706 194.853 65.7849L194.262 66.1277C194.466 66.5849 194.923 66.8706 195.558 66.8706C196.243 66.8706 196.796 66.5278 196.796 65.8928C196.796 64.7182 195.088 65.0674 195.088 64.4896Z" fill="#3C4043"/>
<rect x="160.058" y="55.2904" width="55.0283" height="18.5191" rx="3.96839" stroke="#DADCE0" stroke-width="0.529118"/>
<g clip-path="url(#clip5_632_32318)">
<rect width="198.419" height="23.8103" fill="white"/>
<path fill-rule="evenodd" clip-rule="evenodd" d="M179.684 9.0791H187.527C188.187 9.0791 188.426 9.14786 188.668 9.27698C188.909 9.4061 189.099 9.59558 189.228 9.83702C189.357 10.0785 189.426 10.3179 189.426 10.9783V13.2647C189.426 13.9251 189.357 14.1646 189.228 14.406C189.099 14.6475 188.909 14.837 188.668 14.9661C188.426 15.0952 188.187 15.164 187.527 15.164H179.684C179.024 15.164 178.785 15.0952 178.543 14.9661C178.302 14.837 178.112 14.6475 177.983 14.406C177.854 14.1646 177.785 13.9251 177.785 13.2647V10.9783C177.785 10.3179 177.854 10.0785 177.983 9.83702C178.112 9.59558 178.302 9.4061 178.543 9.27698C178.785 9.14786 179.024 9.0791 179.684 9.0791ZM179.684 9.60822C179.162 9.60822 178.98 9.64343 178.793 9.74357C178.643 9.82337 178.529 9.93732 178.45 10.0866C178.349 10.2738 178.314 10.4561 178.314 10.9783V13.2647C178.314 13.787 178.349 13.9693 178.45 14.1565C178.529 14.3057 178.643 14.4197 178.793 14.4995C178.98 14.5996 179.162 14.6348 179.684 14.6348H187.527C188.049 14.6348 188.231 14.5996 188.418 14.4995C188.568 14.4197 188.681 14.3057 188.761 14.1565C188.861 13.9693 188.897 13.787 188.897 13.2647V10.9783C188.897 10.4561 188.861 10.2738 188.761 10.0866C188.681 9.93732 188.568 9.82337 188.418 9.74357C188.231 9.64343 188.049 9.60822 187.527 9.60822H179.684ZM190.748 12.0899C190.748 12.7441 189.954 13.1481 189.954 13.1481V11.0316C189.954 11.0316 190.748 11.4356 190.748 12.0899Z" fill="black" fill-opacity="0.36"/>
<rect x="178.843" y="10.0933" width="9.52413" height="4.05657" rx="0.846589" fill="black"/>
<path fill-rule="evenodd" clip-rule="evenodd" d="M162.77 9.82308C162.758 9.88442 162.758 9.95817 162.758 10.1057V14.1799C162.758 14.3274 162.758 14.4012 162.77 14.4625C162.821 14.7144 163.017 14.9113 163.269 14.9614C163.331 14.9736 163.404 14.9736 163.552 14.9736C163.699 14.9736 163.773 14.9736 163.835 14.9614C164.086 14.9113 164.283 14.7144 164.333 14.4625C164.346 14.4012 164.346 14.3274 164.346 14.1799V10.1057C164.346 9.95817 164.346 9.88442 164.333 9.82308C164.283 9.57121 164.086 9.37431 163.835 9.32421C163.773 9.31201 163.699 9.31201 163.552 9.31201C163.404 9.31201 163.331 9.31201 163.269 9.32421C163.017 9.37431 162.821 9.57121 162.77 9.82308ZM160.27 11.3758C160.27 11.2283 160.27 11.1545 160.282 11.0932C160.332 10.8413 160.529 10.6444 160.781 10.5943C160.842 10.5821 160.916 10.5821 161.063 10.5821C161.211 10.5821 161.285 10.5821 161.346 10.5943C161.598 10.6444 161.795 10.8413 161.845 11.0932C161.857 11.1545 161.857 11.2283 161.857 11.3758V14.1801C161.857 14.3276 161.857 14.4014 161.845 14.4627C161.795 14.7146 161.598 14.9115 161.346 14.9616C161.285 14.9738 161.211 14.9738 161.063 14.9738C160.916 14.9738 160.842 14.9738 160.781 14.9616C160.529 14.9115 160.332 14.7146 160.282 14.4627C160.27 14.4014 160.27 14.3276 160.27 14.1801V11.3758ZM157.849 12.31C157.837 12.3714 157.837 12.4451 157.837 12.5926V14.18C157.837 14.3275 157.837 14.4013 157.849 14.4626C157.899 14.7145 158.096 14.9114 158.348 14.9615C158.409 14.9737 158.483 14.9737 158.63 14.9737C158.778 14.9737 158.851 14.9737 158.913 14.9615C159.165 14.9114 159.362 14.7145 159.412 14.4626C159.424 14.4013 159.424 14.3275 159.424 14.18V12.5926C159.424 12.4451 159.424 12.3714 159.412 12.31C159.362 12.0582 159.165 11.8613 158.913 11.8112C158.851 11.799 158.778 11.799 158.63 11.799C158.483 11.799 158.409 11.799 158.348 11.8112C158.096 11.8613 157.899 12.0582 157.849 12.31ZM155.309 13.3683C155.297 13.4296 155.297 13.5034 155.297 13.6509V14.18C155.297 14.3275 155.297 14.4013 155.309 14.4626C155.359 14.7145 155.556 14.9114 155.808 14.9615C155.869 14.9737 155.943 14.9737 156.091 14.9737C156.238 14.9737 156.312 14.9737 156.373 14.9615C156.625 14.9114 156.822 14.7145 156.872 14.4626C156.884 14.4013 156.884 14.3275 156.884 14.18V13.6509C156.884 13.5034 156.884 13.4296 156.872 13.3683C156.822 13.1164 156.625 12.9195 156.373 12.8694C156.312 12.8572 156.238 12.8572 156.091 12.8572C155.943 12.8572 155.869 12.8572 155.808 12.8694C155.556 12.9195 155.359 13.1164 155.309 13.3683Z" fill="black"/>
<path fill-rule="evenodd" clip-rule="evenodd" d="M171.066 10.4211C172.248 10.4212 173.385 10.8754 174.242 11.69C174.306 11.7529 174.409 11.7521 174.473 11.6883L175.09 11.0658C175.122 11.0334 175.14 10.9895 175.14 10.9439C175.139 10.8982 175.121 10.8545 175.088 10.8225C172.839 8.66724 169.291 8.66724 167.043 10.8225C167.01 10.8545 166.992 10.8982 166.991 10.9438C166.991 10.9895 167.009 11.0334 167.041 11.0658L167.658 11.6883C167.721 11.7522 167.825 11.753 167.889 11.69C168.746 10.8754 169.883 10.4211 171.066 10.4211V10.4211ZM171.065 12.4465C171.714 12.4464 172.341 12.6879 172.822 13.1239C172.887 13.1858 172.99 13.1844 173.053 13.1209L173.669 12.4984C173.702 12.4657 173.72 12.4215 173.719 12.3754C173.719 12.3294 173.7 12.2855 173.667 12.2535C172.201 10.8896 169.93 10.8896 168.464 12.2535C168.43 12.2855 168.412 12.3294 168.411 12.3755C168.411 12.4215 168.429 12.4658 168.461 12.4984L169.077 13.1209C169.141 13.1844 169.243 13.1858 169.308 13.1239C169.79 12.6882 170.415 12.4467 171.065 12.4465V12.4465ZM172.249 13.9319C172.282 13.8996 172.301 13.8551 172.3 13.8089C172.299 13.7627 172.279 13.719 172.244 13.6881C171.564 13.1124 170.567 13.1124 169.887 13.6881C169.852 13.719 169.832 13.7627 169.831 13.8089C169.83 13.855 169.849 13.8995 169.881 13.9319L170.947 15.0073C170.979 15.0389 171.021 15.0567 171.066 15.0567C171.11 15.0567 171.153 15.0389 171.184 15.0073L172.249 13.9319Z" fill="black"/>
<path d="M18.1787 8.67554C16.9658 8.67554 16.1015 9.50487 16.1015 10.6404V10.6481C16.1015 11.71 16.8534 12.4928 17.9269 12.4928C18.6942 12.4928 19.1825 12.1014 19.3879 11.6596H19.4654C19.4654 11.7022 19.4615 11.7448 19.4615 11.7875C19.4189 12.8571 19.043 13.7252 18.1555 13.7252C17.6633 13.7252 17.3184 13.4694 17.1712 13.078L17.1595 13.0392H16.1752L16.1829 13.0818C16.3612 13.9383 17.1285 14.5467 18.1555 14.5467C19.5623 14.5467 20.411 13.4306 20.411 11.5472V11.5394C20.411 9.52425 19.3724 8.67554 18.1787 8.67554ZM18.1749 11.7255C17.5393 11.7255 17.0781 11.2604 17.0781 10.6132V10.6055C17.0781 9.98155 17.5703 9.48937 18.1865 9.48937C18.8066 9.48937 19.291 9.9893 19.291 10.6287V10.6365C19.291 11.2682 18.8066 11.7255 18.1749 11.7255ZM22.0831 10.7837C22.4396 10.7837 22.6993 10.5125 22.6993 10.1714C22.6993 9.82653 22.4396 9.55913 22.0831 9.55913C21.7304 9.55913 21.4669 9.82653 21.4669 10.1714C21.4669 10.5125 21.7304 10.7837 22.0831 10.7837ZM22.0831 13.6593C22.4396 13.6593 22.6993 13.3919 22.6993 13.047C22.6993 12.7021 22.4396 12.4347 22.0831 12.4347C21.7304 12.4347 21.4669 12.7021 21.4669 13.047C21.4669 13.3919 21.7304 13.6593 22.0831 13.6593ZM26.468 14.4072H27.4252V13.3337H28.177V12.5083H27.4252V8.81506H26.0107C25.2511 9.96992 24.4566 11.2565 23.7319 12.516V13.3337H26.468V14.4072ZM24.662 12.5315V12.4734C25.2046 11.5239 25.8518 10.4892 26.4253 9.61339H26.4835V12.5315H24.662ZM30.4072 14.4072H31.407V8.81506H30.4111L28.95 9.84203V10.7837L30.3413 9.7994H30.4072V14.4072Z" fill="black"/>
</g>
</g>
<defs>
<clipPath id="clip0_632_32318">
<rect width="198.419" height="78.3076" fill="white"/>
</clipPath>
<clipPath id="clip1_632_32318">
<rect width="12.6988" height="12.6988" fill="white" transform="translate(12.6973 31.7451)"/>
</clipPath>
<clipPath id="clip2_632_32318">
<rect width="12.6988" height="12.6988" fill="white" transform="translate(173.02 31.7456)"/>
</clipPath>
<clipPath id="clip3_632_32318">
<rect width="9.52413" height="9.52413" fill="white" transform="translate(93.123 59.7881)"/>
</clipPath>
<clipPath id="clip4_632_32318">
<rect width="9.52413" height="9.52413" fill="white" transform="translate(142.861 59.7881)"/>
</clipPath>
<clipPath id="clip5_632_32318">
<rect width="198.419" height="23.2812" fill="white"/>
</clipPath>
</defs>
</svg>
