<svg fill="none" height="569" viewBox="0 0 274 569" width="274" xmlns="http://www.w3.org/2000/svg"><path clip-rule="evenodd" d="m233.206 0h-192.412c-21.7789 0-39.4342 17.6553-39.4342 39.4342v31.3915c-.792214.28-1.3598 1.0356-1.3598 1.9237v16.9975c0 .8881.567586 1.6436 1.3598 1.9236v16.5495c-.792214.28-1.3598 1.036-1.3598 1.924v32.635c0 .888.567586 1.644 1.3598 1.924v12.47c-.792214.28-1.3598 1.036-1.3598 1.924v32.635c0 .888.567586 1.644 1.3598 1.924v335.307c0 21.779 17.6553 39.434 39.4342 39.434h192.412c21.779 0 39.434-17.655 39.434-39.434v-344.146c.792-.28 1.36-1.036 1.36-1.924v-56.431c0-.889-.568-1.644-1.36-1.924v-85.1038c0-21.7789-17.655-39.4342-39.434-39.4342zm-223.68256 39.4317c0-.5516.01428-1.0999.04249-1.6446.30307-5.8502 2.21377-11.2753 5.29887-15.8418 1.563-2.3136 3.4275-4.4068 5.5371-6.2233 5.476-4.7152 12.6036-7.56575 20.397-7.56575h19.7741c2.343.82448 4.0224 3.05725 4.0224 5.68205 0 8.3147 6.7403 15.0549 15.0549 15.0549h114.0287c8.315 0 15.055-6.7402 15.055-15.0549 0-2.6248 1.68-4.85757 4.023-5.68205h20.454c17.205 0 31.166 13.89335 31.275 31.07315v.1388.0635 489.5283c0 17.273-14.002 31.276-31.275 31.276h-192.4121c-17.273 0-31.27546-14.003-31.27546-31.276z" fill="#000" fill-rule="evenodd"/></svg>