<svg width="274" height="569" viewBox="0 0 274 569" fill="none" xmlns="http://www.w3.org/2000/svg">
<g clip-path="url(#clip0_601_31133)">
<path fill-rule="evenodd" clip-rule="evenodd" d="M40.794 0H233.206C254.985 0 272.64 17.6553 272.64 39.4342V124.538C273.432 124.818 274 125.573 274 126.462V182.893C274 183.781 273.432 184.537 272.64 184.817V528.963C272.64 550.742 254.985 568.397 233.206 568.397H40.794C19.0151 568.397 1.3598 550.742 1.3598 528.963V193.656C0.567586 193.376 0 192.62 0 191.732V159.097C0 158.209 0.567586 157.453 1.3598 157.173V144.703C0.567586 144.423 0 143.667 0 142.779V110.144C0 109.256 0.567586 108.5 1.3598 108.22V91.6705C0.567586 91.3905 0 90.635 0 89.7469V72.7494C0 71.8613 0.567586 71.1057 1.3598 70.8257V39.4342C1.3598 17.6553 19.0151 0 40.794 0Z" fill="black"/>
</g>
<defs>
<clipPath id="clip0_601_31133">
<rect width="274" height="568.397" fill="white"/>
</clipPath>
</defs>
</svg>
