<svg width="259" height="437" viewBox="0 0 259 437" fill="none" xmlns="http://www.w3.org/2000/svg">
<g filter="url(#filter0_d_69_13072)">
<rect x="19.2715" y="3.02881" width="33.2703" height="15.2028" rx="2.75678" fill="white"/>
<path d="M23.544 7.68537V8.59511H26.1905L24.1891 13.4746H25.1898L27.2243 8.51241V7.68537H23.544ZM32.2546 13.5821C33.52 13.5821 34.4463 12.8047 34.4463 11.5559V7.68537H33.4952V11.498C33.4952 12.1762 33.1065 12.6558 32.2546 12.6558C31.4028 12.6558 31.0141 12.1762 31.0141 11.498V7.68537H30.063V11.5559C30.063 12.8047 30.981 13.5821 32.2546 13.5821ZM37.6574 9.23192C37.095 9.23192 36.6484 9.43868 36.3755 9.86874V9.33944H35.4823V13.4746H36.3755V11.2582C36.3755 10.4146 36.8387 10.0672 37.4259 10.0672C37.9882 10.0672 38.3521 10.398 38.3521 11.0266V13.4746H39.2453V10.9356C39.2453 9.86047 38.5837 9.23192 37.6574 9.23192ZM40.6537 8.71916C40.968 8.71916 41.2243 8.45451 41.2243 8.14851C41.2243 7.83424 40.968 7.57786 40.6537 7.57786C40.3394 7.57786 40.083 7.83424 40.083 8.14851C40.083 8.45451 40.3394 8.71916 40.6537 8.71916ZM40.2071 13.4746H41.1003V9.33944H40.2071V13.4746ZM44.4448 10.1996V9.33944H43.4193V8.18159L42.5261 8.44624V9.33944H41.7652V10.1996H42.5261V12.1844C42.5261 13.2596 43.0719 13.64 44.4448 13.4746V12.6724C43.7666 12.7055 43.4193 12.7137 43.4193 12.1844V10.1996H44.4448ZM45.9037 10.4807C45.9037 10.183 46.1849 10.0424 46.5074 10.0424C46.8465 10.0424 47.136 10.1913 47.2848 10.5138L48.0374 10.092C47.748 9.5462 47.1856 9.23192 46.5074 9.23192C45.6638 9.23192 44.9939 9.71987 44.9939 10.4973C44.9939 11.9777 47.2187 11.5642 47.2187 12.3002C47.2187 12.631 46.9127 12.7634 46.5157 12.7634C46.0608 12.7634 45.73 12.5401 45.5977 12.1679L44.8285 12.6145C45.0932 13.21 45.6886 13.5821 46.5157 13.5821C47.4089 13.5821 48.1284 13.1355 48.1284 12.3085C48.1284 10.7785 45.9037 11.2333 45.9037 10.4807Z" fill="#3C4043" fill-opacity="0.5"/>
<path d="M32.4609 18.2314H39.3529L35.9069 22.3666L32.4609 18.2314Z" fill="white"/>
</g>
<g filter="url(#filter1_d_69_13072)">
<rect x="119.203" y="21.6377" width="38.2703" height="15.2028" rx="2.75678" fill="white"/>
<path d="M125.365 26.2943L123.843 26.8318L124.075 27.6423L125.241 27.3115V32.0835H126.192V26.2943H125.365ZM129.418 32.191C130.873 32.191 131.692 30.9753 131.692 29.1889C131.692 27.4025 130.873 26.1867 129.418 26.1867C127.962 26.1867 127.144 27.4025 127.144 29.1889C127.144 30.9753 127.962 32.191 129.418 32.191ZM129.418 31.2647C128.566 31.2647 128.095 30.5204 128.095 29.1889C128.095 27.8574 128.566 27.113 129.418 27.113C130.278 27.113 130.741 27.8574 130.741 29.1889C130.741 30.5204 130.278 31.2647 129.418 31.2647ZM136.802 32.191C138.068 32.191 138.994 31.4136 138.994 30.1648V26.2943H138.043V30.1069C138.043 30.7851 137.654 31.2647 136.802 31.2647C135.95 31.2647 135.562 30.7851 135.562 30.1069V26.2943H134.611V30.1648C134.611 31.4136 135.529 32.191 136.802 32.191ZM142.205 27.8408C141.643 27.8408 141.196 28.0476 140.923 28.4776V27.9483H140.03V32.0835H140.923V29.867C140.923 29.0235 141.386 28.6761 141.974 28.6761C142.536 28.6761 142.9 29.0069 142.9 29.6355V32.0835H143.793V29.5445C143.793 28.4694 143.131 27.8408 142.205 27.8408ZM145.201 27.3281C145.516 27.3281 145.772 27.0634 145.772 26.7574C145.772 26.4431 145.516 26.1867 145.201 26.1867C144.887 26.1867 144.631 26.4431 144.631 26.7574C144.631 27.0634 144.887 27.3281 145.201 27.3281ZM144.755 32.0835H145.648V27.9483H144.755V32.0835ZM148.992 28.8084V27.9483H147.967V26.7905L147.074 27.0551V27.9483H146.313V28.8084H147.074V30.7933C147.074 31.8685 147.62 32.2489 148.992 32.0835V31.2813C148.314 31.3144 147.967 31.3226 147.967 30.7933V28.8084H148.992ZM150.451 29.0896C150.451 28.7919 150.733 28.6513 151.055 28.6513C151.394 28.6513 151.684 28.8002 151.833 29.1227L152.585 28.7009C152.296 28.1551 151.733 27.8408 151.055 27.8408C150.212 27.8408 149.542 28.3288 149.542 29.1062C149.542 30.5866 151.766 30.173 151.766 30.9091C151.766 31.2399 151.46 31.3722 151.063 31.3722C150.608 31.3722 150.278 31.1489 150.145 30.7768L149.376 31.2234C149.641 31.8188 150.236 32.191 151.063 32.191C151.957 32.191 152.676 31.7444 152.676 30.9174C152.676 29.3874 150.451 29.8422 150.451 29.0896Z" fill="#333333"/>
<path d="M134.893 36.8403H141.785L138.339 40.9755L134.893 36.8403Z" fill="white"/>
</g>
<g filter="url(#filter2_d_69_13072)">
<rect x="190.881" y="5.78516" width="34.2703" height="15.2028" rx="2.75678" fill="#366CA5"/>
<path d="M198.737 13.2206C199.134 12.9642 199.399 12.5507 199.399 11.9965C199.399 10.88 198.522 10.3342 197.563 10.3342C196.595 10.3342 195.727 10.88 195.727 11.9965C195.727 12.5507 195.991 12.9642 196.38 13.2206C195.851 13.5183 195.528 14.0228 195.528 14.6265C195.528 15.7017 196.355 16.3385 197.563 16.3385C198.77 16.3385 199.589 15.7017 199.589 14.6265C199.589 14.0145 199.275 13.5183 198.737 13.2206ZM197.563 11.2357C198.042 11.2357 198.447 11.5003 198.447 12.0379C198.447 12.5507 198.042 12.8401 197.563 12.8401C197.075 12.8401 196.678 12.5507 196.678 12.0379C196.678 11.5003 197.075 11.2357 197.563 11.2357ZM197.563 15.437C196.934 15.437 196.479 15.1227 196.479 14.5355C196.479 13.9401 196.934 13.6341 197.563 13.6341C198.183 13.6341 198.638 13.9401 198.638 14.5355C198.638 15.1227 198.183 15.437 197.563 15.437ZM204.655 16.3385C205.92 16.3385 206.846 15.5611 206.846 14.3122V10.4417H205.895V14.2543C205.895 14.9325 205.507 15.4122 204.655 15.4122C203.803 15.4122 203.414 14.9325 203.414 14.2543V10.4417H202.463V14.3122C202.463 15.5611 203.381 16.3385 204.655 16.3385ZM210.058 11.9883C209.495 11.9883 209.049 12.195 208.776 12.6251V12.0958H207.882V16.231H208.776V14.0145C208.776 13.1709 209.239 12.8236 209.826 12.8236C210.388 12.8236 210.752 13.1544 210.752 13.7829V16.231H211.645V13.692C211.645 12.6168 210.984 11.9883 210.058 11.9883ZM213.054 11.4755C213.368 11.4755 213.624 11.2109 213.624 10.9049C213.624 10.5906 213.368 10.3342 213.054 10.3342C212.74 10.3342 212.483 10.5906 212.483 10.9049C212.483 11.2109 212.74 11.4755 213.054 11.4755ZM212.607 16.231H213.5V12.0958H212.607V16.231ZM216.845 12.9559V12.0958H215.819V10.9379L214.926 11.2026V12.0958H214.165V12.9559H214.926V14.9408C214.926 16.0159 215.472 16.3964 216.845 16.231V15.4287C216.167 15.4618 215.819 15.4701 215.819 14.9408V12.9559H216.845ZM218.304 13.2371C218.304 12.9394 218.585 12.7988 218.908 12.7988C219.247 12.7988 219.536 12.9476 219.685 13.2702L220.438 12.8484C220.148 12.3025 219.586 11.9883 218.908 11.9883C218.064 11.9883 217.394 12.4762 217.394 13.2536C217.394 14.734 219.619 14.3205 219.619 15.0566C219.619 15.3874 219.313 15.5197 218.916 15.5197C218.461 15.5197 218.13 15.2964 217.998 14.9242L217.229 15.3708C217.493 15.9663 218.089 16.3385 218.916 16.3385C219.809 16.3385 220.529 15.8919 220.529 15.0648C220.529 13.5348 218.304 13.9897 218.304 13.2371Z" fill="white"/>
<path d="M204.57 20.9878H211.462L208.016 25.123L204.57 20.9878Z" fill="#366CA5"/>
</g>
<g filter="url(#filter3_d_69_13072)">
<rect x="69.5801" y="96.7588" width="30.2703" height="15.2028" rx="2.75678" fill="white"/>
<path d="M78.2008 105.617C78.2008 104.517 77.3572 104.202 76.5715 103.905V102.267C76.9106 102.342 77.1587 102.548 77.3076 102.921L78.1098 102.457C77.8121 101.779 77.2414 101.415 76.5715 101.324V100.588H76.034V101.316C75.1738 101.399 74.4212 101.961 74.4212 102.937C74.4212 103.996 75.2317 104.351 76.034 104.649V106.369C75.4964 106.311 75.1573 106.022 74.9754 105.559L74.1566 106.03C74.4461 106.783 75.116 107.246 76.034 107.304V108.032H76.5715V107.296C77.5143 107.18 78.2008 106.576 78.2008 105.617ZM75.3723 102.937C75.3723 102.565 75.6287 102.317 76.034 102.251V103.69C75.5708 103.475 75.3723 103.284 75.3723 102.937ZM76.5715 106.361V104.856C76.9933 105.046 77.2497 105.236 77.2497 105.625C77.2497 105.981 77.0264 106.27 76.5715 106.361ZM80.0767 101.415L78.555 101.953L78.7866 102.763L79.9527 102.433V107.205H80.9038V101.415H80.0767ZM85.8252 103.284C85.8252 102.118 84.9816 101.308 83.7824 101.308C82.5832 101.308 81.7314 102.118 81.7314 103.284C81.7314 104.451 82.5832 105.261 83.7824 105.261H83.8817L82.5584 107.205H83.6501L85.4778 104.451C85.7011 104.128 85.8252 103.731 85.8252 103.284ZM82.6825 103.284C82.6825 102.623 83.1539 102.209 83.7824 102.209C84.411 102.209 84.8741 102.623 84.8741 103.284C84.8741 103.946 84.411 104.36 83.7824 104.36C83.1539 104.36 82.6825 103.938 82.6825 103.284ZM88.1441 103.599H87.4163L87.5156 102.309H89.8644V101.415H86.6389L86.4156 104.525H88.1028C88.7313 104.525 89.1614 104.872 89.1614 105.451C89.1614 106.03 88.7313 106.386 88.0862 106.386C87.4825 106.386 87.0855 106.113 86.9367 105.6L86.1179 106.072C86.4239 106.907 87.2096 107.312 88.0862 107.312C89.1531 107.312 90.1125 106.667 90.1125 105.451C90.1125 104.244 89.1945 103.599 88.1441 103.599ZM92.917 107.312C94.3726 107.312 95.1914 106.096 95.1914 104.31C95.1914 102.524 94.3726 101.308 92.917 101.308C91.4614 101.308 90.6427 102.524 90.6427 104.31C90.6427 106.096 91.4614 107.312 92.917 107.312ZM92.917 106.386C92.0652 106.386 91.5938 105.641 91.5938 104.31C91.5938 102.978 92.0652 102.234 92.917 102.234C93.7771 102.234 94.2403 102.978 94.2403 104.31C94.2403 105.641 93.7771 106.386 92.917 106.386Z" fill="#333333"/>
<path d="M81.2695 111.961H88.1615L84.7155 116.097L81.2695 111.961Z" fill="white"/>
</g>
<g filter="url(#filter4_d_69_13072)">
<rect x="164.002" y="92.625" width="37.2703" height="15.2028" rx="2.75678" fill="white"/>
<path d="M170.08 97.2816L168.558 97.8191L168.789 98.6296L169.956 98.2988V103.071H170.907V97.2816H170.08ZM171.784 103.071H175.596V102.153H173.198L174.505 100.846C175.059 100.284 175.489 99.68 175.489 98.9604C175.489 97.8109 174.588 97.174 173.636 97.174C172.867 97.174 172.139 97.5545 171.767 98.3484L172.57 98.8198C172.793 98.3567 173.165 98.1003 173.645 98.1003C174.141 98.1003 174.538 98.4146 174.538 98.9935C174.538 99.4319 174.215 99.8536 173.802 100.267L171.784 102.326V103.071ZM180.685 103.178C181.951 103.178 182.877 102.401 182.877 101.152V97.2816H181.926V101.094C181.926 101.772 181.537 102.252 180.685 102.252C179.833 102.252 179.445 101.772 179.445 101.094V97.2816H178.494V101.152C178.494 102.401 179.412 103.178 180.685 103.178ZM186.088 98.8281C185.526 98.8281 185.079 99.0349 184.806 99.4649V98.9356H183.913V103.071H184.806V100.854C184.806 100.011 185.269 99.6634 185.856 99.6634C186.419 99.6634 186.783 99.9942 186.783 100.623V103.071H187.676V100.532C187.676 99.4567 187.014 98.8281 186.088 98.8281ZM189.084 98.3154C189.399 98.3154 189.655 98.0507 189.655 97.7447C189.655 97.4304 189.399 97.174 189.084 97.174C188.77 97.174 188.514 97.4304 188.514 97.7447C188.514 98.0507 188.77 98.3154 189.084 98.3154ZM188.638 103.071H189.531V98.9356H188.638V103.071ZM192.875 99.7957V98.9356H191.85V97.7778L190.957 98.0424V98.9356H190.196V99.7957H190.957V101.781C190.957 102.856 191.502 103.236 192.875 103.071V102.269C192.197 102.302 191.85 102.31 191.85 101.781V99.7957H192.875ZM194.334 100.077C194.334 99.7792 194.615 99.6386 194.938 99.6386C195.277 99.6386 195.567 99.7875 195.715 100.11L196.468 99.6882C196.179 99.1424 195.616 98.8281 194.938 98.8281C194.094 98.8281 193.425 99.3161 193.425 100.093C193.425 101.574 195.649 101.16 195.649 101.896C195.649 102.227 195.343 102.36 194.946 102.36C194.491 102.36 194.161 102.136 194.028 101.764L193.259 102.211C193.524 102.806 194.119 103.178 194.946 103.178C195.839 103.178 196.559 102.732 196.559 101.905C196.559 100.375 194.334 100.83 194.334 100.077Z" fill="#333333"/>
<path d="M179.191 107.828H186.083L182.637 111.963L179.191 107.828Z" fill="white"/>
</g>
<g filter="url(#filter5_d_69_13072)">
<rect x="188.123" y="62.2998" width="34.2703" height="15.2028" rx="2.75678" fill="white"/>
<path d="M194.803 68.8999H194.696L196.019 66.9564H194.936L193.1 69.7104C192.876 70.0329 192.752 70.4299 192.752 70.8765C192.752 72.0426 193.596 72.8531 194.803 72.8531C196.002 72.8531 196.846 72.0426 196.846 70.8765C196.846 69.7104 196.002 68.8999 194.803 68.8999ZM194.803 71.9517C194.166 71.9517 193.703 71.5381 193.703 70.8765C193.703 70.2149 194.166 69.8014 194.803 69.8014C195.432 69.8014 195.895 70.2149 195.895 70.8765C195.895 71.5299 195.432 71.9517 194.803 71.9517ZM201.832 72.8531C203.098 72.8531 204.024 72.0757 204.024 70.8269V66.9564H203.073V70.769C203.073 71.4472 202.684 71.9268 201.832 71.9268C200.98 71.9268 200.592 71.4472 200.592 70.769V66.9564H199.641V70.8269C199.641 72.0757 200.559 72.8531 201.832 72.8531ZM207.235 68.5029C206.673 68.5029 206.226 68.7097 205.953 69.1397V68.6104H205.06V72.7456H205.953V70.5292C205.953 69.6856 206.416 69.3382 207.004 69.3382C207.566 69.3382 207.93 69.669 207.93 70.2976V72.7456H208.823V70.2066C208.823 69.1315 208.161 68.5029 207.235 68.5029ZM210.231 67.9902C210.546 67.9902 210.802 67.7255 210.802 67.4195C210.802 67.1052 210.546 66.8489 210.231 66.8489C209.917 66.8489 209.661 67.1052 209.661 67.4195C209.661 67.7255 209.917 67.9902 210.231 67.9902ZM209.785 72.7456H210.678V68.6104H209.785V72.7456ZM214.022 69.4706V68.6104H212.997V67.4526L212.104 67.7172V68.6104H211.343V69.4706H212.104V71.4554C212.104 72.5306 212.65 72.911 214.022 72.7456V71.9434C213.344 71.9765 212.997 71.9847 212.997 71.4554V69.4706H214.022ZM215.481 69.7517C215.481 69.454 215.763 69.3134 216.085 69.3134C216.424 69.3134 216.714 69.4623 216.863 69.7848L217.615 69.363C217.326 68.8172 216.763 68.5029 216.085 68.5029C215.242 68.5029 214.572 68.9909 214.572 69.7683C214.572 71.2487 216.796 70.8352 216.796 71.5712C216.796 71.902 216.49 72.0344 216.093 72.0344C215.639 72.0344 215.308 71.8111 215.175 71.4389L214.406 71.8855C214.671 72.481 215.266 72.8531 216.093 72.8531C216.987 72.8531 217.706 72.4065 217.706 71.5795C217.706 70.0495 215.481 70.5043 215.481 69.7517Z" fill="#333333"/>
<path d="M201.812 77.5024H208.704L205.258 81.6376L201.812 77.5024Z" fill="white"/>
</g>
<g filter="url(#filter6_d_69_13072)">
<rect x="201.904" y="289.734" width="34.2703" height="15.2028" rx="2.75678" fill="white"/>
<path d="M208.584 296.334H208.477L209.8 294.391H208.717L206.881 297.145C206.657 297.468 206.533 297.864 206.533 298.311C206.533 299.477 207.377 300.288 208.584 300.288C209.784 300.288 210.627 299.477 210.627 298.311C210.627 297.145 209.784 296.334 208.584 296.334ZM208.584 299.386C207.948 299.386 207.484 298.973 207.484 298.311C207.484 297.649 207.948 297.236 208.584 297.236C209.213 297.236 209.676 297.649 209.676 298.311C209.676 298.964 209.213 299.386 208.584 299.386ZM215.614 300.288C216.879 300.288 217.805 299.51 217.805 298.261V294.391H216.854V298.204C216.854 298.882 216.465 299.361 215.614 299.361C214.762 299.361 214.373 298.882 214.373 298.204V294.391H213.422V298.261C213.422 299.51 214.34 300.288 215.614 300.288ZM221.016 295.937C220.454 295.937 220.007 296.144 219.734 296.574V296.045H218.841V300.18H219.734V297.964C219.734 297.12 220.198 296.773 220.785 296.773C221.347 296.773 221.711 297.104 221.711 297.732V300.18H222.604V297.641C222.604 296.566 221.943 295.937 221.016 295.937ZM224.013 295.425C224.327 295.425 224.583 295.16 224.583 294.854C224.583 294.54 224.327 294.283 224.013 294.283C223.698 294.283 223.442 294.54 223.442 294.854C223.442 295.16 223.698 295.425 224.013 295.425ZM223.566 300.18H224.459V296.045H223.566V300.18ZM227.804 296.905V296.045H226.778V294.887L225.885 295.152V296.045H225.124V296.905H225.885V298.89C225.885 299.965 226.431 300.346 227.804 300.18V299.378C227.126 299.411 226.778 299.419 226.778 298.89V296.905H227.804ZM229.263 297.186C229.263 296.889 229.544 296.748 229.866 296.748C230.205 296.748 230.495 296.897 230.644 297.219L231.396 296.798C231.107 296.252 230.545 295.937 229.866 295.937C229.023 295.937 228.353 296.425 228.353 297.203C228.353 298.683 230.578 298.27 230.578 299.006C230.578 299.337 230.272 299.469 229.875 299.469C229.42 299.469 229.089 299.246 228.957 298.873L228.187 299.32C228.452 299.916 229.048 300.288 229.875 300.288C230.768 300.288 231.487 299.841 231.487 299.014C231.487 297.484 229.263 297.939 229.263 297.186Z" fill="#333333"/>
<path d="M215.594 304.937H222.486L219.04 309.072L215.594 304.937Z" fill="white"/>
</g>
<g filter="url(#filter7_d_69_13072)">
<rect x="217.76" y="95.3813" width="34.2703" height="15.2028" rx="2.75678" fill="white"/>
<path d="M224.44 101.981H224.332L225.656 100.038H224.572L222.736 102.792C222.513 103.114 222.389 103.511 222.389 103.958C222.389 105.124 223.232 105.935 224.44 105.935C225.639 105.935 226.483 105.124 226.483 103.958C226.483 102.792 225.639 101.981 224.44 101.981ZM224.44 105.033C223.803 105.033 223.34 104.62 223.34 103.958C223.34 103.296 223.803 102.883 224.44 102.883C225.068 102.883 225.532 103.296 225.532 103.958C225.532 104.611 225.068 105.033 224.44 105.033ZM231.469 105.935C232.734 105.935 233.661 105.157 233.661 103.908V100.038H232.71V103.851C232.71 104.529 232.321 105.008 231.469 105.008C230.617 105.008 230.229 104.529 230.229 103.851V100.038H229.277V103.908C229.277 105.157 230.195 105.935 231.469 105.935ZM236.872 101.584C236.309 101.584 235.863 101.791 235.59 102.221V101.692H234.697V105.827H235.59V103.611C235.59 102.767 236.053 102.42 236.64 102.42C237.203 102.42 237.567 102.751 237.567 103.379V105.827H238.46V103.288C238.46 102.213 237.798 101.584 236.872 101.584ZM239.868 101.072C240.182 101.072 240.439 100.807 240.439 100.501C240.439 100.187 240.182 99.9304 239.868 99.9304C239.554 99.9304 239.297 100.187 239.297 100.501C239.297 100.807 239.554 101.072 239.868 101.072ZM239.422 105.827H240.315V101.692H239.422V105.827ZM243.659 102.552V101.692H242.634V100.534L241.74 100.799V101.692H240.98V102.552H241.74V104.537C241.74 105.612 242.286 105.993 243.659 105.827V105.025C242.981 105.058 242.634 105.066 242.634 104.537V102.552H243.659ZM245.118 102.833C245.118 102.536 245.399 102.395 245.722 102.395C246.061 102.395 246.35 102.544 246.499 102.866L247.252 102.445C246.962 101.899 246.4 101.584 245.722 101.584C244.878 101.584 244.208 102.072 244.208 102.85C244.208 104.33 246.433 103.917 246.433 104.653C246.433 104.984 246.127 105.116 245.73 105.116C245.275 105.116 244.944 104.893 244.812 104.52L244.043 104.967C244.308 105.562 244.903 105.935 245.73 105.935C246.623 105.935 247.343 105.488 247.343 104.661C247.343 103.131 245.118 103.586 245.118 102.833Z" fill="#333333"/>
<path d="M231.449 110.584H238.341L234.895 114.719L231.449 110.584Z" fill="white"/>
</g>
<g filter="url(#filter8_d_69_13072)">
<rect x="108.869" y="71.9482" width="34.2703" height="15.2028" rx="2.75678" fill="white"/>
<path d="M116.725 79.3836C117.122 79.1273 117.387 78.7137 117.387 78.1596C117.387 77.0431 116.51 76.4973 115.551 76.4973C114.583 76.4973 113.715 77.0431 113.715 78.1596C113.715 78.7137 113.979 79.1273 114.368 79.3836C113.839 79.6814 113.516 80.1859 113.516 80.7896C113.516 81.8647 114.343 82.5016 115.551 82.5016C116.758 82.5016 117.577 81.8647 117.577 80.7896C117.577 80.1776 117.263 79.6814 116.725 79.3836ZM115.551 77.3988C116.031 77.3988 116.436 77.6634 116.436 78.201C116.436 78.7137 116.031 79.0032 115.551 79.0032C115.063 79.0032 114.666 78.7137 114.666 78.201C114.666 77.6634 115.063 77.3988 115.551 77.3988ZM115.551 81.6001C114.922 81.6001 114.467 81.2858 114.467 80.6986C114.467 80.1032 114.922 79.7972 115.551 79.7972C116.171 79.7972 116.626 80.1032 116.626 80.6986C116.626 81.2858 116.171 81.6001 115.551 81.6001ZM122.643 82.5016C123.908 82.5016 124.835 81.7241 124.835 80.4753V76.6048H123.884V80.4174C123.884 81.0956 123.495 81.5753 122.643 81.5753C121.791 81.5753 121.402 81.0956 121.402 80.4174V76.6048H120.451V80.4753C120.451 81.7241 121.369 82.5016 122.643 82.5016ZM128.046 78.1514C127.483 78.1514 127.037 78.3581 126.764 78.7882V78.2589H125.871V82.394H126.764V80.1776C126.764 79.334 127.227 78.9867 127.814 78.9867C128.377 78.9867 128.741 79.3175 128.741 79.946V82.394H129.634V79.855C129.634 78.7799 128.972 78.1514 128.046 78.1514ZM131.042 77.6386C131.356 77.6386 131.613 77.3739 131.613 77.0679C131.613 76.7537 131.356 76.4973 131.042 76.4973C130.728 76.4973 130.471 76.7537 130.471 77.0679C130.471 77.3739 130.728 77.6386 131.042 77.6386ZM130.595 82.394H131.489V78.2589H130.595V82.394ZM134.833 79.119V78.2589H133.808V77.101L132.914 77.3657V78.2589H132.154V79.119H132.914V81.1039C132.914 82.179 133.46 82.5594 134.833 82.394V81.5918C134.155 81.6249 133.808 81.6332 133.808 81.1039V79.119H134.833ZM136.292 79.4002C136.292 79.1024 136.573 78.9619 136.896 78.9619C137.235 78.9619 137.524 79.1107 137.673 79.4333L138.426 79.0115C138.136 78.4656 137.574 78.1514 136.896 78.1514C136.052 78.1514 135.382 78.6393 135.382 79.4167C135.382 80.8971 137.607 80.4836 137.607 81.2197C137.607 81.5505 137.301 81.6828 136.904 81.6828C136.449 81.6828 136.118 81.4595 135.986 81.0873L135.217 81.5339C135.482 82.1294 136.077 82.5016 136.904 82.5016C137.797 82.5016 138.517 82.055 138.517 81.2279C138.517 79.6979 136.292 80.1528 136.292 79.4002Z" fill="#333333"/>
<path d="M122.559 87.1509H129.451L126.005 91.286L122.559 87.1509Z" fill="white"/>
</g>
<g filter="url(#filter9_d_69_13072)">
<rect x="24.7852" y="55.4072" width="33.2703" height="15.2028" rx="2.75678" fill="white"/>
<path d="M29.0577 60.0638V60.9735H31.7042L29.7028 65.853H30.7035L32.738 60.8908V60.0638H29.0577ZM37.7683 65.9605C39.0337 65.9605 39.9599 65.1831 39.9599 63.9343V60.0638H39.0089V63.8764C39.0089 64.5546 38.6202 65.0343 37.7683 65.0343C36.9165 65.0343 36.5278 64.5546 36.5278 63.8764V60.0638H35.5767V63.9343C35.5767 65.1831 36.4947 65.9605 37.7683 65.9605ZM43.1711 61.6103C42.6087 61.6103 42.1621 61.8171 41.8892 62.2472V61.7179H40.996V65.853H41.8892V63.6366C41.8892 62.793 42.3523 62.4456 42.9395 62.4456C43.5019 62.4456 43.8658 62.7765 43.8658 63.405V65.853H44.759V63.314C44.759 62.2389 44.0974 61.6103 43.1711 61.6103ZM46.1674 61.0976C46.4816 61.0976 46.738 60.8329 46.738 60.5269C46.738 60.2127 46.4816 59.9563 46.1674 59.9563C45.8531 59.9563 45.5967 60.2127 45.5967 60.5269C45.5967 60.8329 45.8531 61.0976 46.1674 61.0976ZM45.7208 65.853H46.614V61.7179H45.7208V65.853ZM49.9585 62.578V61.7179H48.9329V60.56L48.0397 60.8247V61.7179H47.2789V62.578H48.0397V64.5629C48.0397 65.638 48.5856 66.0184 49.9585 65.853V65.0508C49.2803 65.0839 48.9329 65.0922 48.9329 64.5629V62.578H49.9585ZM51.4173 62.8592C51.4173 62.5614 51.6985 62.4208 52.0211 62.4208C52.3602 62.4208 52.6496 62.5697 52.7985 62.8922L53.5511 62.4705C53.2616 61.9246 52.6992 61.6103 52.0211 61.6103C51.1775 61.6103 50.5076 62.0983 50.5076 62.8757C50.5076 64.3561 52.7323 63.9426 52.7323 64.6786C52.7323 65.0095 52.4263 65.1418 52.0293 65.1418C51.5745 65.1418 51.2437 64.9185 51.1113 64.5463L50.3422 64.9929C50.6068 65.5884 51.2023 65.9605 52.0293 65.9605C52.9225 65.9605 53.6421 65.5139 53.6421 64.6869C53.6421 63.1569 51.4173 63.6118 51.4173 62.8592Z" fill="#333333"/>
<path d="M37.9746 70.6099H44.8666L41.4206 74.745L37.9746 70.6099Z" fill="white"/>
</g>
<g filter="url(#filter10_d_69_13072)">
<rect x="17.2031" y="129.842" width="37.2703" height="15.2028" rx="2.75678" fill="white"/>
<path d="M23.2808 134.498L21.759 135.036L21.9906 135.846L23.1567 135.516V140.288H24.1078V134.498H23.2808ZM24.985 140.288H28.7977V139.37H26.3993L27.706 138.063C28.2601 137.5 28.6902 136.897 28.6902 136.177C28.6902 135.028 27.7887 134.391 26.8376 134.391C26.0685 134.391 25.3407 134.771 24.9685 135.565L25.7707 136.037C25.994 135.574 26.3662 135.317 26.8459 135.317C27.3421 135.317 27.7391 135.631 27.7391 136.21C27.7391 136.649 27.4165 137.07 27.003 137.484L24.985 139.543V140.288ZM33.8864 140.395C35.1517 140.395 36.078 139.618 36.078 138.369V134.498H35.1269V138.311C35.1269 138.989 34.7382 139.469 33.8864 139.469C33.0345 139.469 32.6458 138.989 32.6458 138.311V134.498H31.6947V138.369C31.6947 139.618 32.6127 140.395 33.8864 140.395ZM39.2892 136.045C38.7268 136.045 38.2802 136.252 38.0073 136.682V136.152H37.1141V140.288H38.0073V138.071C38.0073 137.228 38.4704 136.88 39.0576 136.88C39.62 136.88 39.9839 137.211 39.9839 137.84V140.288H40.8771V137.749C40.8771 136.673 40.2155 136.045 39.2892 136.045ZM42.2854 135.532C42.5997 135.532 42.8561 135.268 42.8561 134.961C42.8561 134.647 42.5997 134.391 42.2854 134.391C41.9712 134.391 41.7148 134.647 41.7148 134.961C41.7148 135.268 41.9712 135.532 42.2854 135.532ZM41.8388 140.288H42.732V136.152H41.8388V140.288ZM46.0765 137.013V136.152H45.051V134.995L44.1578 135.259V136.152H43.3969V137.013H44.1578V138.997C44.1578 140.073 44.7037 140.453 46.0765 140.288V139.485C45.3984 139.518 45.051 139.527 45.051 138.997V137.013H46.0765ZM47.5354 137.294C47.5354 136.996 47.8166 136.855 48.1391 136.855C48.4782 136.855 48.7677 137.004 48.9166 137.327L49.6692 136.905C49.3797 136.359 48.8173 136.045 48.1391 136.045C47.2956 136.045 46.6257 136.533 46.6257 137.31C46.6257 138.791 48.8504 138.377 48.8504 139.113C48.8504 139.444 48.5444 139.576 48.1474 139.576C47.6925 139.576 47.3617 139.353 47.2294 138.981L46.4603 139.427C46.7249 140.023 47.3204 140.395 48.1474 140.395C49.0406 140.395 49.7601 139.949 49.7601 139.121C49.7601 137.591 47.5354 138.046 47.5354 137.294Z" fill="#333333"/>
<path d="M32.3926 145.044H39.2845L35.8386 149.18L32.3926 145.044Z" fill="white"/>
</g>
<g filter="url(#filter11_d_69_13072)">
<rect x="95.7695" y="137.422" width="34.2703" height="15.2028" rx="2.75678" fill="white"/>
<path d="M103.626 144.858C104.023 144.601 104.287 144.188 104.287 143.634C104.287 142.517 103.411 141.971 102.451 141.971C101.484 141.971 100.615 142.517 100.615 143.634C100.615 144.188 100.88 144.601 101.269 144.858C100.739 145.155 100.417 145.66 100.417 146.264C100.417 147.339 101.244 147.976 102.451 147.976C103.659 147.976 104.477 147.339 104.477 146.264C104.477 145.652 104.163 145.155 103.626 144.858ZM102.451 142.873C102.931 142.873 103.336 143.138 103.336 143.675C103.336 144.188 102.931 144.477 102.451 144.477C101.963 144.477 101.566 144.188 101.566 143.675C101.566 143.138 101.963 142.873 102.451 142.873ZM102.451 147.074C101.823 147.074 101.368 146.76 101.368 146.173C101.368 145.577 101.823 145.271 102.451 145.271C103.072 145.271 103.526 145.577 103.526 146.173C103.526 146.76 103.072 147.074 102.451 147.074ZM109.543 147.976C110.809 147.976 111.735 147.198 111.735 145.949V142.079H110.784V145.892C110.784 146.57 110.395 147.049 109.543 147.049C108.692 147.049 108.303 146.57 108.303 145.892V142.079H107.352V145.949C107.352 147.198 108.27 147.976 109.543 147.976ZM114.946 143.625C114.384 143.625 113.937 143.832 113.664 144.262V143.733H112.771V147.868H113.664V145.652C113.664 144.808 114.127 144.461 114.715 144.461C115.277 144.461 115.641 144.792 115.641 145.42V147.868H116.534V145.329C116.534 144.254 115.873 143.625 114.946 143.625ZM117.942 143.113C118.257 143.113 118.513 142.848 118.513 142.542C118.513 142.228 118.257 141.971 117.942 141.971C117.628 141.971 117.372 142.228 117.372 142.542C117.372 142.848 117.628 143.113 117.942 143.113ZM117.496 147.868H118.389V143.733H117.496V147.868ZM121.734 144.593V143.733H120.708V142.575L119.815 142.84V143.733H119.054V144.593H119.815V146.578C119.815 147.653 120.361 148.034 121.734 147.868V147.066C121.055 147.099 120.708 147.107 120.708 146.578V144.593H121.734ZM123.192 144.874C123.192 144.577 123.474 144.436 123.796 144.436C124.135 144.436 124.425 144.585 124.574 144.907L125.326 144.486C125.037 143.94 124.474 143.625 123.796 143.625C122.953 143.625 122.283 144.113 122.283 144.891C122.283 146.371 124.507 145.958 124.507 146.694C124.507 147.025 124.201 147.157 123.804 147.157C123.35 147.157 123.019 146.934 122.886 146.561L122.117 147.008C122.382 147.604 122.977 147.976 123.804 147.976C124.698 147.976 125.417 147.529 125.417 146.702C125.417 145.172 123.192 145.627 123.192 144.874Z" fill="#333333"/>
<path d="M109.459 152.625H116.351L112.905 156.76L109.459 152.625Z" fill="white"/>
</g>
<g filter="url(#filter12_d_69_13072)">
<rect x="199.148" y="139.491" width="34.2703" height="15.2028" rx="2.75678" fill="white"/>
<path d="M205.845 146.331H205.117L205.217 145.04H207.565V144.147H204.34L204.117 147.257H205.804C206.432 147.257 206.862 147.604 206.862 148.183C206.862 148.762 206.432 149.118 205.787 149.118C205.184 149.118 204.787 148.845 204.638 148.332L203.819 148.803C204.125 149.639 204.911 150.044 205.787 150.044C206.854 150.044 207.813 149.399 207.813 148.183C207.813 146.976 206.895 146.331 205.845 146.331ZM212.858 150.044C214.123 150.044 215.049 149.267 215.049 148.018V144.147H214.098V147.96C214.098 148.638 213.71 149.118 212.858 149.118C212.006 149.118 211.617 148.638 211.617 147.96V144.147H210.666V148.018C210.666 149.267 211.584 150.044 212.858 150.044ZM218.261 145.694C217.698 145.694 217.252 145.901 216.979 146.331V145.801H216.085V149.937H216.979V147.72C216.979 146.876 217.442 146.529 218.029 146.529C218.591 146.529 218.955 146.86 218.955 147.489V149.937H219.848V147.398C219.848 146.322 219.187 145.694 218.261 145.694ZM221.257 145.181C221.571 145.181 221.827 144.916 221.827 144.61C221.827 144.296 221.571 144.04 221.257 144.04C220.943 144.04 220.686 144.296 220.686 144.61C220.686 144.916 220.943 145.181 221.257 145.181ZM220.81 149.937H221.703V145.801H220.81V149.937ZM225.048 146.661V145.801H224.022V144.644L223.129 144.908V145.801H222.368V146.661H223.129V148.646C223.129 149.721 223.675 150.102 225.048 149.937V149.134C224.37 149.167 224.022 149.176 224.022 148.646V146.661H225.048ZM226.507 146.943C226.507 146.645 226.788 146.504 227.11 146.504C227.45 146.504 227.739 146.653 227.888 146.976L228.641 146.554C228.351 146.008 227.789 145.694 227.11 145.694C226.267 145.694 225.597 146.182 225.597 146.959C225.597 148.44 227.822 148.026 227.822 148.762C227.822 149.093 227.516 149.225 227.119 149.225C226.664 149.225 226.333 149.002 226.201 148.63L225.432 149.076C225.696 149.672 226.292 150.044 227.119 150.044C228.012 150.044 228.731 149.597 228.731 148.77C228.731 147.24 226.507 147.695 226.507 146.943Z" fill="#333333"/>
<path d="M212.838 154.693H219.73L216.284 158.829L212.838 154.693Z" fill="white"/>
</g>
<g filter="url(#filter13_d_69_13072)">
<rect x="151.596" y="158.787" width="34.2703" height="15.2028" rx="2.75678" fill="white"/>
<path d="M156.339 169.232H160.152V168.314H157.753L159.06 167.008C159.614 166.445 160.044 165.842 160.044 165.122C160.044 163.972 159.143 163.336 158.192 163.336C157.422 163.336 156.695 163.716 156.323 164.51L157.125 164.981C157.348 164.518 157.72 164.262 158.2 164.262C158.696 164.262 159.093 164.576 159.093 165.155C159.093 165.593 158.771 166.015 158.357 166.429L156.339 168.488V169.232ZM165.24 169.34C166.506 169.34 167.432 168.563 167.432 167.314V163.443H166.481V167.256C166.481 167.934 166.092 168.414 165.24 168.414C164.389 168.414 164 167.934 164 167.256V163.443H163.049V167.314C163.049 168.563 163.967 169.34 165.24 169.34ZM170.643 164.99C170.081 164.99 169.634 165.196 169.361 165.627V165.097H168.468V169.232H169.361V167.016C169.361 166.172 169.824 165.825 170.412 165.825C170.974 165.825 171.338 166.156 171.338 166.784V169.232H172.231V166.693C172.231 165.618 171.569 164.99 170.643 164.99ZM173.639 164.477C173.954 164.477 174.21 164.212 174.21 163.906C174.21 163.592 173.954 163.336 173.639 163.336C173.325 163.336 173.069 163.592 173.069 163.906C173.069 164.212 173.325 164.477 173.639 164.477ZM173.193 169.232H174.086V165.097H173.193V169.232ZM177.431 165.957V165.097H176.405V163.939L175.512 164.204V165.097H174.751V165.957H175.512V167.942C175.512 169.017 176.058 169.398 177.431 169.232V168.43C176.752 168.463 176.405 168.472 176.405 167.942V165.957H177.431ZM178.889 166.239C178.889 165.941 179.171 165.8 179.493 165.8C179.832 165.8 180.122 165.949 180.271 166.272L181.023 165.85C180.734 165.304 180.171 164.99 179.493 164.99C178.65 164.99 177.98 165.478 177.98 166.255C177.98 167.735 180.204 167.322 180.204 168.058C180.204 168.389 179.898 168.521 179.501 168.521C179.047 168.521 178.716 168.298 178.583 167.926L177.814 168.372C178.079 168.968 178.674 169.34 179.501 169.34C180.395 169.34 181.114 168.893 181.114 168.066C181.114 166.536 178.889 166.991 178.889 166.239Z" fill="#333333"/>
<path d="M165.285 173.989H172.177L168.731 178.124L165.285 173.989Z" fill="white"/>
</g>
<g filter="url(#filter14_d_69_13072)">
<rect x="222.584" y="207.032" width="33.2703" height="15.2028" rx="2.75678" fill="white"/>
<path d="M231.279 215.89C231.279 214.79 230.436 214.475 229.65 214.178V212.54C229.989 212.615 230.237 212.821 230.386 213.194L231.188 212.73C230.89 212.052 230.32 211.688 229.65 211.597V210.861H229.112V211.589C228.252 211.672 227.5 212.234 227.5 213.21C227.5 214.269 228.31 214.624 229.112 214.922V216.642C228.575 216.584 228.236 216.295 228.054 215.832L227.235 216.303C227.524 217.056 228.194 217.519 229.112 217.577V218.305H229.65V217.569C230.593 217.453 231.279 216.849 231.279 215.89ZM228.451 213.21C228.451 212.838 228.707 212.59 229.112 212.524V213.963C228.649 213.748 228.451 213.557 228.451 213.21ZM229.65 216.634V215.129C230.072 215.319 230.328 215.509 230.328 215.898C230.328 216.254 230.105 216.543 229.65 216.634ZM231.782 217.478H235.595V216.56H233.196L234.503 215.253C235.057 214.69 235.487 214.087 235.487 213.367C235.487 212.218 234.586 211.581 233.635 211.581C232.866 211.581 232.138 211.961 231.766 212.755L232.568 213.227C232.791 212.763 233.163 212.507 233.643 212.507C234.139 212.507 234.536 212.821 234.536 213.4C234.536 213.839 234.214 214.26 233.8 214.674L231.782 216.733V217.478ZM238.428 217.585C239.883 217.585 240.702 216.369 240.702 214.583C240.702 212.797 239.883 211.581 238.428 211.581C236.972 211.581 236.153 212.797 236.153 214.583C236.153 216.369 236.972 217.585 238.428 217.585ZM238.428 216.659C237.576 216.659 237.104 215.914 237.104 214.583C237.104 213.251 237.576 212.507 238.428 212.507C239.288 212.507 239.751 213.251 239.751 214.583C239.751 215.914 239.288 216.659 238.428 216.659ZM243.637 217.585C245.093 217.585 245.911 216.369 245.911 214.583C245.911 212.797 245.093 211.581 243.637 211.581C242.182 211.581 241.363 212.797 241.363 214.583C241.363 216.369 242.182 217.585 243.637 217.585ZM243.637 216.659C242.785 216.659 242.314 215.914 242.314 214.583C242.314 213.251 242.785 212.507 243.637 212.507C244.497 212.507 244.96 213.251 244.96 214.583C244.96 215.914 244.497 216.659 243.637 216.659ZM248.846 217.585C250.302 217.585 251.121 216.369 251.121 214.583C251.121 212.797 250.302 211.581 248.846 211.581C247.391 211.581 246.572 212.797 246.572 214.583C246.572 216.369 247.391 217.585 248.846 217.585ZM248.846 216.659C247.995 216.659 247.523 215.914 247.523 214.583C247.523 213.251 247.995 212.507 248.846 212.507C249.707 212.507 250.17 213.251 250.17 214.583C250.17 215.914 249.707 216.659 248.846 216.659Z" fill="#333333"/>
<path d="M235.773 222.234H242.665L239.219 226.37L235.773 222.234Z" fill="white"/>
</g>
<g filter="url(#filter15_d_69_13072)">
<rect x="148.838" y="215.301" width="33.2703" height="15.2028" rx="2.75678" fill="white"/>
<path d="M153.11 219.958V220.868H155.757L153.756 225.747H154.756L156.791 220.785V219.958H153.11ZM161.821 225.855C163.086 225.855 164.013 225.077 164.013 223.828V219.958H163.062V223.77C163.062 224.449 162.673 224.928 161.821 224.928C160.969 224.928 160.58 224.449 160.58 223.77V219.958H159.629V223.828C159.629 225.077 160.547 225.855 161.821 225.855ZM167.224 221.504C166.661 221.504 166.215 221.711 165.942 222.141V221.612H165.049V225.747H165.942V223.531C165.942 222.687 166.405 222.34 166.992 222.34C167.555 222.34 167.919 222.671 167.919 223.299V225.747H168.812V223.208C168.812 222.133 168.15 221.504 167.224 221.504ZM170.22 220.992C170.534 220.992 170.791 220.727 170.791 220.421C170.791 220.107 170.534 219.85 170.22 219.85C169.906 219.85 169.649 220.107 169.649 220.421C169.649 220.727 169.906 220.992 170.22 220.992ZM169.773 225.747H170.667V221.612H169.773V225.747ZM174.011 222.472V221.612H172.986V220.454L172.092 220.719V221.612H171.332V222.472H172.092V224.457C172.092 225.532 172.638 225.912 174.011 225.747V224.945C173.333 224.978 172.986 224.986 172.986 224.457V222.472H174.011ZM175.47 222.753C175.47 222.455 175.751 222.315 176.074 222.315C176.413 222.315 176.702 222.464 176.851 222.786L177.604 222.365C177.314 221.819 176.752 221.504 176.074 221.504C175.23 221.504 174.56 221.992 174.56 222.77C174.56 224.25 176.785 223.837 176.785 224.573C176.785 224.903 176.479 225.036 176.082 225.036C175.627 225.036 175.296 224.813 175.164 224.44L174.395 224.887C174.66 225.482 175.255 225.855 176.082 225.855C176.975 225.855 177.695 225.408 177.695 224.581C177.695 223.051 175.47 223.506 175.47 222.753Z" fill="#333333"/>
<path d="M162.027 230.504H168.919L165.473 234.639L162.027 230.504Z" fill="white"/>
</g>
<g filter="url(#filter16_d_69_13072)">
<rect x="13.7539" y="158.787" width="34.2703" height="15.2028" rx="2.75678" fill="white"/>
<path d="M22.4768 165.312C22.4768 164.146 21.6333 163.336 20.4341 163.336C19.2349 163.336 18.383 164.146 18.383 165.312C18.383 166.478 19.2349 167.289 20.4341 167.289H20.5333L19.21 169.232H20.3017L22.1295 166.478C22.3528 166.156 22.4768 165.759 22.4768 165.312ZM19.3341 165.312C19.3341 164.651 19.8055 164.237 20.4341 164.237C21.0626 164.237 21.5257 164.651 21.5257 165.312C21.5257 165.974 21.0626 166.387 20.4341 166.387C19.8055 166.387 19.3341 165.966 19.3341 165.312ZM27.4632 169.34C28.7286 169.34 29.6548 168.563 29.6548 167.314V163.443H28.7038V167.256C28.7038 167.934 28.315 168.414 27.4632 168.414C26.6114 168.414 26.2226 167.934 26.2226 167.256V163.443H25.2716V167.314C25.2716 168.563 26.1896 169.34 27.4632 169.34ZM32.866 164.99C32.3036 164.99 31.857 165.196 31.5841 165.627V165.097H30.6909V169.232H31.5841V167.016C31.5841 166.172 32.0472 165.825 32.6344 165.825C33.1968 165.825 33.5607 166.156 33.5607 166.784V169.232H34.4539V166.693C34.4539 165.618 33.7923 164.99 32.866 164.99ZM35.8622 164.477C36.1765 164.477 36.4329 164.212 36.4329 163.906C36.4329 163.592 36.1765 163.336 35.8622 163.336C35.548 163.336 35.2916 163.592 35.2916 163.906C35.2916 164.212 35.548 164.477 35.8622 164.477ZM35.4157 169.232H36.3088V165.097H35.4157V169.232ZM39.6534 165.957V165.097H38.6278V163.939L37.7346 164.204V165.097H36.9738V165.957H37.7346V167.942C37.7346 169.017 38.2805 169.398 39.6534 169.232V168.43C38.9752 168.463 38.6278 168.472 38.6278 167.942V165.957H39.6534ZM41.1122 166.239C41.1122 165.941 41.3934 165.8 41.716 165.8C42.0551 165.8 42.3445 165.949 42.4934 166.272L43.246 165.85C42.9565 165.304 42.3941 164.99 41.716 164.99C40.8724 164.99 40.2025 165.478 40.2025 166.255C40.2025 167.735 42.4272 167.322 42.4272 168.058C42.4272 168.389 42.1212 168.521 41.7242 168.521C41.2694 168.521 40.9386 168.298 40.8062 167.926L40.0371 168.372C40.3017 168.968 40.8972 169.34 41.7242 169.34C42.6174 169.34 43.337 168.893 43.337 168.066C43.337 166.536 41.1122 166.991 41.1122 166.239Z" fill="#333333"/>
<path d="M27.4434 173.989H34.3353L30.8893 178.124L27.4434 173.989Z" fill="white"/>
</g>
<g filter="url(#filter17_d_69_13072)">
<rect x="13.0703" y="217.369" width="34.2703" height="15.2028" rx="2.75678" fill="white"/>
<path d="M20.2751 224.391L21.4495 222.836V222.025H17.8933V222.918H20.3165L19.0677 224.564L19.4481 225.135H19.6631C20.3165 225.135 20.7383 225.482 20.7383 226.061C20.7383 226.64 20.3165 226.996 19.6631 226.996C19.0842 226.996 18.6955 226.739 18.5301 226.251L17.7196 226.723C18.0422 227.533 18.8113 227.922 19.6631 227.922C20.73 227.922 21.6894 227.277 21.6894 226.061C21.6894 225.16 21.0691 224.581 20.2751 224.391ZM26.7594 227.922C28.0248 227.922 28.9511 227.145 28.9511 225.896V222.025H28V225.838C28 226.516 27.6113 226.996 26.7594 226.996C25.9076 226.996 25.5189 226.516 25.5189 225.838V222.025H24.5678V225.896C24.5678 227.145 25.4858 227.922 26.7594 227.922ZM32.1622 223.572C31.5998 223.572 31.1532 223.779 30.8803 224.209V223.679H29.9871V227.814H30.8803V225.598C30.8803 224.754 31.3434 224.407 31.9306 224.407C32.493 224.407 32.8569 224.738 32.8569 225.366V227.814H33.7501V225.275C33.7501 224.2 33.0885 223.572 32.1622 223.572ZM35.1585 223.059C35.4727 223.059 35.7291 222.794 35.7291 222.488C35.7291 222.174 35.4727 221.918 35.1585 221.918C34.8442 221.918 34.5878 222.174 34.5878 222.488C34.5878 222.794 34.8442 223.059 35.1585 223.059ZM34.7119 227.814H35.6051V223.679H34.7119V227.814ZM38.9496 224.539V223.679H37.9241V222.521L37.0309 222.786V223.679H36.27V224.539H37.0309V226.524C37.0309 227.599 37.5767 227.98 38.9496 227.814V227.012C38.2714 227.045 37.9241 227.054 37.9241 226.524V224.539H38.9496ZM40.4084 224.821C40.4084 224.523 40.6896 224.382 41.0122 224.382C41.3513 224.382 41.6407 224.531 41.7896 224.854L42.5422 224.432C42.2527 223.886 41.6904 223.572 41.0122 223.572C40.1686 223.572 39.4987 224.06 39.4987 224.837C39.4987 226.318 41.7234 225.904 41.7234 226.64C41.7234 226.971 41.4174 227.103 41.0205 227.103C40.5656 227.103 40.2348 226.88 40.1024 226.508L39.3333 226.954C39.598 227.55 40.1934 227.922 41.0205 227.922C41.9136 227.922 42.6332 227.475 42.6332 226.648C42.6332 225.118 40.4084 225.573 40.4084 224.821Z" fill="#333333"/>
<path d="M26.7598 232.571H33.6517L30.2057 236.706L26.7598 232.571Z" fill="white"/>
</g>
<g filter="url(#filter18_d_69_13072)">
<rect x="68.1992" y="184.288" width="34.2703" height="15.2028" rx="2.75678" fill="white"/>
<path d="M74.8794 190.888H74.7719L76.0951 188.944H75.0117L73.1757 191.698C72.9524 192.021 72.8283 192.418 72.8283 192.864C72.8283 194.03 73.6719 194.841 74.8794 194.841C76.0786 194.841 76.9221 194.03 76.9221 192.864C76.9221 191.698 76.0786 190.888 74.8794 190.888ZM74.8794 193.939C74.2426 193.939 73.7794 193.526 73.7794 192.864C73.7794 192.203 74.2426 191.789 74.8794 191.789C75.5079 191.789 75.9711 192.203 75.9711 192.864C75.9711 193.518 75.5079 193.939 74.8794 193.939ZM81.9085 194.841C83.1739 194.841 84.1002 194.064 84.1002 192.815V188.944H83.1491V192.757C83.1491 193.435 82.7604 193.915 81.9085 193.915C81.0567 193.915 80.668 193.435 80.668 192.757V188.944H79.7169V192.815C79.7169 194.064 80.6349 194.841 81.9085 194.841ZM87.3113 190.491C86.7489 190.491 86.3023 190.697 86.0294 191.128V190.598H85.1362V194.733H86.0294V192.517C86.0294 191.673 86.4925 191.326 87.0797 191.326C87.6421 191.326 88.006 191.657 88.006 192.285V194.733H88.8992V192.194C88.8992 191.119 88.2376 190.491 87.3113 190.491ZM90.3076 189.978C90.6218 189.978 90.8782 189.713 90.8782 189.407C90.8782 189.093 90.6218 188.837 90.3076 188.837C89.9933 188.837 89.7369 189.093 89.7369 189.407C89.7369 189.713 89.9933 189.978 90.3076 189.978ZM89.861 194.733H90.7542V190.598H89.861V194.733ZM94.0987 191.458V190.598H93.0731V189.44L92.18 189.705V190.598H91.4191V191.458H92.18V193.443C92.18 194.518 92.7258 194.899 94.0987 194.733V193.931C93.4205 193.964 93.0731 193.973 93.0731 193.443V191.458H94.0987ZM95.5575 191.74C95.5575 191.442 95.8387 191.301 96.1613 191.301C96.5004 191.301 96.7898 191.45 96.9387 191.773L97.6913 191.351C97.4018 190.805 96.8394 190.491 96.1613 190.491C95.3177 190.491 94.6478 190.979 94.6478 191.756C94.6478 193.236 96.8725 192.823 96.8725 193.559C96.8725 193.89 96.5665 194.022 96.1696 194.022C95.7147 194.022 95.3839 193.799 95.2515 193.427L94.4824 193.873C94.7471 194.469 95.3425 194.841 96.1696 194.841C97.0627 194.841 97.7823 194.394 97.7823 193.567C97.7823 192.037 95.5575 192.492 95.5575 191.74Z" fill="#333333"/>
<path d="M81.8887 199.49H88.7806L85.3346 203.625L81.8887 199.49Z" fill="white"/>
</g>
<g filter="url(#filter19_d_69_13072)">
<rect x="86.1191" y="231.841" width="34.2703" height="15.2028" rx="2.75678" fill="white"/>
<path d="M93.9752 239.276C94.3722 239.02 94.6369 238.606 94.6369 238.052C94.6369 236.936 93.7602 236.39 92.8008 236.39C91.8332 236.39 90.9648 236.936 90.9648 238.052C90.9648 238.606 91.2295 239.02 91.6182 239.276C91.0889 239.574 90.7663 240.078 90.7663 240.682C90.7663 241.757 91.5934 242.394 92.8008 242.394C94.0083 242.394 94.8271 241.757 94.8271 240.682C94.8271 240.07 94.5128 239.574 93.9752 239.276ZM92.8008 237.291C93.2805 237.291 93.6858 237.556 93.6858 238.094C93.6858 238.606 93.2805 238.896 92.8008 238.896C92.3129 238.896 91.9159 238.606 91.9159 238.094C91.9159 237.556 92.3129 237.291 92.8008 237.291ZM92.8008 241.493C92.1723 241.493 91.7174 241.178 91.7174 240.591C91.7174 239.996 92.1723 239.69 92.8008 239.69C93.4211 239.69 93.876 239.996 93.876 240.591C93.876 241.178 93.4211 241.493 92.8008 241.493ZM99.893 242.394C101.158 242.394 102.085 241.617 102.085 240.368V236.497H101.134V240.31C101.134 240.988 100.745 241.468 99.893 241.468C99.0412 241.468 98.6525 240.988 98.6525 240.31V236.497H97.7014V240.368C97.7014 241.617 98.6194 242.394 99.893 242.394ZM105.296 238.044C104.733 238.044 104.287 238.251 104.014 238.681V238.151H103.121V242.287H104.014V240.07C104.014 239.227 104.477 238.879 105.064 238.879C105.627 238.879 105.991 239.21 105.991 239.839V242.287H106.884V239.748C106.884 238.672 106.222 238.044 105.296 238.044ZM108.292 237.531C108.606 237.531 108.863 237.267 108.863 236.961C108.863 236.646 108.606 236.39 108.292 236.39C107.978 236.39 107.721 236.646 107.721 236.961C107.721 237.267 107.978 237.531 108.292 237.531ZM107.845 242.287H108.739V238.151H107.845V242.287ZM112.083 239.012V238.151H111.058V236.994L110.164 237.258V238.151H109.404V239.012H110.164V240.996C110.164 242.072 110.71 242.452 112.083 242.287V241.484C111.405 241.517 111.058 241.526 111.058 240.996V239.012H112.083ZM113.542 239.293C113.542 238.995 113.823 238.854 114.146 238.854C114.485 238.854 114.774 239.003 114.923 239.326L115.676 238.904C115.386 238.358 114.824 238.044 114.146 238.044C113.302 238.044 112.632 238.532 112.632 239.309C112.632 240.79 114.857 240.376 114.857 241.112C114.857 241.443 114.551 241.575 114.154 241.575C113.699 241.575 113.368 241.352 113.236 240.98L112.467 241.427C112.732 242.022 113.327 242.394 114.154 242.394C115.047 242.394 115.767 241.948 115.767 241.121C115.767 239.59 113.542 240.045 113.542 239.293Z" fill="#333333"/>
<path d="M99.8086 247.043H106.701L103.255 251.179L99.8086 247.043Z" fill="white"/>
</g>
<g filter="url(#filter20_d_69_13072)">
<rect x="188.812" y="244.938" width="38.2703" height="15.2028" rx="2.75678" fill="white"/>
<path d="M194.974 249.594L193.452 250.132L193.684 250.942L194.85 250.611V255.383H195.801V249.594H194.974ZM199.027 255.491C200.483 255.491 201.302 254.275 201.302 252.489C201.302 250.702 200.483 249.487 199.027 249.487C197.572 249.487 196.753 250.702 196.753 252.489C196.753 254.275 197.572 255.491 199.027 255.491ZM199.027 254.565C198.175 254.565 197.704 253.82 197.704 252.489C197.704 251.157 198.175 250.413 199.027 250.413C199.887 250.413 200.351 251.157 200.351 252.489C200.351 253.82 199.887 254.565 199.027 254.565ZM206.412 255.491C207.677 255.491 208.603 254.713 208.603 253.465V249.594H207.652V253.407C207.652 254.085 207.264 254.565 206.412 254.565C205.56 254.565 205.171 254.085 205.171 253.407V249.594H204.22V253.465C204.22 254.713 205.138 255.491 206.412 255.491ZM211.814 251.141C211.252 251.141 210.806 251.347 210.533 251.777V251.248H209.639V255.383H210.533V253.167C210.533 252.323 210.996 251.976 211.583 251.976C212.145 251.976 212.509 252.307 212.509 252.935V255.383H213.402V252.844C213.402 251.769 212.741 251.141 211.814 251.141ZM214.811 250.628C215.125 250.628 215.381 250.363 215.381 250.057C215.381 249.743 215.125 249.487 214.811 249.487C214.496 249.487 214.24 249.743 214.24 250.057C214.24 250.363 214.496 250.628 214.811 250.628ZM214.364 255.383H215.257V251.248H214.364V255.383ZM218.602 252.108V251.248H217.576V250.09L216.683 250.355V251.248H215.922V252.108H216.683V254.093C216.683 255.168 217.229 255.549 218.602 255.383V254.581C217.924 254.614 217.576 254.622 217.576 254.093V252.108H218.602ZM220.061 252.389C220.061 252.092 220.342 251.951 220.664 251.951C221.004 251.951 221.293 252.1 221.442 252.423L222.194 252.001C221.905 251.455 221.343 251.141 220.664 251.141C219.821 251.141 219.151 251.629 219.151 252.406C219.151 253.886 221.376 253.473 221.376 254.209C221.376 254.54 221.07 254.672 220.673 254.672C220.218 254.672 219.887 254.449 219.755 254.077L218.986 254.523C219.25 255.119 219.846 255.491 220.673 255.491C221.566 255.491 222.285 255.044 222.285 254.217C222.285 252.687 220.061 253.142 220.061 252.389Z" fill="#333333"/>
<path d="M204.502 260.14H211.394L207.948 264.275L204.502 260.14Z" fill="white"/>
</g>
<g filter="url(#filter21_d_69_13072)">
<rect x="53.7324" y="291.802" width="38.2703" height="15.2028" rx="2.75678" fill="white"/>
<path d="M59.8941 296.459L58.3724 296.996L58.604 297.807L59.7701 297.476V302.248H60.7212V296.459H59.8941ZM63.9472 302.356C65.4028 302.356 66.2215 301.14 66.2215 299.353C66.2215 297.567 65.4028 296.351 63.9472 296.351C62.4916 296.351 61.6728 297.567 61.6728 299.353C61.6728 301.14 62.4916 302.356 63.9472 302.356ZM63.9472 301.429C63.0953 301.429 62.6239 300.685 62.6239 299.353C62.6239 298.022 63.0953 297.278 63.9472 297.278C64.8073 297.278 65.2704 298.022 65.2704 299.353C65.2704 300.685 64.8073 301.429 63.9472 301.429ZM71.3316 302.356C72.597 302.356 73.5233 301.578 73.5233 300.329V296.459H72.5722V300.271C72.5722 300.95 72.1835 301.429 71.3316 301.429C70.4798 301.429 70.0911 300.95 70.0911 300.271V296.459H69.14V300.329C69.14 301.578 70.058 302.356 71.3316 302.356ZM76.7344 298.005C76.172 298.005 75.7254 298.212 75.4525 298.642V298.113H74.5593V302.248H75.4525V300.032C75.4525 299.188 75.9156 298.841 76.5028 298.841C77.0652 298.841 77.4291 299.171 77.4291 299.8V302.248H78.3223V299.709C78.3223 298.634 77.6607 298.005 76.7344 298.005ZM79.7307 297.493C80.0449 297.493 80.3013 297.228 80.3013 296.922C80.3013 296.608 80.0449 296.351 79.7307 296.351C79.4164 296.351 79.16 296.608 79.16 296.922C79.16 297.228 79.4164 297.493 79.7307 297.493ZM79.2841 302.248H80.1773V298.113H79.2841V302.248ZM83.5218 298.973V298.113H82.4963V296.955L81.6031 297.22V298.113H80.8422V298.973H81.6031V300.958C81.6031 302.033 82.1489 302.413 83.5218 302.248V301.446C82.8436 301.479 82.4963 301.487 82.4963 300.958V298.973H83.5218ZM84.9807 299.254C84.9807 298.956 85.2618 298.816 85.5844 298.816C85.9235 298.816 86.2129 298.965 86.3618 299.287L87.1144 298.865C86.8249 298.32 86.2626 298.005 85.5844 298.005C84.7408 298.005 84.0709 298.493 84.0709 299.271C84.0709 300.751 86.2956 300.338 86.2956 301.074C86.2956 301.404 85.9896 301.537 85.5927 301.537C85.1378 301.537 84.807 301.313 84.6747 300.941L83.9055 301.388C84.1702 301.983 84.7656 302.356 85.5927 302.356C86.4859 302.356 87.2054 301.909 87.2054 301.082C87.2054 299.552 84.9807 300.007 84.9807 299.254Z" fill="#333333"/>
<path d="M69.4219 307.005H76.3138L72.8679 311.14L69.4219 307.005Z" fill="white"/>
</g>
<defs>
<filter id="filter0_d_69_13072" x="16.5147" y="0.961223" width="38.7831" height="24.8515" filterUnits="userSpaceOnUse" color-interpolation-filters="sRGB">
<feFlood flood-opacity="0" result="BackgroundImageFix"/>
<feColorMatrix in="SourceAlpha" type="matrix" values="0 0 0 0 0 0 0 0 0 0 0 0 0 0 0 0 0 0 127 0" result="hardAlpha"/>
<feOffset dy="0.689195"/>
<feGaussianBlur stdDeviation="1.37839"/>
<feColorMatrix type="matrix" values="0 0 0 0 0.235294 0 0 0 0 0.25098 0 0 0 0 0.262745 0 0 0 0.2 0"/>
<feBlend mode="normal" in2="BackgroundImageFix" result="effect1_dropShadow_69_13072"/>
<feBlend mode="normal" in="SourceGraphic" in2="effect1_dropShadow_69_13072" result="shape"/>
</filter>
<filter id="filter1_d_69_13072" x="116.446" y="19.5701" width="43.7831" height="24.8515" filterUnits="userSpaceOnUse" color-interpolation-filters="sRGB">
<feFlood flood-opacity="0" result="BackgroundImageFix"/>
<feColorMatrix in="SourceAlpha" type="matrix" values="0 0 0 0 0 0 0 0 0 0 0 0 0 0 0 0 0 0 127 0" result="hardAlpha"/>
<feOffset dy="0.689195"/>
<feGaussianBlur stdDeviation="1.37839"/>
<feColorMatrix type="matrix" values="0 0 0 0 0.235294 0 0 0 0 0.25098 0 0 0 0 0.262745 0 0 0 0.2 0"/>
<feBlend mode="normal" in2="BackgroundImageFix" result="effect1_dropShadow_69_13072"/>
<feBlend mode="normal" in="SourceGraphic" in2="effect1_dropShadow_69_13072" result="shape"/>
</filter>
<filter id="filter2_d_69_13072" x="188.124" y="3.71757" width="39.7831" height="24.8515" filterUnits="userSpaceOnUse" color-interpolation-filters="sRGB">
<feFlood flood-opacity="0" result="BackgroundImageFix"/>
<feColorMatrix in="SourceAlpha" type="matrix" values="0 0 0 0 0 0 0 0 0 0 0 0 0 0 0 0 0 0 127 0" result="hardAlpha"/>
<feOffset dy="0.689195"/>
<feGaussianBlur stdDeviation="1.37839"/>
<feColorMatrix type="matrix" values="0 0 0 0 0.235294 0 0 0 0 0.25098 0 0 0 0 0.262745 0 0 0 0.2 0"/>
<feBlend mode="normal" in2="BackgroundImageFix" result="effect1_dropShadow_69_13072"/>
<feBlend mode="normal" in="SourceGraphic" in2="effect1_dropShadow_69_13072" result="shape"/>
</filter>
<filter id="filter3_d_69_13072" x="66.8233" y="94.6912" width="35.7831" height="24.8515" filterUnits="userSpaceOnUse" color-interpolation-filters="sRGB">
<feFlood flood-opacity="0" result="BackgroundImageFix"/>
<feColorMatrix in="SourceAlpha" type="matrix" values="0 0 0 0 0 0 0 0 0 0 0 0 0 0 0 0 0 0 127 0" result="hardAlpha"/>
<feOffset dy="0.689195"/>
<feGaussianBlur stdDeviation="1.37839"/>
<feColorMatrix type="matrix" values="0 0 0 0 0.235294 0 0 0 0 0.25098 0 0 0 0 0.262745 0 0 0 0.2 0"/>
<feBlend mode="normal" in2="BackgroundImageFix" result="effect1_dropShadow_69_13072"/>
<feBlend mode="normal" in="SourceGraphic" in2="effect1_dropShadow_69_13072" result="shape"/>
</filter>
<filter id="filter4_d_69_13072" x="161.245" y="90.5574" width="42.7831" height="24.8515" filterUnits="userSpaceOnUse" color-interpolation-filters="sRGB">
<feFlood flood-opacity="0" result="BackgroundImageFix"/>
<feColorMatrix in="SourceAlpha" type="matrix" values="0 0 0 0 0 0 0 0 0 0 0 0 0 0 0 0 0 0 127 0" result="hardAlpha"/>
<feOffset dy="0.689195"/>
<feGaussianBlur stdDeviation="1.37839"/>
<feColorMatrix type="matrix" values="0 0 0 0 0.235294 0 0 0 0 0.25098 0 0 0 0 0.262745 0 0 0 0.2 0"/>
<feBlend mode="normal" in2="BackgroundImageFix" result="effect1_dropShadow_69_13072"/>
<feBlend mode="normal" in="SourceGraphic" in2="effect1_dropShadow_69_13072" result="shape"/>
</filter>
<filter id="filter5_d_69_13072" x="185.366" y="60.2322" width="39.7831" height="24.8515" filterUnits="userSpaceOnUse" color-interpolation-filters="sRGB">
<feFlood flood-opacity="0" result="BackgroundImageFix"/>
<feColorMatrix in="SourceAlpha" type="matrix" values="0 0 0 0 0 0 0 0 0 0 0 0 0 0 0 0 0 0 127 0" result="hardAlpha"/>
<feOffset dy="0.689195"/>
<feGaussianBlur stdDeviation="1.37839"/>
<feColorMatrix type="matrix" values="0 0 0 0 0.235294 0 0 0 0 0.25098 0 0 0 0 0.262745 0 0 0 0.2 0"/>
<feBlend mode="normal" in2="BackgroundImageFix" result="effect1_dropShadow_69_13072"/>
<feBlend mode="normal" in="SourceGraphic" in2="effect1_dropShadow_69_13072" result="shape"/>
</filter>
<filter id="filter6_d_69_13072" x="199.148" y="287.667" width="39.7831" height="24.8515" filterUnits="userSpaceOnUse" color-interpolation-filters="sRGB">
<feFlood flood-opacity="0" result="BackgroundImageFix"/>
<feColorMatrix in="SourceAlpha" type="matrix" values="0 0 0 0 0 0 0 0 0 0 0 0 0 0 0 0 0 0 127 0" result="hardAlpha"/>
<feOffset dy="0.689195"/>
<feGaussianBlur stdDeviation="1.37839"/>
<feColorMatrix type="matrix" values="0 0 0 0 0.235294 0 0 0 0 0.25098 0 0 0 0 0.262745 0 0 0 0.2 0"/>
<feBlend mode="normal" in2="BackgroundImageFix" result="effect1_dropShadow_69_13072"/>
<feBlend mode="normal" in="SourceGraphic" in2="effect1_dropShadow_69_13072" result="shape"/>
</filter>
<filter id="filter7_d_69_13072" x="215.003" y="93.3138" width="39.7831" height="24.8515" filterUnits="userSpaceOnUse" color-interpolation-filters="sRGB">
<feFlood flood-opacity="0" result="BackgroundImageFix"/>
<feColorMatrix in="SourceAlpha" type="matrix" values="0 0 0 0 0 0 0 0 0 0 0 0 0 0 0 0 0 0 127 0" result="hardAlpha"/>
<feOffset dy="0.689195"/>
<feGaussianBlur stdDeviation="1.37839"/>
<feColorMatrix type="matrix" values="0 0 0 0 0.235294 0 0 0 0 0.25098 0 0 0 0 0.262745 0 0 0 0.2 0"/>
<feBlend mode="normal" in2="BackgroundImageFix" result="effect1_dropShadow_69_13072"/>
<feBlend mode="normal" in="SourceGraphic" in2="effect1_dropShadow_69_13072" result="shape"/>
</filter>
<filter id="filter8_d_69_13072" x="106.112" y="69.8807" width="39.7831" height="24.8515" filterUnits="userSpaceOnUse" color-interpolation-filters="sRGB">
<feFlood flood-opacity="0" result="BackgroundImageFix"/>
<feColorMatrix in="SourceAlpha" type="matrix" values="0 0 0 0 0 0 0 0 0 0 0 0 0 0 0 0 0 0 127 0" result="hardAlpha"/>
<feOffset dy="0.689195"/>
<feGaussianBlur stdDeviation="1.37839"/>
<feColorMatrix type="matrix" values="0 0 0 0 0.235294 0 0 0 0 0.25098 0 0 0 0 0.262745 0 0 0 0.2 0"/>
<feBlend mode="normal" in2="BackgroundImageFix" result="effect1_dropShadow_69_13072"/>
<feBlend mode="normal" in="SourceGraphic" in2="effect1_dropShadow_69_13072" result="shape"/>
</filter>
<filter id="filter9_d_69_13072" x="22.0284" y="53.3396" width="38.7831" height="24.8515" filterUnits="userSpaceOnUse" color-interpolation-filters="sRGB">
<feFlood flood-opacity="0" result="BackgroundImageFix"/>
<feColorMatrix in="SourceAlpha" type="matrix" values="0 0 0 0 0 0 0 0 0 0 0 0 0 0 0 0 0 0 127 0" result="hardAlpha"/>
<feOffset dy="0.689195"/>
<feGaussianBlur stdDeviation="1.37839"/>
<feColorMatrix type="matrix" values="0 0 0 0 0.235294 0 0 0 0 0.25098 0 0 0 0 0.262745 0 0 0 0.2 0"/>
<feBlend mode="normal" in2="BackgroundImageFix" result="effect1_dropShadow_69_13072"/>
<feBlend mode="normal" in="SourceGraphic" in2="effect1_dropShadow_69_13072" result="shape"/>
</filter>
<filter id="filter10_d_69_13072" x="14.4463" y="127.774" width="42.7831" height="24.8515" filterUnits="userSpaceOnUse" color-interpolation-filters="sRGB">
<feFlood flood-opacity="0" result="BackgroundImageFix"/>
<feColorMatrix in="SourceAlpha" type="matrix" values="0 0 0 0 0 0 0 0 0 0 0 0 0 0 0 0 0 0 127 0" result="hardAlpha"/>
<feOffset dy="0.689195"/>
<feGaussianBlur stdDeviation="1.37839"/>
<feColorMatrix type="matrix" values="0 0 0 0 0.235294 0 0 0 0 0.25098 0 0 0 0 0.262745 0 0 0 0.2 0"/>
<feBlend mode="normal" in2="BackgroundImageFix" result="effect1_dropShadow_69_13072"/>
<feBlend mode="normal" in="SourceGraphic" in2="effect1_dropShadow_69_13072" result="shape"/>
</filter>
<filter id="filter11_d_69_13072" x="93.0128" y="135.355" width="39.7831" height="24.8515" filterUnits="userSpaceOnUse" color-interpolation-filters="sRGB">
<feFlood flood-opacity="0" result="BackgroundImageFix"/>
<feColorMatrix in="SourceAlpha" type="matrix" values="0 0 0 0 0 0 0 0 0 0 0 0 0 0 0 0 0 0 127 0" result="hardAlpha"/>
<feOffset dy="0.689195"/>
<feGaussianBlur stdDeviation="1.37839"/>
<feColorMatrix type="matrix" values="0 0 0 0 0.235294 0 0 0 0 0.25098 0 0 0 0 0.262745 0 0 0 0.2 0"/>
<feBlend mode="normal" in2="BackgroundImageFix" result="effect1_dropShadow_69_13072"/>
<feBlend mode="normal" in="SourceGraphic" in2="effect1_dropShadow_69_13072" result="shape"/>
</filter>
<filter id="filter12_d_69_13072" x="196.392" y="137.423" width="39.7831" height="24.8515" filterUnits="userSpaceOnUse" color-interpolation-filters="sRGB">
<feFlood flood-opacity="0" result="BackgroundImageFix"/>
<feColorMatrix in="SourceAlpha" type="matrix" values="0 0 0 0 0 0 0 0 0 0 0 0 0 0 0 0 0 0 127 0" result="hardAlpha"/>
<feOffset dy="0.689195"/>
<feGaussianBlur stdDeviation="1.37839"/>
<feColorMatrix type="matrix" values="0 0 0 0 0.235294 0 0 0 0 0.25098 0 0 0 0 0.262745 0 0 0 0.2 0"/>
<feBlend mode="normal" in2="BackgroundImageFix" result="effect1_dropShadow_69_13072"/>
<feBlend mode="normal" in="SourceGraphic" in2="effect1_dropShadow_69_13072" result="shape"/>
</filter>
<filter id="filter13_d_69_13072" x="148.839" y="156.719" width="39.7831" height="24.8515" filterUnits="userSpaceOnUse" color-interpolation-filters="sRGB">
<feFlood flood-opacity="0" result="BackgroundImageFix"/>
<feColorMatrix in="SourceAlpha" type="matrix" values="0 0 0 0 0 0 0 0 0 0 0 0 0 0 0 0 0 0 127 0" result="hardAlpha"/>
<feOffset dy="0.689195"/>
<feGaussianBlur stdDeviation="1.37839"/>
<feColorMatrix type="matrix" values="0 0 0 0 0.235294 0 0 0 0 0.25098 0 0 0 0 0.262745 0 0 0 0.2 0"/>
<feBlend mode="normal" in2="BackgroundImageFix" result="effect1_dropShadow_69_13072"/>
<feBlend mode="normal" in="SourceGraphic" in2="effect1_dropShadow_69_13072" result="shape"/>
</filter>
<filter id="filter14_d_69_13072" x="219.827" y="204.964" width="38.7831" height="24.8515" filterUnits="userSpaceOnUse" color-interpolation-filters="sRGB">
<feFlood flood-opacity="0" result="BackgroundImageFix"/>
<feColorMatrix in="SourceAlpha" type="matrix" values="0 0 0 0 0 0 0 0 0 0 0 0 0 0 0 0 0 0 127 0" result="hardAlpha"/>
<feOffset dy="0.689195"/>
<feGaussianBlur stdDeviation="1.37839"/>
<feColorMatrix type="matrix" values="0 0 0 0 0.235294 0 0 0 0 0.25098 0 0 0 0 0.262745 0 0 0 0.2 0"/>
<feBlend mode="normal" in2="BackgroundImageFix" result="effect1_dropShadow_69_13072"/>
<feBlend mode="normal" in="SourceGraphic" in2="effect1_dropShadow_69_13072" result="shape"/>
</filter>
<filter id="filter15_d_69_13072" x="146.081" y="213.234" width="38.7831" height="24.8515" filterUnits="userSpaceOnUse" color-interpolation-filters="sRGB">
<feFlood flood-opacity="0" result="BackgroundImageFix"/>
<feColorMatrix in="SourceAlpha" type="matrix" values="0 0 0 0 0 0 0 0 0 0 0 0 0 0 0 0 0 0 127 0" result="hardAlpha"/>
<feOffset dy="0.689195"/>
<feGaussianBlur stdDeviation="1.37839"/>
<feColorMatrix type="matrix" values="0 0 0 0 0.235294 0 0 0 0 0.25098 0 0 0 0 0.262745 0 0 0 0.2 0"/>
<feBlend mode="normal" in2="BackgroundImageFix" result="effect1_dropShadow_69_13072"/>
<feBlend mode="normal" in="SourceGraphic" in2="effect1_dropShadow_69_13072" result="shape"/>
</filter>
<filter id="filter16_d_69_13072" x="10.9971" y="156.719" width="39.7831" height="24.8515" filterUnits="userSpaceOnUse" color-interpolation-filters="sRGB">
<feFlood flood-opacity="0" result="BackgroundImageFix"/>
<feColorMatrix in="SourceAlpha" type="matrix" values="0 0 0 0 0 0 0 0 0 0 0 0 0 0 0 0 0 0 127 0" result="hardAlpha"/>
<feOffset dy="0.689195"/>
<feGaussianBlur stdDeviation="1.37839"/>
<feColorMatrix type="matrix" values="0 0 0 0 0.235294 0 0 0 0 0.25098 0 0 0 0 0.262745 0 0 0 0.2 0"/>
<feBlend mode="normal" in2="BackgroundImageFix" result="effect1_dropShadow_69_13072"/>
<feBlend mode="normal" in="SourceGraphic" in2="effect1_dropShadow_69_13072" result="shape"/>
</filter>
<filter id="filter17_d_69_13072" x="10.3135" y="215.301" width="39.7831" height="24.8515" filterUnits="userSpaceOnUse" color-interpolation-filters="sRGB">
<feFlood flood-opacity="0" result="BackgroundImageFix"/>
<feColorMatrix in="SourceAlpha" type="matrix" values="0 0 0 0 0 0 0 0 0 0 0 0 0 0 0 0 0 0 127 0" result="hardAlpha"/>
<feOffset dy="0.689195"/>
<feGaussianBlur stdDeviation="1.37839"/>
<feColorMatrix type="matrix" values="0 0 0 0 0.235294 0 0 0 0 0.25098 0 0 0 0 0.262745 0 0 0 0.2 0"/>
<feBlend mode="normal" in2="BackgroundImageFix" result="effect1_dropShadow_69_13072"/>
<feBlend mode="normal" in="SourceGraphic" in2="effect1_dropShadow_69_13072" result="shape"/>
</filter>
<filter id="filter18_d_69_13072" x="65.4424" y="182.22" width="39.7831" height="24.8515" filterUnits="userSpaceOnUse" color-interpolation-filters="sRGB">
<feFlood flood-opacity="0" result="BackgroundImageFix"/>
<feColorMatrix in="SourceAlpha" type="matrix" values="0 0 0 0 0 0 0 0 0 0 0 0 0 0 0 0 0 0 127 0" result="hardAlpha"/>
<feOffset dy="0.689195"/>
<feGaussianBlur stdDeviation="1.37839"/>
<feColorMatrix type="matrix" values="0 0 0 0 0.235294 0 0 0 0 0.25098 0 0 0 0 0.262745 0 0 0 0.2 0"/>
<feBlend mode="normal" in2="BackgroundImageFix" result="effect1_dropShadow_69_13072"/>
<feBlend mode="normal" in="SourceGraphic" in2="effect1_dropShadow_69_13072" result="shape"/>
</filter>
<filter id="filter19_d_69_13072" x="83.3624" y="229.773" width="39.7831" height="24.8515" filterUnits="userSpaceOnUse" color-interpolation-filters="sRGB">
<feFlood flood-opacity="0" result="BackgroundImageFix"/>
<feColorMatrix in="SourceAlpha" type="matrix" values="0 0 0 0 0 0 0 0 0 0 0 0 0 0 0 0 0 0 127 0" result="hardAlpha"/>
<feOffset dy="0.689195"/>
<feGaussianBlur stdDeviation="1.37839"/>
<feColorMatrix type="matrix" values="0 0 0 0 0.235294 0 0 0 0 0.25098 0 0 0 0 0.262745 0 0 0 0.2 0"/>
<feBlend mode="normal" in2="BackgroundImageFix" result="effect1_dropShadow_69_13072"/>
<feBlend mode="normal" in="SourceGraphic" in2="effect1_dropShadow_69_13072" result="shape"/>
</filter>
<filter id="filter20_d_69_13072" x="186.056" y="242.87" width="43.7831" height="24.8515" filterUnits="userSpaceOnUse" color-interpolation-filters="sRGB">
<feFlood flood-opacity="0" result="BackgroundImageFix"/>
<feColorMatrix in="SourceAlpha" type="matrix" values="0 0 0 0 0 0 0 0 0 0 0 0 0 0 0 0 0 0 127 0" result="hardAlpha"/>
<feOffset dy="0.689195"/>
<feGaussianBlur stdDeviation="1.37839"/>
<feColorMatrix type="matrix" values="0 0 0 0 0.235294 0 0 0 0 0.25098 0 0 0 0 0.262745 0 0 0 0.2 0"/>
<feBlend mode="normal" in2="BackgroundImageFix" result="effect1_dropShadow_69_13072"/>
<feBlend mode="normal" in="SourceGraphic" in2="effect1_dropShadow_69_13072" result="shape"/>
</filter>
<filter id="filter21_d_69_13072" x="50.9756" y="289.735" width="43.7831" height="24.8515" filterUnits="userSpaceOnUse" color-interpolation-filters="sRGB">
<feFlood flood-opacity="0" result="BackgroundImageFix"/>
<feColorMatrix in="SourceAlpha" type="matrix" values="0 0 0 0 0 0 0 0 0 0 0 0 0 0 0 0 0 0 127 0" result="hardAlpha"/>
<feOffset dy="0.689195"/>
<feGaussianBlur stdDeviation="1.37839"/>
<feColorMatrix type="matrix" values="0 0 0 0 0.235294 0 0 0 0 0.25098 0 0 0 0 0.262745 0 0 0 0.2 0"/>
<feBlend mode="normal" in2="BackgroundImageFix" result="effect1_dropShadow_69_13072"/>
<feBlend mode="normal" in="SourceGraphic" in2="effect1_dropShadow_69_13072" result="shape"/>
</filter>
</defs>
</svg>
