<svg width="345" height="580" viewBox="0 0 345 580" fill="none" xmlns="http://www.w3.org/2000/svg">
<g filter="url(#filter0_d_69_12721)">
<rect x="25.5605" y="3.03174" width="45.0174" height="20.263" rx="3.67246" fill="white"/>
<path d="M31.6 8.90991V10.1218H35.1255L32.4593 16.6221H33.7924L36.5027 10.0116V8.90991H31.6ZM43.2038 16.7653C44.8895 16.7653 46.1234 15.7297 46.1234 14.066V8.90991H44.8565V13.9889C44.8565 14.8923 44.3386 15.5314 43.2038 15.5314C42.0691 15.5314 41.5512 14.8923 41.5512 13.9889V8.90991H40.2842V14.066C40.2842 15.7297 41.5072 16.7653 43.2038 16.7653ZM50.4012 10.9702C49.652 10.9702 49.0571 11.2456 48.6935 11.8185V11.1134H47.5036V16.6221H48.6935V13.6694C48.6935 12.5456 49.3105 12.0829 50.0927 12.0829C50.8419 12.0829 51.3267 12.5236 51.3267 13.3609V16.6221H52.5165V13.2397C52.5165 11.8075 51.6351 10.9702 50.4012 10.9702ZM54.3927 10.2871C54.8113 10.2871 55.1529 9.93453 55.1529 9.52688C55.1529 9.10822 54.8113 8.76669 54.3927 8.76669C53.974 8.76669 53.6325 9.10822 53.6325 9.52688C53.6325 9.93453 53.974 10.2871 54.3927 10.2871ZM53.7977 16.6221H54.9876V11.1134H53.7977V16.6221ZM59.443 12.2592V11.1134H58.0769V9.57095L56.887 9.92351V11.1134H55.8734V12.2592H56.887V14.9034C56.887 16.3356 57.6141 16.8424 59.443 16.6221V15.5534C58.5396 15.5975 58.0769 15.6085 58.0769 14.9034V12.2592H59.443ZM61.3865 12.6338C61.3865 12.2372 61.7611 12.0499 62.1907 12.0499C62.6424 12.0499 63.0281 12.2482 63.2264 12.6779L64.2289 12.116C63.8433 11.3888 63.0942 10.9702 62.1907 10.9702C61.067 10.9702 60.1746 11.6202 60.1746 12.6558C60.1746 14.6279 63.1382 14.0771 63.1382 15.0576C63.1382 15.4983 62.7306 15.6746 62.2018 15.6746C61.5958 15.6746 61.1551 15.3771 60.9788 14.8813L59.9542 15.4763C60.3068 16.2695 61.1 16.7653 62.2018 16.7653C63.3916 16.7653 64.3501 16.1704 64.3501 15.0686C64.3501 13.0304 61.3865 13.6364 61.3865 12.6338Z" fill="#3C4043"/>
<path d="M43.4785 23.2949H52.6597L48.0691 28.8036L43.4785 23.2949Z" fill="white"/>
</g>
<g filter="url(#filter1_d_69_12721)">
<rect x="158.688" y="27.8208" width="50.0174" height="20.263" rx="3.67246" fill="white"/>
<path d="M166.413 33.699L164.386 34.4151L164.694 35.4948L166.248 35.0541V41.4111H167.515V33.699H166.413ZM171.812 41.5544C173.752 41.5544 174.842 39.9348 174.842 37.5551C174.842 35.1753 173.752 33.5557 171.812 33.5557C169.873 33.5557 168.783 35.1753 168.783 37.5551C168.783 39.9348 169.873 41.5544 171.812 41.5544ZM171.812 40.3204C170.678 40.3204 170.05 39.3289 170.05 37.5551C170.05 35.7813 170.678 34.7897 171.812 34.7897C172.958 34.7897 173.575 35.7813 173.575 37.5551C173.575 39.3289 172.958 40.3204 171.812 40.3204ZM181.65 41.5544C183.335 41.5544 184.569 40.5187 184.569 38.8551V33.699H183.302V38.778C183.302 39.6814 182.784 40.3204 181.65 40.3204C180.515 40.3204 179.997 39.6814 179.997 38.778V33.699H178.73V38.8551C178.73 40.5187 179.953 41.5544 181.65 41.5544ZM188.847 35.7592C188.098 35.7592 187.503 36.0347 187.139 36.6076V35.9024H185.949V41.4111H187.139V38.4585C187.139 37.3347 187.756 36.872 188.539 36.872C189.288 36.872 189.773 37.3127 189.773 38.15V41.4111H190.962V38.0288C190.962 36.5965 190.081 35.7592 188.847 35.7592ZM192.839 35.0761C193.257 35.0761 193.599 34.7236 193.599 34.3159C193.599 33.8973 193.257 33.5557 192.839 33.5557C192.42 33.5557 192.078 33.8973 192.078 34.3159C192.078 34.7236 192.42 35.0761 192.839 35.0761ZM192.244 41.4111H193.433V35.9024H192.244V41.4111ZM197.889 37.0483V35.9024H196.523V34.36L195.333 34.7126V35.9024H194.319V37.0483H195.333V39.6924C195.333 41.1247 196.06 41.6315 197.889 41.4111V40.3424C196.985 40.3865 196.523 40.3975 196.523 39.6924V37.0483H197.889ZM199.832 37.4228C199.832 37.0262 200.207 36.8389 200.637 36.8389C201.088 36.8389 201.474 37.0372 201.672 37.4669L202.675 36.905C202.289 36.1779 201.54 35.7592 200.637 35.7592C199.513 35.7592 198.62 36.4092 198.62 37.4449C198.62 39.417 201.584 38.8661 201.584 39.8467C201.584 40.2874 201.176 40.4636 200.648 40.4636C200.042 40.4636 199.601 40.1662 199.425 39.6704L198.4 40.2653C198.753 41.0586 199.546 41.5544 200.648 41.5544C201.837 41.5544 202.796 40.9594 202.796 39.8577C202.796 37.8195 199.832 38.4254 199.832 37.4228Z" fill="#333333"/>
<path d="M179.105 48.084H188.287L183.696 53.5927L179.105 48.084Z" fill="white"/>
</g>
<g filter="url(#filter2_d_69_12721)">
<rect x="254.172" y="6.7041" width="46.0174" height="20.263" rx="3.67246" fill="white"/>
<path d="M264.819 16.2841C265.348 15.9426 265.7 15.3917 265.7 14.6535C265.7 13.1662 264.533 12.439 263.255 12.439C261.966 12.439 260.809 13.1662 260.809 14.6535C260.809 15.3917 261.161 15.9426 261.679 16.2841C260.974 16.6807 260.544 17.3528 260.544 18.1571C260.544 19.5893 261.646 20.4377 263.255 20.4377C264.863 20.4377 265.954 19.5893 265.954 18.1571C265.954 17.3418 265.535 16.6807 264.819 16.2841ZM263.255 13.6399C263.894 13.6399 264.433 13.9925 264.433 14.7086C264.433 15.3917 263.894 15.7773 263.255 15.7773C262.605 15.7773 262.076 15.3917 262.076 14.7086C262.076 13.9925 262.605 13.6399 263.255 13.6399ZM263.255 19.2368C262.417 19.2368 261.811 18.8181 261.811 18.0359C261.811 17.2426 262.417 16.835 263.255 16.835C264.081 16.835 264.687 17.2426 264.687 18.0359C264.687 18.8181 264.081 19.2368 263.255 19.2368ZM272.703 20.4377C274.388 20.4377 275.622 19.402 275.622 17.7384V12.5823H274.355V17.6613C274.355 18.5647 273.837 19.2037 272.703 19.2037C271.568 19.2037 271.05 18.5647 271.05 17.6613V12.5823H269.783V17.7384C269.783 19.402 271.006 20.4377 272.703 20.4377ZM279.9 14.6425C279.151 14.6425 278.556 14.918 278.192 15.4909V14.7857H277.002V20.2944H278.192V17.3418C278.192 16.218 278.809 15.7553 279.591 15.7553C280.341 15.7553 280.825 16.196 280.825 17.0333V20.2944H282.015V16.9121C282.015 15.4798 281.134 14.6425 279.9 14.6425ZM283.891 13.9594C284.31 13.9594 284.652 13.6069 284.652 13.1992C284.652 12.7806 284.31 12.439 283.891 12.439C283.473 12.439 283.131 12.7806 283.131 13.1992C283.131 13.6069 283.473 13.9594 283.891 13.9594ZM283.296 20.2944H284.486V14.7857H283.296V20.2944ZM288.942 15.9316V14.7857H287.576V13.2433L286.386 13.5959V14.7857H285.372V15.9316H286.386V18.5757C286.386 20.008 287.113 20.5148 288.942 20.2944V19.2257C288.038 19.2698 287.576 19.2808 287.576 18.5757V15.9316H288.942ZM290.885 16.3061C290.885 15.9095 291.26 15.7222 291.689 15.7222C292.141 15.7222 292.527 15.9205 292.725 16.3502L293.728 15.7883C293.342 15.0612 292.593 14.6425 291.689 14.6425C290.566 14.6425 289.673 15.2925 289.673 16.3282C289.673 18.3003 292.637 17.7494 292.637 18.73C292.637 19.1707 292.229 19.3469 291.7 19.3469C291.094 19.3469 290.654 19.0495 290.477 18.5537L289.453 19.1486C289.805 19.9419 290.599 20.4377 291.7 20.4377C292.89 20.4377 293.849 19.8427 293.849 18.741C293.849 16.7028 290.885 17.3087 290.885 16.3061Z" fill="#3C4043"/>
<path d="M272.59 26.9673H281.771L277.18 32.476L272.59 26.9673Z" fill="white"/>
</g>
<g filter="url(#filter3_d_69_12721)">
<rect x="92.584" y="127.896" width="40.0174" height="20.263" rx="3.67246" fill="white"/>
<path d="M103.914 139.371C103.914 137.905 102.79 137.487 101.744 137.09V134.908C102.195 135.008 102.526 135.283 102.724 135.779L103.793 135.162C103.396 134.258 102.636 133.774 101.744 133.652V132.672H101.028V133.641C99.8817 133.752 98.8791 134.501 98.8791 135.801C98.8791 137.211 99.9588 137.685 101.028 138.081V140.373C100.311 140.296 99.8597 139.91 99.6173 139.293L98.5266 139.921C98.9122 140.924 99.8046 141.541 101.028 141.618V142.588H101.744V141.607C103 141.453 103.914 140.649 103.914 139.371ZM100.146 135.801C100.146 135.305 100.488 134.975 101.028 134.886V136.803C100.411 136.517 100.146 136.264 100.146 135.801ZM101.744 140.362V138.357C102.306 138.61 102.647 138.864 102.647 139.382C102.647 139.855 102.35 140.241 101.744 140.362ZM106.413 133.774L104.386 134.49L104.694 135.57L106.248 135.129V141.486H107.515V133.774H106.413ZM114.071 136.264C114.071 134.71 112.947 133.63 111.35 133.63C109.752 133.63 108.617 134.71 108.617 136.264C108.617 137.817 109.752 138.897 111.35 138.897H111.482L109.719 141.486H111.173L113.608 137.817C113.906 137.387 114.071 136.859 114.071 136.264ZM109.884 136.264C109.884 135.382 110.512 134.831 111.35 134.831C112.187 134.831 112.804 135.382 112.804 136.264C112.804 137.145 112.187 137.696 111.35 137.696C110.512 137.696 109.884 137.134 109.884 136.264ZM117.16 136.682H116.191L116.323 134.964H119.452V133.774H115.155L114.858 137.916H117.105C117.942 137.916 118.515 138.379 118.515 139.15C118.515 139.921 117.942 140.395 117.083 140.395C116.279 140.395 115.75 140.032 115.552 139.348L114.461 139.976C114.869 141.089 115.915 141.629 117.083 141.629C118.504 141.629 119.782 140.77 119.782 139.15C119.782 137.542 118.559 136.682 117.16 136.682ZM123.518 141.629C125.457 141.629 126.548 140.01 126.548 137.63C126.548 135.25 125.457 133.63 123.518 133.63C121.579 133.63 120.489 135.25 120.489 137.63C120.489 140.01 121.579 141.629 123.518 141.629ZM123.518 140.395C122.384 140.395 121.756 139.404 121.756 137.63C121.756 135.856 122.384 134.864 123.518 134.864C124.664 134.864 125.281 135.856 125.281 137.63C125.281 139.404 124.664 140.395 123.518 140.395Z" fill="#333333"/>
<path d="M108.002 148.159H117.183L112.593 153.667L108.002 148.159Z" fill="white"/>
</g>
<g filter="url(#filter4_d_69_12721)">
<rect x="218.365" y="122.387" width="49.0174" height="20.263" rx="3.67246" fill="white"/>
<path d="M226.145 128.265L224.118 128.981L224.426 130.061L225.98 129.62V135.977H227.247V128.265H226.145ZM228.415 135.977H233.494V134.754H230.299L232.04 133.013C232.778 132.264 233.351 131.46 233.351 130.501C233.351 128.97 232.15 128.122 230.883 128.122C229.859 128.122 228.889 128.628 228.393 129.686L229.462 130.314C229.759 129.697 230.255 129.356 230.894 129.356C231.555 129.356 232.084 129.774 232.084 130.545C232.084 131.129 231.654 131.691 231.104 132.242L228.415 134.985V135.977ZM240.273 136.12C241.959 136.12 243.193 135.085 243.193 133.421V128.265H241.926V133.344C241.926 134.247 241.408 134.886 240.273 134.886C239.139 134.886 238.621 134.247 238.621 133.344V128.265H237.354V133.421C237.354 135.085 238.577 136.12 240.273 136.12ZM247.471 130.325C246.722 130.325 246.127 130.601 245.763 131.173V130.468H244.573V135.977H245.763V133.024C245.763 131.901 246.38 131.438 247.162 131.438C247.911 131.438 248.396 131.879 248.396 132.716V135.977H249.586V132.595C249.586 131.162 248.705 130.325 247.471 130.325ZM251.462 129.642C251.881 129.642 252.222 129.29 252.222 128.882C252.222 128.463 251.881 128.122 251.462 128.122C251.044 128.122 250.702 128.463 250.702 128.882C250.702 129.29 251.044 129.642 251.462 129.642ZM250.867 135.977H252.057V130.468H250.867V135.977ZM256.513 131.614V130.468H255.146V128.926L253.956 129.278V130.468H252.943V131.614H253.956V134.258C253.956 135.691 254.684 136.197 256.513 135.977V134.908C255.609 134.952 255.146 134.963 255.146 134.258V131.614H256.513ZM258.456 131.989C258.456 131.592 258.831 131.405 259.26 131.405C259.712 131.405 260.098 131.603 260.296 132.033L261.298 131.471C260.913 130.744 260.164 130.325 259.26 130.325C258.136 130.325 257.244 130.975 257.244 132.011C257.244 133.983 260.208 133.432 260.208 134.413C260.208 134.853 259.8 135.03 259.271 135.03C258.665 135.03 258.225 134.732 258.048 134.236L257.024 134.831C257.376 135.624 258.169 136.12 259.271 136.12C260.461 136.12 261.42 135.525 261.42 134.424C261.42 132.385 258.456 132.991 258.456 131.989Z" fill="#333333"/>
<path d="M238.283 142.65H247.464L242.874 148.159L238.283 142.65Z" fill="white"/>
</g>
<g filter="url(#filter5_d_69_12721)">
<rect x="250.498" y="81.9897" width="45.0174" height="20.263" rx="3.67246" fill="white"/>
<path d="M259.079 90.457H258.935L260.698 87.8679H259.255L256.809 91.5367C256.512 91.9664 256.346 92.4952 256.346 93.0902C256.346 94.6436 257.47 95.7233 259.079 95.7233C260.676 95.7233 261.8 94.6436 261.8 93.0902C261.8 91.5367 260.676 90.457 259.079 90.457ZM259.079 94.5224C258.23 94.5224 257.613 93.9715 257.613 93.0902C257.613 92.2088 258.23 91.6579 259.079 91.6579C259.916 91.6579 260.533 92.2088 260.533 93.0902C260.533 93.9605 259.916 94.5224 259.079 94.5224ZM268.443 95.7233C270.128 95.7233 271.362 94.6877 271.362 93.024V87.8679H270.095V92.9469C270.095 93.8504 269.577 94.4894 268.443 94.4894C267.308 94.4894 266.79 93.8504 266.79 92.9469V87.8679H265.523V93.024C265.523 94.6877 266.746 95.7233 268.443 95.7233ZM275.64 89.9282C274.891 89.9282 274.296 90.2036 273.932 90.7765V90.0714H272.742V95.5801H273.932V92.6274C273.932 91.5037 274.549 91.0409 275.331 91.0409C276.081 91.0409 276.565 91.4816 276.565 92.3189V95.5801H277.755V92.1977C277.755 90.7655 276.874 89.9282 275.64 89.9282ZM279.631 89.2451C280.05 89.2451 280.392 88.8925 280.392 88.4849C280.392 88.0662 280.05 87.7247 279.631 87.7247C279.213 87.7247 278.871 88.0662 278.871 88.4849C278.871 88.8925 279.213 89.2451 279.631 89.2451ZM279.036 95.5801H280.226V90.0714H279.036V95.5801ZM284.682 91.2172V90.0714H283.316V88.529L282.126 88.8815V90.0714H281.112V91.2172H282.126V93.8614C282.126 95.2936 282.853 95.8004 284.682 95.5801V94.5114C283.778 94.5555 283.316 94.5665 283.316 93.8614V91.2172H284.682ZM286.625 91.5918C286.625 91.1952 287 91.0079 287.429 91.0079C287.881 91.0079 288.267 91.2062 288.465 91.6359L289.468 91.074C289.082 90.3468 288.333 89.9282 287.429 89.9282C286.306 89.9282 285.413 90.5782 285.413 91.6138C285.413 93.5859 288.377 93.0351 288.377 94.0156C288.377 94.4563 287.969 94.6326 287.441 94.6326C286.835 94.6326 286.394 94.3351 286.218 93.8393L285.193 94.4343C285.546 95.2275 286.339 95.7233 287.441 95.7233C288.63 95.7233 289.589 95.1284 289.589 94.0266C289.589 91.9884 286.625 92.5944 286.625 91.5918Z" fill="#333333"/>
<path d="M268.416 102.253H277.597L273.007 107.762L268.416 102.253Z" fill="white"/>
</g>
<g filter="url(#filter6_d_69_12721)">
<rect x="268.861" y="384.967" width="45.0174" height="20.263" rx="3.67246" fill="white"/>
<path d="M277.442 393.435H277.299L279.062 390.845H277.618L275.172 394.514C274.875 394.944 274.71 395.473 274.71 396.068C274.71 397.621 275.833 398.701 277.442 398.701C279.04 398.701 280.163 397.621 280.163 396.068C280.163 394.514 279.04 393.435 277.442 393.435ZM277.442 397.5C276.594 397.5 275.977 396.949 275.977 396.068C275.977 395.186 276.594 394.635 277.442 394.635C278.279 394.635 278.896 395.186 278.896 396.068C278.896 396.938 278.279 397.5 277.442 397.5ZM286.806 398.701C288.492 398.701 289.725 397.665 289.725 396.002V390.845H288.458V395.924C288.458 396.828 287.941 397.467 286.806 397.467C285.671 397.467 285.153 396.828 285.153 395.924V390.845H283.886V396.002C283.886 397.665 285.109 398.701 286.806 398.701ZM294.003 392.906C293.254 392.906 292.659 393.181 292.296 393.754V393.049H291.106V398.558H292.296V395.605C292.296 394.481 292.913 394.018 293.695 394.018C294.444 394.018 294.929 394.459 294.929 395.296V398.558H296.119V395.175C296.119 393.743 295.237 392.906 294.003 392.906ZM297.995 392.223C298.413 392.223 298.755 391.87 298.755 391.462C298.755 391.044 298.413 390.702 297.995 390.702C297.576 390.702 297.235 391.044 297.235 391.462C297.235 391.87 297.576 392.223 297.995 392.223ZM297.4 398.558H298.59V393.049H297.4V398.558ZM303.045 394.195V393.049H301.679V391.507L300.489 391.859V393.049H299.475V394.195H300.489V396.839C300.489 398.271 301.216 398.778 303.045 398.558V397.489C302.142 397.533 301.679 397.544 301.679 396.839V394.195H303.045ZM304.989 394.569C304.989 394.173 305.363 393.985 305.793 393.985C306.244 393.985 306.63 394.184 306.828 394.613L307.831 394.052C307.445 393.324 306.696 392.906 305.793 392.906C304.669 392.906 303.777 393.556 303.777 394.591C303.777 396.563 306.74 396.013 306.74 396.993C306.74 397.434 306.333 397.61 305.804 397.61C305.198 397.61 304.757 397.313 304.581 396.817L303.556 397.412C303.909 398.205 304.702 398.701 305.804 398.701C306.994 398.701 307.952 398.106 307.952 397.004C307.952 394.966 304.989 395.572 304.989 394.569Z" fill="#333333"/>
<path d="M286.779 405.23H295.96L291.37 410.739L286.779 405.23Z" fill="white"/>
</g>
<g filter="url(#filter7_d_69_12721)">
<rect x="289.979" y="126.059" width="45.0174" height="20.263" rx="3.67246" fill="white"/>
<path d="M298.559 134.526H298.416L300.179 131.937H298.735L296.29 135.606C295.992 136.036 295.827 136.565 295.827 137.159C295.827 138.713 296.951 139.793 298.559 139.793C300.157 139.793 301.28 138.713 301.28 137.159C301.28 135.606 300.157 134.526 298.559 134.526ZM298.559 138.592C297.711 138.592 297.094 138.041 297.094 137.159C297.094 136.278 297.711 135.727 298.559 135.727C299.396 135.727 300.013 136.278 300.013 137.159C300.013 138.03 299.396 138.592 298.559 138.592ZM307.923 139.793C309.609 139.793 310.843 138.757 310.843 137.093V131.937H309.576V137.016C309.576 137.92 309.058 138.559 307.923 138.559C306.788 138.559 306.27 137.92 306.27 137.016V131.937H305.003V137.093C305.003 138.757 306.226 139.793 307.923 139.793ZM315.12 133.998C314.371 133.998 313.776 134.273 313.413 134.846V134.141H312.223V139.649H313.413V136.697C313.413 135.573 314.03 135.11 314.812 135.11C315.561 135.11 316.046 135.551 316.046 136.388V139.649H317.236V136.267C317.236 134.835 316.354 133.998 315.12 133.998ZM319.112 133.314C319.531 133.314 319.872 132.962 319.872 132.554C319.872 132.136 319.531 131.794 319.112 131.794C318.693 131.794 318.352 132.136 318.352 132.554C318.352 132.962 318.693 133.314 319.112 133.314ZM318.517 139.649H319.707V134.141H318.517V139.649ZM324.162 135.287V134.141H322.796V132.598L321.606 132.951V134.141H320.593V135.287H321.606V137.931C321.606 139.363 322.333 139.87 324.162 139.649V138.581C323.259 138.625 322.796 138.636 322.796 137.931V135.287H324.162ZM326.106 135.661C326.106 135.265 326.48 135.077 326.91 135.077C327.362 135.077 327.747 135.276 327.946 135.705L328.948 135.143C328.563 134.416 327.813 133.998 326.91 133.998C325.786 133.998 324.894 134.648 324.894 135.683C324.894 137.655 327.857 137.104 327.857 138.085C327.857 138.526 327.45 138.702 326.921 138.702C326.315 138.702 325.874 138.404 325.698 137.909L324.673 138.504C325.026 139.297 325.819 139.793 326.921 139.793C328.111 139.793 329.069 139.198 329.069 138.096C329.069 136.058 326.106 136.664 326.106 135.661Z" fill="#333333"/>
<path d="M307.896 146.322H317.078L312.487 151.831L307.896 146.322Z" fill="white"/>
</g>
<g filter="url(#filter8_d_69_12721)">
<rect x="144.916" y="94.8433" width="46.0174" height="20.263" rx="3.67246" fill="white"/>
<path d="M155.563 104.423C156.092 104.082 156.445 103.531 156.445 102.793C156.445 101.305 155.277 100.578 153.999 100.578C152.71 100.578 151.553 101.305 151.553 102.793C151.553 103.531 151.905 104.082 152.423 104.423C151.718 104.82 151.288 105.492 151.288 106.296C151.288 107.728 152.39 108.577 153.999 108.577C155.607 108.577 156.698 107.728 156.698 106.296C156.698 105.481 156.279 104.82 155.563 104.423ZM153.999 101.779C154.638 101.779 155.178 102.132 155.178 102.848C155.178 103.531 154.638 103.916 153.999 103.916C153.349 103.916 152.82 103.531 152.82 102.848C152.82 102.132 153.349 101.779 153.999 101.779ZM153.999 107.376C153.161 107.376 152.555 106.957 152.555 106.175C152.555 105.382 153.161 104.974 153.999 104.974C154.825 104.974 155.431 105.382 155.431 106.175C155.431 106.957 154.825 107.376 153.999 107.376ZM163.447 108.577C165.132 108.577 166.366 107.541 166.366 105.878V100.721H165.099V105.8C165.099 106.704 164.581 107.343 163.447 107.343C162.312 107.343 161.794 106.704 161.794 105.8V100.721H160.527V105.878C160.527 107.541 161.75 108.577 163.447 108.577ZM170.644 102.782C169.895 102.782 169.3 103.057 168.936 103.63V102.925H167.746V108.434H168.936V105.481C168.936 104.357 169.553 103.894 170.336 103.894C171.085 103.894 171.569 104.335 171.569 105.172V108.434H172.759V105.051C172.759 103.619 171.878 102.782 170.644 102.782ZM174.635 102.099C175.054 102.099 175.396 101.746 175.396 101.338C175.396 100.92 175.054 100.578 174.635 100.578C174.217 100.578 173.875 100.92 173.875 101.338C173.875 101.746 174.217 102.099 174.635 102.099ZM174.041 108.434H175.23V102.925H174.041V108.434ZM179.686 104.071V102.925H178.32V101.382L177.13 101.735V102.925H176.116V104.071H177.13V106.715C177.13 108.147 177.857 108.654 179.686 108.434V107.365C178.782 107.409 178.32 107.42 178.32 106.715V104.071H179.686ZM181.629 104.445C181.629 104.049 182.004 103.861 182.434 103.861C182.885 103.861 183.271 104.06 183.469 104.489L184.472 103.927C184.086 103.2 183.337 102.782 182.434 102.782C181.31 102.782 180.417 103.432 180.417 104.467C180.417 106.439 183.381 105.889 183.381 106.869C183.381 107.31 182.973 107.486 182.445 107.486C181.839 107.486 181.398 107.189 181.222 106.693L180.197 107.288C180.55 108.081 181.343 108.577 182.445 108.577C183.634 108.577 184.593 107.982 184.593 106.88C184.593 104.842 181.629 105.448 181.629 104.445Z" fill="#333333"/>
<path d="M163.334 115.106H172.515L167.925 120.615L163.334 115.106Z" fill="white"/>
</g>
<g filter="url(#filter9_d_69_12721)">
<rect x="32.9062" y="72.8086" width="45.0174" height="20.263" rx="3.67246" fill="white"/>
<path d="M38.9457 78.6868V79.8987H42.4712L39.805 86.3989H41.1381L43.8484 79.7885V78.6868H38.9457ZM50.5495 86.5422C52.2352 86.5422 53.4692 85.5065 53.4692 83.8429V78.6868H52.2022V83.7658C52.2022 84.6692 51.6843 85.3082 50.5495 85.3082C49.4148 85.3082 48.8969 84.6692 48.8969 83.7658V78.6868H47.6299V83.8429C47.6299 85.5065 48.8529 86.5422 50.5495 86.5422ZM57.7469 80.747C56.9977 80.747 56.4028 81.0224 56.0392 81.5954V80.8902H54.8493V86.3989H56.0392V83.4463C56.0392 82.3225 56.6562 81.8598 57.4384 81.8598C58.1876 81.8598 58.6724 82.3005 58.6724 83.1378V86.3989H59.8622V83.0166C59.8622 81.5843 58.9808 80.747 57.7469 80.747ZM61.7384 80.0639C62.157 80.0639 62.4986 79.7114 62.4986 79.3037C62.4986 78.8851 62.157 78.5435 61.7384 78.5435C61.3197 78.5435 60.9782 78.8851 60.9782 79.3037C60.9782 79.7114 61.3197 80.0639 61.7384 80.0639ZM61.1434 86.3989H62.3333V80.8902H61.1434V86.3989ZM66.7887 82.036V80.8902H65.4226V79.3478L64.2327 79.7004V80.8902H63.2191V82.036H64.2327V84.6802C64.2327 86.1125 64.9598 86.6193 66.7887 86.3989V85.3302C65.8853 85.3743 65.4226 85.3853 65.4226 84.6802V82.036H66.7887ZM68.7322 82.4106C68.7322 82.014 69.1068 81.8267 69.5364 81.8267C69.9881 81.8267 70.3738 82.025 70.5721 82.4547L71.5746 81.8928C71.189 81.1657 70.4399 80.747 69.5364 80.747C68.4127 80.747 67.5203 81.397 67.5203 82.4327C67.5203 84.4048 70.4839 83.8539 70.4839 84.8345C70.4839 85.2752 70.0763 85.4514 69.5475 85.4514C68.9415 85.4514 68.5008 85.154 68.3245 84.6582L67.2999 85.2531C67.6525 86.0464 68.4457 86.5422 69.5475 86.5422C70.7373 86.5422 71.6958 85.9472 71.6958 84.8455C71.6958 82.8073 68.7322 83.4132 68.7322 82.4106Z" fill="#333333"/>
<path d="M50.8242 93.0718H60.0054L55.4148 98.5805L50.8242 93.0718Z" fill="white"/>
</g>
<g filter="url(#filter10_d_69_12721)">
<rect x="22.8066" y="171.965" width="49.0174" height="20.263" rx="3.67246" fill="white"/>
<path d="M30.5864 177.843L28.5592 178.559L28.8677 179.639L30.4212 179.198V185.555H31.6882V177.843H30.5864ZM32.8568 185.555H37.9358V184.332H34.7408L36.4815 182.592C37.2197 181.842 37.7926 181.038 37.7926 180.08C37.7926 178.548 36.5917 177.7 35.3247 177.7C34.3001 177.7 33.3305 178.207 32.8347 179.264L33.9034 179.892C34.2009 179.275 34.6967 178.934 35.3357 178.934C35.9967 178.934 36.5256 179.352 36.5256 180.124C36.5256 180.708 36.0959 181.269 35.545 181.82L32.8568 184.564V185.555ZM44.7147 185.698C46.4004 185.698 47.6343 184.663 47.6343 182.999V177.843H46.3673V182.922C46.3673 183.825 45.8495 184.464 44.7147 184.464C43.58 184.464 43.0621 183.825 43.0621 182.922V177.843H41.7951V182.999C41.7951 184.663 43.0181 185.698 44.7147 185.698ZM51.9121 179.903C51.1629 179.903 50.568 180.179 50.2044 180.752V180.046H49.0145V185.555H50.2044V182.603C50.2044 181.479 50.8214 181.016 51.6036 181.016C52.3528 181.016 52.8376 181.457 52.8376 182.294V185.555H54.0274V182.173C54.0274 180.741 53.146 179.903 51.9121 179.903ZM55.9036 179.22C56.3222 179.22 56.6638 178.868 56.6638 178.46C56.6638 178.041 56.3222 177.7 55.9036 177.7C55.4849 177.7 55.1434 178.041 55.1434 178.46C55.1434 178.868 55.4849 179.22 55.9036 179.22ZM55.3086 185.555H56.4985V180.046H55.3086V185.555ZM60.9539 181.192V180.046H59.5878V178.504L58.3979 178.857V180.046H57.3843V181.192H58.3979V183.836C58.3979 185.269 59.125 185.776 60.9539 185.555V184.486C60.0505 184.531 59.5878 184.542 59.5878 183.836V181.192H60.9539ZM62.8974 181.567C62.8974 181.17 63.2719 180.983 63.7016 180.983C64.1533 180.983 64.5389 181.181 64.7373 181.611L65.7398 181.049C65.3542 180.322 64.6051 179.903 63.7016 179.903C62.5779 179.903 61.6854 180.553 61.6854 181.589C61.6854 183.561 64.6491 183.01 64.6491 183.991C64.6491 184.431 64.2415 184.608 63.7126 184.608C63.1067 184.608 62.666 184.31 62.4897 183.814L61.4651 184.409C61.8177 185.203 62.6109 185.698 63.7126 185.698C64.9025 185.698 65.861 185.103 65.861 184.002C65.861 181.964 62.8974 182.569 62.8974 181.567Z" fill="#333333"/>
<path d="M42.7246 192.228H51.9058L47.3152 197.737L42.7246 192.228Z" fill="white"/>
</g>
<g filter="url(#filter11_d_69_12721)">
<rect x="127.471" y="182.064" width="46.0174" height="20.263" rx="3.67246" fill="white"/>
<path d="M138.118 191.644C138.647 191.302 138.999 190.752 138.999 190.013C138.999 188.526 137.831 187.799 136.553 187.799C135.264 187.799 134.108 188.526 134.108 190.013C134.108 190.752 134.46 191.302 134.978 191.644C134.273 192.041 133.843 192.713 133.843 193.517C133.843 194.949 134.945 195.798 136.553 195.798C138.162 195.798 139.253 194.949 139.253 193.517C139.253 192.702 138.834 192.041 138.118 191.644ZM136.553 189C137.192 189 137.732 189.352 137.732 190.068C137.732 190.752 137.192 191.137 136.553 191.137C135.903 191.137 135.375 190.752 135.375 190.068C135.375 189.352 135.903 189 136.553 189ZM136.553 194.597C135.716 194.597 135.11 194.178 135.11 193.396C135.11 192.602 135.716 192.195 136.553 192.195C137.38 192.195 137.986 192.602 137.986 193.396C137.986 194.178 137.38 194.597 136.553 194.597ZM146.001 195.798C147.687 195.798 148.921 194.762 148.921 193.098V187.942H147.654V193.021C147.654 193.925 147.136 194.564 146.001 194.564C144.867 194.564 144.349 193.925 144.349 193.021V187.942H143.082V193.098C143.082 194.762 144.305 195.798 146.001 195.798ZM153.199 190.002C152.45 190.002 151.855 190.278 151.491 190.851V190.146H150.301V195.654H151.491V192.702C151.491 191.578 152.108 191.115 152.89 191.115C153.639 191.115 154.124 191.556 154.124 192.393V195.654H155.314V192.272C155.314 190.84 154.433 190.002 153.199 190.002ZM157.19 189.319C157.609 189.319 157.95 188.967 157.95 188.559C157.95 188.14 157.609 187.799 157.19 187.799C156.771 187.799 156.43 188.14 156.43 188.559C156.43 188.967 156.771 189.319 157.19 189.319ZM156.595 195.654H157.785V190.146H156.595V195.654ZM162.241 191.291V190.146H160.874V188.603L159.684 188.956V190.146H158.671V191.291H159.684V193.936C159.684 195.368 160.412 195.875 162.241 195.654V194.586C161.337 194.63 160.874 194.641 160.874 193.936V191.291H162.241ZM164.184 191.666C164.184 191.269 164.559 191.082 164.988 191.082C165.44 191.082 165.826 191.28 166.024 191.71L167.026 191.148C166.641 190.421 165.892 190.002 164.988 190.002C163.864 190.002 162.972 190.652 162.972 191.688C162.972 193.66 165.936 193.109 165.936 194.09C165.936 194.531 165.528 194.707 164.999 194.707C164.393 194.707 163.953 194.409 163.776 193.914L162.752 194.508C163.104 195.302 163.897 195.798 164.999 195.798C166.189 195.798 167.148 195.203 167.148 194.101C167.148 192.063 164.184 192.669 164.184 191.666Z" fill="#333333"/>
<path d="M145.889 202.327H155.07L150.479 207.836L145.889 202.327Z" fill="white"/>
</g>
<g filter="url(#filter12_d_69_12721)">
<rect x="265.189" y="184.818" width="45.0174" height="20.263" rx="3.67246" fill="white"/>
<path d="M273.792 193.605H272.823L272.955 191.886H276.084V190.697H271.787L271.49 194.839H273.737C274.574 194.839 275.147 195.302 275.147 196.073C275.147 196.844 274.574 197.318 273.715 197.318C272.911 197.318 272.382 196.954 272.184 196.271L271.093 196.899C271.501 198.012 272.547 198.552 273.715 198.552C275.136 198.552 276.414 197.693 276.414 196.073C276.414 194.464 275.191 193.605 273.792 193.605ZM283.134 198.552C284.82 198.552 286.054 197.516 286.054 195.853V190.697H284.787V195.776C284.787 196.679 284.269 197.318 283.134 197.318C281.999 197.318 281.481 196.679 281.481 195.776V190.697H280.214V195.853C280.214 197.516 281.437 198.552 283.134 198.552ZM290.331 192.757C289.582 192.757 288.987 193.032 288.624 193.605V192.9H287.434V198.409H288.624V195.456C288.624 194.332 289.241 193.87 290.023 193.87C290.772 193.87 291.257 194.31 291.257 195.148V198.409H292.447V195.026C292.447 193.594 291.565 192.757 290.331 192.757ZM294.323 192.074C294.741 192.074 295.083 191.721 295.083 191.314C295.083 190.895 294.741 190.553 294.323 190.553C293.904 190.553 293.563 190.895 293.563 191.314C293.563 191.721 293.904 192.074 294.323 192.074ZM293.728 198.409H294.918V192.9H293.728V198.409ZM299.373 194.046V192.9H298.007V191.358L296.817 191.71V192.9H295.804V194.046H296.817V196.69C296.817 198.122 297.544 198.629 299.373 198.409V197.34C298.47 197.384 298.007 197.395 298.007 196.69V194.046H299.373ZM301.317 194.42C301.317 194.024 301.691 193.836 302.121 193.836C302.573 193.836 302.958 194.035 303.157 194.464L304.159 193.903C303.774 193.175 303.024 192.757 302.121 192.757C300.997 192.757 300.105 193.407 300.105 194.442C300.105 196.415 303.068 195.864 303.068 196.844C303.068 197.285 302.661 197.461 302.132 197.461C301.526 197.461 301.085 197.164 300.909 196.668L299.884 197.263C300.237 198.056 301.03 198.552 302.132 198.552C303.322 198.552 304.28 197.957 304.28 196.855C304.28 194.817 301.317 195.423 301.317 194.42Z" fill="#333333"/>
<path d="M283.107 205.082H292.289L287.698 210.59L283.107 205.082Z" fill="white"/>
</g>
<g filter="url(#filter13_d_69_12721)">
<rect x="201.838" y="210.525" width="45.0174" height="20.263" rx="3.67246" fill="white"/>
<path d="M207.838 224.116H212.917V222.893H209.722L211.463 221.152C212.201 220.403 212.774 219.599 212.774 218.64C212.774 217.109 211.573 216.26 210.306 216.26C209.282 216.26 208.312 216.767 207.816 217.825L208.885 218.453C209.183 217.836 209.678 217.494 210.317 217.494C210.978 217.494 211.507 217.913 211.507 218.684C211.507 219.268 211.078 219.83 210.527 220.381L207.838 223.124V224.116ZM219.696 224.259C221.382 224.259 222.616 223.223 222.616 221.56V216.404H221.349V221.483C221.349 222.386 220.831 223.025 219.696 223.025C218.562 223.025 218.044 222.386 218.044 221.483V216.404H216.777V221.56C216.777 223.223 218 224.259 219.696 224.259ZM226.894 218.464C226.145 218.464 225.55 218.739 225.186 219.312V218.607H223.996V224.116H225.186V221.163C225.186 220.039 225.803 219.577 226.585 219.577C227.334 219.577 227.819 220.017 227.819 220.855V224.116H229.009V220.733C229.009 219.301 228.128 218.464 226.894 218.464ZM230.885 217.781C231.304 217.781 231.645 217.428 231.645 217.021C231.645 216.602 231.304 216.26 230.885 216.26C230.467 216.26 230.125 216.602 230.125 217.021C230.125 217.428 230.467 217.781 230.885 217.781ZM230.29 224.116H231.48V218.607H230.29V224.116ZM235.936 219.753V218.607H234.569V217.065L233.38 217.417V218.607H232.366V219.753H233.38V222.397C233.38 223.829 234.107 224.336 235.936 224.116V223.047C235.032 223.091 234.569 223.102 234.569 222.397V219.753H235.936ZM237.879 220.127C237.879 219.731 238.254 219.544 238.683 219.544C239.135 219.544 239.521 219.742 239.719 220.172L240.721 219.61C240.336 218.882 239.587 218.464 238.683 218.464C237.559 218.464 236.667 219.114 236.667 220.149C236.667 222.122 239.631 221.571 239.631 222.551C239.631 222.992 239.223 223.168 238.694 223.168C238.088 223.168 237.648 222.871 237.471 222.375L236.447 222.97C236.799 223.763 237.593 224.259 238.694 224.259C239.884 224.259 240.843 223.664 240.843 222.562C240.843 220.524 237.879 221.13 237.879 220.127Z" fill="#333333"/>
<path d="M219.756 230.789H228.937L224.346 236.297L219.756 230.789Z" fill="white"/>
</g>
<g filter="url(#filter14_d_69_12721)">
<rect x="296.404" y="274.793" width="44.0174" height="20.263" rx="3.67246" fill="white"/>
<path d="M307.835 286.268C307.835 284.803 306.712 284.384 305.665 283.988V281.806C306.117 281.906 306.447 282.181 306.646 282.677L307.714 282.06C307.318 281.156 306.557 280.672 305.665 280.55V279.57H304.949V280.539C303.803 280.65 302.8 281.399 302.8 282.699C302.8 284.109 303.88 284.583 304.949 284.979V287.271C304.233 287.194 303.781 286.808 303.539 286.191L302.448 286.819C302.834 287.822 303.726 288.439 304.949 288.516V289.486H305.665V288.505C306.921 288.351 307.835 287.546 307.835 286.268ZM304.067 282.699C304.067 282.203 304.409 281.873 304.949 281.784V283.701C304.332 283.415 304.067 283.162 304.067 282.699ZM305.665 287.26V285.255C306.227 285.508 306.568 285.762 306.568 286.279C306.568 286.753 306.271 287.139 305.665 287.26ZM308.506 288.384H313.585V287.161H310.39L312.13 285.42C312.868 284.671 313.441 283.867 313.441 282.908C313.441 281.377 312.24 280.528 310.973 280.528C309.949 280.528 308.979 281.035 308.484 282.093L309.552 282.721C309.85 282.104 310.345 281.762 310.984 281.762C311.646 281.762 312.174 282.181 312.174 282.952C312.174 283.536 311.745 284.098 311.194 284.649L308.506 287.392V288.384ZM317.358 288.527C319.297 288.527 320.388 286.907 320.388 284.528C320.388 282.148 319.297 280.528 317.358 280.528C315.419 280.528 314.329 282.148 314.329 284.528C314.329 286.907 315.419 288.527 317.358 288.527ZM317.358 287.293C316.224 287.293 315.596 286.302 315.596 284.528C315.596 282.754 316.224 281.762 317.358 281.762C318.504 281.762 319.121 282.754 319.121 284.528C319.121 286.302 318.504 287.293 317.358 287.293ZM324.298 288.527C326.237 288.527 327.328 286.907 327.328 284.528C327.328 282.148 326.237 280.528 324.298 280.528C322.359 280.528 321.268 282.148 321.268 284.528C321.268 286.907 322.359 288.527 324.298 288.527ZM324.298 287.293C323.163 287.293 322.535 286.302 322.535 284.528C322.535 282.754 323.163 281.762 324.298 281.762C325.444 281.762 326.061 282.754 326.061 284.528C326.061 286.302 325.444 287.293 324.298 287.293ZM331.238 288.527C333.177 288.527 334.267 286.907 334.267 284.528C334.267 282.148 333.177 280.528 331.238 280.528C329.299 280.528 328.208 282.148 328.208 284.528C328.208 286.907 329.299 288.527 331.238 288.527ZM331.238 287.293C330.103 287.293 329.475 286.302 329.475 284.528C329.475 282.754 330.103 281.762 331.238 281.762C332.383 281.762 333 282.754 333 284.528C333 286.302 332.383 287.293 331.238 287.293Z" fill="#333333"/>
<path d="M313.822 295.057H323.003L318.413 300.565L313.822 295.057Z" fill="white"/>
</g>
<g filter="url(#filter15_d_69_12721)">
<rect x="198.166" y="285.811" width="45.0174" height="20.263" rx="3.67246" fill="white"/>
<path d="M204.205 291.689V292.901H207.731L205.065 299.401H206.398L209.108 292.791V291.689H204.205ZM215.809 299.545C217.495 299.545 218.729 298.509 218.729 296.845V291.689H217.462V296.768C217.462 297.672 216.944 298.311 215.809 298.311C214.675 298.311 214.157 297.672 214.157 296.768V291.689H212.89V296.845C212.89 298.509 214.113 299.545 215.809 299.545ZM223.007 293.749C222.257 293.749 221.663 294.025 221.299 294.598V293.893H220.109V299.401H221.299V296.449C221.299 295.325 221.916 294.862 222.698 294.862C223.447 294.862 223.932 295.303 223.932 296.14V299.401H225.122V296.019C225.122 294.587 224.241 293.749 223.007 293.749ZM226.998 293.066C227.417 293.066 227.758 292.714 227.758 292.306C227.758 291.888 227.417 291.546 226.998 291.546C226.579 291.546 226.238 291.888 226.238 292.306C226.238 292.714 226.579 293.066 226.998 293.066ZM226.403 299.401H227.593V293.893H226.403V299.401ZM232.048 295.038V293.893H230.682V292.35L229.492 292.703V293.893H228.479V295.038H229.492V297.683C229.492 299.115 230.22 299.622 232.048 299.401V298.333C231.145 298.377 230.682 298.388 230.682 297.683V295.038H232.048ZM233.992 295.413C233.992 295.016 234.367 294.829 234.796 294.829C235.248 294.829 235.634 295.027 235.832 295.457L236.834 294.895C236.449 294.168 235.7 293.749 234.796 293.749C233.672 293.749 232.78 294.399 232.78 295.435C232.78 297.407 235.744 296.856 235.744 297.837C235.744 298.278 235.336 298.454 234.807 298.454C234.201 298.454 233.761 298.156 233.584 297.661L232.56 298.256C232.912 299.049 233.705 299.545 234.807 299.545C235.997 299.545 236.956 298.95 236.956 297.848C236.956 295.81 233.992 296.416 233.992 295.413Z" fill="#333333"/>
<path d="M216.084 306.074H225.265L220.675 311.583L216.084 306.074Z" fill="white"/>
</g>
<g filter="url(#filter16_d_69_12721)">
<rect x="18.2168" y="210.525" width="45.0174" height="20.263" rx="3.67246" fill="white"/>
<path d="M29.5187 218.893C29.5187 217.34 28.395 216.26 26.7975 216.26C25.1999 216.26 24.0651 217.34 24.0651 218.893C24.0651 220.447 25.1999 221.527 26.7975 221.527H26.9297L25.1669 224.116H26.6212L29.056 220.447C29.3535 220.017 29.5187 219.488 29.5187 218.893ZM25.3321 218.893C25.3321 218.012 25.9601 217.461 26.7975 217.461C27.6348 217.461 28.2517 218.012 28.2517 218.893C28.2517 219.775 27.6348 220.326 26.7975 220.326C25.9601 220.326 25.3321 219.764 25.3321 218.893ZM36.1614 224.259C37.847 224.259 39.081 223.223 39.081 221.56V216.404H37.814V221.483C37.814 222.386 37.2961 223.025 36.1614 223.025C35.0266 223.025 34.5087 222.386 34.5087 221.483V216.404H33.2418V221.56C33.2418 223.223 34.4647 224.259 36.1614 224.259ZM43.3587 218.464C42.6095 218.464 42.0146 218.739 41.651 219.312V218.607H40.4611V224.116H41.651V221.163C41.651 220.039 42.268 219.577 43.0502 219.577C43.7994 219.577 44.2842 220.017 44.2842 220.855V224.116H45.474V220.733C45.474 219.301 44.5927 218.464 43.3587 218.464ZM47.3502 217.781C47.7688 217.781 48.1104 217.428 48.1104 217.021C48.1104 216.602 47.7688 216.26 47.3502 216.26C46.9315 216.26 46.59 216.602 46.59 217.021C46.59 217.428 46.9315 217.781 47.3502 217.781ZM46.7552 224.116H47.9451V218.607H46.7552V224.116ZM52.4005 219.753V218.607H51.0344V217.065L49.8445 217.417V218.607H48.8309V219.753H49.8445V222.397C49.8445 223.829 50.5716 224.336 52.4005 224.116V223.047C51.4971 223.091 51.0344 223.102 51.0344 222.397V219.753H52.4005ZM54.344 220.127C54.344 219.731 54.7186 219.544 55.1482 219.544C55.6 219.544 55.9856 219.742 56.1839 220.172L57.1865 219.61C56.8008 218.882 56.0517 218.464 55.1482 218.464C54.0245 218.464 53.1321 219.114 53.1321 220.149C53.1321 222.122 56.0957 221.571 56.0957 222.551C56.0957 222.992 55.6881 223.168 55.1593 223.168C54.5533 223.168 54.1126 222.871 53.9363 222.375L52.9117 222.97C53.2643 223.763 54.0575 224.259 55.1593 224.259C56.3491 224.259 57.3076 223.664 57.3076 222.562C57.3076 220.524 54.344 221.13 54.344 220.127Z" fill="#333333"/>
<path d="M36.1348 230.789H45.3159L40.7253 236.297L36.1348 230.789Z" fill="white"/>
</g>
<g filter="url(#filter17_d_69_12721)">
<rect x="17.2969" y="288.565" width="45.0174" height="20.263" rx="3.67246" fill="white"/>
<path d="M26.5765 297.595L28.141 295.523V294.444H23.4035V295.633H26.6316L24.9679 297.826L25.4747 298.586H25.7612C26.6316 298.586 27.1935 299.049 27.1935 299.82C27.1935 300.591 26.6316 301.065 25.7612 301.065C24.99 301.065 24.4722 300.724 24.2518 300.073L23.1721 300.701C23.6018 301.781 24.6264 302.299 25.7612 302.299C27.1824 302.299 28.4605 301.44 28.4605 299.82C28.4605 298.619 27.6342 297.848 26.5765 297.595ZM35.2145 302.299C36.9002 302.299 38.1341 301.263 38.1341 299.6V294.444H36.8671V299.523C36.8671 300.426 36.3493 301.065 35.2145 301.065C34.0797 301.065 33.5619 300.426 33.5619 299.523V294.444H32.2949V299.6C32.2949 301.263 33.5179 302.299 35.2145 302.299ZM42.4119 296.504C41.6627 296.504 41.0678 296.779 40.7042 297.352V296.647H39.5143V302.156H40.7042V299.203C40.7042 298.079 41.3212 297.617 42.1034 297.617C42.8526 297.617 43.3373 298.057 43.3373 298.895V302.156H44.5272V298.773C44.5272 297.341 43.6458 296.504 42.4119 296.504ZM46.4034 295.821C46.822 295.821 47.1636 295.468 47.1636 295.061C47.1636 294.642 46.822 294.3 46.4034 294.3C45.9847 294.3 45.6432 294.642 45.6432 295.061C45.6432 295.468 45.9847 295.821 46.4034 295.821ZM45.8084 302.156H46.9983V296.647H45.8084V302.156ZM51.4537 297.793V296.647H50.0876V295.105L48.8977 295.457V296.647H47.8841V297.793H48.8977V300.437C48.8977 301.869 49.6248 302.376 51.4537 302.156V301.087C50.5503 301.131 50.0876 301.142 50.0876 300.437V297.793H51.4537ZM53.3971 298.167C53.3971 297.771 53.7717 297.584 54.2014 297.584C54.6531 297.584 55.0387 297.782 55.2371 298.212L56.2396 297.65C55.854 296.923 55.1048 296.504 54.2014 296.504C53.0776 296.504 52.1852 297.154 52.1852 298.19C52.1852 300.162 55.1489 299.611 55.1489 300.591C55.1489 301.032 54.7413 301.208 54.2124 301.208C53.6065 301.208 53.1658 300.911 52.9895 300.415L51.9649 301.01C52.3174 301.803 53.1107 302.299 54.2124 302.299C55.4023 302.299 56.3608 301.704 56.3608 300.602C56.3608 298.564 53.3971 299.17 53.3971 298.167Z" fill="#333333"/>
<path d="M35.2148 308.829H44.396L39.8054 314.337L35.2148 308.829Z" fill="white"/>
</g>
<g filter="url(#filter18_d_69_12721)">
<rect x="90.7461" y="244.496" width="45.0174" height="20.263" rx="3.67246" fill="white"/>
<path d="M99.3267 252.963H99.1835L100.946 250.374H99.503L97.0572 254.043C96.7597 254.472 96.5944 255.001 96.5944 255.596C96.5944 257.149 97.7182 258.229 99.3267 258.229C100.924 258.229 102.048 257.149 102.048 255.596C102.048 254.043 100.924 252.963 99.3267 252.963ZM99.3267 257.028C98.4784 257.028 97.8614 256.477 97.8614 255.596C97.8614 254.715 98.4784 254.164 99.3267 254.164C100.164 254.164 100.781 254.715 100.781 255.596C100.781 256.466 100.164 257.028 99.3267 257.028ZM108.691 258.229C110.376 258.229 111.61 257.194 111.61 255.53V250.374H110.343V255.453C110.343 256.356 109.825 256.995 108.691 256.995C107.556 256.995 107.038 256.356 107.038 255.453V250.374H105.771V255.53C105.771 257.194 106.994 258.229 108.691 258.229ZM115.888 252.434C115.139 252.434 114.544 252.709 114.18 253.282V252.577H112.99V258.086H114.18V255.133C114.18 254.01 114.797 253.547 115.58 253.547C116.329 253.547 116.813 253.987 116.813 254.825V258.086H118.003V254.704C118.003 253.271 117.122 252.434 115.888 252.434ZM119.879 251.751C120.298 251.751 120.64 251.398 120.64 250.991C120.64 250.572 120.298 250.231 119.879 250.231C119.461 250.231 119.119 250.572 119.119 250.991C119.119 251.398 119.461 251.751 119.879 251.751ZM119.285 258.086H120.474V252.577H119.285V258.086ZM124.93 253.723V252.577H123.564V251.035L122.374 251.387V252.577H121.36V253.723H122.374V256.367C122.374 257.799 123.101 258.306 124.93 258.086V257.017C124.026 257.061 123.564 257.072 123.564 256.367V253.723H124.93ZM126.873 254.098C126.873 253.701 127.248 253.514 127.678 253.514C128.129 253.514 128.515 253.712 128.713 254.142L129.716 253.58C129.33 252.853 128.581 252.434 127.678 252.434C126.554 252.434 125.661 253.084 125.661 254.12C125.661 256.092 128.625 255.541 128.625 256.521C128.625 256.962 128.217 257.138 127.689 257.138C127.083 257.138 126.642 256.841 126.466 256.345L125.441 256.94C125.794 257.733 126.587 258.229 127.689 258.229C128.878 258.229 129.837 257.634 129.837 256.532C129.837 254.494 126.873 255.1 126.873 254.098Z" fill="#333333"/>
<path d="M108.664 264.759H117.845L113.255 270.267L108.664 264.759Z" fill="white"/>
</g>
<g filter="url(#filter19_d_69_12721)">
<rect x="114.617" y="307.846" width="46.0174" height="20.263" rx="3.67246" fill="white"/>
<path d="M125.264 317.426C125.793 317.084 126.146 316.533 126.146 315.795C126.146 314.308 124.978 313.581 123.7 313.581C122.411 313.581 121.254 314.308 121.254 315.795C121.254 316.533 121.607 317.084 122.124 317.426C121.419 317.822 120.99 318.494 120.99 319.299C120.99 320.731 122.091 321.579 123.7 321.579C125.308 321.579 126.399 320.731 126.399 319.299C126.399 318.483 125.981 317.822 125.264 317.426ZM123.7 314.782C124.339 314.782 124.879 315.134 124.879 315.85C124.879 316.533 124.339 316.919 123.7 316.919C123.05 316.919 122.521 316.533 122.521 315.85C122.521 315.134 123.05 314.782 123.7 314.782ZM123.7 320.378C122.863 320.378 122.257 319.96 122.257 319.177C122.257 318.384 122.863 317.977 123.7 317.977C124.526 317.977 125.132 318.384 125.132 319.177C125.132 319.96 124.526 320.378 123.7 320.378ZM133.148 321.579C134.833 321.579 136.067 320.544 136.067 318.88V313.724H134.8V318.803C134.8 319.706 134.283 320.345 133.148 320.345C132.013 320.345 131.495 319.706 131.495 318.803V313.724H130.228V318.88C130.228 320.544 131.451 321.579 133.148 321.579ZM140.345 315.784C139.596 315.784 139.001 316.06 138.637 316.632V315.927H137.448V321.436H138.637V318.483C138.637 317.36 139.254 316.897 140.037 316.897C140.786 316.897 141.271 317.338 141.271 318.175V321.436H142.461V318.054C142.461 316.621 141.579 315.784 140.345 315.784ZM144.337 315.101C144.755 315.101 145.097 314.748 145.097 314.341C145.097 313.922 144.755 313.581 144.337 313.581C143.918 313.581 143.576 313.922 143.576 314.341C143.576 314.748 143.918 315.101 144.337 315.101ZM143.742 321.436H144.932V315.927H143.742V321.436ZM149.387 317.073V315.927H148.021V314.385L146.831 314.737V315.927H145.817V317.073H146.831V319.717C146.831 321.15 147.558 321.656 149.387 321.436V320.367C148.484 320.411 148.021 320.422 148.021 319.717V317.073H149.387ZM151.33 317.448C151.33 317.051 151.705 316.864 152.135 316.864C152.586 316.864 152.972 317.062 153.17 317.492L154.173 316.93C153.787 316.203 153.038 315.784 152.135 315.784C151.011 315.784 150.119 316.434 150.119 317.47C150.119 319.442 153.082 318.891 153.082 319.872C153.082 320.312 152.675 320.489 152.146 320.489C151.54 320.489 151.099 320.191 150.923 319.695L149.898 320.29C150.251 321.083 151.044 321.579 152.146 321.579C153.336 321.579 154.294 320.984 154.294 319.883C154.294 317.844 151.33 318.45 151.33 317.448Z" fill="#333333"/>
<path d="M133.035 328.109H142.216L137.626 333.618L133.035 328.109Z" fill="white"/>
</g>
<g filter="url(#filter20_d_69_12721)">
<rect x="251.416" y="325.29" width="50.0174" height="20.263" rx="3.67246" fill="white"/>
<path d="M259.142 331.168L257.115 331.884L257.423 332.964L258.976 332.523V338.88H260.243V331.168H259.142ZM264.541 339.024C266.48 339.024 267.571 337.404 267.571 335.024C267.571 332.645 266.48 331.025 264.541 331.025C262.602 331.025 261.511 332.645 261.511 335.024C261.511 337.404 262.602 339.024 264.541 339.024ZM264.541 337.79C263.406 337.79 262.778 336.798 262.778 335.024C262.778 333.25 263.406 332.259 264.541 332.259C265.687 332.259 266.304 333.25 266.304 335.024C266.304 336.798 265.687 337.79 264.541 337.79ZM274.378 339.024C276.064 339.024 277.298 337.988 277.298 336.324V331.168H276.031V336.247C276.031 337.151 275.513 337.79 274.378 337.79C273.243 337.79 272.726 337.151 272.726 336.247V331.168H271.459V336.324C271.459 337.988 272.682 339.024 274.378 339.024ZM281.576 333.228C280.826 333.228 280.231 333.504 279.868 334.077V333.372H278.678V338.88H279.868V335.928C279.868 334.804 280.485 334.341 281.267 334.341C282.016 334.341 282.501 334.782 282.501 335.619V338.88H283.691V335.498C283.691 334.066 282.81 333.228 281.576 333.228ZM285.567 332.545C285.986 332.545 286.327 332.193 286.327 331.785C286.327 331.367 285.986 331.025 285.567 331.025C285.148 331.025 284.807 331.367 284.807 331.785C284.807 332.193 285.148 332.545 285.567 332.545ZM284.972 338.88H286.162V333.372H284.972V338.88ZM290.617 334.517V333.372H289.251V331.829L288.061 332.182V333.372H287.048V334.517H288.061V337.162C288.061 338.594 288.789 339.101 290.617 338.88V337.812C289.714 337.856 289.251 337.867 289.251 337.162V334.517H290.617ZM292.561 334.892C292.561 334.495 292.935 334.308 293.365 334.308C293.817 334.308 294.202 334.506 294.401 334.936L295.403 334.374C295.018 333.647 294.269 333.228 293.365 333.228C292.241 333.228 291.349 333.878 291.349 334.914C291.349 336.886 294.313 336.335 294.313 337.316C294.313 337.757 293.905 337.933 293.376 337.933C292.77 337.933 292.329 337.635 292.153 337.14L291.129 337.735C291.481 338.528 292.274 339.024 293.376 339.024C294.566 339.024 295.525 338.429 295.525 337.327C295.525 335.289 292.561 335.895 292.561 334.892Z" fill="#333333"/>
<path d="M271.834 345.553H281.015L276.425 351.062L271.834 345.553Z" fill="white"/>
</g>
<g filter="url(#filter21_d_69_12721)">
<rect x="71.4668" y="387.722" width="50.0174" height="20.263" rx="3.67246" fill="white"/>
<path d="M79.1925 393.6L77.1653 394.316L77.4738 395.396L79.0272 394.955V401.312H80.2942V393.6H79.1925ZM84.5918 401.455C86.5308 401.455 87.6216 399.836 87.6216 397.456C87.6216 395.076 86.5308 393.457 84.5918 393.457C82.6527 393.457 81.562 395.076 81.562 397.456C81.562 399.836 82.6527 401.455 84.5918 401.455ZM84.5918 400.221C83.457 400.221 82.829 399.23 82.829 397.456C82.829 395.682 83.457 394.691 84.5918 394.691C85.7376 394.691 86.3546 395.682 86.3546 397.456C86.3546 399.23 85.7376 400.221 84.5918 400.221ZM94.429 401.455C96.1147 401.455 97.3486 400.42 97.3486 398.756V393.6H96.0816V398.679C96.0816 399.582 95.5638 400.221 94.429 400.221C93.2942 400.221 92.7764 399.582 92.7764 398.679V393.6H91.5094V398.756C91.5094 400.42 92.7323 401.455 94.429 401.455ZM101.626 395.66C100.877 395.66 100.282 395.936 99.9187 396.508V395.803H98.7288V401.312H99.9187V398.359C99.9187 397.236 100.536 396.773 101.318 396.773C102.067 396.773 102.552 397.214 102.552 398.051V401.312H103.742V397.93C103.742 396.497 102.86 395.66 101.626 395.66ZM105.618 394.977C106.036 394.977 106.378 394.624 106.378 394.217C106.378 393.798 106.036 393.457 105.618 393.457C105.199 393.457 104.858 393.798 104.858 394.217C104.858 394.624 105.199 394.977 105.618 394.977ZM105.023 401.312H106.213V395.803H105.023V401.312ZM110.668 396.949V395.803H109.302V394.261L108.112 394.613V395.803H107.099V396.949H108.112V399.593C108.112 401.026 108.839 401.532 110.668 401.312V400.243C109.765 400.287 109.302 400.298 109.302 399.593V396.949H110.668ZM112.612 397.324C112.612 396.927 112.986 396.74 113.416 396.74C113.868 396.74 114.253 396.938 114.452 397.368L115.454 396.806C115.068 396.079 114.319 395.66 113.416 395.66C112.292 395.66 111.4 396.31 111.4 397.346C111.4 399.318 114.363 398.767 114.363 399.748C114.363 400.188 113.956 400.365 113.427 400.365C112.821 400.365 112.38 400.067 112.204 399.571L111.179 400.166C111.532 400.959 112.325 401.455 113.427 401.455C114.617 401.455 115.575 400.86 115.575 399.759C115.575 397.72 112.612 398.326 112.612 397.324Z" fill="#333333"/>
<path d="M91.8848 407.985H101.066L96.4753 413.494L91.8848 407.985Z" fill="white"/>
</g>
<defs>
<filter id="filter0_d_69_12721" x="21.8881" y="0.277396" width="52.3625" height="33.1169" filterUnits="userSpaceOnUse" color-interpolation-filters="sRGB">
<feFlood flood-opacity="0" result="BackgroundImageFix"/>
<feColorMatrix in="SourceAlpha" type="matrix" values="0 0 0 0 0 0 0 0 0 0 0 0 0 0 0 0 0 0 127 0" result="hardAlpha"/>
<feOffset dy="0.918114"/>
<feGaussianBlur stdDeviation="1.83623"/>
<feColorMatrix type="matrix" values="0 0 0 0 0.235294 0 0 0 0 0.25098 0 0 0 0 0.262745 0 0 0 0.2 0"/>
<feBlend mode="normal" in2="BackgroundImageFix" result="effect1_dropShadow_69_12721"/>
<feBlend mode="normal" in="SourceGraphic" in2="effect1_dropShadow_69_12721" result="shape"/>
</filter>
<filter id="filter1_d_69_12721" x="155.015" y="25.0665" width="57.3625" height="33.1169" filterUnits="userSpaceOnUse" color-interpolation-filters="sRGB">
<feFlood flood-opacity="0" result="BackgroundImageFix"/>
<feColorMatrix in="SourceAlpha" type="matrix" values="0 0 0 0 0 0 0 0 0 0 0 0 0 0 0 0 0 0 127 0" result="hardAlpha"/>
<feOffset dy="0.918114"/>
<feGaussianBlur stdDeviation="1.83623"/>
<feColorMatrix type="matrix" values="0 0 0 0 0.235294 0 0 0 0 0.25098 0 0 0 0 0.262745 0 0 0 0.2 0"/>
<feBlend mode="normal" in2="BackgroundImageFix" result="effect1_dropShadow_69_12721"/>
<feBlend mode="normal" in="SourceGraphic" in2="effect1_dropShadow_69_12721" result="shape"/>
</filter>
<filter id="filter2_d_69_12721" x="250.499" y="3.94976" width="53.3625" height="33.1169" filterUnits="userSpaceOnUse" color-interpolation-filters="sRGB">
<feFlood flood-opacity="0" result="BackgroundImageFix"/>
<feColorMatrix in="SourceAlpha" type="matrix" values="0 0 0 0 0 0 0 0 0 0 0 0 0 0 0 0 0 0 127 0" result="hardAlpha"/>
<feOffset dy="0.918114"/>
<feGaussianBlur stdDeviation="1.83623"/>
<feColorMatrix type="matrix" values="0 0 0 0 0.235294 0 0 0 0 0.25098 0 0 0 0 0.262745 0 0 0 0.2 0"/>
<feBlend mode="normal" in2="BackgroundImageFix" result="effect1_dropShadow_69_12721"/>
<feBlend mode="normal" in="SourceGraphic" in2="effect1_dropShadow_69_12721" result="shape"/>
</filter>
<filter id="filter3_d_69_12721" x="88.9115" y="125.141" width="47.3625" height="33.1169" filterUnits="userSpaceOnUse" color-interpolation-filters="sRGB">
<feFlood flood-opacity="0" result="BackgroundImageFix"/>
<feColorMatrix in="SourceAlpha" type="matrix" values="0 0 0 0 0 0 0 0 0 0 0 0 0 0 0 0 0 0 127 0" result="hardAlpha"/>
<feOffset dy="0.918114"/>
<feGaussianBlur stdDeviation="1.83623"/>
<feColorMatrix type="matrix" values="0 0 0 0 0.235294 0 0 0 0 0.25098 0 0 0 0 0.262745 0 0 0 0.2 0"/>
<feBlend mode="normal" in2="BackgroundImageFix" result="effect1_dropShadow_69_12721"/>
<feBlend mode="normal" in="SourceGraphic" in2="effect1_dropShadow_69_12721" result="shape"/>
</filter>
<filter id="filter4_d_69_12721" x="214.693" y="119.632" width="56.3625" height="33.1169" filterUnits="userSpaceOnUse" color-interpolation-filters="sRGB">
<feFlood flood-opacity="0" result="BackgroundImageFix"/>
<feColorMatrix in="SourceAlpha" type="matrix" values="0 0 0 0 0 0 0 0 0 0 0 0 0 0 0 0 0 0 127 0" result="hardAlpha"/>
<feOffset dy="0.918114"/>
<feGaussianBlur stdDeviation="1.83623"/>
<feColorMatrix type="matrix" values="0 0 0 0 0.235294 0 0 0 0 0.25098 0 0 0 0 0.262745 0 0 0 0.2 0"/>
<feBlend mode="normal" in2="BackgroundImageFix" result="effect1_dropShadow_69_12721"/>
<feBlend mode="normal" in="SourceGraphic" in2="effect1_dropShadow_69_12721" result="shape"/>
</filter>
<filter id="filter5_d_69_12721" x="246.826" y="79.2354" width="52.3625" height="33.1169" filterUnits="userSpaceOnUse" color-interpolation-filters="sRGB">
<feFlood flood-opacity="0" result="BackgroundImageFix"/>
<feColorMatrix in="SourceAlpha" type="matrix" values="0 0 0 0 0 0 0 0 0 0 0 0 0 0 0 0 0 0 127 0" result="hardAlpha"/>
<feOffset dy="0.918114"/>
<feGaussianBlur stdDeviation="1.83623"/>
<feColorMatrix type="matrix" values="0 0 0 0 0.235294 0 0 0 0 0.25098 0 0 0 0 0.262745 0 0 0 0.2 0"/>
<feBlend mode="normal" in2="BackgroundImageFix" result="effect1_dropShadow_69_12721"/>
<feBlend mode="normal" in="SourceGraphic" in2="effect1_dropShadow_69_12721" result="shape"/>
</filter>
<filter id="filter6_d_69_12721" x="265.189" y="382.213" width="52.3625" height="33.1169" filterUnits="userSpaceOnUse" color-interpolation-filters="sRGB">
<feFlood flood-opacity="0" result="BackgroundImageFix"/>
<feColorMatrix in="SourceAlpha" type="matrix" values="0 0 0 0 0 0 0 0 0 0 0 0 0 0 0 0 0 0 127 0" result="hardAlpha"/>
<feOffset dy="0.918114"/>
<feGaussianBlur stdDeviation="1.83623"/>
<feColorMatrix type="matrix" values="0 0 0 0 0.235294 0 0 0 0 0.25098 0 0 0 0 0.262745 0 0 0 0.2 0"/>
<feBlend mode="normal" in2="BackgroundImageFix" result="effect1_dropShadow_69_12721"/>
<feBlend mode="normal" in="SourceGraphic" in2="effect1_dropShadow_69_12721" result="shape"/>
</filter>
<filter id="filter7_d_69_12721" x="286.306" y="123.305" width="52.3625" height="33.1169" filterUnits="userSpaceOnUse" color-interpolation-filters="sRGB">
<feFlood flood-opacity="0" result="BackgroundImageFix"/>
<feColorMatrix in="SourceAlpha" type="matrix" values="0 0 0 0 0 0 0 0 0 0 0 0 0 0 0 0 0 0 127 0" result="hardAlpha"/>
<feOffset dy="0.918114"/>
<feGaussianBlur stdDeviation="1.83623"/>
<feColorMatrix type="matrix" values="0 0 0 0 0.235294 0 0 0 0 0.25098 0 0 0 0 0.262745 0 0 0 0.2 0"/>
<feBlend mode="normal" in2="BackgroundImageFix" result="effect1_dropShadow_69_12721"/>
<feBlend mode="normal" in="SourceGraphic" in2="effect1_dropShadow_69_12721" result="shape"/>
</filter>
<filter id="filter8_d_69_12721" x="141.244" y="92.0889" width="53.3625" height="33.1169" filterUnits="userSpaceOnUse" color-interpolation-filters="sRGB">
<feFlood flood-opacity="0" result="BackgroundImageFix"/>
<feColorMatrix in="SourceAlpha" type="matrix" values="0 0 0 0 0 0 0 0 0 0 0 0 0 0 0 0 0 0 127 0" result="hardAlpha"/>
<feOffset dy="0.918114"/>
<feGaussianBlur stdDeviation="1.83623"/>
<feColorMatrix type="matrix" values="0 0 0 0 0.235294 0 0 0 0 0.25098 0 0 0 0 0.262745 0 0 0 0.2 0"/>
<feBlend mode="normal" in2="BackgroundImageFix" result="effect1_dropShadow_69_12721"/>
<feBlend mode="normal" in="SourceGraphic" in2="effect1_dropShadow_69_12721" result="shape"/>
</filter>
<filter id="filter9_d_69_12721" x="29.2338" y="70.0543" width="52.3625" height="33.1169" filterUnits="userSpaceOnUse" color-interpolation-filters="sRGB">
<feFlood flood-opacity="0" result="BackgroundImageFix"/>
<feColorMatrix in="SourceAlpha" type="matrix" values="0 0 0 0 0 0 0 0 0 0 0 0 0 0 0 0 0 0 127 0" result="hardAlpha"/>
<feOffset dy="0.918114"/>
<feGaussianBlur stdDeviation="1.83623"/>
<feColorMatrix type="matrix" values="0 0 0 0 0.235294 0 0 0 0 0.25098 0 0 0 0 0.262745 0 0 0 0.2 0"/>
<feBlend mode="normal" in2="BackgroundImageFix" result="effect1_dropShadow_69_12721"/>
<feBlend mode="normal" in="SourceGraphic" in2="effect1_dropShadow_69_12721" result="shape"/>
</filter>
<filter id="filter10_d_69_12721" x="19.1342" y="169.211" width="56.3625" height="33.1169" filterUnits="userSpaceOnUse" color-interpolation-filters="sRGB">
<feFlood flood-opacity="0" result="BackgroundImageFix"/>
<feColorMatrix in="SourceAlpha" type="matrix" values="0 0 0 0 0 0 0 0 0 0 0 0 0 0 0 0 0 0 127 0" result="hardAlpha"/>
<feOffset dy="0.918114"/>
<feGaussianBlur stdDeviation="1.83623"/>
<feColorMatrix type="matrix" values="0 0 0 0 0.235294 0 0 0 0 0.25098 0 0 0 0 0.262745 0 0 0 0.2 0"/>
<feBlend mode="normal" in2="BackgroundImageFix" result="effect1_dropShadow_69_12721"/>
<feBlend mode="normal" in="SourceGraphic" in2="effect1_dropShadow_69_12721" result="shape"/>
</filter>
<filter id="filter11_d_69_12721" x="123.798" y="179.31" width="53.3625" height="33.1169" filterUnits="userSpaceOnUse" color-interpolation-filters="sRGB">
<feFlood flood-opacity="0" result="BackgroundImageFix"/>
<feColorMatrix in="SourceAlpha" type="matrix" values="0 0 0 0 0 0 0 0 0 0 0 0 0 0 0 0 0 0 127 0" result="hardAlpha"/>
<feOffset dy="0.918114"/>
<feGaussianBlur stdDeviation="1.83623"/>
<feColorMatrix type="matrix" values="0 0 0 0 0.235294 0 0 0 0 0.25098 0 0 0 0 0.262745 0 0 0 0.2 0"/>
<feBlend mode="normal" in2="BackgroundImageFix" result="effect1_dropShadow_69_12721"/>
<feBlend mode="normal" in="SourceGraphic" in2="effect1_dropShadow_69_12721" result="shape"/>
</filter>
<filter id="filter12_d_69_12721" x="261.517" y="182.064" width="52.3625" height="33.1169" filterUnits="userSpaceOnUse" color-interpolation-filters="sRGB">
<feFlood flood-opacity="0" result="BackgroundImageFix"/>
<feColorMatrix in="SourceAlpha" type="matrix" values="0 0 0 0 0 0 0 0 0 0 0 0 0 0 0 0 0 0 127 0" result="hardAlpha"/>
<feOffset dy="0.918114"/>
<feGaussianBlur stdDeviation="1.83623"/>
<feColorMatrix type="matrix" values="0 0 0 0 0.235294 0 0 0 0 0.25098 0 0 0 0 0.262745 0 0 0 0.2 0"/>
<feBlend mode="normal" in2="BackgroundImageFix" result="effect1_dropShadow_69_12721"/>
<feBlend mode="normal" in="SourceGraphic" in2="effect1_dropShadow_69_12721" result="shape"/>
</filter>
<filter id="filter13_d_69_12721" x="198.165" y="207.771" width="52.3625" height="33.1169" filterUnits="userSpaceOnUse" color-interpolation-filters="sRGB">
<feFlood flood-opacity="0" result="BackgroundImageFix"/>
<feColorMatrix in="SourceAlpha" type="matrix" values="0 0 0 0 0 0 0 0 0 0 0 0 0 0 0 0 0 0 127 0" result="hardAlpha"/>
<feOffset dy="0.918114"/>
<feGaussianBlur stdDeviation="1.83623"/>
<feColorMatrix type="matrix" values="0 0 0 0 0.235294 0 0 0 0 0.25098 0 0 0 0 0.262745 0 0 0 0.2 0"/>
<feBlend mode="normal" in2="BackgroundImageFix" result="effect1_dropShadow_69_12721"/>
<feBlend mode="normal" in="SourceGraphic" in2="effect1_dropShadow_69_12721" result="shape"/>
</filter>
<filter id="filter14_d_69_12721" x="292.732" y="272.039" width="51.3625" height="33.1169" filterUnits="userSpaceOnUse" color-interpolation-filters="sRGB">
<feFlood flood-opacity="0" result="BackgroundImageFix"/>
<feColorMatrix in="SourceAlpha" type="matrix" values="0 0 0 0 0 0 0 0 0 0 0 0 0 0 0 0 0 0 127 0" result="hardAlpha"/>
<feOffset dy="0.918114"/>
<feGaussianBlur stdDeviation="1.83623"/>
<feColorMatrix type="matrix" values="0 0 0 0 0.235294 0 0 0 0 0.25098 0 0 0 0 0.262745 0 0 0 0.2 0"/>
<feBlend mode="normal" in2="BackgroundImageFix" result="effect1_dropShadow_69_12721"/>
<feBlend mode="normal" in="SourceGraphic" in2="effect1_dropShadow_69_12721" result="shape"/>
</filter>
<filter id="filter15_d_69_12721" x="194.494" y="283.057" width="52.3625" height="33.1169" filterUnits="userSpaceOnUse" color-interpolation-filters="sRGB">
<feFlood flood-opacity="0" result="BackgroundImageFix"/>
<feColorMatrix in="SourceAlpha" type="matrix" values="0 0 0 0 0 0 0 0 0 0 0 0 0 0 0 0 0 0 127 0" result="hardAlpha"/>
<feOffset dy="0.918114"/>
<feGaussianBlur stdDeviation="1.83623"/>
<feColorMatrix type="matrix" values="0 0 0 0 0.235294 0 0 0 0 0.25098 0 0 0 0 0.262745 0 0 0 0.2 0"/>
<feBlend mode="normal" in2="BackgroundImageFix" result="effect1_dropShadow_69_12721"/>
<feBlend mode="normal" in="SourceGraphic" in2="effect1_dropShadow_69_12721" result="shape"/>
</filter>
<filter id="filter16_d_69_12721" x="14.5443" y="207.771" width="52.3625" height="33.1169" filterUnits="userSpaceOnUse" color-interpolation-filters="sRGB">
<feFlood flood-opacity="0" result="BackgroundImageFix"/>
<feColorMatrix in="SourceAlpha" type="matrix" values="0 0 0 0 0 0 0 0 0 0 0 0 0 0 0 0 0 0 127 0" result="hardAlpha"/>
<feOffset dy="0.918114"/>
<feGaussianBlur stdDeviation="1.83623"/>
<feColorMatrix type="matrix" values="0 0 0 0 0.235294 0 0 0 0 0.25098 0 0 0 0 0.262745 0 0 0 0.2 0"/>
<feBlend mode="normal" in2="BackgroundImageFix" result="effect1_dropShadow_69_12721"/>
<feBlend mode="normal" in="SourceGraphic" in2="effect1_dropShadow_69_12721" result="shape"/>
</filter>
<filter id="filter17_d_69_12721" x="13.6244" y="285.811" width="52.3625" height="33.1169" filterUnits="userSpaceOnUse" color-interpolation-filters="sRGB">
<feFlood flood-opacity="0" result="BackgroundImageFix"/>
<feColorMatrix in="SourceAlpha" type="matrix" values="0 0 0 0 0 0 0 0 0 0 0 0 0 0 0 0 0 0 127 0" result="hardAlpha"/>
<feOffset dy="0.918114"/>
<feGaussianBlur stdDeviation="1.83623"/>
<feColorMatrix type="matrix" values="0 0 0 0 0.235294 0 0 0 0 0.25098 0 0 0 0 0.262745 0 0 0 0.2 0"/>
<feBlend mode="normal" in2="BackgroundImageFix" result="effect1_dropShadow_69_12721"/>
<feBlend mode="normal" in="SourceGraphic" in2="effect1_dropShadow_69_12721" result="shape"/>
</filter>
<filter id="filter18_d_69_12721" x="87.0736" y="241.741" width="52.3625" height="33.1169" filterUnits="userSpaceOnUse" color-interpolation-filters="sRGB">
<feFlood flood-opacity="0" result="BackgroundImageFix"/>
<feColorMatrix in="SourceAlpha" type="matrix" values="0 0 0 0 0 0 0 0 0 0 0 0 0 0 0 0 0 0 127 0" result="hardAlpha"/>
<feOffset dy="0.918114"/>
<feGaussianBlur stdDeviation="1.83623"/>
<feColorMatrix type="matrix" values="0 0 0 0 0.235294 0 0 0 0 0.25098 0 0 0 0 0.262745 0 0 0 0.2 0"/>
<feBlend mode="normal" in2="BackgroundImageFix" result="effect1_dropShadow_69_12721"/>
<feBlend mode="normal" in="SourceGraphic" in2="effect1_dropShadow_69_12721" result="shape"/>
</filter>
<filter id="filter19_d_69_12721" x="110.945" y="305.091" width="53.3625" height="33.1169" filterUnits="userSpaceOnUse" color-interpolation-filters="sRGB">
<feFlood flood-opacity="0" result="BackgroundImageFix"/>
<feColorMatrix in="SourceAlpha" type="matrix" values="0 0 0 0 0 0 0 0 0 0 0 0 0 0 0 0 0 0 127 0" result="hardAlpha"/>
<feOffset dy="0.918114"/>
<feGaussianBlur stdDeviation="1.83623"/>
<feColorMatrix type="matrix" values="0 0 0 0 0.235294 0 0 0 0 0.25098 0 0 0 0 0.262745 0 0 0 0.2 0"/>
<feBlend mode="normal" in2="BackgroundImageFix" result="effect1_dropShadow_69_12721"/>
<feBlend mode="normal" in="SourceGraphic" in2="effect1_dropShadow_69_12721" result="shape"/>
</filter>
<filter id="filter20_d_69_12721" x="247.744" y="322.536" width="57.3625" height="33.1169" filterUnits="userSpaceOnUse" color-interpolation-filters="sRGB">
<feFlood flood-opacity="0" result="BackgroundImageFix"/>
<feColorMatrix in="SourceAlpha" type="matrix" values="0 0 0 0 0 0 0 0 0 0 0 0 0 0 0 0 0 0 127 0" result="hardAlpha"/>
<feOffset dy="0.918114"/>
<feGaussianBlur stdDeviation="1.83623"/>
<feColorMatrix type="matrix" values="0 0 0 0 0.235294 0 0 0 0 0.25098 0 0 0 0 0.262745 0 0 0 0.2 0"/>
<feBlend mode="normal" in2="BackgroundImageFix" result="effect1_dropShadow_69_12721"/>
<feBlend mode="normal" in="SourceGraphic" in2="effect1_dropShadow_69_12721" result="shape"/>
</filter>
<filter id="filter21_d_69_12721" x="67.7943" y="384.967" width="57.3625" height="33.1169" filterUnits="userSpaceOnUse" color-interpolation-filters="sRGB">
<feFlood flood-opacity="0" result="BackgroundImageFix"/>
<feColorMatrix in="SourceAlpha" type="matrix" values="0 0 0 0 0 0 0 0 0 0 0 0 0 0 0 0 0 0 127 0" result="hardAlpha"/>
<feOffset dy="0.918114"/>
<feGaussianBlur stdDeviation="1.83623"/>
<feColorMatrix type="matrix" values="0 0 0 0 0.235294 0 0 0 0 0.25098 0 0 0 0 0.262745 0 0 0 0.2 0"/>
<feBlend mode="normal" in2="BackgroundImageFix" result="effect1_dropShadow_69_12721"/>
<feBlend mode="normal" in="SourceGraphic" in2="effect1_dropShadow_69_12721" result="shape"/>
</filter>
</defs>
</svg>
