<svg width="259" height="440" viewBox="0 0 259 440" fill="none" xmlns="http://www.w3.org/2000/svg">
<g filter="url(#filter0_d_69_13049)">
<rect x="19.4824" y="6.02881" width="33.2703" height="15.2028" rx="2.75678" fill="#366CA5"/>
<path d="M23.755 10.6854V11.5951H26.4015L24.4001 16.4746H25.4008L27.4353 11.5124V10.6854H23.755ZM32.4656 16.5821C33.7309 16.5821 34.6572 15.8047 34.6572 14.5559V10.6854H33.7061V14.498C33.7061 15.1762 33.3174 15.6558 32.4656 15.6558C31.6137 15.6558 31.225 15.1762 31.225 14.498V10.6854H30.2739V14.5559C30.2739 15.8047 31.1919 16.5821 32.4656 16.5821ZM37.8684 12.2319C37.306 12.2319 36.8594 12.4387 36.5865 12.8687V12.3394H35.6933V16.4746H36.5865V14.2582C36.5865 13.4146 37.0496 13.0672 37.6368 13.0672C38.1992 13.0672 38.5631 13.398 38.5631 14.0266V16.4746H39.4563V13.9356C39.4563 12.8605 38.7946 12.2319 37.8684 12.2319ZM40.8646 11.7192C41.1789 11.7192 41.4353 11.4545 41.4353 11.1485C41.4353 10.8342 41.1789 10.5779 40.8646 10.5779C40.5503 10.5779 40.294 10.8342 40.294 11.1485C40.294 11.4545 40.5503 11.7192 40.8646 11.7192ZM40.418 16.4746H41.3112V12.3394H40.418V16.4746ZM44.6557 13.1996V12.3394H43.6302V11.1816L42.737 11.4462V12.3394H41.9761V13.1996H42.737V15.1844C42.737 16.2596 43.2829 16.64 44.6557 16.4746V15.6724C43.9776 15.7055 43.6302 15.7137 43.6302 15.1844V13.1996H44.6557ZM46.1146 13.4807C46.1146 13.183 46.3958 13.0424 46.7183 13.0424C47.0574 13.0424 47.3469 13.1913 47.4958 13.5138L48.2484 13.092C47.9589 12.5462 47.3965 12.2319 46.7183 12.2319C45.8748 12.2319 45.2049 12.7199 45.2049 13.4973C45.2049 14.9777 47.4296 14.5642 47.4296 15.3002C47.4296 15.631 47.1236 15.7634 46.7266 15.7634C46.2717 15.7634 45.9409 15.5401 45.8086 15.1679L45.0395 15.6145C45.3041 16.21 45.8996 16.5821 46.7266 16.5821C47.6198 16.5821 48.3393 16.1355 48.3393 15.3085C48.3393 13.7785 46.1146 14.2333 46.1146 13.4807Z" fill="white"/>
<path d="M32.6719 21.2314H39.5638L36.1179 25.3666L32.6719 21.2314Z" fill="#366CA5"/>
</g>
<g filter="url(#filter1_d_69_13049)">
<rect x="119.416" y="24.6377" width="38.2703" height="15.2028" rx="2.75678" fill="white"/>
<path d="M125.578 29.2943L124.056 29.8318L124.288 30.6423L125.454 30.3115V35.0835H126.405V29.2943H125.578ZM129.631 35.191C131.086 35.191 131.905 33.9753 131.905 32.1889C131.905 30.4025 131.086 29.1867 129.631 29.1867C128.175 29.1867 127.356 30.4025 127.356 32.1889C127.356 33.9753 128.175 35.191 129.631 35.191ZM129.631 34.2647C128.779 34.2647 128.308 33.5204 128.308 32.1889C128.308 30.8574 128.779 30.113 129.631 30.113C130.491 30.113 130.954 30.8574 130.954 32.1889C130.954 33.5204 130.491 34.2647 129.631 34.2647ZM137.015 35.191C138.281 35.191 139.207 34.4136 139.207 33.1648V29.2943H138.256V33.1069C138.256 33.7851 137.867 34.2647 137.015 34.2647C136.163 34.2647 135.775 33.7851 135.775 33.1069V29.2943H134.824V33.1648C134.824 34.4136 135.742 35.191 137.015 35.191ZM142.418 30.8408C141.856 30.8408 141.409 31.0476 141.136 31.4776V30.9483H140.243V35.0835H141.136V32.867C141.136 32.0235 141.599 31.6761 142.186 31.6761C142.749 31.6761 143.113 32.0069 143.113 32.6355V35.0835H144.006V32.5445C144.006 31.4694 143.344 30.8408 142.418 30.8408ZM145.414 30.3281C145.729 30.3281 145.985 30.0634 145.985 29.7574C145.985 29.4431 145.729 29.1867 145.414 29.1867C145.1 29.1867 144.844 29.4431 144.844 29.7574C144.844 30.0634 145.1 30.3281 145.414 30.3281ZM144.968 35.0835H145.861V30.9483H144.968V35.0835ZM149.205 31.8084V30.9483H148.18V29.7905L147.287 30.0551V30.9483H146.526V31.8084H147.287V33.7933C147.287 34.8685 147.832 35.2489 149.205 35.0835V34.2813C148.527 34.3144 148.18 34.3226 148.18 33.7933V31.8084H149.205ZM150.664 32.0896C150.664 31.7919 150.945 31.6513 151.268 31.6513C151.607 31.6513 151.897 31.8002 152.045 32.1227L152.798 31.7009C152.509 31.1551 151.946 30.8408 151.268 30.8408C150.424 30.8408 149.755 31.3288 149.755 32.1062C149.755 33.5866 151.979 33.173 151.979 33.9091C151.979 34.2399 151.673 34.3722 151.276 34.3722C150.821 34.3722 150.491 34.1489 150.358 33.7768L149.589 34.2234C149.854 34.8188 150.449 35.191 151.276 35.191C152.169 35.191 152.889 34.7444 152.889 33.9174C152.889 32.3874 150.664 32.8422 150.664 32.0896Z" fill="#333333"/>
<path d="M135.105 39.8403H141.997L138.551 43.9755L135.105 39.8403Z" fill="white"/>
</g>
<g filter="url(#filter2_d_69_13049)">
<rect x="191.094" y="8.78516" width="34.2703" height="15.2028" rx="2.75678" fill="white"/>
<path d="M198.95 16.2206C199.347 15.9642 199.611 15.5507 199.611 14.9965C199.611 13.88 198.735 13.3342 197.775 13.3342C196.808 13.3342 195.939 13.88 195.939 14.9965C195.939 15.5507 196.204 15.9642 196.593 16.2206C196.063 16.5183 195.741 17.0228 195.741 17.6265C195.741 18.7017 196.568 19.3385 197.775 19.3385C198.983 19.3385 199.802 18.7017 199.802 17.6265C199.802 17.0145 199.487 16.5183 198.95 16.2206ZM197.775 14.2357C198.255 14.2357 198.66 14.5003 198.66 15.0379C198.66 15.5507 198.255 15.8401 197.775 15.8401C197.288 15.8401 196.891 15.5507 196.891 15.0379C196.891 14.5003 197.288 14.2357 197.775 14.2357ZM197.775 18.437C197.147 18.437 196.692 18.1227 196.692 17.5355C196.692 16.9401 197.147 16.6341 197.775 16.6341C198.396 16.6341 198.851 16.9401 198.851 17.5355C198.851 18.1227 198.396 18.437 197.775 18.437ZM204.868 19.3385C206.133 19.3385 207.059 18.5611 207.059 17.3122V13.4417H206.108V17.2543C206.108 17.9325 205.72 18.4122 204.868 18.4122C204.016 18.4122 203.627 17.9325 203.627 17.2543V13.4417H202.676V17.3122C202.676 18.5611 203.594 19.3385 204.868 19.3385ZM210.27 14.9883C209.708 14.9883 209.261 15.195 208.989 15.6251V15.0958H208.095V19.231H208.989V17.0145C208.989 16.1709 209.452 15.8236 210.039 15.8236C210.601 15.8236 210.965 16.1544 210.965 16.7829V19.231H211.858V16.692C211.858 15.6168 211.197 14.9883 210.27 14.9883ZM213.267 14.4755C213.581 14.4755 213.837 14.2109 213.837 13.9049C213.837 13.5906 213.581 13.3342 213.267 13.3342C212.952 13.3342 212.696 13.5906 212.696 13.9049C212.696 14.2109 212.952 14.4755 213.267 14.4755ZM212.82 19.231H213.713V15.0958H212.82V19.231ZM217.058 15.9559V15.0958H216.032V13.9379L215.139 14.2026V15.0958H214.378V15.9559H215.139V17.9408C215.139 19.0159 215.685 19.3964 217.058 19.231V18.4287C216.38 18.4618 216.032 18.4701 216.032 17.9408V15.9559H217.058ZM218.517 16.2371C218.517 15.9394 218.798 15.7988 219.12 15.7988C219.46 15.7988 219.749 15.9476 219.898 16.2702L220.65 15.8484C220.361 15.3025 219.799 14.9883 219.12 14.9883C218.277 14.9883 217.607 15.4762 217.607 16.2536C217.607 17.734 219.832 17.3205 219.832 18.0566C219.832 18.3874 219.526 18.5197 219.129 18.5197C218.674 18.5197 218.343 18.2964 218.211 17.9242L217.442 18.3708C217.706 18.9663 218.302 19.3385 219.129 19.3385C220.022 19.3385 220.741 18.8919 220.741 18.0648C220.741 16.5348 218.517 16.9897 218.517 16.2371Z" fill="#3C4043"/>
<path d="M204.783 23.9878H211.675L208.229 28.123L204.783 23.9878Z" fill="white"/>
</g>
<g filter="url(#filter3_d_69_13049)">
<rect x="69.8008" y="99.7588" width="30.2703" height="15.2028" rx="2.75678" fill="white"/>
<path d="M78.4215 108.617C78.4215 107.517 77.5779 107.202 76.7922 106.905V105.267C77.1313 105.342 77.3794 105.548 77.5283 105.921L78.3305 105.457C78.0328 104.779 77.4621 104.415 76.7922 104.324V103.588H76.2547V104.316C75.3945 104.399 74.6419 104.961 74.6419 105.937C74.6419 106.996 75.4524 107.351 76.2547 107.649V109.369C75.7171 109.311 75.378 109.022 75.1961 108.559L74.3773 109.03C74.6668 109.783 75.3367 110.246 76.2547 110.304V111.032H76.7922V110.296C77.7351 110.18 78.4215 109.576 78.4215 108.617ZM75.593 105.937C75.593 105.565 75.8494 105.317 76.2547 105.251V106.69C75.7915 106.475 75.593 106.284 75.593 105.937ZM76.7922 109.361V107.856C77.214 108.046 77.4704 108.236 77.4704 108.625C77.4704 108.981 77.2471 109.27 76.7922 109.361ZM80.2974 104.415L78.7757 104.953L79.0073 105.763L80.1734 105.433V110.205H81.1245V104.415H80.2974ZM86.0459 106.284C86.0459 105.118 85.2023 104.308 84.0031 104.308C82.8039 104.308 81.9521 105.118 81.9521 106.284C81.9521 107.451 82.8039 108.261 84.0031 108.261H84.1024L82.7791 110.205H83.8708L85.6986 107.451C85.9218 107.128 86.0459 106.731 86.0459 106.284ZM82.9032 106.284C82.9032 105.623 83.3746 105.209 84.0031 105.209C84.6317 105.209 85.0948 105.623 85.0948 106.284C85.0948 106.946 84.6317 107.36 84.0031 107.36C83.3746 107.36 82.9032 106.938 82.9032 106.284ZM88.3648 106.599H87.637L87.7363 105.309H90.0851V104.415H86.8596L86.6363 107.525H88.3235C88.952 107.525 89.3821 107.872 89.3821 108.451C89.3821 109.03 88.952 109.386 88.3069 109.386C87.7032 109.386 87.3062 109.113 87.1574 108.6L86.3386 109.072C86.6446 109.907 87.4303 110.312 88.3069 110.312C89.3738 110.312 90.3332 109.667 90.3332 108.451C90.3332 107.244 89.4152 106.599 88.3648 106.599ZM93.1377 110.312C94.5933 110.312 95.4121 109.096 95.4121 107.31C95.4121 105.524 94.5933 104.308 93.1377 104.308C91.6821 104.308 90.8634 105.524 90.8634 107.31C90.8634 109.096 91.6821 110.312 93.1377 110.312ZM93.1377 109.386C92.2859 109.386 91.8145 108.641 91.8145 107.31C91.8145 105.978 92.2859 105.234 93.1377 105.234C93.9978 105.234 94.461 105.978 94.461 107.31C94.461 108.641 93.9978 109.386 93.1377 109.386Z" fill="#333333"/>
<path d="M81.4902 114.961H88.3822L84.9362 119.097L81.4902 114.961Z" fill="white"/>
</g>
<g filter="url(#filter4_d_69_13049)">
<rect x="164.215" y="95.625" width="37.2703" height="15.2028" rx="2.75678" fill="white"/>
<path d="M170.292 100.282L168.771 100.819L169.002 101.63L170.168 101.299V106.071H171.12V100.282H170.292ZM171.997 106.071H175.809V105.153H173.411L174.718 103.846C175.272 103.284 175.702 102.68 175.702 101.96C175.702 100.811 174.8 100.174 173.849 100.174C173.08 100.174 172.352 100.554 171.98 101.348L172.782 101.82C173.006 101.357 173.378 101.1 173.858 101.1C174.354 101.1 174.751 101.415 174.751 101.994C174.751 102.432 174.428 102.854 174.015 103.267L171.997 105.326V106.071ZM180.898 106.178C182.163 106.178 183.09 105.401 183.09 104.152V100.282H182.139V104.094C182.139 104.772 181.75 105.252 180.898 105.252C180.046 105.252 179.658 104.772 179.658 104.094V100.282H178.706V104.152C178.706 105.401 179.624 106.178 180.898 106.178ZM186.301 101.828C185.739 101.828 185.292 102.035 185.019 102.465V101.936H184.126V106.071H185.019V103.854C185.019 103.011 185.482 102.663 186.069 102.663C186.632 102.663 186.996 102.994 186.996 103.623V106.071H187.889V103.532C187.889 102.457 187.227 101.828 186.301 101.828ZM189.297 101.315C189.611 101.315 189.868 101.051 189.868 100.745C189.868 100.43 189.611 100.174 189.297 100.174C188.983 100.174 188.726 100.43 188.726 100.745C188.726 101.051 188.983 101.315 189.297 101.315ZM188.851 106.071H189.744V101.936H188.851V106.071ZM193.088 102.796V101.936H192.063V100.778L191.17 101.042V101.936H190.409V102.796H191.17V104.781C191.17 105.856 191.715 106.236 193.088 106.071V105.269C192.41 105.302 192.063 105.31 192.063 104.781V102.796H193.088ZM194.547 103.077C194.547 102.779 194.828 102.639 195.151 102.639C195.49 102.639 195.779 102.787 195.928 103.11L196.681 102.688C196.391 102.142 195.829 101.828 195.151 101.828C194.307 101.828 193.637 102.316 193.637 103.093C193.637 104.574 195.862 104.16 195.862 104.896C195.862 105.227 195.556 105.36 195.159 105.36C194.704 105.36 194.373 105.136 194.241 104.764L193.472 105.211C193.737 105.806 194.332 106.178 195.159 106.178C196.052 106.178 196.772 105.732 196.772 104.905C196.772 103.375 194.547 103.83 194.547 103.077Z" fill="#333333"/>
<path d="M179.404 110.828H186.296L182.85 114.963L179.404 110.828Z" fill="white"/>
</g>
<g filter="url(#filter5_d_69_13049)">
<rect x="188.334" y="65.2998" width="34.2703" height="15.2028" rx="2.75678" fill="white"/>
<path d="M195.014 71.8999H194.907L196.23 69.9564H195.146L193.31 72.7104C193.087 73.0329 192.963 73.4299 192.963 73.8765C192.963 75.0426 193.807 75.8531 195.014 75.8531C196.213 75.8531 197.057 75.0426 197.057 73.8765C197.057 72.7104 196.213 71.8999 195.014 71.8999ZM195.014 74.9517C194.377 74.9517 193.914 74.5381 193.914 73.8765C193.914 73.2149 194.377 72.8014 195.014 72.8014C195.643 72.8014 196.106 73.2149 196.106 73.8765C196.106 74.5299 195.643 74.9517 195.014 74.9517ZM202.043 75.8531C203.309 75.8531 204.235 75.0757 204.235 73.8269V69.9564H203.284V73.769C203.284 74.4472 202.895 74.9268 202.043 74.9268C201.191 74.9268 200.803 74.4472 200.803 73.769V69.9564H199.852V73.8269C199.852 75.0757 200.77 75.8531 202.043 75.8531ZM207.446 71.5029C206.884 71.5029 206.437 71.7097 206.164 72.1397V71.6104H205.271V75.7456H206.164V73.5292C206.164 72.6856 206.627 72.3382 207.215 72.3382C207.777 72.3382 208.141 72.669 208.141 73.2976V75.7456H209.034V73.2066C209.034 72.1315 208.372 71.5029 207.446 71.5029ZM210.442 70.9902C210.757 70.9902 211.013 70.7255 211.013 70.4195C211.013 70.1052 210.757 69.8489 210.442 69.8489C210.128 69.8489 209.872 70.1052 209.872 70.4195C209.872 70.7255 210.128 70.9902 210.442 70.9902ZM209.996 75.7456H210.889V71.6104H209.996V75.7456ZM214.233 72.4706V71.6104H213.208V70.4526L212.315 70.7172V71.6104H211.554V72.4706H212.315V74.4554C212.315 75.5306 212.861 75.911 214.233 75.7456V74.9434C213.555 74.9765 213.208 74.9847 213.208 74.4554V72.4706H214.233ZM215.692 72.7517C215.692 72.454 215.974 72.3134 216.296 72.3134C216.635 72.3134 216.925 72.4623 217.073 72.7848L217.826 72.363C217.537 71.8172 216.974 71.5029 216.296 71.5029C215.452 71.5029 214.783 71.9909 214.783 72.7683C214.783 74.2487 217.007 73.8352 217.007 74.5712C217.007 74.902 216.701 75.0344 216.304 75.0344C215.849 75.0344 215.519 74.8111 215.386 74.4389L214.617 74.8855C214.882 75.481 215.477 75.8531 216.304 75.8531C217.198 75.8531 217.917 75.4065 217.917 74.5795C217.917 73.0495 215.692 73.5043 215.692 72.7517Z" fill="#333333"/>
<path d="M202.023 80.5024H208.915L205.469 84.6376L202.023 80.5024Z" fill="white"/>
</g>
<g filter="url(#filter6_d_69_13049)">
<rect x="202.121" y="292.734" width="34.2703" height="15.2028" rx="2.75678" fill="white"/>
<path d="M208.801 299.334H208.694L210.017 297.391H208.934L207.098 300.145C206.874 300.468 206.75 300.864 206.75 301.311C206.75 302.477 207.594 303.288 208.801 303.288C210 303.288 210.844 302.477 210.844 301.311C210.844 300.145 210 299.334 208.801 299.334ZM208.801 302.386C208.164 302.386 207.701 301.973 207.701 301.311C207.701 300.649 208.164 300.236 208.801 300.236C209.43 300.236 209.893 300.649 209.893 301.311C209.893 301.964 209.43 302.386 208.801 302.386ZM215.83 303.288C217.096 303.288 218.022 302.51 218.022 301.261V297.391H217.071V301.204C217.071 301.882 216.682 302.361 215.83 302.361C214.979 302.361 214.59 301.882 214.59 301.204V297.391H213.639V301.261C213.639 302.51 214.557 303.288 215.83 303.288ZM221.233 298.937C220.671 298.937 220.224 299.144 219.951 299.574V299.045H219.058V303.18H219.951V300.964C219.951 300.12 220.414 299.773 221.002 299.773C221.564 299.773 221.928 300.104 221.928 300.732V303.18H222.821V300.641C222.821 299.566 222.159 298.937 221.233 298.937ZM224.229 298.425C224.544 298.425 224.8 298.16 224.8 297.854C224.8 297.54 224.544 297.283 224.229 297.283C223.915 297.283 223.659 297.54 223.659 297.854C223.659 298.16 223.915 298.425 224.229 298.425ZM223.783 303.18H224.676V299.045H223.783V303.18ZM228.021 299.905V299.045H226.995V297.887L226.102 298.152V299.045H225.341V299.905H226.102V301.89C226.102 302.965 226.648 303.346 228.021 303.18V302.378C227.342 302.411 226.995 302.419 226.995 301.89V299.905H228.021ZM229.479 300.186C229.479 299.889 229.761 299.748 230.083 299.748C230.422 299.748 230.712 299.897 230.861 300.219L231.613 299.798C231.324 299.252 230.761 298.937 230.083 298.937C229.24 298.937 228.57 299.425 228.57 300.203C228.57 301.683 230.794 301.27 230.794 302.006C230.794 302.337 230.488 302.469 230.091 302.469C229.637 302.469 229.306 302.246 229.173 301.873L228.404 302.32C228.669 302.916 229.264 303.288 230.091 303.288C230.985 303.288 231.704 302.841 231.704 302.014C231.704 300.484 229.479 300.939 229.479 300.186Z" fill="#333333"/>
<path d="M215.811 307.937H222.702L219.257 312.072L215.811 307.937Z" fill="white"/>
</g>
<g filter="url(#filter7_d_69_13049)">
<rect x="217.973" y="98.3813" width="34.2703" height="15.2028" rx="2.75678" fill="white"/>
<path d="M224.653 104.981H224.545L225.869 103.038H224.785L222.949 105.792C222.726 106.114 222.602 106.511 222.602 106.958C222.602 108.124 223.445 108.935 224.653 108.935C225.852 108.935 226.696 108.124 226.696 106.958C226.696 105.792 225.852 104.981 224.653 104.981ZM224.653 108.033C224.016 108.033 223.553 107.62 223.553 106.958C223.553 106.296 224.016 105.883 224.653 105.883C225.281 105.883 225.744 106.296 225.744 106.958C225.744 107.611 225.281 108.033 224.653 108.033ZM231.682 108.935C232.947 108.935 233.874 108.157 233.874 106.908V103.038H232.923V106.851C232.923 107.529 232.534 108.008 231.682 108.008C230.83 108.008 230.441 107.529 230.441 106.851V103.038H229.49V106.908C229.49 108.157 230.408 108.935 231.682 108.935ZM237.085 104.584C236.522 104.584 236.076 104.791 235.803 105.221V104.692H234.91V108.827H235.803V106.611C235.803 105.767 236.266 105.42 236.853 105.42C237.416 105.42 237.779 105.751 237.779 106.379V108.827H238.673V106.288C238.673 105.213 238.011 104.584 237.085 104.584ZM240.081 104.072C240.395 104.072 240.652 103.807 240.652 103.501C240.652 103.187 240.395 102.93 240.081 102.93C239.767 102.93 239.51 103.187 239.51 103.501C239.51 103.807 239.767 104.072 240.081 104.072ZM239.634 108.827H240.528V104.692H239.634V108.827ZM243.872 105.552V104.692H242.847V103.534L241.953 103.799V104.692H241.193V105.552H241.953V107.537C241.953 108.612 242.499 108.993 243.872 108.827V108.025C243.194 108.058 242.847 108.066 242.847 107.537V105.552H243.872ZM245.331 105.833C245.331 105.536 245.612 105.395 245.935 105.395C246.274 105.395 246.563 105.544 246.712 105.866L247.465 105.445C247.175 104.899 246.613 104.584 245.935 104.584C245.091 104.584 244.421 105.072 244.421 105.85C244.421 107.33 246.646 106.917 246.646 107.653C246.646 107.984 246.34 108.116 245.943 108.116C245.488 108.116 245.157 107.893 245.025 107.52L244.256 107.967C244.52 108.562 245.116 108.935 245.943 108.935C246.836 108.935 247.556 108.488 247.556 107.661C247.556 106.131 245.331 106.586 245.331 105.833Z" fill="#333333"/>
<path d="M231.662 113.584H238.554L235.108 117.719L231.662 113.584Z" fill="white"/>
</g>
<g filter="url(#filter8_d_69_13049)">
<rect x="109.08" y="74.9482" width="34.2703" height="15.2028" rx="2.75678" fill="white"/>
<path d="M116.936 82.3836C117.333 82.1273 117.598 81.7137 117.598 81.1596C117.598 80.0431 116.721 79.4973 115.762 79.4973C114.794 79.4973 113.926 80.0431 113.926 81.1596C113.926 81.7137 114.19 82.1273 114.579 82.3836C114.05 82.6814 113.727 83.1859 113.727 83.7896C113.727 84.8647 114.554 85.5016 115.762 85.5016C116.969 85.5016 117.788 84.8647 117.788 83.7896C117.788 83.1776 117.474 82.6814 116.936 82.3836ZM115.762 80.3988C116.241 80.3988 116.647 80.6634 116.647 81.201C116.647 81.7137 116.241 82.0032 115.762 82.0032C115.274 82.0032 114.877 81.7137 114.877 81.201C114.877 80.6634 115.274 80.3988 115.762 80.3988ZM115.762 84.6001C115.133 84.6001 114.678 84.2858 114.678 83.6986C114.678 83.1032 115.133 82.7972 115.762 82.7972C116.382 82.7972 116.837 83.1032 116.837 83.6986C116.837 84.2858 116.382 84.6001 115.762 84.6001ZM122.854 85.5016C124.119 85.5016 125.046 84.7241 125.046 83.4753V79.6048H124.095V83.4174C124.095 84.0956 123.706 84.5753 122.854 84.5753C122.002 84.5753 121.613 84.0956 121.613 83.4174V79.6048H120.662V83.4753C120.662 84.7241 121.58 85.5016 122.854 85.5016ZM128.257 81.1514C127.694 81.1514 127.248 81.3581 126.975 81.7882V81.2589H126.082V85.394H126.975V83.1776C126.975 82.334 127.438 81.9867 128.025 81.9867C128.588 81.9867 128.951 82.3175 128.951 82.946V85.394H129.845V82.855C129.845 81.7799 129.183 81.1514 128.257 81.1514ZM131.253 80.6386C131.567 80.6386 131.824 80.3739 131.824 80.0679C131.824 79.7537 131.567 79.4973 131.253 79.4973C130.939 79.4973 130.682 79.7537 130.682 80.0679C130.682 80.3739 130.939 80.6386 131.253 80.6386ZM130.806 85.394H131.7V81.2589H130.806V85.394ZM135.044 82.119V81.2589H134.019V80.101L133.125 80.3657V81.2589H132.365V82.119H133.125V84.1039C133.125 85.179 133.671 85.5594 135.044 85.394V84.5918C134.366 84.6249 134.019 84.6332 134.019 84.1039V82.119H135.044ZM136.503 82.4002C136.503 82.1024 136.784 81.9619 137.107 81.9619C137.446 81.9619 137.735 82.1107 137.884 82.4333L138.637 82.0115C138.347 81.4656 137.785 81.1514 137.107 81.1514C136.263 81.1514 135.593 81.6393 135.593 82.4167C135.593 83.8971 137.818 83.4836 137.818 84.2197C137.818 84.5505 137.512 84.6828 137.115 84.6828C136.66 84.6828 136.329 84.4595 136.197 84.0873L135.428 84.5339C135.693 85.1294 136.288 85.5016 137.115 85.5016C138.008 85.5016 138.728 85.055 138.728 84.2279C138.728 82.6979 136.503 83.1528 136.503 82.4002Z" fill="#333333"/>
<path d="M122.77 90.1509H129.661L126.216 94.286L122.77 90.1509Z" fill="white"/>
</g>
<g filter="url(#filter9_d_69_13049)">
<rect x="25.002" y="58.4072" width="33.2703" height="15.2028" rx="2.75678" fill="white"/>
<path d="M29.2745 63.0638V63.9735H31.921L29.9196 68.853H30.9203L32.9548 63.8908V63.0638H29.2745ZM37.9851 68.9605C39.2505 68.9605 40.1767 68.1831 40.1767 66.9343V63.0638H39.2257V66.8764C39.2257 67.5546 38.837 68.0343 37.9851 68.0343C37.1333 68.0343 36.7446 67.5546 36.7446 66.8764V63.0638H35.7935V66.9343C35.7935 68.1831 36.7115 68.9605 37.9851 68.9605ZM43.3879 64.6103C42.8255 64.6103 42.3789 64.8171 42.106 65.2472V64.7179H41.2128V68.853H42.106V66.6366C42.106 65.793 42.5691 65.4456 43.1563 65.4456C43.7187 65.4456 44.0826 65.7765 44.0826 66.405V68.853H44.9758V66.314C44.9758 65.2389 44.3142 64.6103 43.3879 64.6103ZM46.3842 64.0976C46.6984 64.0976 46.9548 63.8329 46.9548 63.5269C46.9548 63.2127 46.6984 62.9563 46.3842 62.9563C46.0699 62.9563 45.8135 63.2127 45.8135 63.5269C45.8135 63.8329 46.0699 64.0976 46.3842 64.0976ZM45.9376 68.853H46.8308V64.7179H45.9376V68.853ZM50.1753 65.578V64.7179H49.1497V63.56L48.2565 63.8247V64.7179H47.4957V65.578H48.2565V67.5629C48.2565 68.638 48.8024 69.0184 50.1753 68.853V68.0508C49.4971 68.0839 49.1497 68.0922 49.1497 67.5629V65.578H50.1753ZM51.6341 65.8592C51.6341 65.5614 51.9153 65.4208 52.2379 65.4208C52.577 65.4208 52.8664 65.5697 53.0153 65.8922L53.7679 65.4705C53.4784 64.9246 52.916 64.6103 52.2379 64.6103C51.3943 64.6103 50.7244 65.0983 50.7244 65.8757C50.7244 67.3561 52.9491 66.9426 52.9491 67.6786C52.9491 68.0095 52.6431 68.1418 52.2461 68.1418C51.7913 68.1418 51.4605 67.9185 51.3281 67.5463L50.559 67.9929C50.8236 68.5884 51.4191 68.9605 52.2461 68.9605C53.1393 68.9605 53.8589 68.5139 53.8589 67.6869C53.8589 66.1569 51.6341 66.6118 51.6341 65.8592Z" fill="#333333"/>
<path d="M38.1914 73.6099H45.0834L41.6374 77.745L38.1914 73.6099Z" fill="white"/>
</g>
<g filter="url(#filter10_d_69_13049)">
<rect x="17.416" y="132.842" width="37.2703" height="15.2028" rx="2.75678" fill="white"/>
<path d="M23.4937 137.498L21.9719 138.036L22.2035 138.846L23.3696 138.516V143.288H24.3207V137.498H23.4937ZM25.1979 143.288H29.0106V142.37H26.6122L27.9189 141.063C28.473 140.5 28.903 139.897 28.903 139.177C28.903 138.028 28.0016 137.391 27.0505 137.391C26.2813 137.391 25.5536 137.771 25.1814 138.565L25.9836 139.037C26.2069 138.574 26.5791 138.317 27.0588 138.317C27.555 138.317 27.952 138.631 27.952 139.21C27.952 139.649 27.6294 140.07 27.2159 140.484L25.1979 142.543V143.288ZM34.0993 143.395C35.3646 143.395 36.2909 142.618 36.2909 141.369V137.498H35.3398V141.311C35.3398 141.989 34.9511 142.469 34.0993 142.469C33.2474 142.469 32.8587 141.989 32.8587 141.311V137.498H31.9076V141.369C31.9076 142.618 32.8256 143.395 34.0993 143.395ZM39.5021 139.045C38.9397 139.045 38.4931 139.252 38.2202 139.682V139.152H37.327V143.288H38.2202V141.071C38.2202 140.228 38.6833 139.88 39.2705 139.88C39.8329 139.88 40.1968 140.211 40.1968 140.84V143.288H41.09V140.749C41.09 139.673 40.4283 139.045 39.5021 139.045ZM42.4983 138.532C42.8126 138.532 43.069 138.268 43.069 137.961C43.069 137.647 42.8126 137.391 42.4983 137.391C42.184 137.391 41.9277 137.647 41.9277 137.961C41.9277 138.268 42.184 138.532 42.4983 138.532ZM42.0517 143.288H42.9449V139.152H42.0517V143.288ZM46.2894 140.013V139.152H45.2639V137.995L44.3707 138.259V139.152H43.6098V140.013H44.3707V141.997C44.3707 143.073 44.9166 143.453 46.2894 143.288V142.485C45.6113 142.518 45.2639 142.527 45.2639 141.997V140.013H46.2894ZM47.7483 140.294C47.7483 139.996 48.0295 139.855 48.352 139.855C48.6911 139.855 48.9806 140.004 49.1295 140.327L49.8821 139.905C49.5926 139.359 49.0302 139.045 48.352 139.045C47.5085 139.045 46.8386 139.533 46.8386 140.31C46.8386 141.791 49.0633 141.377 49.0633 142.113C49.0633 142.444 48.7573 142.576 48.3603 142.576C47.9054 142.576 47.5746 142.353 47.4423 141.981L46.6732 142.427C46.9378 143.023 47.5333 143.395 48.3603 143.395C49.2535 143.395 49.973 142.949 49.973 142.121C49.973 140.591 47.7483 141.046 47.7483 140.294Z" fill="#333333"/>
<path d="M32.6055 148.044H39.4974L36.0514 152.18L32.6055 148.044Z" fill="white"/>
</g>
<g filter="url(#filter11_d_69_13049)">
<rect x="95.9883" y="140.422" width="34.2703" height="15.2028" rx="2.75678" fill="white"/>
<path d="M103.844 147.858C104.241 147.601 104.506 147.188 104.506 146.634C104.506 145.517 103.629 144.971 102.67 144.971C101.702 144.971 100.834 145.517 100.834 146.634C100.834 147.188 101.099 147.601 101.487 147.858C100.958 148.155 100.635 148.66 100.635 149.264C100.635 150.339 101.463 150.976 102.67 150.976C103.877 150.976 104.696 150.339 104.696 149.264C104.696 148.652 104.382 148.155 103.844 147.858ZM102.67 145.873C103.15 145.873 103.555 146.138 103.555 146.675C103.555 147.188 103.15 147.477 102.67 147.477C102.182 147.477 101.785 147.188 101.785 146.675C101.785 146.138 102.182 145.873 102.67 145.873ZM102.67 150.074C102.041 150.074 101.587 149.76 101.587 149.173C101.587 148.577 102.041 148.271 102.67 148.271C103.29 148.271 103.745 148.577 103.745 149.173C103.745 149.76 103.29 150.074 102.67 150.074ZM109.762 150.976C111.028 150.976 111.954 150.198 111.954 148.949V145.079H111.003V148.892C111.003 149.57 110.614 150.049 109.762 150.049C108.91 150.049 108.522 149.57 108.522 148.892V145.079H107.571V148.949C107.571 150.198 108.489 150.976 109.762 150.976ZM115.165 146.625C114.603 146.625 114.156 146.832 113.883 147.262V146.733H112.99V150.868H113.883V148.652C113.883 147.808 114.346 147.461 114.933 147.461C115.496 147.461 115.86 147.792 115.86 148.42V150.868H116.753V148.329C116.753 147.254 116.091 146.625 115.165 146.625ZM118.161 146.113C118.476 146.113 118.732 145.848 118.732 145.542C118.732 145.228 118.476 144.971 118.161 144.971C117.847 144.971 117.591 145.228 117.591 145.542C117.591 145.848 117.847 146.113 118.161 146.113ZM117.715 150.868H118.608V146.733H117.715V150.868ZM121.952 147.593V146.733H120.927V145.575L120.034 145.84V146.733H119.273V147.593H120.034V149.578C120.034 150.653 120.579 151.034 121.952 150.868V150.066C121.274 150.099 120.927 150.107 120.927 149.578V147.593H121.952ZM123.411 147.874C123.411 147.577 123.692 147.436 124.015 147.436C124.354 147.436 124.644 147.585 124.792 147.907L125.545 147.486C125.256 146.94 124.693 146.625 124.015 146.625C123.171 146.625 122.501 147.113 122.501 147.891C122.501 149.371 124.726 148.958 124.726 149.694C124.726 150.025 124.42 150.157 124.023 150.157C123.568 150.157 123.238 149.934 123.105 149.561L122.336 150.008C122.601 150.604 123.196 150.976 124.023 150.976C124.916 150.976 125.636 150.529 125.636 149.702C125.636 148.172 123.411 148.627 123.411 147.874Z" fill="#333333"/>
<path d="M109.678 155.625H116.57L113.124 159.76L109.678 155.625Z" fill="white"/>
</g>
<g filter="url(#filter12_d_69_13049)">
<rect x="199.365" y="142.491" width="34.2703" height="15.2028" rx="2.75678" fill="white"/>
<path d="M206.062 149.331H205.334L205.433 148.04H207.782V147.147H204.557L204.333 150.257H206.021C206.649 150.257 207.079 150.604 207.079 151.183C207.079 151.762 206.649 152.118 206.004 152.118C205.4 152.118 205.003 151.845 204.854 151.332L204.036 151.803C204.342 152.639 205.127 153.044 206.004 153.044C207.071 153.044 208.03 152.399 208.03 151.183C208.03 149.976 207.112 149.331 206.062 149.331ZM213.075 153.044C214.34 153.044 215.266 152.267 215.266 151.018V147.147H214.315V150.96C214.315 151.638 213.926 152.118 213.075 152.118C212.223 152.118 211.834 151.638 211.834 150.96V147.147H210.883V151.018C210.883 152.267 211.801 153.044 213.075 153.044ZM218.477 148.694C217.915 148.694 217.468 148.901 217.195 149.331V148.801H216.302V152.937H217.195V150.72C217.195 149.876 217.659 149.529 218.246 149.529C218.808 149.529 219.172 149.86 219.172 150.489V152.937H220.065V150.398C220.065 149.322 219.404 148.694 218.477 148.694ZM221.474 148.181C221.788 148.181 222.044 147.916 222.044 147.61C222.044 147.296 221.788 147.04 221.474 147.04C221.159 147.04 220.903 147.296 220.903 147.61C220.903 147.916 221.159 148.181 221.474 148.181ZM221.027 152.937H221.92V148.801H221.027V152.937ZM225.265 149.661V148.801H224.239V147.644L223.346 147.908V148.801H222.585V149.661H223.346V151.646C223.346 152.721 223.892 153.102 225.265 152.937V152.134C224.587 152.167 224.239 152.176 224.239 151.646V149.661H225.265ZM226.724 149.943C226.724 149.645 227.005 149.504 227.327 149.504C227.666 149.504 227.956 149.653 228.105 149.976L228.857 149.554C228.568 149.008 228.005 148.694 227.327 148.694C226.484 148.694 225.814 149.182 225.814 149.959C225.814 151.44 228.039 151.026 228.039 151.762C228.039 152.093 227.733 152.225 227.336 152.225C226.881 152.225 226.55 152.002 226.418 151.63L225.648 152.076C225.913 152.672 226.509 153.044 227.336 153.044C228.229 153.044 228.948 152.597 228.948 151.77C228.948 150.24 226.724 150.695 226.724 149.943Z" fill="#333333"/>
<path d="M213.055 157.693H219.947L216.501 161.829L213.055 157.693Z" fill="white"/>
</g>
<g filter="url(#filter13_d_69_13049)">
<rect x="151.811" y="161.787" width="34.2703" height="15.2028" rx="2.75678" fill="white"/>
<path d="M156.554 172.232H160.367V171.314H157.968L159.275 170.008C159.829 169.445 160.259 168.842 160.259 168.122C160.259 166.972 159.358 166.336 158.406 166.336C157.637 166.336 156.91 166.716 156.537 167.51L157.34 167.981C157.563 167.518 157.935 167.262 158.415 167.262C158.911 167.262 159.308 167.576 159.308 168.155C159.308 168.593 158.985 169.015 158.572 169.429L156.554 171.488V172.232ZM165.455 172.34C166.721 172.34 167.647 171.563 167.647 170.314V166.443H166.696V170.256C166.696 170.934 166.307 171.414 165.455 171.414C164.603 171.414 164.215 170.934 164.215 170.256V166.443H163.264V170.314C163.264 171.563 164.182 172.34 165.455 172.34ZM170.858 167.99C170.296 167.99 169.849 168.196 169.576 168.627V168.097H168.683V172.232H169.576V170.016C169.576 169.172 170.039 168.825 170.626 168.825C171.189 168.825 171.553 169.156 171.553 169.784V172.232H172.446V169.693C172.446 168.618 171.784 167.99 170.858 167.99ZM173.854 167.477C174.169 167.477 174.425 167.212 174.425 166.906C174.425 166.592 174.169 166.336 173.854 166.336C173.54 166.336 173.284 166.592 173.284 166.906C173.284 167.212 173.54 167.477 173.854 167.477ZM173.408 172.232H174.301V168.097H173.408V172.232ZM177.645 168.957V168.097H176.62V166.939L175.727 167.204V168.097H174.966V168.957H175.727V170.942C175.727 172.017 176.273 172.398 177.645 172.232V171.43C176.967 171.463 176.62 171.472 176.62 170.942V168.957H177.645ZM179.104 169.239C179.104 168.941 179.385 168.8 179.708 168.8C180.047 168.8 180.337 168.949 180.485 169.272L181.238 168.85C180.949 168.304 180.386 167.99 179.708 167.99C178.864 167.99 178.195 168.478 178.195 169.255C178.195 170.735 180.419 170.322 180.419 171.058C180.419 171.389 180.113 171.521 179.716 171.521C179.261 171.521 178.931 171.298 178.798 170.926L178.029 171.372C178.294 171.968 178.889 172.34 179.716 172.34C180.609 172.34 181.329 171.893 181.329 171.066C181.329 169.536 179.104 169.991 179.104 169.239Z" fill="#333333"/>
<path d="M165.5 176.989H172.392L168.946 181.124L165.5 176.989Z" fill="white"/>
</g>
<g filter="url(#filter14_d_69_13049)">
<rect x="222.795" y="210.032" width="33.2703" height="15.2028" rx="2.75678" fill="white"/>
<path d="M231.49 218.89C231.49 217.79 230.647 217.475 229.861 217.178V215.54C230.2 215.615 230.448 215.821 230.597 216.194L231.399 215.73C231.101 215.052 230.531 214.688 229.861 214.597V213.861H229.323V214.589C228.463 214.672 227.711 215.234 227.711 216.21C227.711 217.269 228.521 217.624 229.323 217.922V219.642C228.786 219.584 228.447 219.295 228.265 218.832L227.446 219.303C227.735 220.056 228.405 220.519 229.323 220.577V221.305H229.861V220.569C230.804 220.453 231.49 219.849 231.49 218.89ZM228.662 216.21C228.662 215.838 228.918 215.59 229.323 215.524V216.963C228.86 216.748 228.662 216.557 228.662 216.21ZM229.861 219.634V218.129C230.283 218.319 230.539 218.509 230.539 218.898C230.539 219.254 230.316 219.543 229.861 219.634ZM231.993 220.478H235.806V219.56H233.407L234.714 218.253C235.268 217.69 235.698 217.087 235.698 216.367C235.698 215.218 234.797 214.581 233.846 214.581C233.077 214.581 232.349 214.961 231.977 215.755L232.779 216.227C233.002 215.763 233.374 215.507 233.854 215.507C234.35 215.507 234.747 215.821 234.747 216.4C234.747 216.839 234.425 217.26 234.011 217.674L231.993 219.733V220.478ZM238.639 220.585C240.094 220.585 240.913 219.369 240.913 217.583C240.913 215.797 240.094 214.581 238.639 214.581C237.183 214.581 236.364 215.797 236.364 217.583C236.364 219.369 237.183 220.585 238.639 220.585ZM238.639 219.659C237.787 219.659 237.315 218.914 237.315 217.583C237.315 216.251 237.787 215.507 238.639 215.507C239.499 215.507 239.962 216.251 239.962 217.583C239.962 218.914 239.499 219.659 238.639 219.659ZM243.848 220.585C245.304 220.585 246.122 219.369 246.122 217.583C246.122 215.797 245.304 214.581 243.848 214.581C242.392 214.581 241.574 215.797 241.574 217.583C241.574 219.369 242.392 220.585 243.848 220.585ZM243.848 219.659C242.996 219.659 242.525 218.914 242.525 217.583C242.525 216.251 242.996 215.507 243.848 215.507C244.708 215.507 245.171 216.251 245.171 217.583C245.171 218.914 244.708 219.659 243.848 219.659ZM249.057 220.585C250.513 220.585 251.332 219.369 251.332 217.583C251.332 215.797 250.513 214.581 249.057 214.581C247.602 214.581 246.783 215.797 246.783 217.583C246.783 219.369 247.602 220.585 249.057 220.585ZM249.057 219.659C248.206 219.659 247.734 218.914 247.734 217.583C247.734 216.251 248.206 215.507 249.057 215.507C249.917 215.507 250.381 216.251 250.381 217.583C250.381 218.914 249.917 219.659 249.057 219.659Z" fill="#333333"/>
<path d="M235.984 225.234H242.876L239.43 229.37L235.984 225.234Z" fill="white"/>
</g>
<g filter="url(#filter15_d_69_13049)">
<rect x="149.055" y="218.301" width="33.2703" height="15.2028" rx="2.75678" fill="white"/>
<path d="M153.327 222.958V223.868H155.974L153.972 228.747H154.973L157.008 223.785V222.958H153.327ZM162.038 228.855C163.303 228.855 164.229 228.077 164.229 226.828V222.958H163.278V226.77C163.278 227.449 162.89 227.928 162.038 227.928C161.186 227.928 160.797 227.449 160.797 226.77V222.958H159.846V226.828C159.846 228.077 160.764 228.855 162.038 228.855ZM167.441 224.504C166.878 224.504 166.432 224.711 166.159 225.141V224.612H165.266V228.747H166.159V226.531C166.159 225.687 166.622 225.34 167.209 225.34C167.771 225.34 168.135 225.671 168.135 226.299V228.747H169.029V226.208C169.029 225.133 168.367 224.504 167.441 224.504ZM170.437 223.992C170.751 223.992 171.008 223.727 171.008 223.421C171.008 223.107 170.751 222.85 170.437 222.85C170.123 222.85 169.866 223.107 169.866 223.421C169.866 223.727 170.123 223.992 170.437 223.992ZM169.99 228.747H170.883V224.612H169.99V228.747ZM174.228 225.472V224.612H173.202V223.454L172.309 223.719V224.612H171.548V225.472H172.309V227.457C172.309 228.532 172.855 228.912 174.228 228.747V227.945C173.55 227.978 173.202 227.986 173.202 227.457V225.472H174.228ZM175.687 225.753C175.687 225.455 175.968 225.315 176.291 225.315C176.63 225.315 176.919 225.464 177.068 225.786L177.821 225.365C177.531 224.819 176.969 224.504 176.291 224.504C175.447 224.504 174.777 224.992 174.777 225.77C174.777 227.25 177.002 226.837 177.002 227.573C177.002 227.903 176.696 228.036 176.299 228.036C175.844 228.036 175.513 227.813 175.381 227.44L174.612 227.887C174.876 228.482 175.472 228.855 176.299 228.855C177.192 228.855 177.912 228.408 177.912 227.581C177.912 226.051 175.687 226.506 175.687 225.753Z" fill="#333333"/>
<path d="M162.244 233.504H169.136L165.69 237.639L162.244 233.504Z" fill="white"/>
</g>
<g filter="url(#filter16_d_69_13049)">
<rect x="13.9746" y="161.787" width="34.2703" height="15.2028" rx="2.75678" fill="white"/>
<path d="M22.6975 168.312C22.6975 167.146 21.854 166.336 20.6548 166.336C19.4556 166.336 18.6037 167.146 18.6037 168.312C18.6037 169.478 19.4556 170.289 20.6548 170.289H20.754L19.4308 172.232H20.5224L22.3502 169.478C22.5735 169.156 22.6975 168.759 22.6975 168.312ZM19.5548 168.312C19.5548 167.651 20.0262 167.237 20.6548 167.237C21.2833 167.237 21.7464 167.651 21.7464 168.312C21.7464 168.974 21.2833 169.387 20.6548 169.387C20.0262 169.387 19.5548 168.966 19.5548 168.312ZM27.6839 172.34C28.9493 172.34 29.8755 171.563 29.8755 170.314V166.443H28.9245V170.256C28.9245 170.934 28.5357 171.414 27.6839 171.414C26.8321 171.414 26.4434 170.934 26.4434 170.256V166.443H25.4923V170.314C25.4923 171.563 26.4103 172.34 27.6839 172.34ZM33.0867 167.99C32.5243 167.99 32.0777 168.196 31.8048 168.627V168.097H30.9116V172.232H31.8048V170.016C31.8048 169.172 32.2679 168.825 32.8551 168.825C33.4175 168.825 33.7814 169.156 33.7814 169.784V172.232H34.6746V169.693C34.6746 168.618 34.013 167.99 33.0867 167.99ZM36.083 167.477C36.3972 167.477 36.6536 167.212 36.6536 166.906C36.6536 166.592 36.3972 166.336 36.083 166.336C35.7687 166.336 35.5123 166.592 35.5123 166.906C35.5123 167.212 35.7687 167.477 36.083 167.477ZM35.6364 172.232H36.5296V168.097H35.6364V172.232ZM39.8741 168.957V168.097H38.8485V166.939L37.9553 167.204V168.097H37.1945V168.957H37.9553V170.942C37.9553 172.017 38.5012 172.398 39.8741 172.232V171.43C39.1959 171.463 38.8485 171.472 38.8485 170.942V168.957H39.8741ZM41.3329 169.239C41.3329 168.941 41.6141 168.8 41.9367 168.8C42.2758 168.8 42.5652 168.949 42.7141 169.272L43.4667 168.85C43.1772 168.304 42.6148 167.99 41.9367 167.99C41.0931 167.99 40.4232 168.478 40.4232 169.255C40.4232 170.735 42.6479 170.322 42.6479 171.058C42.6479 171.389 42.3419 171.521 41.9449 171.521C41.4901 171.521 41.1593 171.298 41.0269 170.926L40.2578 171.372C40.5224 171.968 41.1179 172.34 41.9449 172.34C42.8381 172.34 43.5577 171.893 43.5577 171.066C43.5577 169.536 41.3329 169.991 41.3329 169.239Z" fill="#333333"/>
<path d="M27.6641 176.989H34.556L31.11 181.124L27.6641 176.989Z" fill="white"/>
</g>
<g filter="url(#filter17_d_69_13049)">
<rect x="13.2793" y="220.369" width="34.2703" height="15.2028" rx="2.75678" fill="white"/>
<path d="M20.4841 227.391L21.6585 225.836V225.025H18.1023V225.918H20.5255L19.2767 227.564L19.6571 228.135H19.8721C20.5255 228.135 20.9473 228.482 20.9473 229.061C20.9473 229.64 20.5255 229.996 19.8721 229.996C19.2932 229.996 18.9045 229.739 18.7391 229.251L17.9286 229.723C18.2511 230.533 19.0203 230.922 19.8721 230.922C20.939 230.922 21.8984 230.277 21.8984 229.061C21.8984 228.16 21.2781 227.581 20.4841 227.391ZM26.9684 230.922C28.2338 230.922 29.16 230.145 29.16 228.896V225.025H28.209V228.838C28.209 229.516 27.8202 229.996 26.9684 229.996C26.1166 229.996 25.7278 229.516 25.7278 228.838V225.025H24.7768V228.896C24.7768 230.145 25.6948 230.922 26.9684 230.922ZM32.3712 226.572C31.8088 226.572 31.3622 226.779 31.0893 227.209V226.679H30.1961V230.814H31.0893V228.598C31.0893 227.754 31.5524 227.407 32.1396 227.407C32.702 227.407 33.0659 227.738 33.0659 228.366V230.814H33.9591V228.275C33.9591 227.2 33.2975 226.572 32.3712 226.572ZM35.3674 226.059C35.6817 226.059 35.9381 225.794 35.9381 225.488C35.9381 225.174 35.6817 224.918 35.3674 224.918C35.0532 224.918 34.7968 225.174 34.7968 225.488C34.7968 225.794 35.0532 226.059 35.3674 226.059ZM34.9208 230.814H35.814V226.679H34.9208V230.814ZM39.1586 227.539V226.679H38.133V225.521L37.2398 225.786V226.679H36.479V227.539H37.2398V229.524C37.2398 230.599 37.7857 230.98 39.1586 230.814V230.012C38.4804 230.045 38.133 230.054 38.133 229.524V227.539H39.1586ZM40.6174 227.821C40.6174 227.523 40.8986 227.382 41.2212 227.382C41.5603 227.382 41.8497 227.531 41.9986 227.854L42.7512 227.432C42.4617 226.886 41.8993 226.572 41.2212 226.572C40.3776 226.572 39.7077 227.06 39.7077 227.837C39.7077 229.318 41.9324 228.904 41.9324 229.64C41.9324 229.971 41.6264 230.103 41.2294 230.103C40.7746 230.103 40.4438 229.88 40.3114 229.508L39.5423 229.954C39.8069 230.55 40.4024 230.922 41.2294 230.922C42.1226 230.922 42.8422 230.475 42.8422 229.648C42.8422 228.118 40.6174 228.573 40.6174 227.821Z" fill="#333333"/>
<path d="M26.9688 235.571H33.8607L30.4147 239.706L26.9688 235.571Z" fill="white"/>
</g>
<g filter="url(#filter18_d_69_13049)">
<rect x="68.418" y="187.288" width="34.2703" height="15.2028" rx="2.75678" fill="white"/>
<path d="M75.0981 193.888H74.9906L76.3139 191.944H75.2304L73.3944 194.698C73.1711 195.021 73.0471 195.418 73.0471 195.864C73.0471 197.03 73.8907 197.841 75.0981 197.841C76.2973 197.841 77.1409 197.03 77.1409 195.864C77.1409 194.698 76.2973 193.888 75.0981 193.888ZM75.0981 196.939C74.4613 196.939 73.9982 196.526 73.9982 195.864C73.9982 195.203 74.4613 194.789 75.0981 194.789C75.7267 194.789 76.1898 195.203 76.1898 195.864C76.1898 196.518 75.7267 196.939 75.0981 196.939ZM82.1273 197.841C83.3926 197.841 84.3189 197.064 84.3189 195.815V191.944H83.3678V195.757C83.3678 196.435 82.9791 196.915 82.1273 196.915C81.2754 196.915 80.8867 196.435 80.8867 195.757V191.944H79.9356V195.815C79.9356 197.064 80.8536 197.841 82.1273 197.841ZM87.5301 193.491C86.9677 193.491 86.5211 193.697 86.2482 194.128V193.598H85.355V197.733H86.2482V195.517C86.2482 194.673 86.7113 194.326 87.2985 194.326C87.8609 194.326 88.2248 194.657 88.2248 195.285V197.733H89.118V195.194C89.118 194.119 88.4563 193.491 87.5301 193.491ZM90.5263 192.978C90.8406 192.978 91.097 192.713 91.097 192.407C91.097 192.093 90.8406 191.837 90.5263 191.837C90.212 191.837 89.9557 192.093 89.9557 192.407C89.9557 192.713 90.212 192.978 90.5263 192.978ZM90.0797 197.733H90.9729V193.598H90.0797V197.733ZM94.3174 194.458V193.598H93.2919V192.44L92.3987 192.705V193.598H91.6378V194.458H92.3987V196.443C92.3987 197.518 92.9445 197.899 94.3174 197.733V196.931C93.6393 196.964 93.2919 196.973 93.2919 196.443V194.458H94.3174ZM95.7763 194.74C95.7763 194.442 96.0575 194.301 96.38 194.301C96.7191 194.301 97.0086 194.45 97.1574 194.773L97.91 194.351C97.6206 193.805 97.0582 193.491 96.38 193.491C95.5365 193.491 94.8666 193.979 94.8666 194.756C94.8666 196.236 97.0913 195.823 97.0913 196.559C97.0913 196.89 96.7853 197.022 96.3883 197.022C95.9334 197.022 95.6026 196.799 95.4703 196.427L94.7012 196.873C94.9658 197.469 95.5613 197.841 96.3883 197.841C97.2815 197.841 98.001 197.394 98.001 196.567C98.001 195.037 95.7763 195.492 95.7763 194.74Z" fill="#333333"/>
<path d="M82.1074 202.49H88.9994L85.5534 206.625L82.1074 202.49Z" fill="white"/>
</g>
<g filter="url(#filter19_d_69_13049)">
<rect x="86.3359" y="234.841" width="34.2703" height="15.2028" rx="2.75678" fill="white"/>
<path d="M94.192 242.276C94.589 242.02 94.8537 241.606 94.8537 241.052C94.8537 239.936 93.977 239.39 93.0176 239.39C92.05 239.39 91.1816 239.936 91.1816 241.052C91.1816 241.606 91.4463 242.02 91.835 242.276C91.3057 242.574 90.9831 243.078 90.9831 243.682C90.9831 244.757 91.8102 245.394 93.0176 245.394C94.2251 245.394 95.0439 244.757 95.0439 243.682C95.0439 243.07 94.7296 242.574 94.192 242.276ZM93.0176 240.291C93.4973 240.291 93.9026 240.556 93.9026 241.094C93.9026 241.606 93.4973 241.896 93.0176 241.896C92.5297 241.896 92.1327 241.606 92.1327 241.094C92.1327 240.556 92.5297 240.291 93.0176 240.291ZM93.0176 244.493C92.3891 244.493 91.9342 244.178 91.9342 243.591C91.9342 242.996 92.3891 242.69 93.0176 242.69C93.6379 242.69 94.0928 242.996 94.0928 243.591C94.0928 244.178 93.6379 244.493 93.0176 244.493ZM100.11 245.394C101.375 245.394 102.301 244.617 102.301 243.368V239.497H101.35V243.31C101.35 243.988 100.962 244.468 100.11 244.468C99.258 244.468 98.8693 243.988 98.8693 243.31V239.497H97.9182V243.368C97.9182 244.617 98.8362 245.394 100.11 245.394ZM105.513 241.044C104.95 241.044 104.504 241.251 104.231 241.681V241.151H103.338V245.287H104.231V243.07C104.231 242.227 104.694 241.879 105.281 241.879C105.843 241.879 106.207 242.21 106.207 242.839V245.287H107.101V242.748C107.101 241.672 106.439 241.044 105.513 241.044ZM108.509 240.531C108.823 240.531 109.08 240.267 109.08 239.961C109.08 239.646 108.823 239.39 108.509 239.39C108.195 239.39 107.938 239.646 107.938 239.961C107.938 240.267 108.195 240.531 108.509 240.531ZM108.062 245.287H108.955V241.151H108.062V245.287ZM112.3 242.012V241.151H111.274V239.994L110.381 240.258V241.151H109.62V242.012H110.381V243.996C110.381 245.072 110.927 245.452 112.3 245.287V244.484C111.622 244.517 111.274 244.526 111.274 243.996V242.012H112.3ZM113.759 242.293C113.759 241.995 114.04 241.854 114.363 241.854C114.702 241.854 114.991 242.003 115.14 242.326L115.893 241.904C115.603 241.358 115.041 241.044 114.363 241.044C113.519 241.044 112.849 241.532 112.849 242.309C112.849 243.79 115.074 243.376 115.074 244.112C115.074 244.443 114.768 244.575 114.371 244.575C113.916 244.575 113.585 244.352 113.453 243.98L112.684 244.427C112.948 245.022 113.544 245.394 114.371 245.394C115.264 245.394 115.984 244.948 115.984 244.121C115.984 242.59 113.759 243.045 113.759 242.293Z" fill="#333333"/>
<path d="M100.025 250.043H106.917L103.471 254.179L100.025 250.043Z" fill="white"/>
</g>
<g filter="url(#filter20_d_69_13049)">
<rect x="189.027" y="247.938" width="38.2703" height="15.2028" rx="2.75678" fill="white"/>
<path d="M195.189 252.594L193.667 253.132L193.899 253.942L195.065 253.611V258.383H196.016V252.594H195.189ZM199.242 258.491C200.698 258.491 201.516 257.275 201.516 255.489C201.516 253.702 200.698 252.487 199.242 252.487C197.787 252.487 196.968 253.702 196.968 255.489C196.968 257.275 197.787 258.491 199.242 258.491ZM199.242 257.565C198.39 257.565 197.919 256.82 197.919 255.489C197.919 254.157 198.39 253.413 199.242 253.413C200.102 253.413 200.565 254.157 200.565 255.489C200.565 256.82 200.102 257.565 199.242 257.565ZM206.627 258.491C207.892 258.491 208.818 257.713 208.818 256.465V252.594H207.867V256.407C207.867 257.085 207.478 257.565 206.627 257.565C205.775 257.565 205.386 257.085 205.386 256.407V252.594H204.435V256.465C204.435 257.713 205.353 258.491 206.627 258.491ZM212.029 254.141C211.467 254.141 211.02 254.347 210.747 254.777V254.248H209.854V258.383H210.747V256.167C210.747 255.323 211.211 254.976 211.798 254.976C212.36 254.976 212.724 255.307 212.724 255.935V258.383H213.617V255.844C213.617 254.769 212.956 254.141 212.029 254.141ZM215.026 253.628C215.34 253.628 215.596 253.363 215.596 253.057C215.596 252.743 215.34 252.487 215.026 252.487C214.711 252.487 214.455 252.743 214.455 253.057C214.455 253.363 214.711 253.628 215.026 253.628ZM214.579 258.383H215.472V254.248H214.579V258.383ZM218.817 255.108V254.248H217.791V253.09L216.898 253.355V254.248H216.137V255.108H216.898V257.093C216.898 258.168 217.444 258.549 218.817 258.383V257.581C218.139 257.614 217.791 257.622 217.791 257.093V255.108H218.817ZM220.276 255.389C220.276 255.092 220.557 254.951 220.879 254.951C221.218 254.951 221.508 255.1 221.657 255.423L222.409 255.001C222.12 254.455 221.557 254.141 220.879 254.141C220.036 254.141 219.366 254.629 219.366 255.406C219.366 256.886 221.591 256.473 221.591 257.209C221.591 257.54 221.285 257.672 220.888 257.672C220.433 257.672 220.102 257.449 219.97 257.077L219.2 257.523C219.465 258.119 220.061 258.491 220.888 258.491C221.781 258.491 222.5 258.044 222.5 257.217C222.5 255.687 220.276 256.142 220.276 255.389Z" fill="#333333"/>
<path d="M204.717 263.14H211.609L208.163 267.275L204.717 263.14Z" fill="white"/>
</g>
<g filter="url(#filter21_d_69_13049)">
<rect x="53.9473" y="294.802" width="38.2703" height="15.2028" rx="2.75678" fill="white"/>
<path d="M60.109 299.459L58.5872 299.996L58.8188 300.807L59.9849 300.476V305.248H60.936V299.459H60.109ZM64.162 305.356C65.6176 305.356 66.4364 304.14 66.4364 302.353C66.4364 300.567 65.6176 299.351 64.162 299.351C62.7064 299.351 61.8877 300.567 61.8877 302.353C61.8877 304.14 62.7064 305.356 64.162 305.356ZM64.162 304.429C63.3102 304.429 62.8388 303.685 62.8388 302.353C62.8388 301.022 63.3102 300.278 64.162 300.278C65.0221 300.278 65.4853 301.022 65.4853 302.353C65.4853 303.685 65.0221 304.429 64.162 304.429ZM71.5465 305.356C72.8118 305.356 73.7381 304.578 73.7381 303.329V299.459H72.787V303.271C72.787 303.95 72.3983 304.429 71.5465 304.429C70.6946 304.429 70.3059 303.95 70.3059 303.271V299.459H69.3548V303.329C69.3548 304.578 70.2728 305.356 71.5465 305.356ZM76.9493 301.005C76.3869 301.005 75.9403 301.212 75.6674 301.642V301.113H74.7742V305.248H75.6674V303.032C75.6674 302.188 76.1305 301.841 76.7177 301.841C77.2801 301.841 77.644 302.171 77.644 302.8V305.248H78.5372V302.709C78.5372 301.634 77.8755 301.005 76.9493 301.005ZM79.9455 300.493C80.2598 300.493 80.5162 300.228 80.5162 299.922C80.5162 299.608 80.2598 299.351 79.9455 299.351C79.6312 299.351 79.3749 299.608 79.3749 299.922C79.3749 300.228 79.6312 300.493 79.9455 300.493ZM79.4989 305.248H80.3921V301.113H79.4989V305.248ZM83.7366 301.973V301.113H82.7111V299.955L81.8179 300.22V301.113H81.057V301.973H81.8179V303.958C81.8179 305.033 82.3637 305.413 83.7366 305.248V304.446C83.0585 304.479 82.7111 304.487 82.7111 303.958V301.973H83.7366ZM85.1955 302.254C85.1955 301.956 85.4767 301.816 85.7992 301.816C86.1383 301.816 86.4278 301.965 86.5766 302.287L87.3292 301.865C87.0398 301.32 86.4774 301.005 85.7992 301.005C84.9557 301.005 84.2858 301.493 84.2858 302.271C84.2858 303.751 86.5105 303.338 86.5105 304.074C86.5105 304.404 86.2045 304.537 85.8075 304.537C85.3526 304.537 85.0218 304.313 84.8895 303.941L84.1204 304.388C84.385 304.983 84.9805 305.356 85.8075 305.356C86.7007 305.356 87.4202 304.909 87.4202 304.082C87.4202 302.552 85.1955 303.007 85.1955 302.254Z" fill="#333333"/>
<path d="M69.6367 310.005H76.5287L73.0827 314.14L69.6367 310.005Z" fill="white"/>
</g>
<defs>
<filter id="filter0_d_69_13049" x="16.7256" y="3.96122" width="38.7831" height="24.8515" filterUnits="userSpaceOnUse" color-interpolation-filters="sRGB">
<feFlood flood-opacity="0" result="BackgroundImageFix"/>
<feColorMatrix in="SourceAlpha" type="matrix" values="0 0 0 0 0 0 0 0 0 0 0 0 0 0 0 0 0 0 127 0" result="hardAlpha"/>
<feOffset dy="0.689195"/>
<feGaussianBlur stdDeviation="1.37839"/>
<feColorMatrix type="matrix" values="0 0 0 0 0.235294 0 0 0 0 0.25098 0 0 0 0 0.262745 0 0 0 0.2 0"/>
<feBlend mode="normal" in2="BackgroundImageFix" result="effect1_dropShadow_69_13049"/>
<feBlend mode="normal" in="SourceGraphic" in2="effect1_dropShadow_69_13049" result="shape"/>
</filter>
<filter id="filter1_d_69_13049" x="116.659" y="22.5701" width="43.7831" height="24.8515" filterUnits="userSpaceOnUse" color-interpolation-filters="sRGB">
<feFlood flood-opacity="0" result="BackgroundImageFix"/>
<feColorMatrix in="SourceAlpha" type="matrix" values="0 0 0 0 0 0 0 0 0 0 0 0 0 0 0 0 0 0 127 0" result="hardAlpha"/>
<feOffset dy="0.689195"/>
<feGaussianBlur stdDeviation="1.37839"/>
<feColorMatrix type="matrix" values="0 0 0 0 0.235294 0 0 0 0 0.25098 0 0 0 0 0.262745 0 0 0 0.2 0"/>
<feBlend mode="normal" in2="BackgroundImageFix" result="effect1_dropShadow_69_13049"/>
<feBlend mode="normal" in="SourceGraphic" in2="effect1_dropShadow_69_13049" result="shape"/>
</filter>
<filter id="filter2_d_69_13049" x="188.337" y="6.71757" width="39.7831" height="24.8515" filterUnits="userSpaceOnUse" color-interpolation-filters="sRGB">
<feFlood flood-opacity="0" result="BackgroundImageFix"/>
<feColorMatrix in="SourceAlpha" type="matrix" values="0 0 0 0 0 0 0 0 0 0 0 0 0 0 0 0 0 0 127 0" result="hardAlpha"/>
<feOffset dy="0.689195"/>
<feGaussianBlur stdDeviation="1.37839"/>
<feColorMatrix type="matrix" values="0 0 0 0 0.235294 0 0 0 0 0.25098 0 0 0 0 0.262745 0 0 0 0.2 0"/>
<feBlend mode="normal" in2="BackgroundImageFix" result="effect1_dropShadow_69_13049"/>
<feBlend mode="normal" in="SourceGraphic" in2="effect1_dropShadow_69_13049" result="shape"/>
</filter>
<filter id="filter3_d_69_13049" x="67.044" y="97.6912" width="35.7831" height="24.8515" filterUnits="userSpaceOnUse" color-interpolation-filters="sRGB">
<feFlood flood-opacity="0" result="BackgroundImageFix"/>
<feColorMatrix in="SourceAlpha" type="matrix" values="0 0 0 0 0 0 0 0 0 0 0 0 0 0 0 0 0 0 127 0" result="hardAlpha"/>
<feOffset dy="0.689195"/>
<feGaussianBlur stdDeviation="1.37839"/>
<feColorMatrix type="matrix" values="0 0 0 0 0.235294 0 0 0 0 0.25098 0 0 0 0 0.262745 0 0 0 0.2 0"/>
<feBlend mode="normal" in2="BackgroundImageFix" result="effect1_dropShadow_69_13049"/>
<feBlend mode="normal" in="SourceGraphic" in2="effect1_dropShadow_69_13049" result="shape"/>
</filter>
<filter id="filter4_d_69_13049" x="161.458" y="93.5574" width="42.7831" height="24.8515" filterUnits="userSpaceOnUse" color-interpolation-filters="sRGB">
<feFlood flood-opacity="0" result="BackgroundImageFix"/>
<feColorMatrix in="SourceAlpha" type="matrix" values="0 0 0 0 0 0 0 0 0 0 0 0 0 0 0 0 0 0 127 0" result="hardAlpha"/>
<feOffset dy="0.689195"/>
<feGaussianBlur stdDeviation="1.37839"/>
<feColorMatrix type="matrix" values="0 0 0 0 0.235294 0 0 0 0 0.25098 0 0 0 0 0.262745 0 0 0 0.2 0"/>
<feBlend mode="normal" in2="BackgroundImageFix" result="effect1_dropShadow_69_13049"/>
<feBlend mode="normal" in="SourceGraphic" in2="effect1_dropShadow_69_13049" result="shape"/>
</filter>
<filter id="filter5_d_69_13049" x="185.577" y="63.2322" width="39.7831" height="24.8515" filterUnits="userSpaceOnUse" color-interpolation-filters="sRGB">
<feFlood flood-opacity="0" result="BackgroundImageFix"/>
<feColorMatrix in="SourceAlpha" type="matrix" values="0 0 0 0 0 0 0 0 0 0 0 0 0 0 0 0 0 0 127 0" result="hardAlpha"/>
<feOffset dy="0.689195"/>
<feGaussianBlur stdDeviation="1.37839"/>
<feColorMatrix type="matrix" values="0 0 0 0 0.235294 0 0 0 0 0.25098 0 0 0 0 0.262745 0 0 0 0.2 0"/>
<feBlend mode="normal" in2="BackgroundImageFix" result="effect1_dropShadow_69_13049"/>
<feBlend mode="normal" in="SourceGraphic" in2="effect1_dropShadow_69_13049" result="shape"/>
</filter>
<filter id="filter6_d_69_13049" x="199.364" y="290.667" width="39.7831" height="24.8515" filterUnits="userSpaceOnUse" color-interpolation-filters="sRGB">
<feFlood flood-opacity="0" result="BackgroundImageFix"/>
<feColorMatrix in="SourceAlpha" type="matrix" values="0 0 0 0 0 0 0 0 0 0 0 0 0 0 0 0 0 0 127 0" result="hardAlpha"/>
<feOffset dy="0.689195"/>
<feGaussianBlur stdDeviation="1.37839"/>
<feColorMatrix type="matrix" values="0 0 0 0 0.235294 0 0 0 0 0.25098 0 0 0 0 0.262745 0 0 0 0.2 0"/>
<feBlend mode="normal" in2="BackgroundImageFix" result="effect1_dropShadow_69_13049"/>
<feBlend mode="normal" in="SourceGraphic" in2="effect1_dropShadow_69_13049" result="shape"/>
</filter>
<filter id="filter7_d_69_13049" x="215.216" y="96.3138" width="39.7831" height="24.8515" filterUnits="userSpaceOnUse" color-interpolation-filters="sRGB">
<feFlood flood-opacity="0" result="BackgroundImageFix"/>
<feColorMatrix in="SourceAlpha" type="matrix" values="0 0 0 0 0 0 0 0 0 0 0 0 0 0 0 0 0 0 127 0" result="hardAlpha"/>
<feOffset dy="0.689195"/>
<feGaussianBlur stdDeviation="1.37839"/>
<feColorMatrix type="matrix" values="0 0 0 0 0.235294 0 0 0 0 0.25098 0 0 0 0 0.262745 0 0 0 0.2 0"/>
<feBlend mode="normal" in2="BackgroundImageFix" result="effect1_dropShadow_69_13049"/>
<feBlend mode="normal" in="SourceGraphic" in2="effect1_dropShadow_69_13049" result="shape"/>
</filter>
<filter id="filter8_d_69_13049" x="106.323" y="72.8807" width="39.7831" height="24.8515" filterUnits="userSpaceOnUse" color-interpolation-filters="sRGB">
<feFlood flood-opacity="0" result="BackgroundImageFix"/>
<feColorMatrix in="SourceAlpha" type="matrix" values="0 0 0 0 0 0 0 0 0 0 0 0 0 0 0 0 0 0 127 0" result="hardAlpha"/>
<feOffset dy="0.689195"/>
<feGaussianBlur stdDeviation="1.37839"/>
<feColorMatrix type="matrix" values="0 0 0 0 0.235294 0 0 0 0 0.25098 0 0 0 0 0.262745 0 0 0 0.2 0"/>
<feBlend mode="normal" in2="BackgroundImageFix" result="effect1_dropShadow_69_13049"/>
<feBlend mode="normal" in="SourceGraphic" in2="effect1_dropShadow_69_13049" result="shape"/>
</filter>
<filter id="filter9_d_69_13049" x="22.2452" y="56.3396" width="38.7831" height="24.8515" filterUnits="userSpaceOnUse" color-interpolation-filters="sRGB">
<feFlood flood-opacity="0" result="BackgroundImageFix"/>
<feColorMatrix in="SourceAlpha" type="matrix" values="0 0 0 0 0 0 0 0 0 0 0 0 0 0 0 0 0 0 127 0" result="hardAlpha"/>
<feOffset dy="0.689195"/>
<feGaussianBlur stdDeviation="1.37839"/>
<feColorMatrix type="matrix" values="0 0 0 0 0.235294 0 0 0 0 0.25098 0 0 0 0 0.262745 0 0 0 0.2 0"/>
<feBlend mode="normal" in2="BackgroundImageFix" result="effect1_dropShadow_69_13049"/>
<feBlend mode="normal" in="SourceGraphic" in2="effect1_dropShadow_69_13049" result="shape"/>
</filter>
<filter id="filter10_d_69_13049" x="14.6592" y="130.774" width="42.7831" height="24.8515" filterUnits="userSpaceOnUse" color-interpolation-filters="sRGB">
<feFlood flood-opacity="0" result="BackgroundImageFix"/>
<feColorMatrix in="SourceAlpha" type="matrix" values="0 0 0 0 0 0 0 0 0 0 0 0 0 0 0 0 0 0 127 0" result="hardAlpha"/>
<feOffset dy="0.689195"/>
<feGaussianBlur stdDeviation="1.37839"/>
<feColorMatrix type="matrix" values="0 0 0 0 0.235294 0 0 0 0 0.25098 0 0 0 0 0.262745 0 0 0 0.2 0"/>
<feBlend mode="normal" in2="BackgroundImageFix" result="effect1_dropShadow_69_13049"/>
<feBlend mode="normal" in="SourceGraphic" in2="effect1_dropShadow_69_13049" result="shape"/>
</filter>
<filter id="filter11_d_69_13049" x="93.2315" y="138.355" width="39.7831" height="24.8515" filterUnits="userSpaceOnUse" color-interpolation-filters="sRGB">
<feFlood flood-opacity="0" result="BackgroundImageFix"/>
<feColorMatrix in="SourceAlpha" type="matrix" values="0 0 0 0 0 0 0 0 0 0 0 0 0 0 0 0 0 0 127 0" result="hardAlpha"/>
<feOffset dy="0.689195"/>
<feGaussianBlur stdDeviation="1.37839"/>
<feColorMatrix type="matrix" values="0 0 0 0 0.235294 0 0 0 0 0.25098 0 0 0 0 0.262745 0 0 0 0.2 0"/>
<feBlend mode="normal" in2="BackgroundImageFix" result="effect1_dropShadow_69_13049"/>
<feBlend mode="normal" in="SourceGraphic" in2="effect1_dropShadow_69_13049" result="shape"/>
</filter>
<filter id="filter12_d_69_13049" x="196.608" y="140.423" width="39.7831" height="24.8515" filterUnits="userSpaceOnUse" color-interpolation-filters="sRGB">
<feFlood flood-opacity="0" result="BackgroundImageFix"/>
<feColorMatrix in="SourceAlpha" type="matrix" values="0 0 0 0 0 0 0 0 0 0 0 0 0 0 0 0 0 0 127 0" result="hardAlpha"/>
<feOffset dy="0.689195"/>
<feGaussianBlur stdDeviation="1.37839"/>
<feColorMatrix type="matrix" values="0 0 0 0 0.235294 0 0 0 0 0.25098 0 0 0 0 0.262745 0 0 0 0.2 0"/>
<feBlend mode="normal" in2="BackgroundImageFix" result="effect1_dropShadow_69_13049"/>
<feBlend mode="normal" in="SourceGraphic" in2="effect1_dropShadow_69_13049" result="shape"/>
</filter>
<filter id="filter13_d_69_13049" x="149.054" y="159.719" width="39.7831" height="24.8515" filterUnits="userSpaceOnUse" color-interpolation-filters="sRGB">
<feFlood flood-opacity="0" result="BackgroundImageFix"/>
<feColorMatrix in="SourceAlpha" type="matrix" values="0 0 0 0 0 0 0 0 0 0 0 0 0 0 0 0 0 0 127 0" result="hardAlpha"/>
<feOffset dy="0.689195"/>
<feGaussianBlur stdDeviation="1.37839"/>
<feColorMatrix type="matrix" values="0 0 0 0 0.235294 0 0 0 0 0.25098 0 0 0 0 0.262745 0 0 0 0.2 0"/>
<feBlend mode="normal" in2="BackgroundImageFix" result="effect1_dropShadow_69_13049"/>
<feBlend mode="normal" in="SourceGraphic" in2="effect1_dropShadow_69_13049" result="shape"/>
</filter>
<filter id="filter14_d_69_13049" x="220.038" y="207.964" width="38.7831" height="24.8515" filterUnits="userSpaceOnUse" color-interpolation-filters="sRGB">
<feFlood flood-opacity="0" result="BackgroundImageFix"/>
<feColorMatrix in="SourceAlpha" type="matrix" values="0 0 0 0 0 0 0 0 0 0 0 0 0 0 0 0 0 0 127 0" result="hardAlpha"/>
<feOffset dy="0.689195"/>
<feGaussianBlur stdDeviation="1.37839"/>
<feColorMatrix type="matrix" values="0 0 0 0 0.235294 0 0 0 0 0.25098 0 0 0 0 0.262745 0 0 0 0.2 0"/>
<feBlend mode="normal" in2="BackgroundImageFix" result="effect1_dropShadow_69_13049"/>
<feBlend mode="normal" in="SourceGraphic" in2="effect1_dropShadow_69_13049" result="shape"/>
</filter>
<filter id="filter15_d_69_13049" x="146.298" y="216.234" width="38.7831" height="24.8515" filterUnits="userSpaceOnUse" color-interpolation-filters="sRGB">
<feFlood flood-opacity="0" result="BackgroundImageFix"/>
<feColorMatrix in="SourceAlpha" type="matrix" values="0 0 0 0 0 0 0 0 0 0 0 0 0 0 0 0 0 0 127 0" result="hardAlpha"/>
<feOffset dy="0.689195"/>
<feGaussianBlur stdDeviation="1.37839"/>
<feColorMatrix type="matrix" values="0 0 0 0 0.235294 0 0 0 0 0.25098 0 0 0 0 0.262745 0 0 0 0.2 0"/>
<feBlend mode="normal" in2="BackgroundImageFix" result="effect1_dropShadow_69_13049"/>
<feBlend mode="normal" in="SourceGraphic" in2="effect1_dropShadow_69_13049" result="shape"/>
</filter>
<filter id="filter16_d_69_13049" x="11.2178" y="159.719" width="39.7831" height="24.8515" filterUnits="userSpaceOnUse" color-interpolation-filters="sRGB">
<feFlood flood-opacity="0" result="BackgroundImageFix"/>
<feColorMatrix in="SourceAlpha" type="matrix" values="0 0 0 0 0 0 0 0 0 0 0 0 0 0 0 0 0 0 127 0" result="hardAlpha"/>
<feOffset dy="0.689195"/>
<feGaussianBlur stdDeviation="1.37839"/>
<feColorMatrix type="matrix" values="0 0 0 0 0.235294 0 0 0 0 0.25098 0 0 0 0 0.262745 0 0 0 0.2 0"/>
<feBlend mode="normal" in2="BackgroundImageFix" result="effect1_dropShadow_69_13049"/>
<feBlend mode="normal" in="SourceGraphic" in2="effect1_dropShadow_69_13049" result="shape"/>
</filter>
<filter id="filter17_d_69_13049" x="10.5225" y="218.301" width="39.7831" height="24.8515" filterUnits="userSpaceOnUse" color-interpolation-filters="sRGB">
<feFlood flood-opacity="0" result="BackgroundImageFix"/>
<feColorMatrix in="SourceAlpha" type="matrix" values="0 0 0 0 0 0 0 0 0 0 0 0 0 0 0 0 0 0 127 0" result="hardAlpha"/>
<feOffset dy="0.689195"/>
<feGaussianBlur stdDeviation="1.37839"/>
<feColorMatrix type="matrix" values="0 0 0 0 0.235294 0 0 0 0 0.25098 0 0 0 0 0.262745 0 0 0 0.2 0"/>
<feBlend mode="normal" in2="BackgroundImageFix" result="effect1_dropShadow_69_13049"/>
<feBlend mode="normal" in="SourceGraphic" in2="effect1_dropShadow_69_13049" result="shape"/>
</filter>
<filter id="filter18_d_69_13049" x="65.6612" y="185.22" width="39.7831" height="24.8515" filterUnits="userSpaceOnUse" color-interpolation-filters="sRGB">
<feFlood flood-opacity="0" result="BackgroundImageFix"/>
<feColorMatrix in="SourceAlpha" type="matrix" values="0 0 0 0 0 0 0 0 0 0 0 0 0 0 0 0 0 0 127 0" result="hardAlpha"/>
<feOffset dy="0.689195"/>
<feGaussianBlur stdDeviation="1.37839"/>
<feColorMatrix type="matrix" values="0 0 0 0 0.235294 0 0 0 0 0.25098 0 0 0 0 0.262745 0 0 0 0.2 0"/>
<feBlend mode="normal" in2="BackgroundImageFix" result="effect1_dropShadow_69_13049"/>
<feBlend mode="normal" in="SourceGraphic" in2="effect1_dropShadow_69_13049" result="shape"/>
</filter>
<filter id="filter19_d_69_13049" x="83.5792" y="232.773" width="39.7831" height="24.8515" filterUnits="userSpaceOnUse" color-interpolation-filters="sRGB">
<feFlood flood-opacity="0" result="BackgroundImageFix"/>
<feColorMatrix in="SourceAlpha" type="matrix" values="0 0 0 0 0 0 0 0 0 0 0 0 0 0 0 0 0 0 127 0" result="hardAlpha"/>
<feOffset dy="0.689195"/>
<feGaussianBlur stdDeviation="1.37839"/>
<feColorMatrix type="matrix" values="0 0 0 0 0.235294 0 0 0 0 0.25098 0 0 0 0 0.262745 0 0 0 0.2 0"/>
<feBlend mode="normal" in2="BackgroundImageFix" result="effect1_dropShadow_69_13049"/>
<feBlend mode="normal" in="SourceGraphic" in2="effect1_dropShadow_69_13049" result="shape"/>
</filter>
<filter id="filter20_d_69_13049" x="186.271" y="245.87" width="43.7831" height="24.8515" filterUnits="userSpaceOnUse" color-interpolation-filters="sRGB">
<feFlood flood-opacity="0" result="BackgroundImageFix"/>
<feColorMatrix in="SourceAlpha" type="matrix" values="0 0 0 0 0 0 0 0 0 0 0 0 0 0 0 0 0 0 127 0" result="hardAlpha"/>
<feOffset dy="0.689195"/>
<feGaussianBlur stdDeviation="1.37839"/>
<feColorMatrix type="matrix" values="0 0 0 0 0.235294 0 0 0 0 0.25098 0 0 0 0 0.262745 0 0 0 0.2 0"/>
<feBlend mode="normal" in2="BackgroundImageFix" result="effect1_dropShadow_69_13049"/>
<feBlend mode="normal" in="SourceGraphic" in2="effect1_dropShadow_69_13049" result="shape"/>
</filter>
<filter id="filter21_d_69_13049" x="51.1905" y="292.735" width="43.7831" height="24.8515" filterUnits="userSpaceOnUse" color-interpolation-filters="sRGB">
<feFlood flood-opacity="0" result="BackgroundImageFix"/>
<feColorMatrix in="SourceAlpha" type="matrix" values="0 0 0 0 0 0 0 0 0 0 0 0 0 0 0 0 0 0 127 0" result="hardAlpha"/>
<feOffset dy="0.689195"/>
<feGaussianBlur stdDeviation="1.37839"/>
<feColorMatrix type="matrix" values="0 0 0 0 0.235294 0 0 0 0 0.25098 0 0 0 0 0.262745 0 0 0 0.2 0"/>
<feBlend mode="normal" in2="BackgroundImageFix" result="effect1_dropShadow_69_13049"/>
<feBlend mode="normal" in="SourceGraphic" in2="effect1_dropShadow_69_13049" result="shape"/>
</filter>
</defs>
</svg>
