<svg width="259" height="437" viewBox="0 0 259 437" fill="none" xmlns="http://www.w3.org/2000/svg">
<g filter="url(#filter0_d_69_13026)">
<rect x="19.1914" y="3.02881" width="33.2703" height="15.2028" rx="2.75678" fill="white"/>
<path d="M23.464 7.68537V8.59511H26.1105L24.109 13.4746H25.1098L27.1443 8.51241V7.68537H23.464ZM32.1746 13.5821C33.4399 13.5821 34.3662 12.8047 34.3662 11.5559V7.68537H33.4151V11.498C33.4151 12.1762 33.0264 12.6558 32.1746 12.6558C31.3227 12.6558 30.934 12.1762 30.934 11.498V7.68537H29.9829V11.5559C29.9829 12.8047 30.9009 13.5821 32.1746 13.5821ZM37.5774 9.23192C37.015 9.23192 36.5684 9.43868 36.2954 9.86874V9.33944H35.4023V13.4746H36.2954V11.2582C36.2954 10.4146 36.7586 10.0672 37.3458 10.0672C37.9082 10.0672 38.2721 10.398 38.2721 11.0266V13.4746H39.1653V10.9356C39.1653 9.86047 38.5036 9.23192 37.5774 9.23192ZM40.5736 8.71916C40.8879 8.71916 41.1443 8.45451 41.1443 8.14851C41.1443 7.83424 40.8879 7.57786 40.5736 7.57786C40.2593 7.57786 40.003 7.83424 40.003 8.14851C40.003 8.45451 40.2593 8.71916 40.5736 8.71916ZM40.127 13.4746H41.0202V9.33944H40.127V13.4746ZM44.3647 10.1996V9.33944H43.3392V8.18159L42.446 8.44624V9.33944H41.6851V10.1996H42.446V12.1844C42.446 13.2596 42.9918 13.64 44.3647 13.4746V12.6724C43.6865 12.7055 43.3392 12.7137 43.3392 12.1844V10.1996H44.3647ZM45.8236 10.4807C45.8236 10.183 46.1048 10.0424 46.4273 10.0424C46.7664 10.0424 47.0559 10.1913 47.2047 10.5138L47.9573 10.092C47.6679 9.5462 47.1055 9.23192 46.4273 9.23192C45.5838 9.23192 44.9139 9.71987 44.9139 10.4973C44.9139 11.9777 47.1386 11.5642 47.1386 12.3002C47.1386 12.631 46.8326 12.7634 46.4356 12.7634C45.9807 12.7634 45.6499 12.5401 45.5176 12.1679L44.7484 12.6145C45.0131 13.21 45.6086 13.5821 46.4356 13.5821C47.3288 13.5821 48.0483 13.1355 48.0483 12.3085C48.0483 10.7785 45.8236 11.2333 45.8236 10.4807Z" fill="#3C4043"/>
<path d="M32.3809 18.2314H39.2728L35.8268 22.3666L32.3809 18.2314Z" fill="white"/>
</g>
<g filter="url(#filter1_d_69_13026)">
<rect x="119.123" y="21.6377" width="38.2703" height="15.2028" rx="2.75678" fill="white"/>
<path d="M125.285 26.2943L123.763 26.8318L123.995 27.6423L125.161 27.3115V32.0835H126.112V26.2943H125.285ZM129.338 32.191C130.793 32.191 131.612 30.9753 131.612 29.1889C131.612 27.4025 130.793 26.1867 129.338 26.1867C127.882 26.1867 127.063 27.4025 127.063 29.1889C127.063 30.9753 127.882 32.191 129.338 32.191ZM129.338 31.2647C128.486 31.2647 128.015 30.5204 128.015 29.1889C128.015 27.8574 128.486 27.113 129.338 27.113C130.198 27.113 130.661 27.8574 130.661 29.1889C130.661 30.5204 130.198 31.2647 129.338 31.2647ZM136.722 32.191C137.988 32.191 138.914 31.4136 138.914 30.1648V26.2943H137.963V30.1069C137.963 30.7851 137.574 31.2647 136.722 31.2647C135.87 31.2647 135.482 30.7851 135.482 30.1069V26.2943H134.531V30.1648C134.531 31.4136 135.449 32.191 136.722 32.191ZM142.125 27.8408C141.563 27.8408 141.116 28.0476 140.843 28.4776V27.9483H139.95V32.0835H140.843V29.867C140.843 29.0235 141.306 28.6761 141.893 28.6761C142.456 28.6761 142.82 29.0069 142.82 29.6355V32.0835H143.713V29.5445C143.713 28.4694 143.051 27.8408 142.125 27.8408ZM145.121 27.3281C145.436 27.3281 145.692 27.0634 145.692 26.7574C145.692 26.4431 145.436 26.1867 145.121 26.1867C144.807 26.1867 144.551 26.4431 144.551 26.7574C144.551 27.0634 144.807 27.3281 145.121 27.3281ZM144.675 32.0835H145.568V27.9483H144.675V32.0835ZM148.912 28.8084V27.9483H147.887V26.7905L146.994 27.0551V27.9483H146.233V28.8084H146.994V30.7933C146.994 31.8685 147.54 32.2489 148.912 32.0835V31.2813C148.234 31.3144 147.887 31.3226 147.887 30.7933V28.8084H148.912ZM150.371 29.0896C150.371 28.7919 150.652 28.6513 150.975 28.6513C151.314 28.6513 151.604 28.8002 151.752 29.1227L152.505 28.7009C152.216 28.1551 151.653 27.8408 150.975 27.8408C150.131 27.8408 149.462 28.3288 149.462 29.1062C149.462 30.5866 151.686 30.173 151.686 30.9091C151.686 31.2399 151.38 31.3722 150.983 31.3722C150.528 31.3722 150.198 31.1489 150.065 30.7768L149.296 31.2234C149.561 31.8188 150.156 32.191 150.983 32.191C151.876 32.191 152.596 31.7444 152.596 30.9174C152.596 29.3874 150.371 29.8422 150.371 29.0896Z" fill="#333333"/>
<path d="M134.812 36.8403H141.704L138.258 40.9755L134.812 36.8403Z" fill="white"/>
</g>
<g filter="url(#filter2_d_69_13026)">
<rect x="190.801" y="5.78516" width="34.2703" height="15.2028" rx="2.75678" fill="white"/>
<path d="M198.657 13.2206C199.054 12.9642 199.318 12.5507 199.318 11.9965C199.318 10.88 198.442 10.3342 197.482 10.3342C196.515 10.3342 195.646 10.88 195.646 11.9965C195.646 12.5507 195.911 12.9642 196.3 13.2206C195.771 13.5183 195.448 14.0228 195.448 14.6265C195.448 15.7017 196.275 16.3385 197.482 16.3385C198.69 16.3385 199.509 15.7017 199.509 14.6265C199.509 14.0145 199.194 13.5183 198.657 13.2206ZM197.482 11.2357C197.962 11.2357 198.367 11.5003 198.367 12.0379C198.367 12.5507 197.962 12.8401 197.482 12.8401C196.995 12.8401 196.598 12.5507 196.598 12.0379C196.598 11.5003 196.995 11.2357 197.482 11.2357ZM197.482 15.437C196.854 15.437 196.399 15.1227 196.399 14.5355C196.399 13.9401 196.854 13.6341 197.482 13.6341C198.103 13.6341 198.558 13.9401 198.558 14.5355C198.558 15.1227 198.103 15.437 197.482 15.437ZM204.575 16.3385C205.84 16.3385 206.766 15.5611 206.766 14.3122V10.4417H205.815V14.2543C205.815 14.9325 205.427 15.4122 204.575 15.4122C203.723 15.4122 203.334 14.9325 203.334 14.2543V10.4417H202.383V14.3122C202.383 15.5611 203.301 16.3385 204.575 16.3385ZM209.977 11.9883C209.415 11.9883 208.968 12.195 208.696 12.6251V12.0958H207.802V16.231H208.696V14.0145C208.696 13.1709 209.159 12.8236 209.746 12.8236C210.308 12.8236 210.672 13.1544 210.672 13.7829V16.231H211.565V13.692C211.565 12.6168 210.904 11.9883 209.977 11.9883ZM212.974 11.4755C213.288 11.4755 213.544 11.2109 213.544 10.9049C213.544 10.5906 213.288 10.3342 212.974 10.3342C212.659 10.3342 212.403 10.5906 212.403 10.9049C212.403 11.2109 212.659 11.4755 212.974 11.4755ZM212.527 16.231H213.42V12.0958H212.527V16.231ZM216.765 12.9559V12.0958H215.739V10.9379L214.846 11.2026V12.0958H214.085V12.9559H214.846V14.9408C214.846 16.0159 215.392 16.3964 216.765 16.231V15.4287C216.087 15.4618 215.739 15.4701 215.739 14.9408V12.9559H216.765ZM218.224 13.2371C218.224 12.9394 218.505 12.7988 218.827 12.7988C219.167 12.7988 219.456 12.9476 219.605 13.2702L220.357 12.8484C220.068 12.3025 219.506 11.9883 218.827 11.9883C217.984 11.9883 217.314 12.4762 217.314 13.2536C217.314 14.734 219.539 14.3205 219.539 15.0566C219.539 15.3874 219.233 15.5197 218.836 15.5197C218.381 15.5197 218.05 15.2964 217.918 14.9242L217.149 15.3708C217.413 15.9663 218.009 16.3385 218.836 16.3385C219.729 16.3385 220.448 15.8919 220.448 15.0648C220.448 13.5348 218.224 13.9897 218.224 13.2371Z" fill="#3C4043"/>
<path d="M204.49 20.9878H211.382L207.936 25.123L204.49 20.9878Z" fill="white"/>
</g>
<g filter="url(#filter3_d_69_13026)">
<rect x="69.5" y="96.7588" width="30.2703" height="15.2028" rx="2.75678" fill="white"/>
<path d="M78.1207 105.617C78.1207 104.517 77.2771 104.202 76.4915 103.905V102.267C76.8305 102.342 77.0786 102.548 77.2275 102.921L78.0297 102.457C77.732 101.779 77.1614 101.415 76.4915 101.324V100.588H75.9539V101.316C75.0938 101.399 74.3412 101.961 74.3412 102.937C74.3412 103.996 75.1517 104.351 75.9539 104.649V106.369C75.4163 106.311 75.0772 106.022 74.8953 105.559L74.0765 106.03C74.366 106.783 75.0359 107.246 75.9539 107.304V108.032H76.4915V107.296C77.4343 107.18 78.1207 106.576 78.1207 105.617ZM75.2923 102.937C75.2923 102.565 75.5486 102.317 75.9539 102.251V103.69C75.4907 103.475 75.2923 103.284 75.2923 102.937ZM76.4915 106.361V104.856C76.9132 105.046 77.1696 105.236 77.1696 105.625C77.1696 105.981 76.9463 106.27 76.4915 106.361ZM79.9967 101.415L78.4749 101.953L78.7065 102.763L79.8726 102.433V107.205H80.8237V101.415H79.9967ZM85.7451 103.284C85.7451 102.118 84.9015 101.308 83.7023 101.308C82.5032 101.308 81.6513 102.118 81.6513 103.284C81.6513 104.451 82.5032 105.261 83.7023 105.261H83.8016L82.4783 107.205H83.57L85.3978 104.451C85.6211 104.128 85.7451 103.731 85.7451 103.284ZM82.6024 103.284C82.6024 102.623 83.0738 102.209 83.7023 102.209C84.3309 102.209 84.794 102.623 84.794 103.284C84.794 103.946 84.3309 104.36 83.7023 104.36C83.0738 104.36 82.6024 103.938 82.6024 103.284ZM88.064 103.599H87.3363L87.4355 102.309H89.7843V101.415H86.5588L86.3355 104.525H88.0227C88.6512 104.525 89.0813 104.872 89.0813 105.451C89.0813 106.03 88.6512 106.386 88.0062 106.386C87.4024 106.386 87.0054 106.113 86.8566 105.6L86.0378 106.072C86.3438 106.907 87.1295 107.312 88.0062 107.312C89.073 107.312 90.0324 106.667 90.0324 105.451C90.0324 104.244 89.1144 103.599 88.064 103.599ZM92.8369 107.312C94.2925 107.312 95.1113 106.096 95.1113 104.31C95.1113 102.524 94.2925 101.308 92.8369 101.308C91.3814 101.308 90.5626 102.524 90.5626 104.31C90.5626 106.096 91.3814 107.312 92.8369 107.312ZM92.8369 106.386C91.9851 106.386 91.5137 105.641 91.5137 104.31C91.5137 102.978 91.9851 102.234 92.8369 102.234C93.6971 102.234 94.1602 102.978 94.1602 104.31C94.1602 105.641 93.6971 106.386 92.8369 106.386Z" fill="#333333"/>
<path d="M81.1895 111.961H88.0814L84.6354 116.097L81.1895 111.961Z" fill="white"/>
</g>
<g filter="url(#filter4_d_69_13026)">
<rect x="163.922" y="92.625" width="37.2703" height="15.2028" rx="2.75678" fill="white"/>
<path d="M170 97.2816L168.478 97.8191L168.709 98.6296L169.875 98.2988V103.071H170.827V97.2816H170ZM171.704 103.071H175.516V102.153H173.118L174.425 100.846C174.979 100.284 175.409 99.68 175.409 98.9604C175.409 97.8109 174.507 97.174 173.556 97.174C172.787 97.174 172.059 97.5545 171.687 98.3484L172.489 98.8198C172.713 98.3567 173.085 98.1003 173.565 98.1003C174.061 98.1003 174.458 98.4146 174.458 98.9935C174.458 99.4319 174.135 99.8536 173.722 100.267L171.704 102.326V103.071ZM180.605 103.178C181.87 103.178 182.797 102.401 182.797 101.152V97.2816H181.846V101.094C181.846 101.772 181.457 102.252 180.605 102.252C179.753 102.252 179.365 101.772 179.365 101.094V97.2816H178.413V101.152C178.413 102.401 179.331 103.178 180.605 103.178ZM186.008 98.8281C185.446 98.8281 184.999 99.0349 184.726 99.4649V98.9356H183.833V103.071H184.726V100.854C184.726 100.011 185.189 99.6634 185.776 99.6634C186.339 99.6634 186.703 99.9942 186.703 100.623V103.071H187.596V100.532C187.596 99.4567 186.934 98.8281 186.008 98.8281ZM189.004 98.3154C189.318 98.3154 189.575 98.0507 189.575 97.7447C189.575 97.4304 189.318 97.174 189.004 97.174C188.69 97.174 188.434 97.4304 188.434 97.7447C188.434 98.0507 188.69 98.3154 189.004 98.3154ZM188.558 103.071H189.451V98.9356H188.558V103.071ZM192.795 99.7957V98.9356H191.77V97.7778L190.877 98.0424V98.9356H190.116V99.7957H190.877V101.781C190.877 102.856 191.422 103.236 192.795 103.071V102.269C192.117 102.302 191.77 102.31 191.77 101.781V99.7957H192.795ZM194.254 100.077C194.254 99.7792 194.535 99.6386 194.858 99.6386C195.197 99.6386 195.486 99.7875 195.635 100.11L196.388 99.6882C196.098 99.1424 195.536 98.8281 194.858 98.8281C194.014 98.8281 193.344 99.3161 193.344 100.093C193.344 101.574 195.569 101.16 195.569 101.896C195.569 102.227 195.263 102.36 194.866 102.36C194.411 102.36 194.08 102.136 193.948 101.764L193.179 102.211C193.444 102.806 194.039 103.178 194.866 103.178C195.759 103.178 196.479 102.732 196.479 101.905C196.479 100.375 194.254 100.83 194.254 100.077Z" fill="#333333"/>
<path d="M179.111 107.828H186.003L182.557 111.963L179.111 107.828Z" fill="white"/>
</g>
<g filter="url(#filter5_d_69_13026)">
<rect x="188.039" y="62.2998" width="34.2703" height="15.2028" rx="2.75678" fill="white"/>
<path d="M194.719 68.8999H194.612L195.935 66.9564H194.852L193.016 69.7104C192.792 70.0329 192.668 70.4299 192.668 70.8765C192.668 72.0426 193.512 72.8531 194.719 72.8531C195.918 72.8531 196.762 72.0426 196.762 70.8765C196.762 69.7104 195.918 68.8999 194.719 68.8999ZM194.719 71.9517C194.082 71.9517 193.619 71.5381 193.619 70.8765C193.619 70.2149 194.082 69.8014 194.719 69.8014C195.348 69.8014 195.811 70.2149 195.811 70.8765C195.811 71.5299 195.348 71.9517 194.719 71.9517ZM201.748 72.8531C203.014 72.8531 203.94 72.0757 203.94 70.8269V66.9564H202.989V70.769C202.989 71.4472 202.6 71.9268 201.748 71.9268C200.897 71.9268 200.508 71.4472 200.508 70.769V66.9564H199.557V70.8269C199.557 72.0757 200.475 72.8531 201.748 72.8531ZM207.151 68.5029C206.589 68.5029 206.142 68.7097 205.869 69.1397V68.6104H204.976V72.7456H205.869V70.5292C205.869 69.6856 206.332 69.3382 206.92 69.3382C207.482 69.3382 207.846 69.669 207.846 70.2976V72.7456H208.739V70.2066C208.739 69.1315 208.077 68.5029 207.151 68.5029ZM210.147 67.9902C210.462 67.9902 210.718 67.7255 210.718 67.4195C210.718 67.1052 210.462 66.8489 210.147 66.8489C209.833 66.8489 209.577 67.1052 209.577 67.4195C209.577 67.7255 209.833 67.9902 210.147 67.9902ZM209.701 72.7456H210.594V68.6104H209.701V72.7456ZM213.939 69.4706V68.6104H212.913V67.4526L212.02 67.7172V68.6104H211.259V69.4706H212.02V71.4554C212.02 72.5306 212.566 72.911 213.939 72.7456V71.9434C213.26 71.9765 212.913 71.9847 212.913 71.4554V69.4706H213.939ZM215.397 69.7517C215.397 69.454 215.679 69.3134 216.001 69.3134C216.34 69.3134 216.63 69.4623 216.779 69.7848L217.531 69.363C217.242 68.8172 216.679 68.5029 216.001 68.5029C215.158 68.5029 214.488 68.9909 214.488 69.7683C214.488 71.2487 216.712 70.8352 216.712 71.5712C216.712 71.902 216.406 72.0344 216.009 72.0344C215.555 72.0344 215.224 71.8111 215.091 71.4389L214.322 71.8855C214.587 72.481 215.182 72.8531 216.009 72.8531C216.903 72.8531 217.622 72.4065 217.622 71.5795C217.622 70.0495 215.397 70.5043 215.397 69.7517Z" fill="#333333"/>
<path d="M201.729 77.5024H208.62L205.174 81.6376L201.729 77.5024Z" fill="white"/>
</g>
<g filter="url(#filter6_d_69_13026)">
<rect x="201.826" y="289.734" width="34.2703" height="15.2028" rx="2.75678" fill="white"/>
<path d="M208.506 296.334H208.399L209.722 294.391H208.639L206.803 297.145C206.579 297.468 206.455 297.864 206.455 298.311C206.455 299.477 207.299 300.288 208.506 300.288C209.706 300.288 210.549 299.477 210.549 298.311C210.549 297.145 209.706 296.334 208.506 296.334ZM208.506 299.386C207.87 299.386 207.406 298.973 207.406 298.311C207.406 297.649 207.87 297.236 208.506 297.236C209.135 297.236 209.598 297.649 209.598 298.311C209.598 298.964 209.135 299.386 208.506 299.386ZM215.535 300.288C216.801 300.288 217.727 299.51 217.727 298.261V294.391H216.776V298.204C216.776 298.882 216.387 299.361 215.535 299.361C214.684 299.361 214.295 298.882 214.295 298.204V294.391H213.344V298.261C213.344 299.51 214.262 300.288 215.535 300.288ZM220.938 295.937C220.376 295.937 219.929 296.144 219.656 296.574V296.045H218.763V300.18H219.656V297.964C219.656 297.12 220.119 296.773 220.707 296.773C221.269 296.773 221.633 297.104 221.633 297.732V300.18H222.526V297.641C222.526 296.566 221.865 295.937 220.938 295.937ZM223.935 295.425C224.249 295.425 224.505 295.16 224.505 294.854C224.505 294.54 224.249 294.283 223.935 294.283C223.62 294.283 223.364 294.54 223.364 294.854C223.364 295.16 223.62 295.425 223.935 295.425ZM223.488 300.18H224.381V296.045H223.488V300.18ZM227.726 296.905V296.045H226.7V294.887L225.807 295.152V296.045H225.046V296.905H225.807V298.89C225.807 299.965 226.353 300.346 227.726 300.18V299.378C227.047 299.411 226.7 299.419 226.7 298.89V296.905H227.726ZM229.184 297.186C229.184 296.889 229.466 296.748 229.788 296.748C230.127 296.748 230.417 296.897 230.566 297.219L231.318 296.798C231.029 296.252 230.466 295.937 229.788 295.937C228.945 295.937 228.275 296.425 228.275 297.203C228.275 298.683 230.499 298.27 230.499 299.006C230.499 299.337 230.193 299.469 229.797 299.469C229.342 299.469 229.011 299.246 228.878 298.873L228.109 299.32C228.374 299.916 228.969 300.288 229.797 300.288C230.69 300.288 231.409 299.841 231.409 299.014C231.409 297.484 229.184 297.939 229.184 297.186Z" fill="#333333"/>
<path d="M215.516 304.937H222.408L218.962 309.072L215.516 304.937Z" fill="white"/>
</g>
<g filter="url(#filter7_d_69_13026)">
<rect x="217.68" y="95.3813" width="34.2703" height="15.2028" rx="2.75678" fill="white"/>
<path d="M224.36 101.981H224.252L225.576 100.038H224.492L222.656 102.792C222.433 103.114 222.309 103.511 222.309 103.958C222.309 105.124 223.152 105.935 224.36 105.935C225.559 105.935 226.403 105.124 226.403 103.958C226.403 102.792 225.559 101.981 224.36 101.981ZM224.36 105.033C223.723 105.033 223.26 104.62 223.26 103.958C223.26 103.296 223.723 102.883 224.36 102.883C224.988 102.883 225.452 103.296 225.452 103.958C225.452 104.611 224.988 105.033 224.36 105.033ZM231.389 105.935C232.654 105.935 233.581 105.157 233.581 103.908V100.038H232.63V103.851C232.63 104.529 232.241 105.008 231.389 105.008C230.537 105.008 230.148 104.529 230.148 103.851V100.038H229.197V103.908C229.197 105.157 230.115 105.935 231.389 105.935ZM236.792 101.584C236.229 101.584 235.783 101.791 235.51 102.221V101.692H234.617V105.827H235.51V103.611C235.51 102.767 235.973 102.42 236.56 102.42C237.123 102.42 237.486 102.751 237.486 103.379V105.827H238.38V103.288C238.38 102.213 237.718 101.584 236.792 101.584ZM239.788 101.072C240.102 101.072 240.359 100.807 240.359 100.501C240.359 100.187 240.102 99.9304 239.788 99.9304C239.474 99.9304 239.217 100.187 239.217 100.501C239.217 100.807 239.474 101.072 239.788 101.072ZM239.341 105.827H240.235V101.692H239.341V105.827ZM243.579 102.552V101.692H242.554V100.534L241.66 100.799V101.692H240.9V102.552H241.66V104.537C241.66 105.612 242.206 105.993 243.579 105.827V105.025C242.901 105.058 242.554 105.066 242.554 104.537V102.552H243.579ZM245.038 102.833C245.038 102.536 245.319 102.395 245.642 102.395C245.981 102.395 246.27 102.544 246.419 102.866L247.172 102.445C246.882 101.899 246.32 101.584 245.642 101.584C244.798 101.584 244.128 102.072 244.128 102.85C244.128 104.33 246.353 103.917 246.353 104.653C246.353 104.984 246.047 105.116 245.65 105.116C245.195 105.116 244.864 104.893 244.732 104.52L243.963 104.967C244.228 105.562 244.823 105.935 245.65 105.935C246.543 105.935 247.263 105.488 247.263 104.661C247.263 103.131 245.038 103.586 245.038 102.833Z" fill="#333333"/>
<path d="M231.369 110.584H238.261L234.815 114.719L231.369 110.584Z" fill="white"/>
</g>
<g filter="url(#filter8_d_69_13026)">
<rect x="108.785" y="71.9482" width="34.2703" height="15.2028" rx="2.75678" fill="white"/>
<path d="M116.641 79.3836C117.038 79.1273 117.303 78.7137 117.303 78.1596C117.303 77.0431 116.426 76.4973 115.467 76.4973C114.499 76.4973 113.631 77.0431 113.631 78.1596C113.631 78.7137 113.895 79.1273 114.284 79.3836C113.755 79.6814 113.432 80.1859 113.432 80.7896C113.432 81.8647 114.259 82.5016 115.467 82.5016C116.674 82.5016 117.493 81.8647 117.493 80.7896C117.493 80.1776 117.179 79.6814 116.641 79.3836ZM115.467 77.3988C115.947 77.3988 116.352 77.6634 116.352 78.201C116.352 78.7137 115.947 79.0032 115.467 79.0032C114.979 79.0032 114.582 78.7137 114.582 78.201C114.582 77.6634 114.979 77.3988 115.467 77.3988ZM115.467 81.6001C114.838 81.6001 114.383 81.2858 114.383 80.6986C114.383 80.1032 114.838 79.7972 115.467 79.7972C116.087 79.7972 116.542 80.1032 116.542 80.6986C116.542 81.2858 116.087 81.6001 115.467 81.6001ZM122.559 82.5016C123.824 82.5016 124.751 81.7241 124.751 80.4753V76.6048H123.8V80.4174C123.8 81.0956 123.411 81.5753 122.559 81.5753C121.707 81.5753 121.319 81.0956 121.319 80.4174V76.6048H120.367V80.4753C120.367 81.7241 121.285 82.5016 122.559 82.5016ZM127.962 78.1514C127.399 78.1514 126.953 78.3581 126.68 78.7882V78.2589H125.787V82.394H126.68V80.1776C126.68 79.334 127.143 78.9867 127.73 78.9867C128.293 78.9867 128.657 79.3175 128.657 79.946V82.394H129.55V79.855C129.55 78.7799 128.888 78.1514 127.962 78.1514ZM130.958 77.6386C131.272 77.6386 131.529 77.3739 131.529 77.0679C131.529 76.7537 131.272 76.4973 130.958 76.4973C130.644 76.4973 130.387 76.7537 130.387 77.0679C130.387 77.3739 130.644 77.6386 130.958 77.6386ZM130.512 82.394H131.405V78.2589H130.512V82.394ZM134.749 79.119V78.2589H133.724V77.101L132.831 77.3657V78.2589H132.07V79.119H132.831V81.1039C132.831 82.179 133.376 82.5594 134.749 82.394V81.5918C134.071 81.6249 133.724 81.6332 133.724 81.1039V79.119H134.749ZM136.208 79.4002C136.208 79.1024 136.489 78.9619 136.812 78.9619C137.151 78.9619 137.44 79.1107 137.589 79.4333L138.342 79.0115C138.052 78.4656 137.49 78.1514 136.812 78.1514C135.968 78.1514 135.298 78.6393 135.298 79.4167C135.298 80.8971 137.523 80.4836 137.523 81.2197C137.523 81.5505 137.217 81.6828 136.82 81.6828C136.365 81.6828 136.034 81.4595 135.902 81.0873L135.133 81.5339C135.398 82.1294 135.993 82.5016 136.82 82.5016C137.713 82.5016 138.433 82.055 138.433 81.2279C138.433 79.6979 136.208 80.1528 136.208 79.4002Z" fill="#333333"/>
<path d="M122.475 87.1509H129.367L125.921 91.286L122.475 87.1509Z" fill="white"/>
</g>
<g filter="url(#filter9_d_69_13026)">
<rect x="24.7012" y="55.4072" width="33.2703" height="15.2028" rx="2.75678" fill="white"/>
<path d="M28.9737 60.0638V60.9735H31.6202L29.6188 65.853H30.6195L32.654 60.8908V60.0638H28.9737ZM37.6843 65.9605C38.9497 65.9605 39.876 65.1831 39.876 63.9343V60.0638H38.9249V63.8764C38.9249 64.5546 38.5362 65.0343 37.6843 65.0343C36.8325 65.0343 36.4438 64.5546 36.4438 63.8764V60.0638H35.4927V63.9343C35.4927 65.1831 36.4107 65.9605 37.6843 65.9605ZM43.0871 61.6103C42.5247 61.6103 42.0781 61.8171 41.8052 62.2472V61.7179H40.912V65.853H41.8052V63.6366C41.8052 62.793 42.2684 62.4456 42.8555 62.4456C43.4179 62.4456 43.7818 62.7765 43.7818 63.405V65.853H44.675V63.314C44.675 62.2389 44.0134 61.6103 43.0871 61.6103ZM46.0834 61.0976C46.3976 61.0976 46.654 60.8329 46.654 60.5269C46.654 60.2127 46.3976 59.9563 46.0834 59.9563C45.7691 59.9563 45.5127 60.2127 45.5127 60.5269C45.5127 60.8329 45.7691 61.0976 46.0834 61.0976ZM45.6368 65.853H46.53V61.7179H45.6368V65.853ZM49.8745 62.578V61.7179H48.849V60.56L47.9558 60.8247V61.7179H47.1949V62.578H47.9558V64.5629C47.9558 65.638 48.5016 66.0184 49.8745 65.853V65.0508C49.1963 65.0839 48.849 65.0922 48.849 64.5629V62.578H49.8745ZM51.3334 62.8592C51.3334 62.5614 51.6145 62.4208 51.9371 62.4208C52.2762 62.4208 52.5656 62.5697 52.7145 62.8922L53.4671 62.4705C53.1776 61.9246 52.6153 61.6103 51.9371 61.6103C51.0935 61.6103 50.4236 62.0983 50.4236 62.8757C50.4236 64.3561 52.6483 63.9426 52.6483 64.6786C52.6483 65.0095 52.3423 65.1418 51.9454 65.1418C51.4905 65.1418 51.1597 64.9185 51.0274 64.5463L50.2582 64.9929C50.5229 65.5884 51.1183 65.9605 51.9454 65.9605C52.8386 65.9605 53.5581 65.5139 53.5581 64.6869C53.5581 63.1569 51.3334 63.6118 51.3334 62.8592Z" fill="#333333"/>
<path d="M37.8906 70.6099H44.7826L41.3366 74.745L37.8906 70.6099Z" fill="white"/>
</g>
<g filter="url(#filter10_d_69_13026)">
<rect x="17.1172" y="129.842" width="37.2703" height="15.2028" rx="2.75678" fill="white"/>
<path d="M23.1948 134.498L21.6731 135.036L21.9047 135.846L23.0708 135.516V140.288H24.0219V134.498H23.1948ZM24.8991 140.288H28.7117V139.37H26.3133L27.62 138.063C28.1742 137.5 28.6042 136.897 28.6042 136.177C28.6042 135.028 27.7027 134.391 26.7517 134.391C25.9825 134.391 25.2547 134.771 24.8826 135.565L25.6848 136.037C25.9081 135.574 26.2802 135.317 26.7599 135.317C27.2561 135.317 27.6531 135.631 27.6531 136.21C27.6531 136.649 27.3306 137.07 26.9171 137.484L24.8991 139.543V140.288ZM33.8004 140.395C35.0658 140.395 35.9921 139.618 35.9921 138.369V134.498H35.041V138.311C35.041 138.989 34.6523 139.469 33.8004 139.469C32.9486 139.469 32.5599 138.989 32.5599 138.311V134.498H31.6088V138.369C31.6088 139.618 32.5268 140.395 33.8004 140.395ZM39.2032 136.045C38.6409 136.045 38.1943 136.252 37.9213 136.682V136.152H37.0281V140.288H37.9213V138.071C37.9213 137.228 38.3845 136.88 38.9717 136.88C39.5341 136.88 39.8979 137.211 39.8979 137.84V140.288H40.7911V137.749C40.7911 136.673 40.1295 136.045 39.2032 136.045ZM42.1995 135.532C42.5138 135.532 42.7701 135.268 42.7701 134.961C42.7701 134.647 42.5138 134.391 42.1995 134.391C41.8852 134.391 41.6288 134.647 41.6288 134.961C41.6288 135.268 41.8852 135.532 42.1995 135.532ZM41.7529 140.288H42.6461V136.152H41.7529V140.288ZM45.9906 137.013V136.152H44.9651V134.995L44.0719 135.259V136.152H43.311V137.013H44.0719V138.997C44.0719 140.073 44.6177 140.453 45.9906 140.288V139.485C45.3124 139.518 44.9651 139.527 44.9651 138.997V137.013H45.9906ZM47.4495 137.294C47.4495 136.996 47.7307 136.855 48.0532 136.855C48.3923 136.855 48.6818 137.004 48.8306 137.327L49.5832 136.905C49.2938 136.359 48.7314 136.045 48.0532 136.045C47.2096 136.045 46.5397 136.533 46.5397 137.31C46.5397 138.791 48.7645 138.377 48.7645 139.113C48.7645 139.444 48.4585 139.576 48.0615 139.576C47.6066 139.576 47.2758 139.353 47.1435 138.981L46.3743 139.427C46.639 140.023 47.2344 140.395 48.0615 140.395C48.9547 140.395 49.6742 139.949 49.6742 139.121C49.6742 137.591 47.4495 138.046 47.4495 137.294Z" fill="#333333"/>
<path d="M32.3066 145.044H39.1986L35.7526 149.18L32.3066 145.044Z" fill="white"/>
</g>
<g filter="url(#filter11_d_69_13026)">
<rect x="95.6855" y="137.422" width="34.2703" height="15.2028" rx="2.75678" fill="white"/>
<path d="M103.542 144.858C103.939 144.601 104.203 144.188 104.203 143.634C104.203 142.517 103.327 141.971 102.367 141.971C101.4 141.971 100.531 142.517 100.531 143.634C100.531 144.188 100.796 144.601 101.185 144.858C100.655 145.155 100.333 145.66 100.333 146.264C100.333 147.339 101.16 147.976 102.367 147.976C103.575 147.976 104.393 147.339 104.393 146.264C104.393 145.652 104.079 145.155 103.542 144.858ZM102.367 142.873C102.847 142.873 103.252 143.138 103.252 143.675C103.252 144.188 102.847 144.477 102.367 144.477C101.879 144.477 101.482 144.188 101.482 143.675C101.482 143.138 101.879 142.873 102.367 142.873ZM102.367 147.074C101.739 147.074 101.284 146.76 101.284 146.173C101.284 145.577 101.739 145.271 102.367 145.271C102.988 145.271 103.442 145.577 103.442 146.173C103.442 146.76 102.988 147.074 102.367 147.074ZM109.459 147.976C110.725 147.976 111.651 147.198 111.651 145.949V142.079H110.7V145.892C110.7 146.57 110.311 147.049 109.459 147.049C108.608 147.049 108.219 146.57 108.219 145.892V142.079H107.268V145.949C107.268 147.198 108.186 147.976 109.459 147.976ZM114.862 143.625C114.3 143.625 113.853 143.832 113.58 144.262V143.733H112.687V147.868H113.58V145.652C113.58 144.808 114.043 144.461 114.631 144.461C115.193 144.461 115.557 144.792 115.557 145.42V147.868H116.45V145.329C116.45 144.254 115.789 143.625 114.862 143.625ZM117.859 143.113C118.173 143.113 118.429 142.848 118.429 142.542C118.429 142.228 118.173 141.971 117.859 141.971C117.544 141.971 117.288 142.228 117.288 142.542C117.288 142.848 117.544 143.113 117.859 143.113ZM117.412 147.868H118.305V143.733H117.412V147.868ZM121.65 144.593V143.733H120.624V142.575L119.731 142.84V143.733H118.97V144.593H119.731V146.578C119.731 147.653 120.277 148.034 121.65 147.868V147.066C120.971 147.099 120.624 147.107 120.624 146.578V144.593H121.65ZM123.108 144.874C123.108 144.577 123.39 144.436 123.712 144.436C124.051 144.436 124.341 144.585 124.49 144.907L125.242 144.486C124.953 143.94 124.39 143.625 123.712 143.625C122.869 143.625 122.199 144.113 122.199 144.891C122.199 146.371 124.423 145.958 124.423 146.694C124.423 147.025 124.117 147.157 123.72 147.157C123.266 147.157 122.935 146.934 122.802 146.561L122.033 147.008C122.298 147.604 122.893 147.976 123.72 147.976C124.614 147.976 125.333 147.529 125.333 146.702C125.333 145.172 123.108 145.627 123.108 144.874Z" fill="#333333"/>
<path d="M109.375 152.625H116.267L112.821 156.76L109.375 152.625Z" fill="white"/>
</g>
<g filter="url(#filter12_d_69_13026)">
<rect x="199.07" y="139.491" width="34.2703" height="15.2028" rx="2.75678" fill="white"/>
<path d="M205.767 146.331H205.039L205.138 145.04H207.487V144.147H204.262L204.039 147.257H205.726C206.354 147.257 206.784 147.604 206.784 148.183C206.784 148.762 206.354 149.118 205.709 149.118C205.105 149.118 204.708 148.845 204.56 148.332L203.741 148.803C204.047 149.639 204.832 150.044 205.709 150.044C206.776 150.044 207.735 149.399 207.735 148.183C207.735 146.976 206.817 146.331 205.767 146.331ZM212.78 150.044C214.045 150.044 214.971 149.267 214.971 148.018V144.147H214.02V147.96C214.02 148.638 213.631 149.118 212.78 149.118C211.928 149.118 211.539 148.638 211.539 147.96V144.147H210.588V148.018C210.588 149.267 211.506 150.044 212.78 150.044ZM218.182 145.694C217.62 145.694 217.173 145.901 216.9 146.331V145.801H216.007V149.937H216.9V147.72C216.9 146.876 217.364 146.529 217.951 146.529C218.513 146.529 218.877 146.86 218.877 147.489V149.937H219.77V147.398C219.77 146.322 219.109 145.694 218.182 145.694ZM221.179 145.181C221.493 145.181 221.749 144.916 221.749 144.61C221.749 144.296 221.493 144.04 221.179 144.04C220.864 144.04 220.608 144.296 220.608 144.61C220.608 144.916 220.864 145.181 221.179 145.181ZM220.732 149.937H221.625V145.801H220.732V149.937ZM224.97 146.661V145.801H223.944V144.644L223.051 144.908V145.801H222.29V146.661H223.051V148.646C223.051 149.721 223.597 150.102 224.97 149.937V149.134C224.292 149.167 223.944 149.176 223.944 148.646V146.661H224.97ZM226.429 146.943C226.429 146.645 226.71 146.504 227.032 146.504C227.371 146.504 227.661 146.653 227.81 146.976L228.562 146.554C228.273 146.008 227.711 145.694 227.032 145.694C226.189 145.694 225.519 146.182 225.519 146.959C225.519 148.44 227.744 148.026 227.744 148.762C227.744 149.093 227.438 149.225 227.041 149.225C226.586 149.225 226.255 149.002 226.123 148.63L225.353 149.076C225.618 149.672 226.214 150.044 227.041 150.044C227.934 150.044 228.653 149.597 228.653 148.77C228.653 147.24 226.429 147.695 226.429 146.943Z" fill="#333333"/>
<path d="M212.76 154.693H219.652L216.206 158.829L212.76 154.693Z" fill="white"/>
</g>
<g filter="url(#filter13_d_69_13026)">
<rect x="151.512" y="158.787" width="34.2703" height="15.2028" rx="2.75678" fill="white"/>
<path d="M156.255 169.232H160.068V168.314H157.669L158.976 167.008C159.53 166.445 159.96 165.842 159.96 165.122C159.96 163.972 159.059 163.336 158.108 163.336C157.338 163.336 156.611 163.716 156.239 164.51L157.041 164.981C157.264 164.518 157.636 164.262 158.116 164.262C158.612 164.262 159.009 164.576 159.009 165.155C159.009 165.593 158.687 166.015 158.273 166.429L156.255 168.488V169.232ZM165.156 169.34C166.422 169.34 167.348 168.563 167.348 167.314V163.443H166.397V167.256C166.397 167.934 166.008 168.414 165.156 168.414C164.305 168.414 163.916 167.934 163.916 167.256V163.443H162.965V167.314C162.965 168.563 163.883 169.34 165.156 169.34ZM170.559 164.99C169.997 164.99 169.55 165.196 169.277 165.627V165.097H168.384V169.232H169.277V167.016C169.277 166.172 169.74 165.825 170.328 165.825C170.89 165.825 171.254 166.156 171.254 166.784V169.232H172.147V166.693C172.147 165.618 171.485 164.99 170.559 164.99ZM173.555 164.477C173.87 164.477 174.126 164.212 174.126 163.906C174.126 163.592 173.87 163.336 173.555 163.336C173.241 163.336 172.985 163.592 172.985 163.906C172.985 164.212 173.241 164.477 173.555 164.477ZM173.109 169.232H174.002V165.097H173.109V169.232ZM177.347 165.957V165.097H176.321V163.939L175.428 164.204V165.097H174.667V165.957H175.428V167.942C175.428 169.017 175.974 169.398 177.347 169.232V168.43C176.668 168.463 176.321 168.472 176.321 167.942V165.957H177.347ZM178.805 166.239C178.805 165.941 179.087 165.8 179.409 165.8C179.748 165.8 180.038 165.949 180.187 166.272L180.939 165.85C180.65 165.304 180.087 164.99 179.409 164.99C178.566 164.99 177.896 165.478 177.896 166.255C177.896 167.735 180.12 167.322 180.12 168.058C180.12 168.389 179.814 168.521 179.417 168.521C178.963 168.521 178.632 168.298 178.499 167.926L177.73 168.372C177.995 168.968 178.59 169.34 179.417 169.34C180.311 169.34 181.03 168.893 181.03 168.066C181.03 166.536 178.805 166.991 178.805 166.239Z" fill="#333333"/>
<path d="M165.201 173.989H172.093L168.647 178.124L165.201 173.989Z" fill="white"/>
</g>
<g filter="url(#filter14_d_69_13026)">
<rect x="222.498" y="207.032" width="33.2703" height="15.2028" rx="2.75678" fill="white"/>
<path d="M231.193 215.89C231.193 214.79 230.35 214.475 229.564 214.178V212.54C229.903 212.615 230.151 212.821 230.3 213.194L231.102 212.73C230.805 212.052 230.234 211.688 229.564 211.597V210.861H229.026V211.589C228.166 211.672 227.414 212.234 227.414 213.21C227.414 214.269 228.224 214.624 229.026 214.922V216.642C228.489 216.584 228.15 216.295 227.968 215.832L227.149 216.303C227.439 217.056 228.108 217.519 229.026 217.577V218.305H229.564V217.569C230.507 217.453 231.193 216.849 231.193 215.89ZM228.365 213.21C228.365 212.838 228.621 212.59 229.026 212.524V213.963C228.563 213.748 228.365 213.557 228.365 213.21ZM229.564 216.634V215.129C229.986 215.319 230.242 215.509 230.242 215.898C230.242 216.254 230.019 216.543 229.564 216.634ZM231.696 217.478H235.509V216.56H233.111L234.417 215.253C234.971 214.69 235.401 214.087 235.401 213.367C235.401 212.218 234.5 211.581 233.549 211.581C232.78 211.581 232.052 211.961 231.68 212.755L232.482 213.227C232.705 212.763 233.077 212.507 233.557 212.507C234.053 212.507 234.45 212.821 234.45 213.4C234.45 213.839 234.128 214.26 233.714 214.674L231.696 216.733V217.478ZM238.342 217.585C239.797 217.585 240.616 216.369 240.616 214.583C240.616 212.797 239.797 211.581 238.342 211.581C236.886 211.581 236.067 212.797 236.067 214.583C236.067 216.369 236.886 217.585 238.342 217.585ZM238.342 216.659C237.49 216.659 237.019 215.914 237.019 214.583C237.019 213.251 237.49 212.507 238.342 212.507C239.202 212.507 239.665 213.251 239.665 214.583C239.665 215.914 239.202 216.659 238.342 216.659ZM243.551 217.585C245.007 217.585 245.825 216.369 245.825 214.583C245.825 212.797 245.007 211.581 243.551 211.581C242.096 211.581 241.277 212.797 241.277 214.583C241.277 216.369 242.096 217.585 243.551 217.585ZM243.551 216.659C242.699 216.659 242.228 215.914 242.228 214.583C242.228 213.251 242.699 212.507 243.551 212.507C244.411 212.507 244.874 213.251 244.874 214.583C244.874 215.914 244.411 216.659 243.551 216.659ZM248.76 217.585C250.216 217.585 251.035 216.369 251.035 214.583C251.035 212.797 250.216 211.581 248.76 211.581C247.305 211.581 246.486 212.797 246.486 214.583C246.486 216.369 247.305 217.585 248.76 217.585ZM248.76 216.659C247.909 216.659 247.437 215.914 247.437 214.583C247.437 213.251 247.909 212.507 248.76 212.507C249.621 212.507 250.084 213.251 250.084 214.583C250.084 215.914 249.621 216.659 248.76 216.659Z" fill="#333333"/>
<path d="M235.688 222.234H242.579L239.133 226.37L235.688 222.234Z" fill="white"/>
</g>
<g filter="url(#filter15_d_69_13026)">
<rect x="148.756" y="215.301" width="33.2703" height="15.2028" rx="2.75678" fill="white"/>
<path d="M153.028 219.958V220.868H155.675L153.673 225.747H154.674L156.709 220.785V219.958H153.028ZM161.739 225.855C163.004 225.855 163.931 225.077 163.931 223.828V219.958H162.98V223.77C162.98 224.449 162.591 224.928 161.739 224.928C160.887 224.928 160.498 224.449 160.498 223.77V219.958H159.547V223.828C159.547 225.077 160.465 225.855 161.739 225.855ZM167.142 221.504C166.579 221.504 166.133 221.711 165.86 222.141V221.612H164.967V225.747H165.86V223.531C165.86 222.687 166.323 222.34 166.91 222.34C167.473 222.34 167.837 222.671 167.837 223.299V225.747H168.73V223.208C168.73 222.133 168.068 221.504 167.142 221.504ZM170.138 220.992C170.452 220.992 170.709 220.727 170.709 220.421C170.709 220.107 170.452 219.85 170.138 219.85C169.824 219.85 169.567 220.107 169.567 220.421C169.567 220.727 169.824 220.992 170.138 220.992ZM169.691 225.747H170.585V221.612H169.691V225.747ZM173.929 222.472V221.612H172.904V220.454L172.01 220.719V221.612H171.25V222.472H172.01V224.457C172.01 225.532 172.556 225.912 173.929 225.747V224.945C173.251 224.978 172.904 224.986 172.904 224.457V222.472H173.929ZM175.388 222.753C175.388 222.455 175.669 222.315 175.992 222.315C176.331 222.315 176.62 222.464 176.769 222.786L177.522 222.365C177.232 221.819 176.67 221.504 175.992 221.504C175.148 221.504 174.478 221.992 174.478 222.77C174.478 224.25 176.703 223.837 176.703 224.573C176.703 224.903 176.397 225.036 176 225.036C175.545 225.036 175.214 224.813 175.082 224.44L174.313 224.887C174.578 225.482 175.173 225.855 176 225.855C176.893 225.855 177.613 225.408 177.613 224.581C177.613 223.051 175.388 223.506 175.388 222.753Z" fill="#333333"/>
<path d="M161.945 230.504H168.837L165.391 234.639L161.945 230.504Z" fill="white"/>
</g>
<g filter="url(#filter16_d_69_13026)">
<rect x="13.6738" y="158.787" width="34.2703" height="15.2028" rx="2.75678" fill="white"/>
<path d="M22.3968 165.312C22.3968 164.146 21.5532 163.336 20.354 163.336C19.1548 163.336 18.3029 164.146 18.3029 165.312C18.3029 166.478 19.1548 167.289 20.354 167.289H20.4532L19.13 169.232H20.2217L22.0494 166.478C22.2727 166.156 22.3968 165.759 22.3968 165.312ZM19.254 165.312C19.254 164.651 19.7254 164.237 20.354 164.237C20.9825 164.237 21.4457 164.651 21.4457 165.312C21.4457 165.974 20.9825 166.387 20.354 166.387C19.7254 166.387 19.254 165.966 19.254 165.312ZM27.3831 169.34C28.6485 169.34 29.5748 168.563 29.5748 167.314V163.443H28.6237V167.256C28.6237 167.934 28.235 168.414 27.3831 168.414C26.5313 168.414 26.1426 167.934 26.1426 167.256V163.443H25.1915V167.314C25.1915 168.563 26.1095 169.34 27.3831 169.34ZM32.7859 164.99C32.2235 164.99 31.7769 165.196 31.504 165.627V165.097H30.6108V169.232H31.504V167.016C31.504 166.172 31.9672 165.825 32.5543 165.825C33.1167 165.825 33.4806 166.156 33.4806 166.784V169.232H34.3738V166.693C34.3738 165.618 33.7122 164.99 32.7859 164.99ZM35.7822 164.477C36.0964 164.477 36.3528 164.212 36.3528 163.906C36.3528 163.592 36.0964 163.336 35.7822 163.336C35.4679 163.336 35.2115 163.592 35.2115 163.906C35.2115 164.212 35.4679 164.477 35.7822 164.477ZM35.3356 169.232H36.2288V165.097H35.3356V169.232ZM39.5733 165.957V165.097H38.5478V163.939L37.6546 164.204V165.097H36.8937V165.957H37.6546V167.942C37.6546 169.017 38.2004 169.398 39.5733 169.232V168.43C38.8951 168.463 38.5478 168.472 38.5478 167.942V165.957H39.5733ZM41.0322 166.239C41.0322 165.941 41.3133 165.8 41.6359 165.8C41.975 165.8 42.2644 165.949 42.4133 166.272L43.1659 165.85C42.8764 165.304 42.3141 164.99 41.6359 164.99C40.7923 164.99 40.1224 165.478 40.1224 166.255C40.1224 167.735 42.3471 167.322 42.3471 168.058C42.3471 168.389 42.0411 168.521 41.6442 168.521C41.1893 168.521 40.8585 168.298 40.7262 167.926L39.957 168.372C40.2217 168.968 40.8171 169.34 41.6442 169.34C42.5374 169.34 43.2569 168.893 43.2569 168.066C43.2569 166.536 41.0322 166.991 41.0322 166.239Z" fill="#333333"/>
<path d="M27.3633 173.989H34.2552L30.8093 178.124L27.3633 173.989Z" fill="white"/>
</g>
<g filter="url(#filter17_d_69_13026)">
<rect x="12.9844" y="217.369" width="34.2703" height="15.2028" rx="2.75678" fill="white"/>
<path d="M20.1892 224.391L21.3636 222.836V222.025H17.8074V222.918H20.2306L18.9817 224.564L19.3622 225.135H19.5772C20.2306 225.135 20.6523 225.482 20.6523 226.061C20.6523 226.64 20.2306 226.996 19.5772 226.996C18.9983 226.996 18.6096 226.739 18.4442 226.251L17.6337 226.723C17.9562 227.533 18.7254 227.922 19.5772 227.922C20.6441 227.922 21.6034 227.277 21.6034 226.061C21.6034 225.16 20.9832 224.581 20.1892 224.391ZM26.6735 227.922C27.9388 227.922 28.8651 227.145 28.8651 225.896V222.025H27.914V225.838C27.914 226.516 27.5253 226.996 26.6735 226.996C25.8216 226.996 25.4329 226.516 25.4329 225.838V222.025H24.4818V225.896C24.4818 227.145 25.3998 227.922 26.6735 227.922ZM32.0763 223.572C31.5139 223.572 31.0673 223.779 30.7944 224.209V223.679H29.9012V227.814H30.7944V225.598C30.7944 224.754 31.2575 224.407 31.8447 224.407C32.4071 224.407 32.771 224.738 32.771 225.366V227.814H33.6642V225.275C33.6642 224.2 33.0026 223.572 32.0763 223.572ZM35.0725 223.059C35.3868 223.059 35.6432 222.794 35.6432 222.488C35.6432 222.174 35.3868 221.918 35.0725 221.918C34.7583 221.918 34.5019 222.174 34.5019 222.488C34.5019 222.794 34.7583 223.059 35.0725 223.059ZM34.6259 227.814H35.5191V223.679H34.6259V227.814ZM38.8636 224.539V223.679H37.8381V222.521L36.9449 222.786V223.679H36.184V224.539H36.9449V226.524C36.9449 227.599 37.4908 227.98 38.8636 227.814V227.012C38.1855 227.045 37.8381 227.054 37.8381 226.524V224.539H38.8636ZM40.3225 224.821C40.3225 224.523 40.6037 224.382 40.9262 224.382C41.2653 224.382 41.5548 224.531 41.7037 224.854L42.4563 224.432C42.1668 223.886 41.6044 223.572 40.9262 223.572C40.0827 223.572 39.4128 224.06 39.4128 224.837C39.4128 226.318 41.6375 225.904 41.6375 226.64C41.6375 226.971 41.3315 227.103 40.9345 227.103C40.4796 227.103 40.1488 226.88 40.0165 226.508L39.2474 226.954C39.512 227.55 40.1075 227.922 40.9345 227.922C41.8277 227.922 42.5472 227.475 42.5472 226.648C42.5472 225.118 40.3225 225.573 40.3225 224.821Z" fill="#333333"/>
<path d="M26.6738 232.571H33.5658L30.1198 236.706L26.6738 232.571Z" fill="white"/>
</g>
<g filter="url(#filter18_d_69_13026)">
<rect x="68.123" y="184.288" width="34.2703" height="15.2028" rx="2.75678" fill="white"/>
<path d="M74.8032 190.888H74.6957L76.0189 188.944H74.9355L73.0995 191.698C72.8762 192.021 72.7522 192.418 72.7522 192.864C72.7522 194.03 73.5957 194.841 74.8032 194.841C76.0024 194.841 76.846 194.03 76.846 192.864C76.846 191.698 76.0024 190.888 74.8032 190.888ZM74.8032 193.939C74.1664 193.939 73.7032 193.526 73.7032 192.864C73.7032 192.203 74.1664 191.789 74.8032 191.789C75.4317 191.789 75.8949 192.203 75.8949 192.864C75.8949 193.518 75.4317 193.939 74.8032 193.939ZM81.8323 194.841C83.0977 194.841 84.024 194.064 84.024 192.815V188.944H83.0729V192.757C83.0729 193.435 82.6842 193.915 81.8323 193.915C80.9805 193.915 80.5918 193.435 80.5918 192.757V188.944H79.6407V192.815C79.6407 194.064 80.5587 194.841 81.8323 194.841ZM87.2351 190.491C86.6728 190.491 86.2262 190.697 85.9532 191.128V190.598H85.06V194.733H85.9532V192.517C85.9532 191.673 86.4164 191.326 87.0036 191.326C87.5659 191.326 87.9298 191.657 87.9298 192.285V194.733H88.823V192.194C88.823 191.119 88.1614 190.491 87.2351 190.491ZM90.2314 189.978C90.5457 189.978 90.802 189.713 90.802 189.407C90.802 189.093 90.5457 188.837 90.2314 188.837C89.9171 188.837 89.6607 189.093 89.6607 189.407C89.6607 189.713 89.9171 189.978 90.2314 189.978ZM89.7848 194.733H90.678V190.598H89.7848V194.733ZM94.0225 191.458V190.598H92.997V189.44L92.1038 189.705V190.598H91.3429V191.458H92.1038V193.443C92.1038 194.518 92.6496 194.899 94.0225 194.733V193.931C93.3443 193.964 92.997 193.973 92.997 193.443V191.458H94.0225ZM95.4814 191.74C95.4814 191.442 95.7626 191.301 96.0851 191.301C96.4242 191.301 96.7137 191.45 96.8625 191.773L97.6151 191.351C97.3257 190.805 96.7633 190.491 96.0851 190.491C95.2415 190.491 94.5716 190.979 94.5716 191.756C94.5716 193.236 96.7964 192.823 96.7964 193.559C96.7964 193.89 96.4904 194.022 96.0934 194.022C95.6385 194.022 95.3077 193.799 95.1754 193.427L94.4062 193.873C94.6709 194.469 95.2663 194.841 96.0934 194.841C96.9866 194.841 97.7061 194.394 97.7061 193.567C97.7061 192.037 95.4814 192.492 95.4814 191.74Z" fill="#333333"/>
<path d="M81.8125 199.49H88.7045L85.2585 203.625L81.8125 199.49Z" fill="white"/>
</g>
<g filter="url(#filter19_d_69_13026)">
<rect x="86.043" y="231.841" width="34.2703" height="15.2028" rx="2.75678" fill="white"/>
<path d="M93.8991 239.276C94.296 239.02 94.5607 238.606 94.5607 238.052C94.5607 236.936 93.684 236.39 92.7247 236.39C91.757 236.39 90.8887 236.936 90.8887 238.052C90.8887 238.606 91.1533 239.02 91.542 239.276C91.0127 239.574 90.6902 240.078 90.6902 240.682C90.6902 241.757 91.5172 242.394 92.7247 242.394C93.9321 242.394 94.7509 241.757 94.7509 240.682C94.7509 240.07 94.4366 239.574 93.8991 239.276ZM92.7247 237.291C93.2044 237.291 93.6096 237.556 93.6096 238.094C93.6096 238.606 93.2044 238.896 92.7247 238.896C92.2367 238.896 91.8397 238.606 91.8397 238.094C91.8397 237.556 92.2367 237.291 92.7247 237.291ZM92.7247 241.493C92.0961 241.493 91.6413 241.178 91.6413 240.591C91.6413 239.996 92.0961 239.69 92.7247 239.69C93.3449 239.69 93.7998 239.996 93.7998 240.591C93.7998 241.178 93.3449 241.493 92.7247 241.493ZM99.8169 242.394C101.082 242.394 102.009 241.617 102.009 240.368V236.497H101.057V240.31C101.057 240.988 100.669 241.468 99.8169 241.468C98.965 241.468 98.5763 240.988 98.5763 240.31V236.497H97.6252V240.368C97.6252 241.617 98.5432 242.394 99.8169 242.394ZM105.22 238.044C104.657 238.044 104.211 238.251 103.938 238.681V238.151H103.045V242.287H103.938V240.07C103.938 239.227 104.401 238.879 104.988 238.879C105.55 238.879 105.914 239.21 105.914 239.839V242.287H106.808V239.748C106.808 238.672 106.146 238.044 105.22 238.044ZM108.216 237.531C108.53 237.531 108.787 237.267 108.787 236.961C108.787 236.646 108.53 236.39 108.216 236.39C107.902 236.39 107.645 236.646 107.645 236.961C107.645 237.267 107.902 237.531 108.216 237.531ZM107.769 242.287H108.663V238.151H107.769V242.287ZM112.007 239.012V238.151H110.982V236.994L110.088 237.258V238.151H109.327V239.012H110.088V240.996C110.088 242.072 110.634 242.452 112.007 242.287V241.484C111.329 241.517 110.982 241.526 110.982 240.996V239.012H112.007ZM113.466 239.293C113.466 238.995 113.747 238.854 114.07 238.854C114.409 238.854 114.698 239.003 114.847 239.326L115.6 238.904C115.31 238.358 114.748 238.044 114.07 238.044C113.226 238.044 112.556 238.532 112.556 239.309C112.556 240.79 114.781 240.376 114.781 241.112C114.781 241.443 114.475 241.575 114.078 241.575C113.623 241.575 113.292 241.352 113.16 240.98L112.391 241.427C112.655 242.022 113.251 242.394 114.078 242.394C114.971 242.394 115.691 241.948 115.691 241.121C115.691 239.59 113.466 240.045 113.466 239.293Z" fill="#333333"/>
<path d="M99.7324 247.043H106.624L103.178 251.179L99.7324 247.043Z" fill="white"/>
</g>
<g filter="url(#filter20_d_69_13026)">
<rect x="188.73" y="244.938" width="38.2703" height="15.2028" rx="2.75678" fill="white"/>
<path d="M194.892 249.594L193.37 250.132L193.602 250.942L194.768 250.611V255.383H195.719V249.594H194.892ZM198.945 255.491C200.401 255.491 201.22 254.275 201.22 252.489C201.22 250.702 200.401 249.487 198.945 249.487C197.49 249.487 196.671 250.702 196.671 252.489C196.671 254.275 197.49 255.491 198.945 255.491ZM198.945 254.565C198.093 254.565 197.622 253.82 197.622 252.489C197.622 251.157 198.093 250.413 198.945 250.413C199.805 250.413 200.268 251.157 200.268 252.489C200.268 253.82 199.805 254.565 198.945 254.565ZM206.33 255.491C207.595 255.491 208.521 254.713 208.521 253.465V249.594H207.57V253.407C207.57 254.085 207.182 254.565 206.33 254.565C205.478 254.565 205.089 254.085 205.089 253.407V249.594H204.138V253.465C204.138 254.713 205.056 255.491 206.33 255.491ZM211.732 251.141C211.17 251.141 210.723 251.347 210.451 251.777V251.248H209.557V255.383H210.451V253.167C210.451 252.323 210.914 251.976 211.501 251.976C212.063 251.976 212.427 252.307 212.427 252.935V255.383H213.32V252.844C213.32 251.769 212.659 251.141 211.732 251.141ZM214.729 250.628C215.043 250.628 215.299 250.363 215.299 250.057C215.299 249.743 215.043 249.487 214.729 249.487C214.414 249.487 214.158 249.743 214.158 250.057C214.158 250.363 214.414 250.628 214.729 250.628ZM214.282 255.383H215.175V251.248H214.282V255.383ZM218.52 252.108V251.248H217.494V250.09L216.601 250.355V251.248H215.84V252.108H216.601V254.093C216.601 255.168 217.147 255.549 218.52 255.383V254.581C217.842 254.614 217.494 254.622 217.494 254.093V252.108H218.52ZM219.979 252.389C219.979 252.092 220.26 251.951 220.582 251.951C220.922 251.951 221.211 252.1 221.36 252.423L222.112 252.001C221.823 251.455 221.261 251.141 220.582 251.141C219.739 251.141 219.069 251.629 219.069 252.406C219.069 253.886 221.294 253.473 221.294 254.209C221.294 254.54 220.988 254.672 220.591 254.672C220.136 254.672 219.805 254.449 219.673 254.077L218.904 254.523C219.168 255.119 219.764 255.491 220.591 255.491C221.484 255.491 222.203 255.044 222.203 254.217C222.203 252.687 219.979 253.142 219.979 252.389Z" fill="#333333"/>
<path d="M204.42 260.14H211.312L207.866 264.275L204.42 260.14Z" fill="white"/>
</g>
<g filter="url(#filter21_d_69_13026)">
<rect x="53.6465" y="291.802" width="38.2703" height="15.2028" rx="2.75678" fill="white"/>
<path d="M59.8082 296.459L58.2864 296.996L58.518 297.807L59.6841 297.476V302.248H60.6352V296.459H59.8082ZM63.8612 302.356C65.3168 302.356 66.1356 301.14 66.1356 299.353C66.1356 297.567 65.3168 296.351 63.8612 296.351C62.4057 296.351 61.5869 297.567 61.5869 299.353C61.5869 301.14 62.4057 302.356 63.8612 302.356ZM63.8612 301.429C63.0094 301.429 62.538 300.685 62.538 299.353C62.538 298.022 63.0094 297.278 63.8612 297.278C64.7214 297.278 65.1845 298.022 65.1845 299.353C65.1845 300.685 64.7214 301.429 63.8612 301.429ZM71.2457 302.356C72.511 302.356 73.4373 301.578 73.4373 300.329V296.459H72.4862V300.271C72.4862 300.95 72.0975 301.429 71.2457 301.429C70.3938 301.429 70.0051 300.95 70.0051 300.271V296.459H69.054V300.329C69.054 301.578 69.972 302.356 71.2457 302.356ZM76.6485 298.005C76.0861 298.005 75.6395 298.212 75.3666 298.642V298.113H74.4734V302.248H75.3666V300.032C75.3666 299.188 75.8297 298.841 76.4169 298.841C76.9793 298.841 77.3432 299.171 77.3432 299.8V302.248H78.2364V299.709C78.2364 298.634 77.5748 298.005 76.6485 298.005ZM79.6447 297.493C79.959 297.493 80.2154 297.228 80.2154 296.922C80.2154 296.608 79.959 296.351 79.6447 296.351C79.3305 296.351 79.0741 296.608 79.0741 296.922C79.0741 297.228 79.3305 297.493 79.6447 297.493ZM79.1981 302.248H80.0913V298.113H79.1981V302.248ZM83.4358 298.973V298.113H82.4103V296.955L81.5171 297.22V298.113H80.7562V298.973H81.5171V300.958C81.5171 302.033 82.063 302.413 83.4358 302.248V301.446C82.7577 301.479 82.4103 301.487 82.4103 300.958V298.973H83.4358ZM84.8947 299.254C84.8947 298.956 85.1759 298.816 85.4985 298.816C85.8375 298.816 86.127 298.965 86.2759 299.287L87.0285 298.865C86.739 298.32 86.1766 298.005 85.4985 298.005C84.6549 298.005 83.985 298.493 83.985 299.271C83.985 300.751 86.2097 300.338 86.2097 301.074C86.2097 301.404 85.9037 301.537 85.5067 301.537C85.0519 301.537 84.721 301.313 84.5887 300.941L83.8196 301.388C84.0842 301.983 84.6797 302.356 85.5067 302.356C86.3999 302.356 87.1194 301.909 87.1194 301.082C87.1194 299.552 84.8947 300.007 84.8947 299.254Z" fill="#333333"/>
<path d="M69.3359 307.005H76.2279L72.7819 311.14L69.3359 307.005Z" fill="white"/>
</g>
<defs>
<filter id="filter0_d_69_13026" x="16.4346" y="0.961223" width="38.7831" height="24.8515" filterUnits="userSpaceOnUse" color-interpolation-filters="sRGB">
<feFlood flood-opacity="0" result="BackgroundImageFix"/>
<feColorMatrix in="SourceAlpha" type="matrix" values="0 0 0 0 0 0 0 0 0 0 0 0 0 0 0 0 0 0 127 0" result="hardAlpha"/>
<feOffset dy="0.689195"/>
<feGaussianBlur stdDeviation="1.37839"/>
<feColorMatrix type="matrix" values="0 0 0 0 0.235294 0 0 0 0 0.25098 0 0 0 0 0.262745 0 0 0 0.2 0"/>
<feBlend mode="normal" in2="BackgroundImageFix" result="effect1_dropShadow_69_13026"/>
<feBlend mode="normal" in="SourceGraphic" in2="effect1_dropShadow_69_13026" result="shape"/>
</filter>
<filter id="filter1_d_69_13026" x="116.366" y="19.5701" width="43.7831" height="24.8515" filterUnits="userSpaceOnUse" color-interpolation-filters="sRGB">
<feFlood flood-opacity="0" result="BackgroundImageFix"/>
<feColorMatrix in="SourceAlpha" type="matrix" values="0 0 0 0 0 0 0 0 0 0 0 0 0 0 0 0 0 0 127 0" result="hardAlpha"/>
<feOffset dy="0.689195"/>
<feGaussianBlur stdDeviation="1.37839"/>
<feColorMatrix type="matrix" values="0 0 0 0 0.235294 0 0 0 0 0.25098 0 0 0 0 0.262745 0 0 0 0.2 0"/>
<feBlend mode="normal" in2="BackgroundImageFix" result="effect1_dropShadow_69_13026"/>
<feBlend mode="normal" in="SourceGraphic" in2="effect1_dropShadow_69_13026" result="shape"/>
</filter>
<filter id="filter2_d_69_13026" x="188.044" y="3.71757" width="39.7831" height="24.8515" filterUnits="userSpaceOnUse" color-interpolation-filters="sRGB">
<feFlood flood-opacity="0" result="BackgroundImageFix"/>
<feColorMatrix in="SourceAlpha" type="matrix" values="0 0 0 0 0 0 0 0 0 0 0 0 0 0 0 0 0 0 127 0" result="hardAlpha"/>
<feOffset dy="0.689195"/>
<feGaussianBlur stdDeviation="1.37839"/>
<feColorMatrix type="matrix" values="0 0 0 0 0.235294 0 0 0 0 0.25098 0 0 0 0 0.262745 0 0 0 0.2 0"/>
<feBlend mode="normal" in2="BackgroundImageFix" result="effect1_dropShadow_69_13026"/>
<feBlend mode="normal" in="SourceGraphic" in2="effect1_dropShadow_69_13026" result="shape"/>
</filter>
<filter id="filter3_d_69_13026" x="66.7432" y="94.6912" width="35.7831" height="24.8515" filterUnits="userSpaceOnUse" color-interpolation-filters="sRGB">
<feFlood flood-opacity="0" result="BackgroundImageFix"/>
<feColorMatrix in="SourceAlpha" type="matrix" values="0 0 0 0 0 0 0 0 0 0 0 0 0 0 0 0 0 0 127 0" result="hardAlpha"/>
<feOffset dy="0.689195"/>
<feGaussianBlur stdDeviation="1.37839"/>
<feColorMatrix type="matrix" values="0 0 0 0 0.235294 0 0 0 0 0.25098 0 0 0 0 0.262745 0 0 0 0.2 0"/>
<feBlend mode="normal" in2="BackgroundImageFix" result="effect1_dropShadow_69_13026"/>
<feBlend mode="normal" in="SourceGraphic" in2="effect1_dropShadow_69_13026" result="shape"/>
</filter>
<filter id="filter4_d_69_13026" x="161.165" y="90.5574" width="42.7831" height="24.8515" filterUnits="userSpaceOnUse" color-interpolation-filters="sRGB">
<feFlood flood-opacity="0" result="BackgroundImageFix"/>
<feColorMatrix in="SourceAlpha" type="matrix" values="0 0 0 0 0 0 0 0 0 0 0 0 0 0 0 0 0 0 127 0" result="hardAlpha"/>
<feOffset dy="0.689195"/>
<feGaussianBlur stdDeviation="1.37839"/>
<feColorMatrix type="matrix" values="0 0 0 0 0.235294 0 0 0 0 0.25098 0 0 0 0 0.262745 0 0 0 0.2 0"/>
<feBlend mode="normal" in2="BackgroundImageFix" result="effect1_dropShadow_69_13026"/>
<feBlend mode="normal" in="SourceGraphic" in2="effect1_dropShadow_69_13026" result="shape"/>
</filter>
<filter id="filter5_d_69_13026" x="185.282" y="60.2322" width="39.7831" height="24.8515" filterUnits="userSpaceOnUse" color-interpolation-filters="sRGB">
<feFlood flood-opacity="0" result="BackgroundImageFix"/>
<feColorMatrix in="SourceAlpha" type="matrix" values="0 0 0 0 0 0 0 0 0 0 0 0 0 0 0 0 0 0 127 0" result="hardAlpha"/>
<feOffset dy="0.689195"/>
<feGaussianBlur stdDeviation="1.37839"/>
<feColorMatrix type="matrix" values="0 0 0 0 0.235294 0 0 0 0 0.25098 0 0 0 0 0.262745 0 0 0 0.2 0"/>
<feBlend mode="normal" in2="BackgroundImageFix" result="effect1_dropShadow_69_13026"/>
<feBlend mode="normal" in="SourceGraphic" in2="effect1_dropShadow_69_13026" result="shape"/>
</filter>
<filter id="filter6_d_69_13026" x="199.069" y="287.667" width="39.7831" height="24.8515" filterUnits="userSpaceOnUse" color-interpolation-filters="sRGB">
<feFlood flood-opacity="0" result="BackgroundImageFix"/>
<feColorMatrix in="SourceAlpha" type="matrix" values="0 0 0 0 0 0 0 0 0 0 0 0 0 0 0 0 0 0 127 0" result="hardAlpha"/>
<feOffset dy="0.689195"/>
<feGaussianBlur stdDeviation="1.37839"/>
<feColorMatrix type="matrix" values="0 0 0 0 0.235294 0 0 0 0 0.25098 0 0 0 0 0.262745 0 0 0 0.2 0"/>
<feBlend mode="normal" in2="BackgroundImageFix" result="effect1_dropShadow_69_13026"/>
<feBlend mode="normal" in="SourceGraphic" in2="effect1_dropShadow_69_13026" result="shape"/>
</filter>
<filter id="filter7_d_69_13026" x="214.923" y="93.3138" width="39.7831" height="24.8515" filterUnits="userSpaceOnUse" color-interpolation-filters="sRGB">
<feFlood flood-opacity="0" result="BackgroundImageFix"/>
<feColorMatrix in="SourceAlpha" type="matrix" values="0 0 0 0 0 0 0 0 0 0 0 0 0 0 0 0 0 0 127 0" result="hardAlpha"/>
<feOffset dy="0.689195"/>
<feGaussianBlur stdDeviation="1.37839"/>
<feColorMatrix type="matrix" values="0 0 0 0 0.235294 0 0 0 0 0.25098 0 0 0 0 0.262745 0 0 0 0.2 0"/>
<feBlend mode="normal" in2="BackgroundImageFix" result="effect1_dropShadow_69_13026"/>
<feBlend mode="normal" in="SourceGraphic" in2="effect1_dropShadow_69_13026" result="shape"/>
</filter>
<filter id="filter8_d_69_13026" x="106.028" y="69.8807" width="39.7831" height="24.8515" filterUnits="userSpaceOnUse" color-interpolation-filters="sRGB">
<feFlood flood-opacity="0" result="BackgroundImageFix"/>
<feColorMatrix in="SourceAlpha" type="matrix" values="0 0 0 0 0 0 0 0 0 0 0 0 0 0 0 0 0 0 127 0" result="hardAlpha"/>
<feOffset dy="0.689195"/>
<feGaussianBlur stdDeviation="1.37839"/>
<feColorMatrix type="matrix" values="0 0 0 0 0.235294 0 0 0 0 0.25098 0 0 0 0 0.262745 0 0 0 0.2 0"/>
<feBlend mode="normal" in2="BackgroundImageFix" result="effect1_dropShadow_69_13026"/>
<feBlend mode="normal" in="SourceGraphic" in2="effect1_dropShadow_69_13026" result="shape"/>
</filter>
<filter id="filter9_d_69_13026" x="21.9444" y="53.3396" width="38.7831" height="24.8515" filterUnits="userSpaceOnUse" color-interpolation-filters="sRGB">
<feFlood flood-opacity="0" result="BackgroundImageFix"/>
<feColorMatrix in="SourceAlpha" type="matrix" values="0 0 0 0 0 0 0 0 0 0 0 0 0 0 0 0 0 0 127 0" result="hardAlpha"/>
<feOffset dy="0.689195"/>
<feGaussianBlur stdDeviation="1.37839"/>
<feColorMatrix type="matrix" values="0 0 0 0 0.235294 0 0 0 0 0.25098 0 0 0 0 0.262745 0 0 0 0.2 0"/>
<feBlend mode="normal" in2="BackgroundImageFix" result="effect1_dropShadow_69_13026"/>
<feBlend mode="normal" in="SourceGraphic" in2="effect1_dropShadow_69_13026" result="shape"/>
</filter>
<filter id="filter10_d_69_13026" x="14.3604" y="127.774" width="42.7831" height="24.8515" filterUnits="userSpaceOnUse" color-interpolation-filters="sRGB">
<feFlood flood-opacity="0" result="BackgroundImageFix"/>
<feColorMatrix in="SourceAlpha" type="matrix" values="0 0 0 0 0 0 0 0 0 0 0 0 0 0 0 0 0 0 127 0" result="hardAlpha"/>
<feOffset dy="0.689195"/>
<feGaussianBlur stdDeviation="1.37839"/>
<feColorMatrix type="matrix" values="0 0 0 0 0.235294 0 0 0 0 0.25098 0 0 0 0 0.262745 0 0 0 0.2 0"/>
<feBlend mode="normal" in2="BackgroundImageFix" result="effect1_dropShadow_69_13026"/>
<feBlend mode="normal" in="SourceGraphic" in2="effect1_dropShadow_69_13026" result="shape"/>
</filter>
<filter id="filter11_d_69_13026" x="92.9288" y="135.355" width="39.7831" height="24.8515" filterUnits="userSpaceOnUse" color-interpolation-filters="sRGB">
<feFlood flood-opacity="0" result="BackgroundImageFix"/>
<feColorMatrix in="SourceAlpha" type="matrix" values="0 0 0 0 0 0 0 0 0 0 0 0 0 0 0 0 0 0 127 0" result="hardAlpha"/>
<feOffset dy="0.689195"/>
<feGaussianBlur stdDeviation="1.37839"/>
<feColorMatrix type="matrix" values="0 0 0 0 0.235294 0 0 0 0 0.25098 0 0 0 0 0.262745 0 0 0 0.2 0"/>
<feBlend mode="normal" in2="BackgroundImageFix" result="effect1_dropShadow_69_13026"/>
<feBlend mode="normal" in="SourceGraphic" in2="effect1_dropShadow_69_13026" result="shape"/>
</filter>
<filter id="filter12_d_69_13026" x="196.314" y="137.423" width="39.7831" height="24.8515" filterUnits="userSpaceOnUse" color-interpolation-filters="sRGB">
<feFlood flood-opacity="0" result="BackgroundImageFix"/>
<feColorMatrix in="SourceAlpha" type="matrix" values="0 0 0 0 0 0 0 0 0 0 0 0 0 0 0 0 0 0 127 0" result="hardAlpha"/>
<feOffset dy="0.689195"/>
<feGaussianBlur stdDeviation="1.37839"/>
<feColorMatrix type="matrix" values="0 0 0 0 0.235294 0 0 0 0 0.25098 0 0 0 0 0.262745 0 0 0 0.2 0"/>
<feBlend mode="normal" in2="BackgroundImageFix" result="effect1_dropShadow_69_13026"/>
<feBlend mode="normal" in="SourceGraphic" in2="effect1_dropShadow_69_13026" result="shape"/>
</filter>
<filter id="filter13_d_69_13026" x="148.755" y="156.719" width="39.7831" height="24.8515" filterUnits="userSpaceOnUse" color-interpolation-filters="sRGB">
<feFlood flood-opacity="0" result="BackgroundImageFix"/>
<feColorMatrix in="SourceAlpha" type="matrix" values="0 0 0 0 0 0 0 0 0 0 0 0 0 0 0 0 0 0 127 0" result="hardAlpha"/>
<feOffset dy="0.689195"/>
<feGaussianBlur stdDeviation="1.37839"/>
<feColorMatrix type="matrix" values="0 0 0 0 0.235294 0 0 0 0 0.25098 0 0 0 0 0.262745 0 0 0 0.2 0"/>
<feBlend mode="normal" in2="BackgroundImageFix" result="effect1_dropShadow_69_13026"/>
<feBlend mode="normal" in="SourceGraphic" in2="effect1_dropShadow_69_13026" result="shape"/>
</filter>
<filter id="filter14_d_69_13026" x="219.741" y="204.964" width="38.7831" height="24.8515" filterUnits="userSpaceOnUse" color-interpolation-filters="sRGB">
<feFlood flood-opacity="0" result="BackgroundImageFix"/>
<feColorMatrix in="SourceAlpha" type="matrix" values="0 0 0 0 0 0 0 0 0 0 0 0 0 0 0 0 0 0 127 0" result="hardAlpha"/>
<feOffset dy="0.689195"/>
<feGaussianBlur stdDeviation="1.37839"/>
<feColorMatrix type="matrix" values="0 0 0 0 0.235294 0 0 0 0 0.25098 0 0 0 0 0.262745 0 0 0 0.2 0"/>
<feBlend mode="normal" in2="BackgroundImageFix" result="effect1_dropShadow_69_13026"/>
<feBlend mode="normal" in="SourceGraphic" in2="effect1_dropShadow_69_13026" result="shape"/>
</filter>
<filter id="filter15_d_69_13026" x="145.999" y="213.234" width="38.7831" height="24.8515" filterUnits="userSpaceOnUse" color-interpolation-filters="sRGB">
<feFlood flood-opacity="0" result="BackgroundImageFix"/>
<feColorMatrix in="SourceAlpha" type="matrix" values="0 0 0 0 0 0 0 0 0 0 0 0 0 0 0 0 0 0 127 0" result="hardAlpha"/>
<feOffset dy="0.689195"/>
<feGaussianBlur stdDeviation="1.37839"/>
<feColorMatrix type="matrix" values="0 0 0 0 0.235294 0 0 0 0 0.25098 0 0 0 0 0.262745 0 0 0 0.2 0"/>
<feBlend mode="normal" in2="BackgroundImageFix" result="effect1_dropShadow_69_13026"/>
<feBlend mode="normal" in="SourceGraphic" in2="effect1_dropShadow_69_13026" result="shape"/>
</filter>
<filter id="filter16_d_69_13026" x="10.917" y="156.719" width="39.7831" height="24.8515" filterUnits="userSpaceOnUse" color-interpolation-filters="sRGB">
<feFlood flood-opacity="0" result="BackgroundImageFix"/>
<feColorMatrix in="SourceAlpha" type="matrix" values="0 0 0 0 0 0 0 0 0 0 0 0 0 0 0 0 0 0 127 0" result="hardAlpha"/>
<feOffset dy="0.689195"/>
<feGaussianBlur stdDeviation="1.37839"/>
<feColorMatrix type="matrix" values="0 0 0 0 0.235294 0 0 0 0 0.25098 0 0 0 0 0.262745 0 0 0 0.2 0"/>
<feBlend mode="normal" in2="BackgroundImageFix" result="effect1_dropShadow_69_13026"/>
<feBlend mode="normal" in="SourceGraphic" in2="effect1_dropShadow_69_13026" result="shape"/>
</filter>
<filter id="filter17_d_69_13026" x="10.2276" y="215.301" width="39.7831" height="24.8515" filterUnits="userSpaceOnUse" color-interpolation-filters="sRGB">
<feFlood flood-opacity="0" result="BackgroundImageFix"/>
<feColorMatrix in="SourceAlpha" type="matrix" values="0 0 0 0 0 0 0 0 0 0 0 0 0 0 0 0 0 0 127 0" result="hardAlpha"/>
<feOffset dy="0.689195"/>
<feGaussianBlur stdDeviation="1.37839"/>
<feColorMatrix type="matrix" values="0 0 0 0 0.235294 0 0 0 0 0.25098 0 0 0 0 0.262745 0 0 0 0.2 0"/>
<feBlend mode="normal" in2="BackgroundImageFix" result="effect1_dropShadow_69_13026"/>
<feBlend mode="normal" in="SourceGraphic" in2="effect1_dropShadow_69_13026" result="shape"/>
</filter>
<filter id="filter18_d_69_13026" x="65.3663" y="182.22" width="39.7831" height="24.8515" filterUnits="userSpaceOnUse" color-interpolation-filters="sRGB">
<feFlood flood-opacity="0" result="BackgroundImageFix"/>
<feColorMatrix in="SourceAlpha" type="matrix" values="0 0 0 0 0 0 0 0 0 0 0 0 0 0 0 0 0 0 127 0" result="hardAlpha"/>
<feOffset dy="0.689195"/>
<feGaussianBlur stdDeviation="1.37839"/>
<feColorMatrix type="matrix" values="0 0 0 0 0.235294 0 0 0 0 0.25098 0 0 0 0 0.262745 0 0 0 0.2 0"/>
<feBlend mode="normal" in2="BackgroundImageFix" result="effect1_dropShadow_69_13026"/>
<feBlend mode="normal" in="SourceGraphic" in2="effect1_dropShadow_69_13026" result="shape"/>
</filter>
<filter id="filter19_d_69_13026" x="83.2862" y="229.773" width="39.7831" height="24.8515" filterUnits="userSpaceOnUse" color-interpolation-filters="sRGB">
<feFlood flood-opacity="0" result="BackgroundImageFix"/>
<feColorMatrix in="SourceAlpha" type="matrix" values="0 0 0 0 0 0 0 0 0 0 0 0 0 0 0 0 0 0 127 0" result="hardAlpha"/>
<feOffset dy="0.689195"/>
<feGaussianBlur stdDeviation="1.37839"/>
<feColorMatrix type="matrix" values="0 0 0 0 0.235294 0 0 0 0 0.25098 0 0 0 0 0.262745 0 0 0 0.2 0"/>
<feBlend mode="normal" in2="BackgroundImageFix" result="effect1_dropShadow_69_13026"/>
<feBlend mode="normal" in="SourceGraphic" in2="effect1_dropShadow_69_13026" result="shape"/>
</filter>
<filter id="filter20_d_69_13026" x="185.974" y="242.87" width="43.7831" height="24.8515" filterUnits="userSpaceOnUse" color-interpolation-filters="sRGB">
<feFlood flood-opacity="0" result="BackgroundImageFix"/>
<feColorMatrix in="SourceAlpha" type="matrix" values="0 0 0 0 0 0 0 0 0 0 0 0 0 0 0 0 0 0 127 0" result="hardAlpha"/>
<feOffset dy="0.689195"/>
<feGaussianBlur stdDeviation="1.37839"/>
<feColorMatrix type="matrix" values="0 0 0 0 0.235294 0 0 0 0 0.25098 0 0 0 0 0.262745 0 0 0 0.2 0"/>
<feBlend mode="normal" in2="BackgroundImageFix" result="effect1_dropShadow_69_13026"/>
<feBlend mode="normal" in="SourceGraphic" in2="effect1_dropShadow_69_13026" result="shape"/>
</filter>
<filter id="filter21_d_69_13026" x="50.8897" y="289.735" width="43.7831" height="24.8515" filterUnits="userSpaceOnUse" color-interpolation-filters="sRGB">
<feFlood flood-opacity="0" result="BackgroundImageFix"/>
<feColorMatrix in="SourceAlpha" type="matrix" values="0 0 0 0 0 0 0 0 0 0 0 0 0 0 0 0 0 0 127 0" result="hardAlpha"/>
<feOffset dy="0.689195"/>
<feGaussianBlur stdDeviation="1.37839"/>
<feColorMatrix type="matrix" values="0 0 0 0 0.235294 0 0 0 0 0.25098 0 0 0 0 0.262745 0 0 0 0.2 0"/>
<feBlend mode="normal" in2="BackgroundImageFix" result="effect1_dropShadow_69_13026"/>
<feBlend mode="normal" in="SourceGraphic" in2="effect1_dropShadow_69_13026" result="shape"/>
</filter>
</defs>
</svg>
