<svg width="345" height="585" viewBox="0 0 345 585" fill="none" xmlns="http://www.w3.org/2000/svg">
<g filter="url(#filter0_d_69_12632)">
<rect x="25.5605" y="8.03174" width="45.0174" height="20.263" rx="3.67246" fill="#366CA5"/>
<path d="M31.6 13.9099V15.1218H35.1255L32.4593 21.6221H33.7924L36.5027 15.0116V13.9099H31.6ZM43.2038 21.7653C44.8895 21.7653 46.1234 20.7297 46.1234 19.066V13.9099H44.8565V18.9889C44.8565 19.8923 44.3386 20.5314 43.2038 20.5314C42.0691 20.5314 41.5512 19.8923 41.5512 18.9889V13.9099H40.2842V19.066C40.2842 20.7297 41.5072 21.7653 43.2038 21.7653ZM50.4012 15.9702C49.652 15.9702 49.0571 16.2456 48.6935 16.8185V16.1134H47.5036V21.6221H48.6935V18.6694C48.6935 17.5456 49.3105 17.0829 50.0927 17.0829C50.8419 17.0829 51.3267 17.5236 51.3267 18.3609V21.6221H52.5165V18.2397C52.5165 16.8075 51.6351 15.9702 50.4012 15.9702ZM54.3927 15.2871C54.8113 15.2871 55.1529 14.9345 55.1529 14.5269C55.1529 14.1082 54.8113 13.7667 54.3927 13.7667C53.974 13.7667 53.6325 14.1082 53.6325 14.5269C53.6325 14.9345 53.974 15.2871 54.3927 15.2871ZM53.7977 21.6221H54.9876V16.1134H53.7977V21.6221ZM59.443 17.2592V16.1134H58.0769V14.571L56.887 14.9235V16.1134H55.8734V17.2592H56.887V19.9034C56.887 21.3356 57.6141 21.8424 59.443 21.6221V20.5534C58.5396 20.5975 58.0769 20.6085 58.0769 19.9034V17.2592H59.443ZM61.3865 17.6338C61.3865 17.2372 61.7611 17.0499 62.1907 17.0499C62.6424 17.0499 63.0281 17.2482 63.2264 17.6779L64.2289 17.116C63.8433 16.3888 63.0942 15.9702 62.1907 15.9702C61.067 15.9702 60.1746 16.6202 60.1746 17.6558C60.1746 19.6279 63.1382 19.0771 63.1382 20.0576C63.1382 20.4983 62.7306 20.6746 62.2018 20.6746C61.5958 20.6746 61.1551 20.3771 60.9788 19.8813L59.9542 20.4763C60.3068 21.2695 61.1 21.7653 62.2018 21.7653C63.3916 21.7653 64.3501 21.1704 64.3501 20.0686C64.3501 18.0304 61.3865 18.6364 61.3865 17.6338Z" fill="white"/>
<path d="M43.4785 28.2949H52.6597L48.0691 33.8036L43.4785 28.2949Z" fill="#366CA5"/>
</g>
<g filter="url(#filter1_d_69_12632)">
<rect x="158.688" y="32.8208" width="50.0174" height="20.263" rx="3.67246" fill="white"/>
<path d="M166.413 38.699L164.386 39.4151L164.694 40.4948L166.248 40.0541V46.4111H167.515V38.699H166.413ZM171.812 46.5544C173.752 46.5544 174.842 44.9348 174.842 42.5551C174.842 40.1753 173.752 38.5557 171.812 38.5557C169.873 38.5557 168.783 40.1753 168.783 42.5551C168.783 44.9348 169.873 46.5544 171.812 46.5544ZM171.812 45.3204C170.678 45.3204 170.05 44.3289 170.05 42.5551C170.05 40.7813 170.678 39.7897 171.812 39.7897C172.958 39.7897 173.575 40.7813 173.575 42.5551C173.575 44.3289 172.958 45.3204 171.812 45.3204ZM181.65 46.5544C183.335 46.5544 184.569 45.5187 184.569 43.8551V38.699H183.302V43.778C183.302 44.6814 182.784 45.3204 181.65 45.3204C180.515 45.3204 179.997 44.6814 179.997 43.778V38.699H178.73V43.8551C178.73 45.5187 179.953 46.5544 181.65 46.5544ZM188.847 40.7592C188.098 40.7592 187.503 41.0347 187.139 41.6076V40.9024H185.949V46.4111H187.139V43.4585C187.139 42.3347 187.756 41.872 188.539 41.872C189.288 41.872 189.773 42.3127 189.773 43.15V46.4111H190.962V43.0288C190.962 41.5965 190.081 40.7592 188.847 40.7592ZM192.839 40.0761C193.257 40.0761 193.599 39.7236 193.599 39.3159C193.599 38.8973 193.257 38.5557 192.839 38.5557C192.42 38.5557 192.078 38.8973 192.078 39.3159C192.078 39.7236 192.42 40.0761 192.839 40.0761ZM192.244 46.4111H193.433V40.9024H192.244V46.4111ZM197.889 42.0483V40.9024H196.523V39.36L195.333 39.7126V40.9024H194.319V42.0483H195.333V44.6924C195.333 46.1247 196.06 46.6315 197.889 46.4111V45.3424C196.985 45.3865 196.523 45.3975 196.523 44.6924V42.0483H197.889ZM199.832 42.4228C199.832 42.0262 200.207 41.8389 200.637 41.8389C201.088 41.8389 201.474 42.0372 201.672 42.4669L202.675 41.905C202.289 41.1779 201.54 40.7592 200.637 40.7592C199.513 40.7592 198.62 41.4092 198.62 42.4449C198.62 44.417 201.584 43.8661 201.584 44.8467C201.584 45.2874 201.176 45.4636 200.648 45.4636C200.042 45.4636 199.601 45.1662 199.425 44.6704L198.4 45.2653C198.753 46.0586 199.546 46.5544 200.648 46.5544C201.837 46.5544 202.796 45.9594 202.796 44.8577C202.796 42.8195 199.832 43.4254 199.832 42.4228Z" fill="#333333"/>
<path d="M179.105 53.084H188.287L183.696 58.5927L179.105 53.084Z" fill="white"/>
</g>
<g filter="url(#filter2_d_69_12632)">
<rect x="254.172" y="11.7041" width="46.0174" height="20.263" rx="3.67246" fill="white"/>
<path d="M264.819 21.2841C265.348 20.9426 265.7 20.3917 265.7 19.6535C265.7 18.1662 264.533 17.439 263.255 17.439C261.966 17.439 260.809 18.1662 260.809 19.6535C260.809 20.3917 261.161 20.9426 261.679 21.2841C260.974 21.6807 260.544 22.3528 260.544 23.1571C260.544 24.5893 261.646 25.4377 263.255 25.4377C264.863 25.4377 265.954 24.5893 265.954 23.1571C265.954 22.3418 265.535 21.6807 264.819 21.2841ZM263.255 18.6399C263.894 18.6399 264.433 18.9925 264.433 19.7086C264.433 20.3917 263.894 20.7773 263.255 20.7773C262.605 20.7773 262.076 20.3917 262.076 19.7086C262.076 18.9925 262.605 18.6399 263.255 18.6399ZM263.255 24.2368C262.417 24.2368 261.811 23.8181 261.811 23.0359C261.811 22.2426 262.417 21.835 263.255 21.835C264.081 21.835 264.687 22.2426 264.687 23.0359C264.687 23.8181 264.081 24.2368 263.255 24.2368ZM272.703 25.4377C274.388 25.4377 275.622 24.402 275.622 22.7384V17.5823H274.355V22.6613C274.355 23.5647 273.837 24.2037 272.703 24.2037C271.568 24.2037 271.05 23.5647 271.05 22.6613V17.5823H269.783V22.7384C269.783 24.402 271.006 25.4377 272.703 25.4377ZM279.9 19.6425C279.151 19.6425 278.556 19.918 278.192 20.4909V19.7857H277.002V25.2944H278.192V22.3418C278.192 21.218 278.809 20.7553 279.591 20.7553C280.341 20.7553 280.825 21.196 280.825 22.0333V25.2944H282.015V21.9121C282.015 20.4798 281.134 19.6425 279.9 19.6425ZM283.891 18.9594C284.31 18.9594 284.652 18.6069 284.652 18.1992C284.652 17.7806 284.31 17.439 283.891 17.439C283.473 17.439 283.131 17.7806 283.131 18.1992C283.131 18.6069 283.473 18.9594 283.891 18.9594ZM283.296 25.2944H284.486V19.7857H283.296V25.2944ZM288.942 20.9316V19.7857H287.576V18.2433L286.386 18.5959V19.7857H285.372V20.9316H286.386V23.5757C286.386 25.008 287.113 25.5148 288.942 25.2944V24.2257C288.038 24.2698 287.576 24.2808 287.576 23.5757V20.9316H288.942ZM290.885 21.3061C290.885 20.9095 291.26 20.7222 291.689 20.7222C292.141 20.7222 292.527 20.9205 292.725 21.3502L293.728 20.7883C293.342 20.0612 292.593 19.6425 291.689 19.6425C290.566 19.6425 289.673 20.2925 289.673 21.3282C289.673 23.3003 292.637 22.7494 292.637 23.73C292.637 24.1707 292.229 24.3469 291.7 24.3469C291.094 24.3469 290.654 24.0495 290.477 23.5537L289.453 24.1486C289.805 24.9419 290.599 25.4377 291.7 25.4377C292.89 25.4377 293.849 24.8427 293.849 23.741C293.849 21.7028 290.885 22.3087 290.885 21.3061Z" fill="#3C4043"/>
<path d="M272.59 31.9673H281.771L277.18 37.476L272.59 31.9673Z" fill="white"/>
</g>
<g filter="url(#filter3_d_69_12632)">
<rect x="92.584" y="132.896" width="40.0174" height="20.263" rx="3.67246" fill="white"/>
<path d="M103.914 144.371C103.914 142.905 102.79 142.487 101.744 142.09V139.908C102.195 140.008 102.526 140.283 102.724 140.779L103.793 140.162C103.396 139.258 102.636 138.774 101.744 138.652V137.672H101.028V138.641C99.8817 138.752 98.8791 139.501 98.8791 140.801C98.8791 142.211 99.9588 142.685 101.028 143.081V145.373C100.311 145.296 99.8597 144.91 99.6173 144.293L98.5266 144.921C98.9122 145.924 99.8046 146.541 101.028 146.618V147.588H101.744V146.607C103 146.453 103.914 145.649 103.914 144.371ZM100.146 140.801C100.146 140.305 100.488 139.975 101.028 139.886V141.803C100.411 141.517 100.146 141.264 100.146 140.801ZM101.744 145.362V143.357C102.306 143.61 102.647 143.864 102.647 144.382C102.647 144.855 102.35 145.241 101.744 145.362ZM106.413 138.774L104.386 139.49L104.694 140.57L106.248 140.129V146.486H107.515V138.774H106.413ZM114.071 141.264C114.071 139.71 112.947 138.63 111.35 138.63C109.752 138.63 108.617 139.71 108.617 141.264C108.617 142.817 109.752 143.897 111.35 143.897H111.482L109.719 146.486H111.173L113.608 142.817C113.906 142.387 114.071 141.859 114.071 141.264ZM109.884 141.264C109.884 140.382 110.512 139.831 111.35 139.831C112.187 139.831 112.804 140.382 112.804 141.264C112.804 142.145 112.187 142.696 111.35 142.696C110.512 142.696 109.884 142.134 109.884 141.264ZM117.16 141.682H116.191L116.323 139.964H119.452V138.774H115.155L114.858 142.916H117.105C117.942 142.916 118.515 143.379 118.515 144.15C118.515 144.921 117.942 145.395 117.083 145.395C116.279 145.395 115.75 145.032 115.552 144.348L114.461 144.976C114.869 146.089 115.915 146.629 117.083 146.629C118.504 146.629 119.782 145.77 119.782 144.15C119.782 142.542 118.559 141.682 117.16 141.682ZM123.518 146.629C125.457 146.629 126.548 145.01 126.548 142.63C126.548 140.25 125.457 138.63 123.518 138.63C121.579 138.63 120.489 140.25 120.489 142.63C120.489 145.01 121.579 146.629 123.518 146.629ZM123.518 145.395C122.384 145.395 121.756 144.404 121.756 142.63C121.756 140.856 122.384 139.864 123.518 139.864C124.664 139.864 125.281 140.856 125.281 142.63C125.281 144.404 124.664 145.395 123.518 145.395Z" fill="#333333"/>
<path d="M108.002 153.159H117.183L112.593 158.667L108.002 153.159Z" fill="white"/>
</g>
<g filter="url(#filter4_d_69_12632)">
<rect x="218.365" y="127.387" width="49.0174" height="20.263" rx="3.67246" fill="white"/>
<path d="M226.145 133.265L224.118 133.981L224.426 135.061L225.98 134.62V140.977H227.247V133.265H226.145ZM228.415 140.977H233.494V139.754H230.299L232.04 138.013C232.778 137.264 233.351 136.46 233.351 135.501C233.351 133.97 232.15 133.122 230.883 133.122C229.859 133.122 228.889 133.628 228.393 134.686L229.462 135.314C229.759 134.697 230.255 134.356 230.894 134.356C231.555 134.356 232.084 134.774 232.084 135.545C232.084 136.129 231.654 136.691 231.104 137.242L228.415 139.985V140.977ZM240.273 141.12C241.959 141.12 243.193 140.085 243.193 138.421V133.265H241.926V138.344C241.926 139.247 241.408 139.886 240.273 139.886C239.139 139.886 238.621 139.247 238.621 138.344V133.265H237.354V138.421C237.354 140.085 238.577 141.12 240.273 141.12ZM247.471 135.325C246.722 135.325 246.127 135.601 245.763 136.173V135.468H244.573V140.977H245.763V138.024C245.763 136.901 246.38 136.438 247.162 136.438C247.911 136.438 248.396 136.879 248.396 137.716V140.977H249.586V137.595C249.586 136.162 248.705 135.325 247.471 135.325ZM251.462 134.642C251.881 134.642 252.222 134.29 252.222 133.882C252.222 133.463 251.881 133.122 251.462 133.122C251.044 133.122 250.702 133.463 250.702 133.882C250.702 134.29 251.044 134.642 251.462 134.642ZM250.867 140.977H252.057V135.468H250.867V140.977ZM256.513 136.614V135.468H255.146V133.926L253.956 134.278V135.468H252.943V136.614H253.956V139.258C253.956 140.691 254.684 141.197 256.513 140.977V139.908C255.609 139.952 255.146 139.963 255.146 139.258V136.614H256.513ZM258.456 136.989C258.456 136.592 258.831 136.405 259.26 136.405C259.712 136.405 260.098 136.603 260.296 137.033L261.298 136.471C260.913 135.744 260.164 135.325 259.26 135.325C258.136 135.325 257.244 135.975 257.244 137.011C257.244 138.983 260.208 138.432 260.208 139.413C260.208 139.853 259.8 140.03 259.271 140.03C258.665 140.03 258.225 139.732 258.048 139.236L257.024 139.831C257.376 140.624 258.169 141.12 259.271 141.12C260.461 141.12 261.42 140.525 261.42 139.424C261.42 137.385 258.456 137.991 258.456 136.989Z" fill="#333333"/>
<path d="M238.283 147.65H247.464L242.874 153.159L238.283 147.65Z" fill="white"/>
</g>
<g filter="url(#filter5_d_69_12632)">
<rect x="250.498" y="86.9897" width="45.0174" height="20.263" rx="3.67246" fill="white"/>
<path d="M259.079 95.457H258.935L260.698 92.8679H259.255L256.809 96.5367C256.512 96.9664 256.346 97.4952 256.346 98.0902C256.346 99.6436 257.47 100.723 259.079 100.723C260.676 100.723 261.8 99.6436 261.8 98.0902C261.8 96.5367 260.676 95.457 259.079 95.457ZM259.079 99.5224C258.23 99.5224 257.613 98.9715 257.613 98.0902C257.613 97.2088 258.23 96.6579 259.079 96.6579C259.916 96.6579 260.533 97.2088 260.533 98.0902C260.533 98.9605 259.916 99.5224 259.079 99.5224ZM268.443 100.723C270.128 100.723 271.362 99.6877 271.362 98.024V92.8679H270.095V97.9469C270.095 98.8504 269.577 99.4894 268.443 99.4894C267.308 99.4894 266.79 98.8504 266.79 97.9469V92.8679H265.523V98.024C265.523 99.6877 266.746 100.723 268.443 100.723ZM275.64 94.9282C274.891 94.9282 274.296 95.2036 273.932 95.7765V95.0714H272.742V100.58H273.932V97.6274C273.932 96.5037 274.549 96.0409 275.331 96.0409C276.081 96.0409 276.565 96.4816 276.565 97.3189V100.58H277.755V97.1977C277.755 95.7655 276.874 94.9282 275.64 94.9282ZM279.631 94.2451C280.05 94.2451 280.392 93.8925 280.392 93.4849C280.392 93.0662 280.05 92.7247 279.631 92.7247C279.213 92.7247 278.871 93.0662 278.871 93.4849C278.871 93.8925 279.213 94.2451 279.631 94.2451ZM279.036 100.58H280.226V95.0714H279.036V100.58ZM284.682 96.2172V95.0714H283.316V93.529L282.126 93.8815V95.0714H281.112V96.2172H282.126V98.8614C282.126 100.294 282.853 100.8 284.682 100.58V99.5114C283.778 99.5555 283.316 99.5665 283.316 98.8614V96.2172H284.682ZM286.625 96.5918C286.625 96.1952 287 96.0079 287.429 96.0079C287.881 96.0079 288.267 96.2062 288.465 96.6359L289.468 96.074C289.082 95.3468 288.333 94.9282 287.429 94.9282C286.306 94.9282 285.413 95.5782 285.413 96.6138C285.413 98.5859 288.377 98.0351 288.377 99.0156C288.377 99.4563 287.969 99.6326 287.441 99.6326C286.835 99.6326 286.394 99.3351 286.218 98.8393L285.193 99.4343C285.546 100.228 286.339 100.723 287.441 100.723C288.63 100.723 289.589 100.128 289.589 99.0266C289.589 96.9884 286.625 97.5944 286.625 96.5918Z" fill="#333333"/>
<path d="M268.416 107.253H277.597L273.007 112.762L268.416 107.253Z" fill="white"/>
</g>
<g filter="url(#filter6_d_69_12632)">
<rect x="268.861" y="389.967" width="45.0174" height="20.263" rx="3.67246" fill="white"/>
<path d="M277.442 398.435H277.299L279.062 395.845H277.618L275.172 399.514C274.875 399.944 274.71 400.473 274.71 401.068C274.71 402.621 275.833 403.701 277.442 403.701C279.04 403.701 280.163 402.621 280.163 401.068C280.163 399.514 279.04 398.435 277.442 398.435ZM277.442 402.5C276.594 402.5 275.977 401.949 275.977 401.068C275.977 400.186 276.594 399.635 277.442 399.635C278.279 399.635 278.896 400.186 278.896 401.068C278.896 401.938 278.279 402.5 277.442 402.5ZM286.806 403.701C288.492 403.701 289.725 402.665 289.725 401.002V395.845H288.458V400.924C288.458 401.828 287.941 402.467 286.806 402.467C285.671 402.467 285.153 401.828 285.153 400.924V395.845H283.886V401.002C283.886 402.665 285.109 403.701 286.806 403.701ZM294.003 397.906C293.254 397.906 292.659 398.181 292.296 398.754V398.049H291.106V403.558H292.296V400.605C292.296 399.481 292.913 399.018 293.695 399.018C294.444 399.018 294.929 399.459 294.929 400.296V403.558H296.119V400.175C296.119 398.743 295.237 397.906 294.003 397.906ZM297.995 397.223C298.413 397.223 298.755 396.87 298.755 396.462C298.755 396.044 298.413 395.702 297.995 395.702C297.576 395.702 297.235 396.044 297.235 396.462C297.235 396.87 297.576 397.223 297.995 397.223ZM297.4 403.558H298.59V398.049H297.4V403.558ZM303.045 399.195V398.049H301.679V396.507L300.489 396.859V398.049H299.475V399.195H300.489V401.839C300.489 403.271 301.216 403.778 303.045 403.558V402.489C302.142 402.533 301.679 402.544 301.679 401.839V399.195H303.045ZM304.989 399.569C304.989 399.173 305.363 398.985 305.793 398.985C306.244 398.985 306.63 399.184 306.828 399.613L307.831 399.052C307.445 398.324 306.696 397.906 305.793 397.906C304.669 397.906 303.777 398.556 303.777 399.591C303.777 401.563 306.74 401.013 306.74 401.993C306.74 402.434 306.333 402.61 305.804 402.61C305.198 402.61 304.757 402.313 304.581 401.817L303.556 402.412C303.909 403.205 304.702 403.701 305.804 403.701C306.994 403.701 307.952 403.106 307.952 402.004C307.952 399.966 304.989 400.572 304.989 399.569Z" fill="#333333"/>
<path d="M286.779 410.23H295.96L291.37 415.739L286.779 410.23Z" fill="white"/>
</g>
<g filter="url(#filter7_d_69_12632)">
<rect x="289.979" y="131.059" width="45.0174" height="20.263" rx="3.67246" fill="white"/>
<path d="M298.559 139.526H298.416L300.179 136.937H298.735L296.29 140.606C295.992 141.036 295.827 141.565 295.827 142.159C295.827 143.713 296.951 144.793 298.559 144.793C300.157 144.793 301.28 143.713 301.28 142.159C301.28 140.606 300.157 139.526 298.559 139.526ZM298.559 143.592C297.711 143.592 297.094 143.041 297.094 142.159C297.094 141.278 297.711 140.727 298.559 140.727C299.396 140.727 300.013 141.278 300.013 142.159C300.013 143.03 299.396 143.592 298.559 143.592ZM307.923 144.793C309.609 144.793 310.843 143.757 310.843 142.093V136.937H309.576V142.016C309.576 142.92 309.058 143.559 307.923 143.559C306.788 143.559 306.27 142.92 306.27 142.016V136.937H305.003V142.093C305.003 143.757 306.226 144.793 307.923 144.793ZM315.12 138.998C314.371 138.998 313.776 139.273 313.413 139.846V139.141H312.223V144.649H313.413V141.697C313.413 140.573 314.03 140.11 314.812 140.11C315.561 140.11 316.046 140.551 316.046 141.388V144.649H317.236V141.267C317.236 139.835 316.354 138.998 315.12 138.998ZM319.112 138.314C319.531 138.314 319.872 137.962 319.872 137.554C319.872 137.136 319.531 136.794 319.112 136.794C318.693 136.794 318.352 137.136 318.352 137.554C318.352 137.962 318.693 138.314 319.112 138.314ZM318.517 144.649H319.707V139.141H318.517V144.649ZM324.162 140.287V139.141H322.796V137.598L321.606 137.951V139.141H320.593V140.287H321.606V142.931C321.606 144.363 322.333 144.87 324.162 144.649V143.581C323.259 143.625 322.796 143.636 322.796 142.931V140.287H324.162ZM326.106 140.661C326.106 140.265 326.48 140.077 326.91 140.077C327.362 140.077 327.747 140.276 327.946 140.705L328.948 140.143C328.563 139.416 327.813 138.998 326.91 138.998C325.786 138.998 324.894 139.648 324.894 140.683C324.894 142.655 327.857 142.104 327.857 143.085C327.857 143.526 327.45 143.702 326.921 143.702C326.315 143.702 325.874 143.404 325.698 142.909L324.673 143.504C325.026 144.297 325.819 144.793 326.921 144.793C328.111 144.793 329.069 144.198 329.069 143.096C329.069 141.058 326.106 141.664 326.106 140.661Z" fill="#333333"/>
<path d="M307.896 151.322H317.078L312.487 156.831L307.896 151.322Z" fill="white"/>
</g>
<g filter="url(#filter8_d_69_12632)">
<rect x="144.916" y="99.8433" width="46.0174" height="20.263" rx="3.67246" fill="white"/>
<path d="M155.563 109.423C156.092 109.082 156.445 108.531 156.445 107.793C156.445 106.305 155.277 105.578 153.999 105.578C152.71 105.578 151.553 106.305 151.553 107.793C151.553 108.531 151.905 109.082 152.423 109.423C151.718 109.82 151.288 110.492 151.288 111.296C151.288 112.728 152.39 113.577 153.999 113.577C155.607 113.577 156.698 112.728 156.698 111.296C156.698 110.481 156.279 109.82 155.563 109.423ZM153.999 106.779C154.638 106.779 155.178 107.132 155.178 107.848C155.178 108.531 154.638 108.916 153.999 108.916C153.349 108.916 152.82 108.531 152.82 107.848C152.82 107.132 153.349 106.779 153.999 106.779ZM153.999 112.376C153.161 112.376 152.555 111.957 152.555 111.175C152.555 110.382 153.161 109.974 153.999 109.974C154.825 109.974 155.431 110.382 155.431 111.175C155.431 111.957 154.825 112.376 153.999 112.376ZM163.447 113.577C165.132 113.577 166.366 112.541 166.366 110.878V105.721H165.099V110.8C165.099 111.704 164.581 112.343 163.447 112.343C162.312 112.343 161.794 111.704 161.794 110.8V105.721H160.527V110.878C160.527 112.541 161.75 113.577 163.447 113.577ZM170.644 107.782C169.895 107.782 169.3 108.057 168.936 108.63V107.925H167.746V113.434H168.936V110.481C168.936 109.357 169.553 108.894 170.336 108.894C171.085 108.894 171.569 109.335 171.569 110.172V113.434H172.759V110.051C172.759 108.619 171.878 107.782 170.644 107.782ZM174.635 107.099C175.054 107.099 175.396 106.746 175.396 106.338C175.396 105.92 175.054 105.578 174.635 105.578C174.217 105.578 173.875 105.92 173.875 106.338C173.875 106.746 174.217 107.099 174.635 107.099ZM174.041 113.434H175.23V107.925H174.041V113.434ZM179.686 109.071V107.925H178.32V106.382L177.13 106.735V107.925H176.116V109.071H177.13V111.715C177.13 113.147 177.857 113.654 179.686 113.434V112.365C178.782 112.409 178.32 112.42 178.32 111.715V109.071H179.686ZM181.629 109.445C181.629 109.049 182.004 108.861 182.434 108.861C182.885 108.861 183.271 109.06 183.469 109.489L184.472 108.927C184.086 108.2 183.337 107.782 182.434 107.782C181.31 107.782 180.417 108.432 180.417 109.467C180.417 111.439 183.381 110.889 183.381 111.869C183.381 112.31 182.973 112.486 182.445 112.486C181.839 112.486 181.398 112.189 181.222 111.693L180.197 112.288C180.55 113.081 181.343 113.577 182.445 113.577C183.634 113.577 184.593 112.982 184.593 111.88C184.593 109.842 181.629 110.448 181.629 109.445Z" fill="#333333"/>
<path d="M163.334 120.106H172.515L167.925 125.615L163.334 120.106Z" fill="white"/>
</g>
<g filter="url(#filter9_d_69_12632)">
<rect x="32.9062" y="77.8086" width="45.0174" height="20.263" rx="3.67246" fill="white"/>
<path d="M38.9457 83.6868V84.8987H42.4712L39.805 91.3989H41.1381L43.8484 84.7885V83.6868H38.9457ZM50.5495 91.5422C52.2352 91.5422 53.4692 90.5065 53.4692 88.8429V83.6868H52.2022V88.7658C52.2022 89.6692 51.6843 90.3082 50.5495 90.3082C49.4148 90.3082 48.8969 89.6692 48.8969 88.7658V83.6868H47.6299V88.8429C47.6299 90.5065 48.8529 91.5422 50.5495 91.5422ZM57.7469 85.747C56.9977 85.747 56.4028 86.0224 56.0392 86.5954V85.8902H54.8493V91.3989H56.0392V88.4463C56.0392 87.3225 56.6562 86.8598 57.4384 86.8598C58.1876 86.8598 58.6724 87.3005 58.6724 88.1378V91.3989H59.8622V88.0166C59.8622 86.5843 58.9808 85.747 57.7469 85.747ZM61.7384 85.0639C62.157 85.0639 62.4986 84.7114 62.4986 84.3037C62.4986 83.8851 62.157 83.5435 61.7384 83.5435C61.3197 83.5435 60.9782 83.8851 60.9782 84.3037C60.9782 84.7114 61.3197 85.0639 61.7384 85.0639ZM61.1434 91.3989H62.3333V85.8902H61.1434V91.3989ZM66.7887 87.036V85.8902H65.4226V84.3478L64.2327 84.7004V85.8902H63.2191V87.036H64.2327V89.6802C64.2327 91.1125 64.9598 91.6193 66.7887 91.3989V90.3302C65.8853 90.3743 65.4226 90.3853 65.4226 89.6802V87.036H66.7887ZM68.7322 87.4106C68.7322 87.014 69.1068 86.8267 69.5364 86.8267C69.9881 86.8267 70.3738 87.025 70.5721 87.4547L71.5746 86.8928C71.189 86.1657 70.4399 85.747 69.5364 85.747C68.4127 85.747 67.5203 86.397 67.5203 87.4327C67.5203 89.4048 70.4839 88.8539 70.4839 89.8345C70.4839 90.2752 70.0763 90.4514 69.5475 90.4514C68.9415 90.4514 68.5008 90.154 68.3245 89.6582L67.2999 90.2531C67.6525 91.0464 68.4457 91.5422 69.5475 91.5422C70.7373 91.5422 71.6958 90.9472 71.6958 89.8455C71.6958 87.8073 68.7322 88.4132 68.7322 87.4106Z" fill="#333333"/>
<path d="M50.8242 98.0718H60.0054L55.4148 103.58L50.8242 98.0718Z" fill="white"/>
</g>
<g filter="url(#filter10_d_69_12632)">
<rect x="22.8066" y="176.965" width="49.0174" height="20.263" rx="3.67246" fill="white"/>
<path d="M30.5864 182.843L28.5592 183.559L28.8677 184.639L30.4212 184.198V190.555H31.6882V182.843H30.5864ZM32.8568 190.555H37.9358V189.332H34.7408L36.4815 187.592C37.2197 186.842 37.7926 186.038 37.7926 185.08C37.7926 183.548 36.5917 182.7 35.3247 182.7C34.3001 182.7 33.3305 183.207 32.8347 184.264L33.9034 184.892C34.2009 184.275 34.6967 183.934 35.3357 183.934C35.9967 183.934 36.5256 184.352 36.5256 185.124C36.5256 185.708 36.0959 186.269 35.545 186.82L32.8568 189.564V190.555ZM44.7147 190.698C46.4004 190.698 47.6343 189.663 47.6343 187.999V182.843H46.3673V187.922C46.3673 188.825 45.8495 189.464 44.7147 189.464C43.58 189.464 43.0621 188.825 43.0621 187.922V182.843H41.7951V187.999C41.7951 189.663 43.0181 190.698 44.7147 190.698ZM51.9121 184.903C51.1629 184.903 50.568 185.179 50.2044 185.752V185.046H49.0145V190.555H50.2044V187.603C50.2044 186.479 50.8214 186.016 51.6036 186.016C52.3528 186.016 52.8376 186.457 52.8376 187.294V190.555H54.0274V187.173C54.0274 185.741 53.146 184.903 51.9121 184.903ZM55.9036 184.22C56.3222 184.22 56.6638 183.868 56.6638 183.46C56.6638 183.041 56.3222 182.7 55.9036 182.7C55.4849 182.7 55.1434 183.041 55.1434 183.46C55.1434 183.868 55.4849 184.22 55.9036 184.22ZM55.3086 190.555H56.4985V185.046H55.3086V190.555ZM60.9539 186.192V185.046H59.5878V183.504L58.3979 183.857V185.046H57.3843V186.192H58.3979V188.836C58.3979 190.269 59.125 190.776 60.9539 190.555V189.486C60.0505 189.531 59.5878 189.542 59.5878 188.836V186.192H60.9539ZM62.8974 186.567C62.8974 186.17 63.2719 185.983 63.7016 185.983C64.1533 185.983 64.5389 186.181 64.7373 186.611L65.7398 186.049C65.3542 185.322 64.6051 184.903 63.7016 184.903C62.5779 184.903 61.6854 185.553 61.6854 186.589C61.6854 188.561 64.6491 188.01 64.6491 188.991C64.6491 189.431 64.2415 189.608 63.7126 189.608C63.1067 189.608 62.666 189.31 62.4897 188.814L61.4651 189.409C61.8177 190.203 62.6109 190.698 63.7126 190.698C64.9025 190.698 65.861 190.103 65.861 189.002C65.861 186.964 62.8974 187.569 62.8974 186.567Z" fill="#333333"/>
<path d="M42.7246 197.228H51.9058L47.3152 202.737L42.7246 197.228Z" fill="white"/>
</g>
<g filter="url(#filter11_d_69_12632)">
<rect x="127.471" y="187.064" width="46.0174" height="20.263" rx="3.67246" fill="white"/>
<path d="M138.118 196.644C138.647 196.302 138.999 195.752 138.999 195.013C138.999 193.526 137.831 192.799 136.553 192.799C135.264 192.799 134.108 193.526 134.108 195.013C134.108 195.752 134.46 196.302 134.978 196.644C134.273 197.041 133.843 197.713 133.843 198.517C133.843 199.949 134.945 200.798 136.553 200.798C138.162 200.798 139.253 199.949 139.253 198.517C139.253 197.702 138.834 197.041 138.118 196.644ZM136.553 194C137.192 194 137.732 194.352 137.732 195.068C137.732 195.752 137.192 196.137 136.553 196.137C135.903 196.137 135.375 195.752 135.375 195.068C135.375 194.352 135.903 194 136.553 194ZM136.553 199.597C135.716 199.597 135.11 199.178 135.11 198.396C135.11 197.602 135.716 197.195 136.553 197.195C137.38 197.195 137.986 197.602 137.986 198.396C137.986 199.178 137.38 199.597 136.553 199.597ZM146.001 200.798C147.687 200.798 148.921 199.762 148.921 198.098V192.942H147.654V198.021C147.654 198.925 147.136 199.564 146.001 199.564C144.867 199.564 144.349 198.925 144.349 198.021V192.942H143.082V198.098C143.082 199.762 144.305 200.798 146.001 200.798ZM153.199 195.002C152.45 195.002 151.855 195.278 151.491 195.851V195.146H150.301V200.654H151.491V197.702C151.491 196.578 152.108 196.115 152.89 196.115C153.639 196.115 154.124 196.556 154.124 197.393V200.654H155.314V197.272C155.314 195.84 154.433 195.002 153.199 195.002ZM157.19 194.319C157.609 194.319 157.95 193.967 157.95 193.559C157.95 193.14 157.609 192.799 157.19 192.799C156.771 192.799 156.43 193.14 156.43 193.559C156.43 193.967 156.771 194.319 157.19 194.319ZM156.595 200.654H157.785V195.146H156.595V200.654ZM162.241 196.291V195.146H160.874V193.603L159.684 193.956V195.146H158.671V196.291H159.684V198.936C159.684 200.368 160.412 200.875 162.241 200.654V199.586C161.337 199.63 160.874 199.641 160.874 198.936V196.291H162.241ZM164.184 196.666C164.184 196.269 164.559 196.082 164.988 196.082C165.44 196.082 165.826 196.28 166.024 196.71L167.026 196.148C166.641 195.421 165.892 195.002 164.988 195.002C163.864 195.002 162.972 195.652 162.972 196.688C162.972 198.66 165.936 198.109 165.936 199.09C165.936 199.531 165.528 199.707 164.999 199.707C164.393 199.707 163.953 199.409 163.776 198.914L162.752 199.508C163.104 200.302 163.897 200.798 164.999 200.798C166.189 200.798 167.148 200.203 167.148 199.101C167.148 197.063 164.184 197.669 164.184 196.666Z" fill="#333333"/>
<path d="M145.889 207.327H155.07L150.479 212.836L145.889 207.327Z" fill="white"/>
</g>
<g filter="url(#filter12_d_69_12632)">
<rect x="265.189" y="189.818" width="45.0174" height="20.263" rx="3.67246" fill="white"/>
<path d="M273.792 198.605H272.823L272.955 196.886H276.084V195.697H271.787L271.49 199.839H273.737C274.574 199.839 275.147 200.302 275.147 201.073C275.147 201.844 274.574 202.318 273.715 202.318C272.911 202.318 272.382 201.954 272.184 201.271L271.093 201.899C271.501 203.012 272.547 203.552 273.715 203.552C275.136 203.552 276.414 202.693 276.414 201.073C276.414 199.464 275.191 198.605 273.792 198.605ZM283.134 203.552C284.82 203.552 286.054 202.516 286.054 200.853V195.697H284.787V200.776C284.787 201.679 284.269 202.318 283.134 202.318C281.999 202.318 281.481 201.679 281.481 200.776V195.697H280.214V200.853C280.214 202.516 281.437 203.552 283.134 203.552ZM290.331 197.757C289.582 197.757 288.987 198.032 288.624 198.605V197.9H287.434V203.409H288.624V200.456C288.624 199.332 289.241 198.87 290.023 198.87C290.772 198.87 291.257 199.31 291.257 200.148V203.409H292.447V200.026C292.447 198.594 291.565 197.757 290.331 197.757ZM294.323 197.074C294.741 197.074 295.083 196.721 295.083 196.314C295.083 195.895 294.741 195.553 294.323 195.553C293.904 195.553 293.563 195.895 293.563 196.314C293.563 196.721 293.904 197.074 294.323 197.074ZM293.728 203.409H294.918V197.9H293.728V203.409ZM299.373 199.046V197.9H298.007V196.358L296.817 196.71V197.9H295.804V199.046H296.817V201.69C296.817 203.122 297.544 203.629 299.373 203.409V202.34C298.47 202.384 298.007 202.395 298.007 201.69V199.046H299.373ZM301.317 199.42C301.317 199.024 301.691 198.836 302.121 198.836C302.573 198.836 302.958 199.035 303.157 199.464L304.159 198.903C303.774 198.175 303.024 197.757 302.121 197.757C300.997 197.757 300.105 198.407 300.105 199.442C300.105 201.415 303.068 200.864 303.068 201.844C303.068 202.285 302.661 202.461 302.132 202.461C301.526 202.461 301.085 202.164 300.909 201.668L299.884 202.263C300.237 203.056 301.03 203.552 302.132 203.552C303.322 203.552 304.28 202.957 304.28 201.855C304.28 199.817 301.317 200.423 301.317 199.42Z" fill="#333333"/>
<path d="M283.107 210.082H292.289L287.698 215.59L283.107 210.082Z" fill="white"/>
</g>
<g filter="url(#filter13_d_69_12632)">
<rect x="201.838" y="215.525" width="45.0174" height="20.263" rx="3.67246" fill="white"/>
<path d="M207.838 229.116H212.917V227.893H209.722L211.463 226.152C212.201 225.403 212.774 224.599 212.774 223.64C212.774 222.109 211.573 221.26 210.306 221.26C209.282 221.26 208.312 221.767 207.816 222.825L208.885 223.453C209.183 222.836 209.678 222.494 210.317 222.494C210.978 222.494 211.507 222.913 211.507 223.684C211.507 224.268 211.078 224.83 210.527 225.381L207.838 228.124V229.116ZM219.696 229.259C221.382 229.259 222.616 228.223 222.616 226.56V221.404H221.349V226.483C221.349 227.386 220.831 228.025 219.696 228.025C218.562 228.025 218.044 227.386 218.044 226.483V221.404H216.777V226.56C216.777 228.223 218 229.259 219.696 229.259ZM226.894 223.464C226.145 223.464 225.55 223.739 225.186 224.312V223.607H223.996V229.116H225.186V226.163C225.186 225.039 225.803 224.577 226.585 224.577C227.334 224.577 227.819 225.017 227.819 225.855V229.116H229.009V225.733C229.009 224.301 228.128 223.464 226.894 223.464ZM230.885 222.781C231.304 222.781 231.645 222.428 231.645 222.021C231.645 221.602 231.304 221.26 230.885 221.26C230.467 221.26 230.125 221.602 230.125 222.021C230.125 222.428 230.467 222.781 230.885 222.781ZM230.29 229.116H231.48V223.607H230.29V229.116ZM235.936 224.753V223.607H234.569V222.065L233.38 222.417V223.607H232.366V224.753H233.38V227.397C233.38 228.829 234.107 229.336 235.936 229.116V228.047C235.032 228.091 234.569 228.102 234.569 227.397V224.753H235.936ZM237.879 225.127C237.879 224.731 238.254 224.544 238.683 224.544C239.135 224.544 239.521 224.742 239.719 225.172L240.721 224.61C240.336 223.882 239.587 223.464 238.683 223.464C237.559 223.464 236.667 224.114 236.667 225.149C236.667 227.122 239.631 226.571 239.631 227.551C239.631 227.992 239.223 228.168 238.694 228.168C238.088 228.168 237.648 227.871 237.471 227.375L236.447 227.97C236.799 228.763 237.593 229.259 238.694 229.259C239.884 229.259 240.843 228.664 240.843 227.562C240.843 225.524 237.879 226.13 237.879 225.127Z" fill="#333333"/>
<path d="M219.756 235.789H228.937L224.346 241.297L219.756 235.789Z" fill="white"/>
</g>
<g filter="url(#filter14_d_69_12632)">
<rect x="296.404" y="279.793" width="44.0174" height="20.263" rx="3.67246" fill="white"/>
<path d="M307.835 291.268C307.835 289.803 306.712 289.384 305.665 288.988V286.806C306.117 286.906 306.447 287.181 306.646 287.677L307.714 287.06C307.318 286.156 306.557 285.672 305.665 285.55V284.57H304.949V285.539C303.803 285.65 302.8 286.399 302.8 287.699C302.8 289.109 303.88 289.583 304.949 289.979V292.271C304.233 292.194 303.781 291.808 303.539 291.191L302.448 291.819C302.834 292.822 303.726 293.439 304.949 293.516V294.486H305.665V293.505C306.921 293.351 307.835 292.546 307.835 291.268ZM304.067 287.699C304.067 287.203 304.409 286.873 304.949 286.784V288.701C304.332 288.415 304.067 288.162 304.067 287.699ZM305.665 292.26V290.255C306.227 290.508 306.568 290.762 306.568 291.279C306.568 291.753 306.271 292.139 305.665 292.26ZM308.506 293.384H313.585V292.161H310.39L312.13 290.42C312.868 289.671 313.441 288.867 313.441 287.908C313.441 286.377 312.24 285.528 310.973 285.528C309.949 285.528 308.979 286.035 308.484 287.093L309.552 287.721C309.85 287.104 310.345 286.762 310.984 286.762C311.646 286.762 312.174 287.181 312.174 287.952C312.174 288.536 311.745 289.098 311.194 289.649L308.506 292.392V293.384ZM317.358 293.527C319.297 293.527 320.388 291.907 320.388 289.528C320.388 287.148 319.297 285.528 317.358 285.528C315.419 285.528 314.329 287.148 314.329 289.528C314.329 291.907 315.419 293.527 317.358 293.527ZM317.358 292.293C316.224 292.293 315.596 291.302 315.596 289.528C315.596 287.754 316.224 286.762 317.358 286.762C318.504 286.762 319.121 287.754 319.121 289.528C319.121 291.302 318.504 292.293 317.358 292.293ZM324.298 293.527C326.237 293.527 327.328 291.907 327.328 289.528C327.328 287.148 326.237 285.528 324.298 285.528C322.359 285.528 321.268 287.148 321.268 289.528C321.268 291.907 322.359 293.527 324.298 293.527ZM324.298 292.293C323.163 292.293 322.535 291.302 322.535 289.528C322.535 287.754 323.163 286.762 324.298 286.762C325.444 286.762 326.061 287.754 326.061 289.528C326.061 291.302 325.444 292.293 324.298 292.293ZM331.238 293.527C333.177 293.527 334.267 291.907 334.267 289.528C334.267 287.148 333.177 285.528 331.238 285.528C329.299 285.528 328.208 287.148 328.208 289.528C328.208 291.907 329.299 293.527 331.238 293.527ZM331.238 292.293C330.103 292.293 329.475 291.302 329.475 289.528C329.475 287.754 330.103 286.762 331.238 286.762C332.383 286.762 333 287.754 333 289.528C333 291.302 332.383 292.293 331.238 292.293Z" fill="#333333"/>
<path d="M313.822 300.057H323.003L318.413 305.565L313.822 300.057Z" fill="white"/>
</g>
<g filter="url(#filter15_d_69_12632)">
<rect x="198.166" y="290.811" width="45.0174" height="20.263" rx="3.67246" fill="white"/>
<path d="M204.205 296.689V297.901H207.731L205.065 304.401H206.398L209.108 297.791V296.689H204.205ZM215.809 304.545C217.495 304.545 218.729 303.509 218.729 301.845V296.689H217.462V301.768C217.462 302.672 216.944 303.311 215.809 303.311C214.675 303.311 214.157 302.672 214.157 301.768V296.689H212.89V301.845C212.89 303.509 214.113 304.545 215.809 304.545ZM223.007 298.749C222.257 298.749 221.663 299.025 221.299 299.598V298.893H220.109V304.401H221.299V301.449C221.299 300.325 221.916 299.862 222.698 299.862C223.447 299.862 223.932 300.303 223.932 301.14V304.401H225.122V301.019C225.122 299.587 224.241 298.749 223.007 298.749ZM226.998 298.066C227.417 298.066 227.758 297.714 227.758 297.306C227.758 296.888 227.417 296.546 226.998 296.546C226.579 296.546 226.238 296.888 226.238 297.306C226.238 297.714 226.579 298.066 226.998 298.066ZM226.403 304.401H227.593V298.893H226.403V304.401ZM232.048 300.038V298.893H230.682V297.35L229.492 297.703V298.893H228.479V300.038H229.492V302.683C229.492 304.115 230.22 304.622 232.048 304.401V303.333C231.145 303.377 230.682 303.388 230.682 302.683V300.038H232.048ZM233.992 300.413C233.992 300.016 234.367 299.829 234.796 299.829C235.248 299.829 235.634 300.027 235.832 300.457L236.834 299.895C236.449 299.168 235.7 298.749 234.796 298.749C233.672 298.749 232.78 299.399 232.78 300.435C232.78 302.407 235.744 301.856 235.744 302.837C235.744 303.278 235.336 303.454 234.807 303.454C234.201 303.454 233.761 303.156 233.584 302.661L232.56 303.256C232.912 304.049 233.705 304.545 234.807 304.545C235.997 304.545 236.956 303.95 236.956 302.848C236.956 300.81 233.992 301.416 233.992 300.413Z" fill="#333333"/>
<path d="M216.084 311.074H225.265L220.675 316.583L216.084 311.074Z" fill="white"/>
</g>
<g filter="url(#filter16_d_69_12632)">
<rect x="18.2168" y="215.525" width="45.0174" height="20.263" rx="3.67246" fill="white"/>
<path d="M29.5187 223.893C29.5187 222.34 28.395 221.26 26.7975 221.26C25.1999 221.26 24.0651 222.34 24.0651 223.893C24.0651 225.447 25.1999 226.527 26.7975 226.527H26.9297L25.1669 229.116H26.6212L29.056 225.447C29.3535 225.017 29.5187 224.488 29.5187 223.893ZM25.3321 223.893C25.3321 223.012 25.9601 222.461 26.7975 222.461C27.6348 222.461 28.2517 223.012 28.2517 223.893C28.2517 224.775 27.6348 225.326 26.7975 225.326C25.9601 225.326 25.3321 224.764 25.3321 223.893ZM36.1614 229.259C37.847 229.259 39.081 228.223 39.081 226.56V221.404H37.814V226.483C37.814 227.386 37.2961 228.025 36.1614 228.025C35.0266 228.025 34.5087 227.386 34.5087 226.483V221.404H33.2418V226.56C33.2418 228.223 34.4647 229.259 36.1614 229.259ZM43.3587 223.464C42.6095 223.464 42.0146 223.739 41.651 224.312V223.607H40.4611V229.116H41.651V226.163C41.651 225.039 42.268 224.577 43.0502 224.577C43.7994 224.577 44.2842 225.017 44.2842 225.855V229.116H45.474V225.733C45.474 224.301 44.5927 223.464 43.3587 223.464ZM47.3502 222.781C47.7688 222.781 48.1104 222.428 48.1104 222.021C48.1104 221.602 47.7688 221.26 47.3502 221.26C46.9315 221.26 46.59 221.602 46.59 222.021C46.59 222.428 46.9315 222.781 47.3502 222.781ZM46.7552 229.116H47.9451V223.607H46.7552V229.116ZM52.4005 224.753V223.607H51.0344V222.065L49.8445 222.417V223.607H48.8309V224.753H49.8445V227.397C49.8445 228.829 50.5716 229.336 52.4005 229.116V228.047C51.4971 228.091 51.0344 228.102 51.0344 227.397V224.753H52.4005ZM54.344 225.127C54.344 224.731 54.7186 224.544 55.1482 224.544C55.6 224.544 55.9856 224.742 56.1839 225.172L57.1865 224.61C56.8008 223.882 56.0517 223.464 55.1482 223.464C54.0245 223.464 53.1321 224.114 53.1321 225.149C53.1321 227.122 56.0957 226.571 56.0957 227.551C56.0957 227.992 55.6881 228.168 55.1593 228.168C54.5533 228.168 54.1126 227.871 53.9363 227.375L52.9117 227.97C53.2643 228.763 54.0575 229.259 55.1593 229.259C56.3491 229.259 57.3076 228.664 57.3076 227.562C57.3076 225.524 54.344 226.13 54.344 225.127Z" fill="#333333"/>
<path d="M36.1348 235.789H45.3159L40.7253 241.297L36.1348 235.789Z" fill="white"/>
</g>
<g filter="url(#filter17_d_69_12632)">
<rect x="17.2969" y="293.565" width="45.0174" height="20.263" rx="3.67246" fill="white"/>
<path d="M26.5765 302.595L28.141 300.523V299.444H23.4035V300.633H26.6316L24.9679 302.826L25.4747 303.586H25.7612C26.6316 303.586 27.1935 304.049 27.1935 304.82C27.1935 305.591 26.6316 306.065 25.7612 306.065C24.99 306.065 24.4722 305.724 24.2518 305.073L23.1721 305.701C23.6018 306.781 24.6264 307.299 25.7612 307.299C27.1824 307.299 28.4605 306.44 28.4605 304.82C28.4605 303.619 27.6342 302.848 26.5765 302.595ZM35.2145 307.299C36.9002 307.299 38.1341 306.263 38.1341 304.6V299.444H36.8671V304.523C36.8671 305.426 36.3493 306.065 35.2145 306.065C34.0797 306.065 33.5619 305.426 33.5619 304.523V299.444H32.2949V304.6C32.2949 306.263 33.5179 307.299 35.2145 307.299ZM42.4119 301.504C41.6627 301.504 41.0678 301.779 40.7042 302.352V301.647H39.5143V307.156H40.7042V304.203C40.7042 303.079 41.3212 302.617 42.1034 302.617C42.8526 302.617 43.3373 303.057 43.3373 303.895V307.156H44.5272V303.773C44.5272 302.341 43.6458 301.504 42.4119 301.504ZM46.4034 300.821C46.822 300.821 47.1636 300.468 47.1636 300.061C47.1636 299.642 46.822 299.3 46.4034 299.3C45.9847 299.3 45.6432 299.642 45.6432 300.061C45.6432 300.468 45.9847 300.821 46.4034 300.821ZM45.8084 307.156H46.9983V301.647H45.8084V307.156ZM51.4537 302.793V301.647H50.0876V300.105L48.8977 300.457V301.647H47.8841V302.793H48.8977V305.437C48.8977 306.869 49.6248 307.376 51.4537 307.156V306.087C50.5503 306.131 50.0876 306.142 50.0876 305.437V302.793H51.4537ZM53.3971 303.167C53.3971 302.771 53.7717 302.584 54.2014 302.584C54.6531 302.584 55.0387 302.782 55.2371 303.212L56.2396 302.65C55.854 301.923 55.1048 301.504 54.2014 301.504C53.0776 301.504 52.1852 302.154 52.1852 303.19C52.1852 305.162 55.1489 304.611 55.1489 305.591C55.1489 306.032 54.7413 306.208 54.2124 306.208C53.6065 306.208 53.1658 305.911 52.9895 305.415L51.9649 306.01C52.3174 306.803 53.1107 307.299 54.2124 307.299C55.4023 307.299 56.3608 306.704 56.3608 305.602C56.3608 303.564 53.3971 304.17 53.3971 303.167Z" fill="#333333"/>
<path d="M35.2148 313.829H44.396L39.8054 319.337L35.2148 313.829Z" fill="white"/>
</g>
<g filter="url(#filter18_d_69_12632)">
<rect x="90.7461" y="249.496" width="45.0174" height="20.263" rx="3.67246" fill="white"/>
<path d="M99.3267 257.963H99.1835L100.946 255.374H99.503L97.0572 259.043C96.7597 259.472 96.5944 260.001 96.5944 260.596C96.5944 262.149 97.7182 263.229 99.3267 263.229C100.924 263.229 102.048 262.149 102.048 260.596C102.048 259.043 100.924 257.963 99.3267 257.963ZM99.3267 262.028C98.4784 262.028 97.8614 261.477 97.8614 260.596C97.8614 259.715 98.4784 259.164 99.3267 259.164C100.164 259.164 100.781 259.715 100.781 260.596C100.781 261.466 100.164 262.028 99.3267 262.028ZM108.691 263.229C110.376 263.229 111.61 262.194 111.61 260.53V255.374H110.343V260.453C110.343 261.356 109.825 261.995 108.691 261.995C107.556 261.995 107.038 261.356 107.038 260.453V255.374H105.771V260.53C105.771 262.194 106.994 263.229 108.691 263.229ZM115.888 257.434C115.139 257.434 114.544 257.709 114.18 258.282V257.577H112.99V263.086H114.18V260.133C114.18 259.01 114.797 258.547 115.58 258.547C116.329 258.547 116.813 258.987 116.813 259.825V263.086H118.003V259.704C118.003 258.271 117.122 257.434 115.888 257.434ZM119.879 256.751C120.298 256.751 120.64 256.398 120.64 255.991C120.64 255.572 120.298 255.231 119.879 255.231C119.461 255.231 119.119 255.572 119.119 255.991C119.119 256.398 119.461 256.751 119.879 256.751ZM119.285 263.086H120.474V257.577H119.285V263.086ZM124.93 258.723V257.577H123.564V256.035L122.374 256.387V257.577H121.36V258.723H122.374V261.367C122.374 262.799 123.101 263.306 124.93 263.086V262.017C124.026 262.061 123.564 262.072 123.564 261.367V258.723H124.93ZM126.873 259.098C126.873 258.701 127.248 258.514 127.678 258.514C128.129 258.514 128.515 258.712 128.713 259.142L129.716 258.58C129.33 257.853 128.581 257.434 127.678 257.434C126.554 257.434 125.661 258.084 125.661 259.12C125.661 261.092 128.625 260.541 128.625 261.521C128.625 261.962 128.217 262.138 127.689 262.138C127.083 262.138 126.642 261.841 126.466 261.345L125.441 261.94C125.794 262.733 126.587 263.229 127.689 263.229C128.878 263.229 129.837 262.634 129.837 261.532C129.837 259.494 126.873 260.1 126.873 259.098Z" fill="#333333"/>
<path d="M108.664 269.759H117.845L113.255 275.267L108.664 269.759Z" fill="white"/>
</g>
<g filter="url(#filter19_d_69_12632)">
<rect x="114.617" y="312.846" width="46.0174" height="20.263" rx="3.67246" fill="white"/>
<path d="M125.264 322.426C125.793 322.084 126.146 321.533 126.146 320.795C126.146 319.308 124.978 318.581 123.7 318.581C122.411 318.581 121.254 319.308 121.254 320.795C121.254 321.533 121.607 322.084 122.124 322.426C121.419 322.822 120.99 323.494 120.99 324.299C120.99 325.731 122.091 326.579 123.7 326.579C125.308 326.579 126.399 325.731 126.399 324.299C126.399 323.483 125.981 322.822 125.264 322.426ZM123.7 319.782C124.339 319.782 124.879 320.134 124.879 320.85C124.879 321.533 124.339 321.919 123.7 321.919C123.05 321.919 122.521 321.533 122.521 320.85C122.521 320.134 123.05 319.782 123.7 319.782ZM123.7 325.378C122.863 325.378 122.257 324.96 122.257 324.177C122.257 323.384 122.863 322.977 123.7 322.977C124.526 322.977 125.132 323.384 125.132 324.177C125.132 324.96 124.526 325.378 123.7 325.378ZM133.148 326.579C134.833 326.579 136.067 325.544 136.067 323.88V318.724H134.8V323.803C134.8 324.706 134.283 325.345 133.148 325.345C132.013 325.345 131.495 324.706 131.495 323.803V318.724H130.228V323.88C130.228 325.544 131.451 326.579 133.148 326.579ZM140.345 320.784C139.596 320.784 139.001 321.06 138.637 321.632V320.927H137.448V326.436H138.637V323.483C138.637 322.36 139.254 321.897 140.037 321.897C140.786 321.897 141.271 322.338 141.271 323.175V326.436H142.461V323.054C142.461 321.621 141.579 320.784 140.345 320.784ZM144.337 320.101C144.755 320.101 145.097 319.748 145.097 319.341C145.097 318.922 144.755 318.581 144.337 318.581C143.918 318.581 143.576 318.922 143.576 319.341C143.576 319.748 143.918 320.101 144.337 320.101ZM143.742 326.436H144.932V320.927H143.742V326.436ZM149.387 322.073V320.927H148.021V319.385L146.831 319.737V320.927H145.817V322.073H146.831V324.717C146.831 326.15 147.558 326.656 149.387 326.436V325.367C148.484 325.411 148.021 325.422 148.021 324.717V322.073H149.387ZM151.33 322.448C151.33 322.051 151.705 321.864 152.135 321.864C152.586 321.864 152.972 322.062 153.17 322.492L154.173 321.93C153.787 321.203 153.038 320.784 152.135 320.784C151.011 320.784 150.119 321.434 150.119 322.47C150.119 324.442 153.082 323.891 153.082 324.872C153.082 325.312 152.675 325.489 152.146 325.489C151.54 325.489 151.099 325.191 150.923 324.695L149.898 325.29C150.251 326.083 151.044 326.579 152.146 326.579C153.336 326.579 154.294 325.984 154.294 324.883C154.294 322.844 151.33 323.45 151.33 322.448Z" fill="#333333"/>
<path d="M133.035 333.109H142.216L137.626 338.618L133.035 333.109Z" fill="white"/>
</g>
<g filter="url(#filter20_d_69_12632)">
<rect x="251.416" y="330.29" width="50.0174" height="20.263" rx="3.67246" fill="white"/>
<path d="M259.142 336.168L257.115 336.884L257.423 337.964L258.976 337.523V343.88H260.243V336.168H259.142ZM264.541 344.024C266.48 344.024 267.571 342.404 267.571 340.024C267.571 337.645 266.48 336.025 264.541 336.025C262.602 336.025 261.511 337.645 261.511 340.024C261.511 342.404 262.602 344.024 264.541 344.024ZM264.541 342.79C263.406 342.79 262.778 341.798 262.778 340.024C262.778 338.25 263.406 337.259 264.541 337.259C265.687 337.259 266.304 338.25 266.304 340.024C266.304 341.798 265.687 342.79 264.541 342.79ZM274.378 344.024C276.064 344.024 277.298 342.988 277.298 341.324V336.168H276.031V341.247C276.031 342.151 275.513 342.79 274.378 342.79C273.243 342.79 272.726 342.151 272.726 341.247V336.168H271.459V341.324C271.459 342.988 272.682 344.024 274.378 344.024ZM281.576 338.228C280.826 338.228 280.231 338.504 279.868 339.077V338.372H278.678V343.88H279.868V340.928C279.868 339.804 280.485 339.341 281.267 339.341C282.016 339.341 282.501 339.782 282.501 340.619V343.88H283.691V340.498C283.691 339.066 282.81 338.228 281.576 338.228ZM285.567 337.545C285.986 337.545 286.327 337.193 286.327 336.785C286.327 336.367 285.986 336.025 285.567 336.025C285.148 336.025 284.807 336.367 284.807 336.785C284.807 337.193 285.148 337.545 285.567 337.545ZM284.972 343.88H286.162V338.372H284.972V343.88ZM290.617 339.517V338.372H289.251V336.829L288.061 337.182V338.372H287.048V339.517H288.061V342.162C288.061 343.594 288.789 344.101 290.617 343.88V342.812C289.714 342.856 289.251 342.867 289.251 342.162V339.517H290.617ZM292.561 339.892C292.561 339.495 292.935 339.308 293.365 339.308C293.817 339.308 294.202 339.506 294.401 339.936L295.403 339.374C295.018 338.647 294.269 338.228 293.365 338.228C292.241 338.228 291.349 338.878 291.349 339.914C291.349 341.886 294.313 341.335 294.313 342.316C294.313 342.757 293.905 342.933 293.376 342.933C292.77 342.933 292.329 342.635 292.153 342.14L291.129 342.735C291.481 343.528 292.274 344.024 293.376 344.024C294.566 344.024 295.525 343.429 295.525 342.327C295.525 340.289 292.561 340.895 292.561 339.892Z" fill="#333333"/>
<path d="M271.834 350.553H281.015L276.425 356.062L271.834 350.553Z" fill="white"/>
</g>
<g filter="url(#filter21_d_69_12632)">
<rect x="71.4668" y="392.722" width="50.0174" height="20.263" rx="3.67246" fill="white"/>
<path d="M79.1925 398.6L77.1653 399.316L77.4738 400.396L79.0272 399.955V406.312H80.2942V398.6H79.1925ZM84.5918 406.455C86.5308 406.455 87.6216 404.836 87.6216 402.456C87.6216 400.076 86.5308 398.457 84.5918 398.457C82.6527 398.457 81.562 400.076 81.562 402.456C81.562 404.836 82.6527 406.455 84.5918 406.455ZM84.5918 405.221C83.457 405.221 82.829 404.23 82.829 402.456C82.829 400.682 83.457 399.691 84.5918 399.691C85.7376 399.691 86.3546 400.682 86.3546 402.456C86.3546 404.23 85.7376 405.221 84.5918 405.221ZM94.429 406.455C96.1147 406.455 97.3486 405.42 97.3486 403.756V398.6H96.0816V403.679C96.0816 404.582 95.5638 405.221 94.429 405.221C93.2942 405.221 92.7764 404.582 92.7764 403.679V398.6H91.5094V403.756C91.5094 405.42 92.7323 406.455 94.429 406.455ZM101.626 400.66C100.877 400.66 100.282 400.936 99.9187 401.508V400.803H98.7288V406.312H99.9187V403.359C99.9187 402.236 100.536 401.773 101.318 401.773C102.067 401.773 102.552 402.214 102.552 403.051V406.312H103.742V402.93C103.742 401.497 102.86 400.66 101.626 400.66ZM105.618 399.977C106.036 399.977 106.378 399.624 106.378 399.217C106.378 398.798 106.036 398.457 105.618 398.457C105.199 398.457 104.858 398.798 104.858 399.217C104.858 399.624 105.199 399.977 105.618 399.977ZM105.023 406.312H106.213V400.803H105.023V406.312ZM110.668 401.949V400.803H109.302V399.261L108.112 399.613V400.803H107.099V401.949H108.112V404.593C108.112 406.026 108.839 406.532 110.668 406.312V405.243C109.765 405.287 109.302 405.298 109.302 404.593V401.949H110.668ZM112.612 402.324C112.612 401.927 112.986 401.74 113.416 401.74C113.868 401.74 114.253 401.938 114.452 402.368L115.454 401.806C115.068 401.079 114.319 400.66 113.416 400.66C112.292 400.66 111.4 401.31 111.4 402.346C111.4 404.318 114.363 403.767 114.363 404.748C114.363 405.188 113.956 405.365 113.427 405.365C112.821 405.365 112.38 405.067 112.204 404.571L111.179 405.166C111.532 405.959 112.325 406.455 113.427 406.455C114.617 406.455 115.575 405.86 115.575 404.759C115.575 402.72 112.612 403.326 112.612 402.324Z" fill="#333333"/>
<path d="M91.8848 412.985H101.066L96.4753 418.494L91.8848 412.985Z" fill="white"/>
</g>
<defs>
<filter id="filter0_d_69_12632" x="21.8881" y="5.2774" width="52.3625" height="33.1169" filterUnits="userSpaceOnUse" color-interpolation-filters="sRGB">
<feFlood flood-opacity="0" result="BackgroundImageFix"/>
<feColorMatrix in="SourceAlpha" type="matrix" values="0 0 0 0 0 0 0 0 0 0 0 0 0 0 0 0 0 0 127 0" result="hardAlpha"/>
<feOffset dy="0.918114"/>
<feGaussianBlur stdDeviation="1.83623"/>
<feColorMatrix type="matrix" values="0 0 0 0 0.235294 0 0 0 0 0.25098 0 0 0 0 0.262745 0 0 0 0.2 0"/>
<feBlend mode="normal" in2="BackgroundImageFix" result="effect1_dropShadow_69_12632"/>
<feBlend mode="normal" in="SourceGraphic" in2="effect1_dropShadow_69_12632" result="shape"/>
</filter>
<filter id="filter1_d_69_12632" x="155.015" y="30.0665" width="57.3625" height="33.1169" filterUnits="userSpaceOnUse" color-interpolation-filters="sRGB">
<feFlood flood-opacity="0" result="BackgroundImageFix"/>
<feColorMatrix in="SourceAlpha" type="matrix" values="0 0 0 0 0 0 0 0 0 0 0 0 0 0 0 0 0 0 127 0" result="hardAlpha"/>
<feOffset dy="0.918114"/>
<feGaussianBlur stdDeviation="1.83623"/>
<feColorMatrix type="matrix" values="0 0 0 0 0.235294 0 0 0 0 0.25098 0 0 0 0 0.262745 0 0 0 0.2 0"/>
<feBlend mode="normal" in2="BackgroundImageFix" result="effect1_dropShadow_69_12632"/>
<feBlend mode="normal" in="SourceGraphic" in2="effect1_dropShadow_69_12632" result="shape"/>
</filter>
<filter id="filter2_d_69_12632" x="250.499" y="8.94976" width="53.3625" height="33.1169" filterUnits="userSpaceOnUse" color-interpolation-filters="sRGB">
<feFlood flood-opacity="0" result="BackgroundImageFix"/>
<feColorMatrix in="SourceAlpha" type="matrix" values="0 0 0 0 0 0 0 0 0 0 0 0 0 0 0 0 0 0 127 0" result="hardAlpha"/>
<feOffset dy="0.918114"/>
<feGaussianBlur stdDeviation="1.83623"/>
<feColorMatrix type="matrix" values="0 0 0 0 0.235294 0 0 0 0 0.25098 0 0 0 0 0.262745 0 0 0 0.2 0"/>
<feBlend mode="normal" in2="BackgroundImageFix" result="effect1_dropShadow_69_12632"/>
<feBlend mode="normal" in="SourceGraphic" in2="effect1_dropShadow_69_12632" result="shape"/>
</filter>
<filter id="filter3_d_69_12632" x="88.9115" y="130.141" width="47.3625" height="33.1169" filterUnits="userSpaceOnUse" color-interpolation-filters="sRGB">
<feFlood flood-opacity="0" result="BackgroundImageFix"/>
<feColorMatrix in="SourceAlpha" type="matrix" values="0 0 0 0 0 0 0 0 0 0 0 0 0 0 0 0 0 0 127 0" result="hardAlpha"/>
<feOffset dy="0.918114"/>
<feGaussianBlur stdDeviation="1.83623"/>
<feColorMatrix type="matrix" values="0 0 0 0 0.235294 0 0 0 0 0.25098 0 0 0 0 0.262745 0 0 0 0.2 0"/>
<feBlend mode="normal" in2="BackgroundImageFix" result="effect1_dropShadow_69_12632"/>
<feBlend mode="normal" in="SourceGraphic" in2="effect1_dropShadow_69_12632" result="shape"/>
</filter>
<filter id="filter4_d_69_12632" x="214.693" y="124.632" width="56.3625" height="33.1169" filterUnits="userSpaceOnUse" color-interpolation-filters="sRGB">
<feFlood flood-opacity="0" result="BackgroundImageFix"/>
<feColorMatrix in="SourceAlpha" type="matrix" values="0 0 0 0 0 0 0 0 0 0 0 0 0 0 0 0 0 0 127 0" result="hardAlpha"/>
<feOffset dy="0.918114"/>
<feGaussianBlur stdDeviation="1.83623"/>
<feColorMatrix type="matrix" values="0 0 0 0 0.235294 0 0 0 0 0.25098 0 0 0 0 0.262745 0 0 0 0.2 0"/>
<feBlend mode="normal" in2="BackgroundImageFix" result="effect1_dropShadow_69_12632"/>
<feBlend mode="normal" in="SourceGraphic" in2="effect1_dropShadow_69_12632" result="shape"/>
</filter>
<filter id="filter5_d_69_12632" x="246.826" y="84.2354" width="52.3625" height="33.1169" filterUnits="userSpaceOnUse" color-interpolation-filters="sRGB">
<feFlood flood-opacity="0" result="BackgroundImageFix"/>
<feColorMatrix in="SourceAlpha" type="matrix" values="0 0 0 0 0 0 0 0 0 0 0 0 0 0 0 0 0 0 127 0" result="hardAlpha"/>
<feOffset dy="0.918114"/>
<feGaussianBlur stdDeviation="1.83623"/>
<feColorMatrix type="matrix" values="0 0 0 0 0.235294 0 0 0 0 0.25098 0 0 0 0 0.262745 0 0 0 0.2 0"/>
<feBlend mode="normal" in2="BackgroundImageFix" result="effect1_dropShadow_69_12632"/>
<feBlend mode="normal" in="SourceGraphic" in2="effect1_dropShadow_69_12632" result="shape"/>
</filter>
<filter id="filter6_d_69_12632" x="265.189" y="387.213" width="52.3625" height="33.1169" filterUnits="userSpaceOnUse" color-interpolation-filters="sRGB">
<feFlood flood-opacity="0" result="BackgroundImageFix"/>
<feColorMatrix in="SourceAlpha" type="matrix" values="0 0 0 0 0 0 0 0 0 0 0 0 0 0 0 0 0 0 127 0" result="hardAlpha"/>
<feOffset dy="0.918114"/>
<feGaussianBlur stdDeviation="1.83623"/>
<feColorMatrix type="matrix" values="0 0 0 0 0.235294 0 0 0 0 0.25098 0 0 0 0 0.262745 0 0 0 0.2 0"/>
<feBlend mode="normal" in2="BackgroundImageFix" result="effect1_dropShadow_69_12632"/>
<feBlend mode="normal" in="SourceGraphic" in2="effect1_dropShadow_69_12632" result="shape"/>
</filter>
<filter id="filter7_d_69_12632" x="286.306" y="128.305" width="52.3625" height="33.1169" filterUnits="userSpaceOnUse" color-interpolation-filters="sRGB">
<feFlood flood-opacity="0" result="BackgroundImageFix"/>
<feColorMatrix in="SourceAlpha" type="matrix" values="0 0 0 0 0 0 0 0 0 0 0 0 0 0 0 0 0 0 127 0" result="hardAlpha"/>
<feOffset dy="0.918114"/>
<feGaussianBlur stdDeviation="1.83623"/>
<feColorMatrix type="matrix" values="0 0 0 0 0.235294 0 0 0 0 0.25098 0 0 0 0 0.262745 0 0 0 0.2 0"/>
<feBlend mode="normal" in2="BackgroundImageFix" result="effect1_dropShadow_69_12632"/>
<feBlend mode="normal" in="SourceGraphic" in2="effect1_dropShadow_69_12632" result="shape"/>
</filter>
<filter id="filter8_d_69_12632" x="141.244" y="97.0889" width="53.3625" height="33.1169" filterUnits="userSpaceOnUse" color-interpolation-filters="sRGB">
<feFlood flood-opacity="0" result="BackgroundImageFix"/>
<feColorMatrix in="SourceAlpha" type="matrix" values="0 0 0 0 0 0 0 0 0 0 0 0 0 0 0 0 0 0 127 0" result="hardAlpha"/>
<feOffset dy="0.918114"/>
<feGaussianBlur stdDeviation="1.83623"/>
<feColorMatrix type="matrix" values="0 0 0 0 0.235294 0 0 0 0 0.25098 0 0 0 0 0.262745 0 0 0 0.2 0"/>
<feBlend mode="normal" in2="BackgroundImageFix" result="effect1_dropShadow_69_12632"/>
<feBlend mode="normal" in="SourceGraphic" in2="effect1_dropShadow_69_12632" result="shape"/>
</filter>
<filter id="filter9_d_69_12632" x="29.2338" y="75.0543" width="52.3625" height="33.1169" filterUnits="userSpaceOnUse" color-interpolation-filters="sRGB">
<feFlood flood-opacity="0" result="BackgroundImageFix"/>
<feColorMatrix in="SourceAlpha" type="matrix" values="0 0 0 0 0 0 0 0 0 0 0 0 0 0 0 0 0 0 127 0" result="hardAlpha"/>
<feOffset dy="0.918114"/>
<feGaussianBlur stdDeviation="1.83623"/>
<feColorMatrix type="matrix" values="0 0 0 0 0.235294 0 0 0 0 0.25098 0 0 0 0 0.262745 0 0 0 0.2 0"/>
<feBlend mode="normal" in2="BackgroundImageFix" result="effect1_dropShadow_69_12632"/>
<feBlend mode="normal" in="SourceGraphic" in2="effect1_dropShadow_69_12632" result="shape"/>
</filter>
<filter id="filter10_d_69_12632" x="19.1342" y="174.211" width="56.3625" height="33.1169" filterUnits="userSpaceOnUse" color-interpolation-filters="sRGB">
<feFlood flood-opacity="0" result="BackgroundImageFix"/>
<feColorMatrix in="SourceAlpha" type="matrix" values="0 0 0 0 0 0 0 0 0 0 0 0 0 0 0 0 0 0 127 0" result="hardAlpha"/>
<feOffset dy="0.918114"/>
<feGaussianBlur stdDeviation="1.83623"/>
<feColorMatrix type="matrix" values="0 0 0 0 0.235294 0 0 0 0 0.25098 0 0 0 0 0.262745 0 0 0 0.2 0"/>
<feBlend mode="normal" in2="BackgroundImageFix" result="effect1_dropShadow_69_12632"/>
<feBlend mode="normal" in="SourceGraphic" in2="effect1_dropShadow_69_12632" result="shape"/>
</filter>
<filter id="filter11_d_69_12632" x="123.798" y="184.31" width="53.3625" height="33.1169" filterUnits="userSpaceOnUse" color-interpolation-filters="sRGB">
<feFlood flood-opacity="0" result="BackgroundImageFix"/>
<feColorMatrix in="SourceAlpha" type="matrix" values="0 0 0 0 0 0 0 0 0 0 0 0 0 0 0 0 0 0 127 0" result="hardAlpha"/>
<feOffset dy="0.918114"/>
<feGaussianBlur stdDeviation="1.83623"/>
<feColorMatrix type="matrix" values="0 0 0 0 0.235294 0 0 0 0 0.25098 0 0 0 0 0.262745 0 0 0 0.2 0"/>
<feBlend mode="normal" in2="BackgroundImageFix" result="effect1_dropShadow_69_12632"/>
<feBlend mode="normal" in="SourceGraphic" in2="effect1_dropShadow_69_12632" result="shape"/>
</filter>
<filter id="filter12_d_69_12632" x="261.517" y="187.064" width="52.3625" height="33.1169" filterUnits="userSpaceOnUse" color-interpolation-filters="sRGB">
<feFlood flood-opacity="0" result="BackgroundImageFix"/>
<feColorMatrix in="SourceAlpha" type="matrix" values="0 0 0 0 0 0 0 0 0 0 0 0 0 0 0 0 0 0 127 0" result="hardAlpha"/>
<feOffset dy="0.918114"/>
<feGaussianBlur stdDeviation="1.83623"/>
<feColorMatrix type="matrix" values="0 0 0 0 0.235294 0 0 0 0 0.25098 0 0 0 0 0.262745 0 0 0 0.2 0"/>
<feBlend mode="normal" in2="BackgroundImageFix" result="effect1_dropShadow_69_12632"/>
<feBlend mode="normal" in="SourceGraphic" in2="effect1_dropShadow_69_12632" result="shape"/>
</filter>
<filter id="filter13_d_69_12632" x="198.165" y="212.771" width="52.3625" height="33.1169" filterUnits="userSpaceOnUse" color-interpolation-filters="sRGB">
<feFlood flood-opacity="0" result="BackgroundImageFix"/>
<feColorMatrix in="SourceAlpha" type="matrix" values="0 0 0 0 0 0 0 0 0 0 0 0 0 0 0 0 0 0 127 0" result="hardAlpha"/>
<feOffset dy="0.918114"/>
<feGaussianBlur stdDeviation="1.83623"/>
<feColorMatrix type="matrix" values="0 0 0 0 0.235294 0 0 0 0 0.25098 0 0 0 0 0.262745 0 0 0 0.2 0"/>
<feBlend mode="normal" in2="BackgroundImageFix" result="effect1_dropShadow_69_12632"/>
<feBlend mode="normal" in="SourceGraphic" in2="effect1_dropShadow_69_12632" result="shape"/>
</filter>
<filter id="filter14_d_69_12632" x="292.732" y="277.039" width="51.3625" height="33.1169" filterUnits="userSpaceOnUse" color-interpolation-filters="sRGB">
<feFlood flood-opacity="0" result="BackgroundImageFix"/>
<feColorMatrix in="SourceAlpha" type="matrix" values="0 0 0 0 0 0 0 0 0 0 0 0 0 0 0 0 0 0 127 0" result="hardAlpha"/>
<feOffset dy="0.918114"/>
<feGaussianBlur stdDeviation="1.83623"/>
<feColorMatrix type="matrix" values="0 0 0 0 0.235294 0 0 0 0 0.25098 0 0 0 0 0.262745 0 0 0 0.2 0"/>
<feBlend mode="normal" in2="BackgroundImageFix" result="effect1_dropShadow_69_12632"/>
<feBlend mode="normal" in="SourceGraphic" in2="effect1_dropShadow_69_12632" result="shape"/>
</filter>
<filter id="filter15_d_69_12632" x="194.494" y="288.057" width="52.3625" height="33.1169" filterUnits="userSpaceOnUse" color-interpolation-filters="sRGB">
<feFlood flood-opacity="0" result="BackgroundImageFix"/>
<feColorMatrix in="SourceAlpha" type="matrix" values="0 0 0 0 0 0 0 0 0 0 0 0 0 0 0 0 0 0 127 0" result="hardAlpha"/>
<feOffset dy="0.918114"/>
<feGaussianBlur stdDeviation="1.83623"/>
<feColorMatrix type="matrix" values="0 0 0 0 0.235294 0 0 0 0 0.25098 0 0 0 0 0.262745 0 0 0 0.2 0"/>
<feBlend mode="normal" in2="BackgroundImageFix" result="effect1_dropShadow_69_12632"/>
<feBlend mode="normal" in="SourceGraphic" in2="effect1_dropShadow_69_12632" result="shape"/>
</filter>
<filter id="filter16_d_69_12632" x="14.5443" y="212.771" width="52.3625" height="33.1169" filterUnits="userSpaceOnUse" color-interpolation-filters="sRGB">
<feFlood flood-opacity="0" result="BackgroundImageFix"/>
<feColorMatrix in="SourceAlpha" type="matrix" values="0 0 0 0 0 0 0 0 0 0 0 0 0 0 0 0 0 0 127 0" result="hardAlpha"/>
<feOffset dy="0.918114"/>
<feGaussianBlur stdDeviation="1.83623"/>
<feColorMatrix type="matrix" values="0 0 0 0 0.235294 0 0 0 0 0.25098 0 0 0 0 0.262745 0 0 0 0.2 0"/>
<feBlend mode="normal" in2="BackgroundImageFix" result="effect1_dropShadow_69_12632"/>
<feBlend mode="normal" in="SourceGraphic" in2="effect1_dropShadow_69_12632" result="shape"/>
</filter>
<filter id="filter17_d_69_12632" x="13.6244" y="290.811" width="52.3625" height="33.1169" filterUnits="userSpaceOnUse" color-interpolation-filters="sRGB">
<feFlood flood-opacity="0" result="BackgroundImageFix"/>
<feColorMatrix in="SourceAlpha" type="matrix" values="0 0 0 0 0 0 0 0 0 0 0 0 0 0 0 0 0 0 127 0" result="hardAlpha"/>
<feOffset dy="0.918114"/>
<feGaussianBlur stdDeviation="1.83623"/>
<feColorMatrix type="matrix" values="0 0 0 0 0.235294 0 0 0 0 0.25098 0 0 0 0 0.262745 0 0 0 0.2 0"/>
<feBlend mode="normal" in2="BackgroundImageFix" result="effect1_dropShadow_69_12632"/>
<feBlend mode="normal" in="SourceGraphic" in2="effect1_dropShadow_69_12632" result="shape"/>
</filter>
<filter id="filter18_d_69_12632" x="87.0736" y="246.741" width="52.3625" height="33.1169" filterUnits="userSpaceOnUse" color-interpolation-filters="sRGB">
<feFlood flood-opacity="0" result="BackgroundImageFix"/>
<feColorMatrix in="SourceAlpha" type="matrix" values="0 0 0 0 0 0 0 0 0 0 0 0 0 0 0 0 0 0 127 0" result="hardAlpha"/>
<feOffset dy="0.918114"/>
<feGaussianBlur stdDeviation="1.83623"/>
<feColorMatrix type="matrix" values="0 0 0 0 0.235294 0 0 0 0 0.25098 0 0 0 0 0.262745 0 0 0 0.2 0"/>
<feBlend mode="normal" in2="BackgroundImageFix" result="effect1_dropShadow_69_12632"/>
<feBlend mode="normal" in="SourceGraphic" in2="effect1_dropShadow_69_12632" result="shape"/>
</filter>
<filter id="filter19_d_69_12632" x="110.945" y="310.091" width="53.3625" height="33.1169" filterUnits="userSpaceOnUse" color-interpolation-filters="sRGB">
<feFlood flood-opacity="0" result="BackgroundImageFix"/>
<feColorMatrix in="SourceAlpha" type="matrix" values="0 0 0 0 0 0 0 0 0 0 0 0 0 0 0 0 0 0 127 0" result="hardAlpha"/>
<feOffset dy="0.918114"/>
<feGaussianBlur stdDeviation="1.83623"/>
<feColorMatrix type="matrix" values="0 0 0 0 0.235294 0 0 0 0 0.25098 0 0 0 0 0.262745 0 0 0 0.2 0"/>
<feBlend mode="normal" in2="BackgroundImageFix" result="effect1_dropShadow_69_12632"/>
<feBlend mode="normal" in="SourceGraphic" in2="effect1_dropShadow_69_12632" result="shape"/>
</filter>
<filter id="filter20_d_69_12632" x="247.744" y="327.536" width="57.3625" height="33.1169" filterUnits="userSpaceOnUse" color-interpolation-filters="sRGB">
<feFlood flood-opacity="0" result="BackgroundImageFix"/>
<feColorMatrix in="SourceAlpha" type="matrix" values="0 0 0 0 0 0 0 0 0 0 0 0 0 0 0 0 0 0 127 0" result="hardAlpha"/>
<feOffset dy="0.918114"/>
<feGaussianBlur stdDeviation="1.83623"/>
<feColorMatrix type="matrix" values="0 0 0 0 0.235294 0 0 0 0 0.25098 0 0 0 0 0.262745 0 0 0 0.2 0"/>
<feBlend mode="normal" in2="BackgroundImageFix" result="effect1_dropShadow_69_12632"/>
<feBlend mode="normal" in="SourceGraphic" in2="effect1_dropShadow_69_12632" result="shape"/>
</filter>
<filter id="filter21_d_69_12632" x="67.7943" y="389.967" width="57.3625" height="33.1169" filterUnits="userSpaceOnUse" color-interpolation-filters="sRGB">
<feFlood flood-opacity="0" result="BackgroundImageFix"/>
<feColorMatrix in="SourceAlpha" type="matrix" values="0 0 0 0 0 0 0 0 0 0 0 0 0 0 0 0 0 0 127 0" result="hardAlpha"/>
<feOffset dy="0.918114"/>
<feGaussianBlur stdDeviation="1.83623"/>
<feColorMatrix type="matrix" values="0 0 0 0 0.235294 0 0 0 0 0.25098 0 0 0 0 0.262745 0 0 0 0.2 0"/>
<feBlend mode="normal" in2="BackgroundImageFix" result="effect1_dropShadow_69_12632"/>
<feBlend mode="normal" in="SourceGraphic" in2="effect1_dropShadow_69_12632" result="shape"/>
</filter>
</defs>
</svg>
