<svg width="345" height="581" viewBox="0 0 345 581" fill="none" xmlns="http://www.w3.org/2000/svg">
<g filter="url(#filter0_d_69_12543)">
<rect x="25.5605" y="4.03174" width="45.0174" height="20.263" rx="3.67246" fill="white"/>
<path d="M31.6 9.90991V11.1218H35.1255L32.4593 17.6221H33.7924L36.5027 11.0116V9.90991H31.6ZM43.2038 17.7653C44.8895 17.7653 46.1234 16.7297 46.1234 15.066V9.90991H44.8565V14.9889C44.8565 15.8923 44.3386 16.5314 43.2038 16.5314C42.0691 16.5314 41.5512 15.8923 41.5512 14.9889V9.90991H40.2842V15.066C40.2842 16.7297 41.5072 17.7653 43.2038 17.7653ZM50.4012 11.9702C49.652 11.9702 49.0571 12.2456 48.6935 12.8185V12.1134H47.5036V17.6221H48.6935V14.6694C48.6935 13.5456 49.3105 13.0829 50.0927 13.0829C50.8419 13.0829 51.3267 13.5236 51.3267 14.3609V17.6221H52.5165V14.2397C52.5165 12.8075 51.6351 11.9702 50.4012 11.9702ZM54.3927 11.2871C54.8113 11.2871 55.1529 10.9345 55.1529 10.5269C55.1529 10.1082 54.8113 9.76669 54.3927 9.76669C53.974 9.76669 53.6325 10.1082 53.6325 10.5269C53.6325 10.9345 53.974 11.2871 54.3927 11.2871ZM53.7977 17.6221H54.9876V12.1134H53.7977V17.6221ZM59.443 13.2592V12.1134H58.0769V10.571L56.887 10.9235V12.1134H55.8734V13.2592H56.887V15.9034C56.887 17.3356 57.6141 17.8424 59.443 17.6221V16.5534C58.5396 16.5975 58.0769 16.6085 58.0769 15.9034V13.2592H59.443ZM61.3865 13.6338C61.3865 13.2372 61.7611 13.0499 62.1907 13.0499C62.6424 13.0499 63.0281 13.2482 63.2264 13.6779L64.2289 13.116C63.8433 12.3888 63.0942 11.9702 62.1907 11.9702C61.067 11.9702 60.1746 12.6202 60.1746 13.6558C60.1746 15.6279 63.1382 15.0771 63.1382 16.0576C63.1382 16.4983 62.7306 16.6746 62.2018 16.6746C61.5958 16.6746 61.1551 16.3771 60.9788 15.8813L59.9542 16.4763C60.3068 17.2695 61.1 17.7653 62.2018 17.7653C63.3916 17.7653 64.3501 17.1704 64.3501 16.0686C64.3501 14.0304 61.3865 14.6364 61.3865 13.6338Z" fill="#3C4043" fill-opacity="0.5"/>
<path d="M43.4785 24.2949H52.6597L48.0691 29.8036L43.4785 24.2949Z" fill="white"/>
</g>
<g filter="url(#filter1_d_69_12543)">
<rect x="158.688" y="28.8208" width="50.0174" height="20.263" rx="3.67246" fill="white"/>
<path d="M166.413 34.699L164.386 35.4151L164.694 36.4948L166.248 36.0541V42.4111H167.515V34.699H166.413ZM171.812 42.5544C173.752 42.5544 174.842 40.9348 174.842 38.5551C174.842 36.1753 173.752 34.5557 171.812 34.5557C169.873 34.5557 168.783 36.1753 168.783 38.5551C168.783 40.9348 169.873 42.5544 171.812 42.5544ZM171.812 41.3204C170.678 41.3204 170.05 40.3289 170.05 38.5551C170.05 36.7813 170.678 35.7897 171.812 35.7897C172.958 35.7897 173.575 36.7813 173.575 38.5551C173.575 40.3289 172.958 41.3204 171.812 41.3204ZM181.65 42.5544C183.335 42.5544 184.569 41.5187 184.569 39.8551V34.699H183.302V39.778C183.302 40.6814 182.784 41.3204 181.65 41.3204C180.515 41.3204 179.997 40.6814 179.997 39.778V34.699H178.73V39.8551C178.73 41.5187 179.953 42.5544 181.65 42.5544ZM188.847 36.7592C188.098 36.7592 187.503 37.0347 187.139 37.6076V36.9024H185.949V42.4111H187.139V39.4585C187.139 38.3347 187.756 37.872 188.539 37.872C189.288 37.872 189.773 38.3127 189.773 39.15V42.4111H190.962V39.0288C190.962 37.5965 190.081 36.7592 188.847 36.7592ZM192.839 36.0761C193.257 36.0761 193.599 35.7236 193.599 35.3159C193.599 34.8973 193.257 34.5557 192.839 34.5557C192.42 34.5557 192.078 34.8973 192.078 35.3159C192.078 35.7236 192.42 36.0761 192.839 36.0761ZM192.244 42.4111H193.433V36.9024H192.244V42.4111ZM197.889 38.0483V36.9024H196.523V35.36L195.333 35.7126V36.9024H194.319V38.0483H195.333V40.6924C195.333 42.1247 196.06 42.6315 197.889 42.4111V41.3424C196.985 41.3865 196.523 41.3975 196.523 40.6924V38.0483H197.889ZM199.832 38.4228C199.832 38.0262 200.207 37.8389 200.637 37.8389C201.088 37.8389 201.474 38.0372 201.672 38.4669L202.675 37.905C202.289 37.1779 201.54 36.7592 200.637 36.7592C199.513 36.7592 198.62 37.4092 198.62 38.4449C198.62 40.417 201.584 39.8661 201.584 40.8467C201.584 41.2874 201.176 41.4636 200.648 41.4636C200.042 41.4636 199.601 41.1662 199.425 40.6704L198.4 41.2653C198.753 42.0586 199.546 42.5544 200.648 42.5544C201.837 42.5544 202.796 41.9594 202.796 40.8577C202.796 38.8195 199.832 39.4254 199.832 38.4228Z" fill="#333333"/>
<path d="M179.105 49.084H188.287L183.696 54.5927L179.105 49.084Z" fill="white"/>
</g>
<g filter="url(#filter2_d_69_12543)">
<rect x="254.172" y="7.7041" width="46.0174" height="20.263" rx="3.67246" fill="#366CA5"/>
<path d="M264.819 17.2841C265.348 16.9426 265.7 16.3917 265.7 15.6535C265.7 14.1662 264.533 13.439 263.255 13.439C261.966 13.439 260.809 14.1662 260.809 15.6535C260.809 16.3917 261.161 16.9426 261.679 17.2841C260.974 17.6807 260.544 18.3528 260.544 19.1571C260.544 20.5893 261.646 21.4377 263.255 21.4377C264.863 21.4377 265.954 20.5893 265.954 19.1571C265.954 18.3418 265.535 17.6807 264.819 17.2841ZM263.255 14.6399C263.894 14.6399 264.433 14.9925 264.433 15.7086C264.433 16.3917 263.894 16.7773 263.255 16.7773C262.605 16.7773 262.076 16.3917 262.076 15.7086C262.076 14.9925 262.605 14.6399 263.255 14.6399ZM263.255 20.2368C262.417 20.2368 261.811 19.8181 261.811 19.0359C261.811 18.2426 262.417 17.835 263.255 17.835C264.081 17.835 264.687 18.2426 264.687 19.0359C264.687 19.8181 264.081 20.2368 263.255 20.2368ZM272.703 21.4377C274.388 21.4377 275.622 20.402 275.622 18.7384V13.5823H274.355V18.6613C274.355 19.5647 273.837 20.2037 272.703 20.2037C271.568 20.2037 271.05 19.5647 271.05 18.6613V13.5823H269.783V18.7384C269.783 20.402 271.006 21.4377 272.703 21.4377ZM279.9 15.6425C279.151 15.6425 278.556 15.918 278.192 16.4909V15.7857H277.002V21.2944H278.192V18.3418C278.192 17.218 278.809 16.7553 279.591 16.7553C280.341 16.7553 280.825 17.196 280.825 18.0333V21.2944H282.015V17.9121C282.015 16.4798 281.134 15.6425 279.9 15.6425ZM283.891 14.9594C284.31 14.9594 284.652 14.6069 284.652 14.1992C284.652 13.7806 284.31 13.439 283.891 13.439C283.473 13.439 283.131 13.7806 283.131 14.1992C283.131 14.6069 283.473 14.9594 283.891 14.9594ZM283.296 21.2944H284.486V15.7857H283.296V21.2944ZM288.942 16.9316V15.7857H287.576V14.2433L286.386 14.5959V15.7857H285.372V16.9316H286.386V19.5757C286.386 21.008 287.113 21.5148 288.942 21.2944V20.2257C288.038 20.2698 287.576 20.2808 287.576 19.5757V16.9316H288.942ZM290.885 17.3061C290.885 16.9095 291.26 16.7222 291.689 16.7222C292.141 16.7222 292.527 16.9205 292.725 17.3502L293.728 16.7883C293.342 16.0612 292.593 15.6425 291.689 15.6425C290.566 15.6425 289.673 16.2925 289.673 17.3282C289.673 19.3003 292.637 18.7494 292.637 19.73C292.637 20.1707 292.229 20.3469 291.7 20.3469C291.094 20.3469 290.654 20.0495 290.477 19.5537L289.453 20.1486C289.805 20.9419 290.599 21.4377 291.7 21.4377C292.89 21.4377 293.849 20.8427 293.849 19.741C293.849 17.7028 290.885 18.3087 290.885 17.3061Z" fill="white"/>
<path d="M272.59 27.9673H281.771L277.18 33.476L272.59 27.9673Z" fill="#366CA5"/>
</g>
<g filter="url(#filter3_d_69_12543)">
<rect x="92.584" y="128.896" width="40.0174" height="20.263" rx="3.67246" fill="white"/>
<path d="M103.914 140.371C103.914 138.905 102.79 138.487 101.744 138.09V135.908C102.195 136.008 102.526 136.283 102.724 136.779L103.793 136.162C103.396 135.258 102.636 134.774 101.744 134.652V133.672H101.028V134.641C99.8817 134.752 98.8791 135.501 98.8791 136.801C98.8791 138.211 99.9588 138.685 101.028 139.081V141.373C100.311 141.296 99.8597 140.91 99.6173 140.293L98.5266 140.921C98.9122 141.924 99.8046 142.541 101.028 142.618V143.588H101.744V142.607C103 142.453 103.914 141.649 103.914 140.371ZM100.146 136.801C100.146 136.305 100.488 135.975 101.028 135.886V137.803C100.411 137.517 100.146 137.264 100.146 136.801ZM101.744 141.362V139.357C102.306 139.61 102.647 139.864 102.647 140.382C102.647 140.855 102.35 141.241 101.744 141.362ZM106.413 134.774L104.386 135.49L104.694 136.57L106.248 136.129V142.486H107.515V134.774H106.413ZM114.071 137.264C114.071 135.71 112.947 134.63 111.35 134.63C109.752 134.63 108.617 135.71 108.617 137.264C108.617 138.817 109.752 139.897 111.35 139.897H111.482L109.719 142.486H111.173L113.608 138.817C113.906 138.387 114.071 137.859 114.071 137.264ZM109.884 137.264C109.884 136.382 110.512 135.831 111.35 135.831C112.187 135.831 112.804 136.382 112.804 137.264C112.804 138.145 112.187 138.696 111.35 138.696C110.512 138.696 109.884 138.134 109.884 137.264ZM117.16 137.682H116.191L116.323 135.964H119.452V134.774H115.155L114.858 138.916H117.105C117.942 138.916 118.515 139.379 118.515 140.15C118.515 140.921 117.942 141.395 117.083 141.395C116.279 141.395 115.75 141.032 115.552 140.348L114.461 140.976C114.869 142.089 115.915 142.629 117.083 142.629C118.504 142.629 119.782 141.77 119.782 140.15C119.782 138.542 118.559 137.682 117.16 137.682ZM123.518 142.629C125.457 142.629 126.548 141.01 126.548 138.63C126.548 136.25 125.457 134.63 123.518 134.63C121.579 134.63 120.489 136.25 120.489 138.63C120.489 141.01 121.579 142.629 123.518 142.629ZM123.518 141.395C122.384 141.395 121.756 140.404 121.756 138.63C121.756 136.856 122.384 135.864 123.518 135.864C124.664 135.864 125.281 136.856 125.281 138.63C125.281 140.404 124.664 141.395 123.518 141.395Z" fill="#333333"/>
<path d="M108.002 149.159H117.183L112.593 154.667L108.002 149.159Z" fill="white"/>
</g>
<g filter="url(#filter4_d_69_12543)">
<rect x="218.365" y="123.387" width="49.0174" height="20.263" rx="3.67246" fill="white"/>
<path d="M226.145 129.265L224.118 129.981L224.426 131.061L225.98 130.62V136.977H227.247V129.265H226.145ZM228.415 136.977H233.494V135.754H230.299L232.04 134.013C232.778 133.264 233.351 132.46 233.351 131.501C233.351 129.97 232.15 129.122 230.883 129.122C229.859 129.122 228.889 129.628 228.393 130.686L229.462 131.314C229.759 130.697 230.255 130.356 230.894 130.356C231.555 130.356 232.084 130.774 232.084 131.545C232.084 132.129 231.654 132.691 231.104 133.242L228.415 135.985V136.977ZM240.273 137.12C241.959 137.12 243.193 136.085 243.193 134.421V129.265H241.926V134.344C241.926 135.247 241.408 135.886 240.273 135.886C239.139 135.886 238.621 135.247 238.621 134.344V129.265H237.354V134.421C237.354 136.085 238.577 137.12 240.273 137.12ZM247.471 131.325C246.722 131.325 246.127 131.601 245.763 132.173V131.468H244.573V136.977H245.763V134.024C245.763 132.901 246.38 132.438 247.162 132.438C247.911 132.438 248.396 132.879 248.396 133.716V136.977H249.586V133.595C249.586 132.162 248.705 131.325 247.471 131.325ZM251.462 130.642C251.881 130.642 252.222 130.29 252.222 129.882C252.222 129.463 251.881 129.122 251.462 129.122C251.044 129.122 250.702 129.463 250.702 129.882C250.702 130.29 251.044 130.642 251.462 130.642ZM250.867 136.977H252.057V131.468H250.867V136.977ZM256.513 132.614V131.468H255.146V129.926L253.956 130.278V131.468H252.943V132.614H253.956V135.258C253.956 136.691 254.684 137.197 256.513 136.977V135.908C255.609 135.952 255.146 135.963 255.146 135.258V132.614H256.513ZM258.456 132.989C258.456 132.592 258.831 132.405 259.26 132.405C259.712 132.405 260.098 132.603 260.296 133.033L261.298 132.471C260.913 131.744 260.164 131.325 259.26 131.325C258.136 131.325 257.244 131.975 257.244 133.011C257.244 134.983 260.208 134.432 260.208 135.413C260.208 135.853 259.8 136.03 259.271 136.03C258.665 136.03 258.225 135.732 258.048 135.236L257.024 135.831C257.376 136.624 258.169 137.12 259.271 137.12C260.461 137.12 261.42 136.525 261.42 135.424C261.42 133.385 258.456 133.991 258.456 132.989Z" fill="#333333"/>
<path d="M238.283 143.65H247.464L242.874 149.159L238.283 143.65Z" fill="white"/>
</g>
<g filter="url(#filter5_d_69_12543)">
<rect x="250.498" y="82.9897" width="45.0174" height="20.263" rx="3.67246" fill="white"/>
<path d="M259.079 91.457H258.935L260.698 88.8679H259.255L256.809 92.5367C256.512 92.9664 256.346 93.4952 256.346 94.0902C256.346 95.6436 257.47 96.7233 259.079 96.7233C260.676 96.7233 261.8 95.6436 261.8 94.0902C261.8 92.5367 260.676 91.457 259.079 91.457ZM259.079 95.5224C258.23 95.5224 257.613 94.9715 257.613 94.0902C257.613 93.2088 258.23 92.6579 259.079 92.6579C259.916 92.6579 260.533 93.2088 260.533 94.0902C260.533 94.9605 259.916 95.5224 259.079 95.5224ZM268.443 96.7233C270.128 96.7233 271.362 95.6877 271.362 94.024V88.8679H270.095V93.9469C270.095 94.8504 269.577 95.4894 268.443 95.4894C267.308 95.4894 266.79 94.8504 266.79 93.9469V88.8679H265.523V94.024C265.523 95.6877 266.746 96.7233 268.443 96.7233ZM275.64 90.9282C274.891 90.9282 274.296 91.2036 273.932 91.7765V91.0714H272.742V96.5801H273.932V93.6274C273.932 92.5037 274.549 92.0409 275.331 92.0409C276.081 92.0409 276.565 92.4816 276.565 93.3189V96.5801H277.755V93.1977C277.755 91.7655 276.874 90.9282 275.64 90.9282ZM279.631 90.2451C280.05 90.2451 280.392 89.8925 280.392 89.4849C280.392 89.0662 280.05 88.7247 279.631 88.7247C279.213 88.7247 278.871 89.0662 278.871 89.4849C278.871 89.8925 279.213 90.2451 279.631 90.2451ZM279.036 96.5801H280.226V91.0714H279.036V96.5801ZM284.682 92.2172V91.0714H283.316V89.529L282.126 89.8815V91.0714H281.112V92.2172H282.126V94.8614C282.126 96.2936 282.853 96.8004 284.682 96.5801V95.5114C283.778 95.5555 283.316 95.5665 283.316 94.8614V92.2172H284.682ZM286.625 92.5918C286.625 92.1952 287 92.0079 287.429 92.0079C287.881 92.0079 288.267 92.2062 288.465 92.6359L289.468 92.074C289.082 91.3468 288.333 90.9282 287.429 90.9282C286.306 90.9282 285.413 91.5782 285.413 92.6138C285.413 94.5859 288.377 94.0351 288.377 95.0156C288.377 95.4563 287.969 95.6326 287.441 95.6326C286.835 95.6326 286.394 95.3351 286.218 94.8393L285.193 95.4343C285.546 96.2275 286.339 96.7233 287.441 96.7233C288.63 96.7233 289.589 96.1284 289.589 95.0266C289.589 92.9884 286.625 93.5944 286.625 92.5918Z" fill="#333333"/>
<path d="M268.416 103.253H277.597L273.007 108.762L268.416 103.253Z" fill="white"/>
</g>
<g filter="url(#filter6_d_69_12543)">
<rect x="268.861" y="385.967" width="45.0174" height="20.263" rx="3.67246" fill="white"/>
<path d="M277.442 394.435H277.299L279.062 391.845H277.618L275.172 395.514C274.875 395.944 274.71 396.473 274.71 397.068C274.71 398.621 275.833 399.701 277.442 399.701C279.04 399.701 280.163 398.621 280.163 397.068C280.163 395.514 279.04 394.435 277.442 394.435ZM277.442 398.5C276.594 398.5 275.977 397.949 275.977 397.068C275.977 396.186 276.594 395.635 277.442 395.635C278.279 395.635 278.896 396.186 278.896 397.068C278.896 397.938 278.279 398.5 277.442 398.5ZM286.806 399.701C288.492 399.701 289.725 398.665 289.725 397.002V391.845H288.458V396.924C288.458 397.828 287.941 398.467 286.806 398.467C285.671 398.467 285.153 397.828 285.153 396.924V391.845H283.886V397.002C283.886 398.665 285.109 399.701 286.806 399.701ZM294.003 393.906C293.254 393.906 292.659 394.181 292.296 394.754V394.049H291.106V399.558H292.296V396.605C292.296 395.481 292.913 395.018 293.695 395.018C294.444 395.018 294.929 395.459 294.929 396.296V399.558H296.119V396.175C296.119 394.743 295.237 393.906 294.003 393.906ZM297.995 393.223C298.413 393.223 298.755 392.87 298.755 392.462C298.755 392.044 298.413 391.702 297.995 391.702C297.576 391.702 297.235 392.044 297.235 392.462C297.235 392.87 297.576 393.223 297.995 393.223ZM297.4 399.558H298.59V394.049H297.4V399.558ZM303.045 395.195V394.049H301.679V392.507L300.489 392.859V394.049H299.475V395.195H300.489V397.839C300.489 399.271 301.216 399.778 303.045 399.558V398.489C302.142 398.533 301.679 398.544 301.679 397.839V395.195H303.045ZM304.989 395.569C304.989 395.173 305.363 394.985 305.793 394.985C306.244 394.985 306.63 395.184 306.828 395.613L307.831 395.052C307.445 394.324 306.696 393.906 305.793 393.906C304.669 393.906 303.777 394.556 303.777 395.591C303.777 397.563 306.74 397.013 306.74 397.993C306.74 398.434 306.333 398.61 305.804 398.61C305.198 398.61 304.757 398.313 304.581 397.817L303.556 398.412C303.909 399.205 304.702 399.701 305.804 399.701C306.994 399.701 307.952 399.106 307.952 398.004C307.952 395.966 304.989 396.572 304.989 395.569Z" fill="#333333"/>
<path d="M286.779 406.23H295.96L291.37 411.739L286.779 406.23Z" fill="white"/>
</g>
<g filter="url(#filter7_d_69_12543)">
<rect x="289.979" y="127.059" width="45.0174" height="20.263" rx="3.67246" fill="white"/>
<path d="M298.559 135.526H298.416L300.179 132.937H298.735L296.29 136.606C295.992 137.036 295.827 137.565 295.827 138.159C295.827 139.713 296.951 140.793 298.559 140.793C300.157 140.793 301.28 139.713 301.28 138.159C301.28 136.606 300.157 135.526 298.559 135.526ZM298.559 139.592C297.711 139.592 297.094 139.041 297.094 138.159C297.094 137.278 297.711 136.727 298.559 136.727C299.396 136.727 300.013 137.278 300.013 138.159C300.013 139.03 299.396 139.592 298.559 139.592ZM307.923 140.793C309.609 140.793 310.843 139.757 310.843 138.093V132.937H309.576V138.016C309.576 138.92 309.058 139.559 307.923 139.559C306.788 139.559 306.27 138.92 306.27 138.016V132.937H305.003V138.093C305.003 139.757 306.226 140.793 307.923 140.793ZM315.12 134.998C314.371 134.998 313.776 135.273 313.413 135.846V135.141H312.223V140.649H313.413V137.697C313.413 136.573 314.03 136.11 314.812 136.11C315.561 136.11 316.046 136.551 316.046 137.388V140.649H317.236V137.267C317.236 135.835 316.354 134.998 315.12 134.998ZM319.112 134.314C319.531 134.314 319.872 133.962 319.872 133.554C319.872 133.136 319.531 132.794 319.112 132.794C318.693 132.794 318.352 133.136 318.352 133.554C318.352 133.962 318.693 134.314 319.112 134.314ZM318.517 140.649H319.707V135.141H318.517V140.649ZM324.162 136.287V135.141H322.796V133.598L321.606 133.951V135.141H320.593V136.287H321.606V138.931C321.606 140.363 322.333 140.87 324.162 140.649V139.581C323.259 139.625 322.796 139.636 322.796 138.931V136.287H324.162ZM326.106 136.661C326.106 136.265 326.48 136.077 326.91 136.077C327.362 136.077 327.747 136.276 327.946 136.705L328.948 136.143C328.563 135.416 327.813 134.998 326.91 134.998C325.786 134.998 324.894 135.648 324.894 136.683C324.894 138.655 327.857 138.104 327.857 139.085C327.857 139.526 327.45 139.702 326.921 139.702C326.315 139.702 325.874 139.404 325.698 138.909L324.673 139.504C325.026 140.297 325.819 140.793 326.921 140.793C328.111 140.793 329.069 140.198 329.069 139.096C329.069 137.058 326.106 137.664 326.106 136.661Z" fill="#333333"/>
<path d="M307.896 147.322H317.078L312.487 152.831L307.896 147.322Z" fill="white"/>
</g>
<g filter="url(#filter8_d_69_12543)">
<rect x="144.916" y="95.8433" width="46.0174" height="20.263" rx="3.67246" fill="white"/>
<path d="M155.563 105.423C156.092 105.082 156.445 104.531 156.445 103.793C156.445 102.305 155.277 101.578 153.999 101.578C152.71 101.578 151.553 102.305 151.553 103.793C151.553 104.531 151.905 105.082 152.423 105.423C151.718 105.82 151.288 106.492 151.288 107.296C151.288 108.728 152.39 109.577 153.999 109.577C155.607 109.577 156.698 108.728 156.698 107.296C156.698 106.481 156.279 105.82 155.563 105.423ZM153.999 102.779C154.638 102.779 155.178 103.132 155.178 103.848C155.178 104.531 154.638 104.916 153.999 104.916C153.349 104.916 152.82 104.531 152.82 103.848C152.82 103.132 153.349 102.779 153.999 102.779ZM153.999 108.376C153.161 108.376 152.555 107.957 152.555 107.175C152.555 106.382 153.161 105.974 153.999 105.974C154.825 105.974 155.431 106.382 155.431 107.175C155.431 107.957 154.825 108.376 153.999 108.376ZM163.447 109.577C165.132 109.577 166.366 108.541 166.366 106.878V101.721H165.099V106.8C165.099 107.704 164.581 108.343 163.447 108.343C162.312 108.343 161.794 107.704 161.794 106.8V101.721H160.527V106.878C160.527 108.541 161.75 109.577 163.447 109.577ZM170.644 103.782C169.895 103.782 169.3 104.057 168.936 104.63V103.925H167.746V109.434H168.936V106.481C168.936 105.357 169.553 104.894 170.336 104.894C171.085 104.894 171.569 105.335 171.569 106.172V109.434H172.759V106.051C172.759 104.619 171.878 103.782 170.644 103.782ZM174.635 103.099C175.054 103.099 175.396 102.746 175.396 102.338C175.396 101.92 175.054 101.578 174.635 101.578C174.217 101.578 173.875 101.92 173.875 102.338C173.875 102.746 174.217 103.099 174.635 103.099ZM174.041 109.434H175.23V103.925H174.041V109.434ZM179.686 105.071V103.925H178.32V102.382L177.13 102.735V103.925H176.116V105.071H177.13V107.715C177.13 109.147 177.857 109.654 179.686 109.434V108.365C178.782 108.409 178.32 108.42 178.32 107.715V105.071H179.686ZM181.629 105.445C181.629 105.049 182.004 104.861 182.434 104.861C182.885 104.861 183.271 105.06 183.469 105.489L184.472 104.927C184.086 104.2 183.337 103.782 182.434 103.782C181.31 103.782 180.417 104.432 180.417 105.467C180.417 107.439 183.381 106.889 183.381 107.869C183.381 108.31 182.973 108.486 182.445 108.486C181.839 108.486 181.398 108.189 181.222 107.693L180.197 108.288C180.55 109.081 181.343 109.577 182.445 109.577C183.634 109.577 184.593 108.982 184.593 107.88C184.593 105.842 181.629 106.448 181.629 105.445Z" fill="#333333"/>
<path d="M163.334 116.106H172.515L167.925 121.615L163.334 116.106Z" fill="white"/>
</g>
<g filter="url(#filter9_d_69_12543)">
<rect x="32.9062" y="73.8086" width="45.0174" height="20.263" rx="3.67246" fill="white"/>
<path d="M38.9457 79.6868V80.8987H42.4712L39.805 87.3989H41.1381L43.8484 80.7885V79.6868H38.9457ZM50.5495 87.5422C52.2352 87.5422 53.4692 86.5065 53.4692 84.8429V79.6868H52.2022V84.7658C52.2022 85.6692 51.6843 86.3082 50.5495 86.3082C49.4148 86.3082 48.8969 85.6692 48.8969 84.7658V79.6868H47.6299V84.8429C47.6299 86.5065 48.8529 87.5422 50.5495 87.5422ZM57.7469 81.747C56.9977 81.747 56.4028 82.0224 56.0392 82.5954V81.8902H54.8493V87.3989H56.0392V84.4463C56.0392 83.3225 56.6562 82.8598 57.4384 82.8598C58.1876 82.8598 58.6724 83.3005 58.6724 84.1378V87.3989H59.8622V84.0166C59.8622 82.5843 58.9808 81.747 57.7469 81.747ZM61.7384 81.0639C62.157 81.0639 62.4986 80.7114 62.4986 80.3037C62.4986 79.8851 62.157 79.5435 61.7384 79.5435C61.3197 79.5435 60.9782 79.8851 60.9782 80.3037C60.9782 80.7114 61.3197 81.0639 61.7384 81.0639ZM61.1434 87.3989H62.3333V81.8902H61.1434V87.3989ZM66.7887 83.036V81.8902H65.4226V80.3478L64.2327 80.7004V81.8902H63.2191V83.036H64.2327V85.6802C64.2327 87.1125 64.9598 87.6193 66.7887 87.3989V86.3302C65.8853 86.3743 65.4226 86.3853 65.4226 85.6802V83.036H66.7887ZM68.7322 83.4106C68.7322 83.014 69.1068 82.8267 69.5364 82.8267C69.9881 82.8267 70.3738 83.025 70.5721 83.4547L71.5746 82.8928C71.189 82.1657 70.4399 81.747 69.5364 81.747C68.4127 81.747 67.5203 82.397 67.5203 83.4327C67.5203 85.4048 70.4839 84.8539 70.4839 85.8345C70.4839 86.2752 70.0763 86.4514 69.5475 86.4514C68.9415 86.4514 68.5008 86.154 68.3245 85.6582L67.2999 86.2531C67.6525 87.0464 68.4457 87.5422 69.5475 87.5422C70.7373 87.5422 71.6958 86.9472 71.6958 85.8455C71.6958 83.8073 68.7322 84.4132 68.7322 83.4106Z" fill="#333333"/>
<path d="M50.8242 94.0718H60.0054L55.4148 99.5805L50.8242 94.0718Z" fill="white"/>
</g>
<g filter="url(#filter10_d_69_12543)">
<rect x="22.8066" y="172.965" width="49.0174" height="20.263" rx="3.67246" fill="white"/>
<path d="M30.5864 178.843L28.5592 179.559L28.8677 180.639L30.4212 180.198V186.555H31.6882V178.843H30.5864ZM32.8568 186.555H37.9358V185.332H34.7408L36.4815 183.592C37.2197 182.842 37.7926 182.038 37.7926 181.08C37.7926 179.548 36.5917 178.7 35.3247 178.7C34.3001 178.7 33.3305 179.207 32.8347 180.264L33.9034 180.892C34.2009 180.275 34.6967 179.934 35.3357 179.934C35.9967 179.934 36.5256 180.352 36.5256 181.124C36.5256 181.708 36.0959 182.269 35.545 182.82L32.8568 185.564V186.555ZM44.7147 186.698C46.4004 186.698 47.6343 185.663 47.6343 183.999V178.843H46.3673V183.922C46.3673 184.825 45.8495 185.464 44.7147 185.464C43.58 185.464 43.0621 184.825 43.0621 183.922V178.843H41.7951V183.999C41.7951 185.663 43.0181 186.698 44.7147 186.698ZM51.9121 180.903C51.1629 180.903 50.568 181.179 50.2044 181.752V181.046H49.0145V186.555H50.2044V183.603C50.2044 182.479 50.8214 182.016 51.6036 182.016C52.3528 182.016 52.8376 182.457 52.8376 183.294V186.555H54.0274V183.173C54.0274 181.741 53.146 180.903 51.9121 180.903ZM55.9036 180.22C56.3222 180.22 56.6638 179.868 56.6638 179.46C56.6638 179.041 56.3222 178.7 55.9036 178.7C55.4849 178.7 55.1434 179.041 55.1434 179.46C55.1434 179.868 55.4849 180.22 55.9036 180.22ZM55.3086 186.555H56.4985V181.046H55.3086V186.555ZM60.9539 182.192V181.046H59.5878V179.504L58.3979 179.857V181.046H57.3843V182.192H58.3979V184.836C58.3979 186.269 59.125 186.776 60.9539 186.555V185.486C60.0505 185.531 59.5878 185.542 59.5878 184.836V182.192H60.9539ZM62.8974 182.567C62.8974 182.17 63.2719 181.983 63.7016 181.983C64.1533 181.983 64.5389 182.181 64.7373 182.611L65.7398 182.049C65.3542 181.322 64.6051 180.903 63.7016 180.903C62.5779 180.903 61.6854 181.553 61.6854 182.589C61.6854 184.561 64.6491 184.01 64.6491 184.991C64.6491 185.431 64.2415 185.608 63.7126 185.608C63.1067 185.608 62.666 185.31 62.4897 184.814L61.4651 185.409C61.8177 186.203 62.6109 186.698 63.7126 186.698C64.9025 186.698 65.861 186.103 65.861 185.002C65.861 182.964 62.8974 183.569 62.8974 182.567Z" fill="#333333"/>
<path d="M42.7246 193.228H51.9058L47.3152 198.737L42.7246 193.228Z" fill="white"/>
</g>
<g filter="url(#filter11_d_69_12543)">
<rect x="127.471" y="183.064" width="46.0174" height="20.263" rx="3.67246" fill="white"/>
<path d="M138.118 192.644C138.647 192.302 138.999 191.752 138.999 191.013C138.999 189.526 137.831 188.799 136.553 188.799C135.264 188.799 134.108 189.526 134.108 191.013C134.108 191.752 134.46 192.302 134.978 192.644C134.273 193.041 133.843 193.713 133.843 194.517C133.843 195.949 134.945 196.798 136.553 196.798C138.162 196.798 139.253 195.949 139.253 194.517C139.253 193.702 138.834 193.041 138.118 192.644ZM136.553 190C137.192 190 137.732 190.352 137.732 191.068C137.732 191.752 137.192 192.137 136.553 192.137C135.903 192.137 135.375 191.752 135.375 191.068C135.375 190.352 135.903 190 136.553 190ZM136.553 195.597C135.716 195.597 135.11 195.178 135.11 194.396C135.11 193.602 135.716 193.195 136.553 193.195C137.38 193.195 137.986 193.602 137.986 194.396C137.986 195.178 137.38 195.597 136.553 195.597ZM146.001 196.798C147.687 196.798 148.921 195.762 148.921 194.098V188.942H147.654V194.021C147.654 194.925 147.136 195.564 146.001 195.564C144.867 195.564 144.349 194.925 144.349 194.021V188.942H143.082V194.098C143.082 195.762 144.305 196.798 146.001 196.798ZM153.199 191.002C152.45 191.002 151.855 191.278 151.491 191.851V191.146H150.301V196.654H151.491V193.702C151.491 192.578 152.108 192.115 152.89 192.115C153.639 192.115 154.124 192.556 154.124 193.393V196.654H155.314V193.272C155.314 191.84 154.433 191.002 153.199 191.002ZM157.19 190.319C157.609 190.319 157.95 189.967 157.95 189.559C157.95 189.14 157.609 188.799 157.19 188.799C156.771 188.799 156.43 189.14 156.43 189.559C156.43 189.967 156.771 190.319 157.19 190.319ZM156.595 196.654H157.785V191.146H156.595V196.654ZM162.241 192.291V191.146H160.874V189.603L159.684 189.956V191.146H158.671V192.291H159.684V194.936C159.684 196.368 160.412 196.875 162.241 196.654V195.586C161.337 195.63 160.874 195.641 160.874 194.936V192.291H162.241ZM164.184 192.666C164.184 192.269 164.559 192.082 164.988 192.082C165.44 192.082 165.826 192.28 166.024 192.71L167.026 192.148C166.641 191.421 165.892 191.002 164.988 191.002C163.864 191.002 162.972 191.652 162.972 192.688C162.972 194.66 165.936 194.109 165.936 195.09C165.936 195.531 165.528 195.707 164.999 195.707C164.393 195.707 163.953 195.409 163.776 194.914L162.752 195.508C163.104 196.302 163.897 196.798 164.999 196.798C166.189 196.798 167.148 196.203 167.148 195.101C167.148 193.063 164.184 193.669 164.184 192.666Z" fill="#333333"/>
<path d="M145.889 203.327H155.07L150.479 208.836L145.889 203.327Z" fill="white"/>
</g>
<g filter="url(#filter12_d_69_12543)">
<rect x="265.189" y="185.818" width="45.0174" height="20.263" rx="3.67246" fill="white"/>
<path d="M273.792 194.605H272.823L272.955 192.886H276.084V191.697H271.787L271.49 195.839H273.737C274.574 195.839 275.147 196.302 275.147 197.073C275.147 197.844 274.574 198.318 273.715 198.318C272.911 198.318 272.382 197.954 272.184 197.271L271.093 197.899C271.501 199.012 272.547 199.552 273.715 199.552C275.136 199.552 276.414 198.693 276.414 197.073C276.414 195.464 275.191 194.605 273.792 194.605ZM283.134 199.552C284.82 199.552 286.054 198.516 286.054 196.853V191.697H284.787V196.776C284.787 197.679 284.269 198.318 283.134 198.318C281.999 198.318 281.481 197.679 281.481 196.776V191.697H280.214V196.853C280.214 198.516 281.437 199.552 283.134 199.552ZM290.331 193.757C289.582 193.757 288.987 194.032 288.624 194.605V193.9H287.434V199.409H288.624V196.456C288.624 195.332 289.241 194.87 290.023 194.87C290.772 194.87 291.257 195.31 291.257 196.148V199.409H292.447V196.026C292.447 194.594 291.565 193.757 290.331 193.757ZM294.323 193.074C294.741 193.074 295.083 192.721 295.083 192.314C295.083 191.895 294.741 191.553 294.323 191.553C293.904 191.553 293.563 191.895 293.563 192.314C293.563 192.721 293.904 193.074 294.323 193.074ZM293.728 199.409H294.918V193.9H293.728V199.409ZM299.373 195.046V193.9H298.007V192.358L296.817 192.71V193.9H295.804V195.046H296.817V197.69C296.817 199.122 297.544 199.629 299.373 199.409V198.34C298.47 198.384 298.007 198.395 298.007 197.69V195.046H299.373ZM301.317 195.42C301.317 195.024 301.691 194.836 302.121 194.836C302.573 194.836 302.958 195.035 303.157 195.464L304.159 194.903C303.774 194.175 303.024 193.757 302.121 193.757C300.997 193.757 300.105 194.407 300.105 195.442C300.105 197.415 303.068 196.864 303.068 197.844C303.068 198.285 302.661 198.461 302.132 198.461C301.526 198.461 301.085 198.164 300.909 197.668L299.884 198.263C300.237 199.056 301.03 199.552 302.132 199.552C303.322 199.552 304.28 198.957 304.28 197.855C304.28 195.817 301.317 196.423 301.317 195.42Z" fill="#333333"/>
<path d="M283.107 206.082H292.289L287.698 211.59L283.107 206.082Z" fill="white"/>
</g>
<g filter="url(#filter13_d_69_12543)">
<rect x="201.838" y="211.525" width="45.0174" height="20.263" rx="3.67246" fill="white"/>
<path d="M207.838 225.116H212.917V223.893H209.722L211.463 222.152C212.201 221.403 212.774 220.599 212.774 219.64C212.774 218.109 211.573 217.26 210.306 217.26C209.282 217.26 208.312 217.767 207.816 218.825L208.885 219.453C209.183 218.836 209.678 218.494 210.317 218.494C210.978 218.494 211.507 218.913 211.507 219.684C211.507 220.268 211.078 220.83 210.527 221.381L207.838 224.124V225.116ZM219.696 225.259C221.382 225.259 222.616 224.223 222.616 222.56V217.404H221.349V222.483C221.349 223.386 220.831 224.025 219.696 224.025C218.562 224.025 218.044 223.386 218.044 222.483V217.404H216.777V222.56C216.777 224.223 218 225.259 219.696 225.259ZM226.894 219.464C226.145 219.464 225.55 219.739 225.186 220.312V219.607H223.996V225.116H225.186V222.163C225.186 221.039 225.803 220.577 226.585 220.577C227.334 220.577 227.819 221.017 227.819 221.855V225.116H229.009V221.733C229.009 220.301 228.128 219.464 226.894 219.464ZM230.885 218.781C231.304 218.781 231.645 218.428 231.645 218.021C231.645 217.602 231.304 217.26 230.885 217.26C230.467 217.26 230.125 217.602 230.125 218.021C230.125 218.428 230.467 218.781 230.885 218.781ZM230.29 225.116H231.48V219.607H230.29V225.116ZM235.936 220.753V219.607H234.569V218.065L233.38 218.417V219.607H232.366V220.753H233.38V223.397C233.38 224.829 234.107 225.336 235.936 225.116V224.047C235.032 224.091 234.569 224.102 234.569 223.397V220.753H235.936ZM237.879 221.127C237.879 220.731 238.254 220.544 238.683 220.544C239.135 220.544 239.521 220.742 239.719 221.172L240.721 220.61C240.336 219.882 239.587 219.464 238.683 219.464C237.559 219.464 236.667 220.114 236.667 221.149C236.667 223.122 239.631 222.571 239.631 223.551C239.631 223.992 239.223 224.168 238.694 224.168C238.088 224.168 237.648 223.871 237.471 223.375L236.447 223.97C236.799 224.763 237.593 225.259 238.694 225.259C239.884 225.259 240.843 224.664 240.843 223.562C240.843 221.524 237.879 222.13 237.879 221.127Z" fill="#333333"/>
<path d="M219.756 231.789H228.937L224.346 237.297L219.756 231.789Z" fill="white"/>
</g>
<g filter="url(#filter14_d_69_12543)">
<rect x="296.404" y="275.793" width="44.0174" height="20.263" rx="3.67246" fill="white"/>
<path d="M307.835 287.268C307.835 285.803 306.712 285.384 305.665 284.988V282.806C306.117 282.906 306.447 283.181 306.646 283.677L307.714 283.06C307.318 282.156 306.557 281.672 305.665 281.55V280.57H304.949V281.539C303.803 281.65 302.8 282.399 302.8 283.699C302.8 285.109 303.88 285.583 304.949 285.979V288.271C304.233 288.194 303.781 287.808 303.539 287.191L302.448 287.819C302.834 288.822 303.726 289.439 304.949 289.516V290.486H305.665V289.505C306.921 289.351 307.835 288.546 307.835 287.268ZM304.067 283.699C304.067 283.203 304.409 282.873 304.949 282.784V284.701C304.332 284.415 304.067 284.162 304.067 283.699ZM305.665 288.26V286.255C306.227 286.508 306.568 286.762 306.568 287.279C306.568 287.753 306.271 288.139 305.665 288.26ZM308.506 289.384H313.585V288.161H310.39L312.13 286.42C312.868 285.671 313.441 284.867 313.441 283.908C313.441 282.377 312.24 281.528 310.973 281.528C309.949 281.528 308.979 282.035 308.484 283.093L309.552 283.721C309.85 283.104 310.345 282.762 310.984 282.762C311.646 282.762 312.174 283.181 312.174 283.952C312.174 284.536 311.745 285.098 311.194 285.649L308.506 288.392V289.384ZM317.358 289.527C319.297 289.527 320.388 287.907 320.388 285.528C320.388 283.148 319.297 281.528 317.358 281.528C315.419 281.528 314.329 283.148 314.329 285.528C314.329 287.907 315.419 289.527 317.358 289.527ZM317.358 288.293C316.224 288.293 315.596 287.302 315.596 285.528C315.596 283.754 316.224 282.762 317.358 282.762C318.504 282.762 319.121 283.754 319.121 285.528C319.121 287.302 318.504 288.293 317.358 288.293ZM324.298 289.527C326.237 289.527 327.328 287.907 327.328 285.528C327.328 283.148 326.237 281.528 324.298 281.528C322.359 281.528 321.268 283.148 321.268 285.528C321.268 287.907 322.359 289.527 324.298 289.527ZM324.298 288.293C323.163 288.293 322.535 287.302 322.535 285.528C322.535 283.754 323.163 282.762 324.298 282.762C325.444 282.762 326.061 283.754 326.061 285.528C326.061 287.302 325.444 288.293 324.298 288.293ZM331.238 289.527C333.177 289.527 334.267 287.907 334.267 285.528C334.267 283.148 333.177 281.528 331.238 281.528C329.299 281.528 328.208 283.148 328.208 285.528C328.208 287.907 329.299 289.527 331.238 289.527ZM331.238 288.293C330.103 288.293 329.475 287.302 329.475 285.528C329.475 283.754 330.103 282.762 331.238 282.762C332.383 282.762 333 283.754 333 285.528C333 287.302 332.383 288.293 331.238 288.293Z" fill="#333333"/>
<path d="M313.822 296.057H323.003L318.413 301.565L313.822 296.057Z" fill="white"/>
</g>
<g filter="url(#filter15_d_69_12543)">
<rect x="198.166" y="286.811" width="45.0174" height="20.263" rx="3.67246" fill="white"/>
<path d="M204.205 292.689V293.901H207.731L205.065 300.401H206.398L209.108 293.791V292.689H204.205ZM215.809 300.545C217.495 300.545 218.729 299.509 218.729 297.845V292.689H217.462V297.768C217.462 298.672 216.944 299.311 215.809 299.311C214.675 299.311 214.157 298.672 214.157 297.768V292.689H212.89V297.845C212.89 299.509 214.113 300.545 215.809 300.545ZM223.007 294.749C222.257 294.749 221.663 295.025 221.299 295.598V294.893H220.109V300.401H221.299V297.449C221.299 296.325 221.916 295.862 222.698 295.862C223.447 295.862 223.932 296.303 223.932 297.14V300.401H225.122V297.019C225.122 295.587 224.241 294.749 223.007 294.749ZM226.998 294.066C227.417 294.066 227.758 293.714 227.758 293.306C227.758 292.888 227.417 292.546 226.998 292.546C226.579 292.546 226.238 292.888 226.238 293.306C226.238 293.714 226.579 294.066 226.998 294.066ZM226.403 300.401H227.593V294.893H226.403V300.401ZM232.048 296.038V294.893H230.682V293.35L229.492 293.703V294.893H228.479V296.038H229.492V298.683C229.492 300.115 230.22 300.622 232.048 300.401V299.333C231.145 299.377 230.682 299.388 230.682 298.683V296.038H232.048ZM233.992 296.413C233.992 296.016 234.367 295.829 234.796 295.829C235.248 295.829 235.634 296.027 235.832 296.457L236.834 295.895C236.449 295.168 235.7 294.749 234.796 294.749C233.672 294.749 232.78 295.399 232.78 296.435C232.78 298.407 235.744 297.856 235.744 298.837C235.744 299.278 235.336 299.454 234.807 299.454C234.201 299.454 233.761 299.156 233.584 298.661L232.56 299.256C232.912 300.049 233.705 300.545 234.807 300.545C235.997 300.545 236.956 299.95 236.956 298.848C236.956 296.81 233.992 297.416 233.992 296.413Z" fill="#333333"/>
<path d="M216.084 307.074H225.265L220.675 312.583L216.084 307.074Z" fill="white"/>
</g>
<g filter="url(#filter16_d_69_12543)">
<rect x="18.2168" y="211.525" width="45.0174" height="20.263" rx="3.67246" fill="white"/>
<path d="M29.5187 219.893C29.5187 218.34 28.395 217.26 26.7975 217.26C25.1999 217.26 24.0651 218.34 24.0651 219.893C24.0651 221.447 25.1999 222.527 26.7975 222.527H26.9297L25.1669 225.116H26.6212L29.056 221.447C29.3535 221.017 29.5187 220.488 29.5187 219.893ZM25.3321 219.893C25.3321 219.012 25.9601 218.461 26.7975 218.461C27.6348 218.461 28.2517 219.012 28.2517 219.893C28.2517 220.775 27.6348 221.326 26.7975 221.326C25.9601 221.326 25.3321 220.764 25.3321 219.893ZM36.1614 225.259C37.847 225.259 39.081 224.223 39.081 222.56V217.404H37.814V222.483C37.814 223.386 37.2961 224.025 36.1614 224.025C35.0266 224.025 34.5087 223.386 34.5087 222.483V217.404H33.2418V222.56C33.2418 224.223 34.4647 225.259 36.1614 225.259ZM43.3587 219.464C42.6095 219.464 42.0146 219.739 41.651 220.312V219.607H40.4611V225.116H41.651V222.163C41.651 221.039 42.268 220.577 43.0502 220.577C43.7994 220.577 44.2842 221.017 44.2842 221.855V225.116H45.474V221.733C45.474 220.301 44.5927 219.464 43.3587 219.464ZM47.3502 218.781C47.7688 218.781 48.1104 218.428 48.1104 218.021C48.1104 217.602 47.7688 217.26 47.3502 217.26C46.9315 217.26 46.59 217.602 46.59 218.021C46.59 218.428 46.9315 218.781 47.3502 218.781ZM46.7552 225.116H47.9451V219.607H46.7552V225.116ZM52.4005 220.753V219.607H51.0344V218.065L49.8445 218.417V219.607H48.8309V220.753H49.8445V223.397C49.8445 224.829 50.5716 225.336 52.4005 225.116V224.047C51.4971 224.091 51.0344 224.102 51.0344 223.397V220.753H52.4005ZM54.344 221.127C54.344 220.731 54.7186 220.544 55.1482 220.544C55.6 220.544 55.9856 220.742 56.1839 221.172L57.1865 220.61C56.8008 219.882 56.0517 219.464 55.1482 219.464C54.0245 219.464 53.1321 220.114 53.1321 221.149C53.1321 223.122 56.0957 222.571 56.0957 223.551C56.0957 223.992 55.6881 224.168 55.1593 224.168C54.5533 224.168 54.1126 223.871 53.9363 223.375L52.9117 223.97C53.2643 224.763 54.0575 225.259 55.1593 225.259C56.3491 225.259 57.3076 224.664 57.3076 223.562C57.3076 221.524 54.344 222.13 54.344 221.127Z" fill="#333333"/>
<path d="M36.1348 231.789H45.3159L40.7253 237.297L36.1348 231.789Z" fill="white"/>
</g>
<g filter="url(#filter17_d_69_12543)">
<rect x="17.2969" y="289.565" width="45.0174" height="20.263" rx="3.67246" fill="white"/>
<path d="M26.5765 298.595L28.141 296.523V295.444H23.4035V296.633H26.6316L24.9679 298.826L25.4747 299.586H25.7612C26.6316 299.586 27.1935 300.049 27.1935 300.82C27.1935 301.591 26.6316 302.065 25.7612 302.065C24.99 302.065 24.4722 301.724 24.2518 301.073L23.1721 301.701C23.6018 302.781 24.6264 303.299 25.7612 303.299C27.1824 303.299 28.4605 302.44 28.4605 300.82C28.4605 299.619 27.6342 298.848 26.5765 298.595ZM35.2145 303.299C36.9002 303.299 38.1341 302.263 38.1341 300.6V295.444H36.8671V300.523C36.8671 301.426 36.3493 302.065 35.2145 302.065C34.0797 302.065 33.5619 301.426 33.5619 300.523V295.444H32.2949V300.6C32.2949 302.263 33.5179 303.299 35.2145 303.299ZM42.4119 297.504C41.6627 297.504 41.0678 297.779 40.7042 298.352V297.647H39.5143V303.156H40.7042V300.203C40.7042 299.079 41.3212 298.617 42.1034 298.617C42.8526 298.617 43.3373 299.057 43.3373 299.895V303.156H44.5272V299.773C44.5272 298.341 43.6458 297.504 42.4119 297.504ZM46.4034 296.821C46.822 296.821 47.1636 296.468 47.1636 296.061C47.1636 295.642 46.822 295.3 46.4034 295.3C45.9847 295.3 45.6432 295.642 45.6432 296.061C45.6432 296.468 45.9847 296.821 46.4034 296.821ZM45.8084 303.156H46.9983V297.647H45.8084V303.156ZM51.4537 298.793V297.647H50.0876V296.105L48.8977 296.457V297.647H47.8841V298.793H48.8977V301.437C48.8977 302.869 49.6248 303.376 51.4537 303.156V302.087C50.5503 302.131 50.0876 302.142 50.0876 301.437V298.793H51.4537ZM53.3971 299.167C53.3971 298.771 53.7717 298.584 54.2014 298.584C54.6531 298.584 55.0387 298.782 55.2371 299.212L56.2396 298.65C55.854 297.923 55.1048 297.504 54.2014 297.504C53.0776 297.504 52.1852 298.154 52.1852 299.19C52.1852 301.162 55.1489 300.611 55.1489 301.591C55.1489 302.032 54.7413 302.208 54.2124 302.208C53.6065 302.208 53.1658 301.911 52.9895 301.415L51.9649 302.01C52.3174 302.803 53.1107 303.299 54.2124 303.299C55.4023 303.299 56.3608 302.704 56.3608 301.602C56.3608 299.564 53.3971 300.17 53.3971 299.167Z" fill="#333333"/>
<path d="M35.2148 309.829H44.396L39.8054 315.337L35.2148 309.829Z" fill="white"/>
</g>
<g filter="url(#filter18_d_69_12543)">
<rect x="90.7461" y="245.496" width="45.0174" height="20.263" rx="3.67246" fill="white"/>
<path d="M99.3267 253.963H99.1835L100.946 251.374H99.503L97.0572 255.043C96.7597 255.472 96.5944 256.001 96.5944 256.596C96.5944 258.149 97.7182 259.229 99.3267 259.229C100.924 259.229 102.048 258.149 102.048 256.596C102.048 255.043 100.924 253.963 99.3267 253.963ZM99.3267 258.028C98.4784 258.028 97.8614 257.477 97.8614 256.596C97.8614 255.715 98.4784 255.164 99.3267 255.164C100.164 255.164 100.781 255.715 100.781 256.596C100.781 257.466 100.164 258.028 99.3267 258.028ZM108.691 259.229C110.376 259.229 111.61 258.194 111.61 256.53V251.374H110.343V256.453C110.343 257.356 109.825 257.995 108.691 257.995C107.556 257.995 107.038 257.356 107.038 256.453V251.374H105.771V256.53C105.771 258.194 106.994 259.229 108.691 259.229ZM115.888 253.434C115.139 253.434 114.544 253.709 114.18 254.282V253.577H112.99V259.086H114.18V256.133C114.18 255.01 114.797 254.547 115.58 254.547C116.329 254.547 116.813 254.987 116.813 255.825V259.086H118.003V255.704C118.003 254.271 117.122 253.434 115.888 253.434ZM119.879 252.751C120.298 252.751 120.64 252.398 120.64 251.991C120.64 251.572 120.298 251.231 119.879 251.231C119.461 251.231 119.119 251.572 119.119 251.991C119.119 252.398 119.461 252.751 119.879 252.751ZM119.285 259.086H120.474V253.577H119.285V259.086ZM124.93 254.723V253.577H123.564V252.035L122.374 252.387V253.577H121.36V254.723H122.374V257.367C122.374 258.799 123.101 259.306 124.93 259.086V258.017C124.026 258.061 123.564 258.072 123.564 257.367V254.723H124.93ZM126.873 255.098C126.873 254.701 127.248 254.514 127.678 254.514C128.129 254.514 128.515 254.712 128.713 255.142L129.716 254.58C129.33 253.853 128.581 253.434 127.678 253.434C126.554 253.434 125.661 254.084 125.661 255.12C125.661 257.092 128.625 256.541 128.625 257.521C128.625 257.962 128.217 258.138 127.689 258.138C127.083 258.138 126.642 257.841 126.466 257.345L125.441 257.94C125.794 258.733 126.587 259.229 127.689 259.229C128.878 259.229 129.837 258.634 129.837 257.532C129.837 255.494 126.873 256.1 126.873 255.098Z" fill="#333333"/>
<path d="M108.664 265.759H117.845L113.255 271.267L108.664 265.759Z" fill="white"/>
</g>
<g filter="url(#filter19_d_69_12543)">
<rect x="114.617" y="308.846" width="46.0174" height="20.263" rx="3.67246" fill="white"/>
<path d="M125.264 318.426C125.793 318.084 126.146 317.533 126.146 316.795C126.146 315.308 124.978 314.581 123.7 314.581C122.411 314.581 121.254 315.308 121.254 316.795C121.254 317.533 121.607 318.084 122.124 318.426C121.419 318.822 120.99 319.494 120.99 320.299C120.99 321.731 122.091 322.579 123.7 322.579C125.308 322.579 126.399 321.731 126.399 320.299C126.399 319.483 125.981 318.822 125.264 318.426ZM123.7 315.782C124.339 315.782 124.879 316.134 124.879 316.85C124.879 317.533 124.339 317.919 123.7 317.919C123.05 317.919 122.521 317.533 122.521 316.85C122.521 316.134 123.05 315.782 123.7 315.782ZM123.7 321.378C122.863 321.378 122.257 320.96 122.257 320.177C122.257 319.384 122.863 318.977 123.7 318.977C124.526 318.977 125.132 319.384 125.132 320.177C125.132 320.96 124.526 321.378 123.7 321.378ZM133.148 322.579C134.833 322.579 136.067 321.544 136.067 319.88V314.724H134.8V319.803C134.8 320.706 134.283 321.345 133.148 321.345C132.013 321.345 131.495 320.706 131.495 319.803V314.724H130.228V319.88C130.228 321.544 131.451 322.579 133.148 322.579ZM140.345 316.784C139.596 316.784 139.001 317.06 138.637 317.632V316.927H137.448V322.436H138.637V319.483C138.637 318.36 139.254 317.897 140.037 317.897C140.786 317.897 141.271 318.338 141.271 319.175V322.436H142.461V319.054C142.461 317.621 141.579 316.784 140.345 316.784ZM144.337 316.101C144.755 316.101 145.097 315.748 145.097 315.341C145.097 314.922 144.755 314.581 144.337 314.581C143.918 314.581 143.576 314.922 143.576 315.341C143.576 315.748 143.918 316.101 144.337 316.101ZM143.742 322.436H144.932V316.927H143.742V322.436ZM149.387 318.073V316.927H148.021V315.385L146.831 315.737V316.927H145.817V318.073H146.831V320.717C146.831 322.15 147.558 322.656 149.387 322.436V321.367C148.484 321.411 148.021 321.422 148.021 320.717V318.073H149.387ZM151.33 318.448C151.33 318.051 151.705 317.864 152.135 317.864C152.586 317.864 152.972 318.062 153.17 318.492L154.173 317.93C153.787 317.203 153.038 316.784 152.135 316.784C151.011 316.784 150.119 317.434 150.119 318.47C150.119 320.442 153.082 319.891 153.082 320.872C153.082 321.312 152.675 321.489 152.146 321.489C151.54 321.489 151.099 321.191 150.923 320.695L149.898 321.29C150.251 322.083 151.044 322.579 152.146 322.579C153.336 322.579 154.294 321.984 154.294 320.883C154.294 318.844 151.33 319.45 151.33 318.448Z" fill="#333333"/>
<path d="M133.035 329.109H142.216L137.626 334.618L133.035 329.109Z" fill="white"/>
</g>
<g filter="url(#filter20_d_69_12543)">
<rect x="251.416" y="326.29" width="50.0174" height="20.263" rx="3.67246" fill="white"/>
<path d="M259.142 332.168L257.115 332.884L257.423 333.964L258.976 333.523V339.88H260.243V332.168H259.142ZM264.541 340.024C266.48 340.024 267.571 338.404 267.571 336.024C267.571 333.645 266.48 332.025 264.541 332.025C262.602 332.025 261.511 333.645 261.511 336.024C261.511 338.404 262.602 340.024 264.541 340.024ZM264.541 338.79C263.406 338.79 262.778 337.798 262.778 336.024C262.778 334.25 263.406 333.259 264.541 333.259C265.687 333.259 266.304 334.25 266.304 336.024C266.304 337.798 265.687 338.79 264.541 338.79ZM274.378 340.024C276.064 340.024 277.298 338.988 277.298 337.324V332.168H276.031V337.247C276.031 338.151 275.513 338.79 274.378 338.79C273.243 338.79 272.726 338.151 272.726 337.247V332.168H271.459V337.324C271.459 338.988 272.682 340.024 274.378 340.024ZM281.576 334.228C280.826 334.228 280.231 334.504 279.868 335.077V334.372H278.678V339.88H279.868V336.928C279.868 335.804 280.485 335.341 281.267 335.341C282.016 335.341 282.501 335.782 282.501 336.619V339.88H283.691V336.498C283.691 335.066 282.81 334.228 281.576 334.228ZM285.567 333.545C285.986 333.545 286.327 333.193 286.327 332.785C286.327 332.367 285.986 332.025 285.567 332.025C285.148 332.025 284.807 332.367 284.807 332.785C284.807 333.193 285.148 333.545 285.567 333.545ZM284.972 339.88H286.162V334.372H284.972V339.88ZM290.617 335.517V334.372H289.251V332.829L288.061 333.182V334.372H287.048V335.517H288.061V338.162C288.061 339.594 288.789 340.101 290.617 339.88V338.812C289.714 338.856 289.251 338.867 289.251 338.162V335.517H290.617ZM292.561 335.892C292.561 335.495 292.935 335.308 293.365 335.308C293.817 335.308 294.202 335.506 294.401 335.936L295.403 335.374C295.018 334.647 294.269 334.228 293.365 334.228C292.241 334.228 291.349 334.878 291.349 335.914C291.349 337.886 294.313 337.335 294.313 338.316C294.313 338.757 293.905 338.933 293.376 338.933C292.77 338.933 292.329 338.635 292.153 338.14L291.129 338.735C291.481 339.528 292.274 340.024 293.376 340.024C294.566 340.024 295.525 339.429 295.525 338.327C295.525 336.289 292.561 336.895 292.561 335.892Z" fill="#333333"/>
<path d="M271.834 346.553H281.015L276.425 352.062L271.834 346.553Z" fill="white"/>
</g>
<g filter="url(#filter21_d_69_12543)">
<rect x="71.4668" y="388.722" width="50.0174" height="20.263" rx="3.67246" fill="white"/>
<path d="M79.1925 394.6L77.1653 395.316L77.4738 396.396L79.0272 395.955V402.312H80.2942V394.6H79.1925ZM84.5918 402.455C86.5308 402.455 87.6216 400.836 87.6216 398.456C87.6216 396.076 86.5308 394.457 84.5918 394.457C82.6527 394.457 81.562 396.076 81.562 398.456C81.562 400.836 82.6527 402.455 84.5918 402.455ZM84.5918 401.221C83.457 401.221 82.829 400.23 82.829 398.456C82.829 396.682 83.457 395.691 84.5918 395.691C85.7376 395.691 86.3546 396.682 86.3546 398.456C86.3546 400.23 85.7376 401.221 84.5918 401.221ZM94.429 402.455C96.1147 402.455 97.3486 401.42 97.3486 399.756V394.6H96.0816V399.679C96.0816 400.582 95.5638 401.221 94.429 401.221C93.2942 401.221 92.7764 400.582 92.7764 399.679V394.6H91.5094V399.756C91.5094 401.42 92.7323 402.455 94.429 402.455ZM101.626 396.66C100.877 396.66 100.282 396.936 99.9187 397.508V396.803H98.7288V402.312H99.9187V399.359C99.9187 398.236 100.536 397.773 101.318 397.773C102.067 397.773 102.552 398.214 102.552 399.051V402.312H103.742V398.93C103.742 397.497 102.86 396.66 101.626 396.66ZM105.618 395.977C106.036 395.977 106.378 395.624 106.378 395.217C106.378 394.798 106.036 394.457 105.618 394.457C105.199 394.457 104.858 394.798 104.858 395.217C104.858 395.624 105.199 395.977 105.618 395.977ZM105.023 402.312H106.213V396.803H105.023V402.312ZM110.668 397.949V396.803H109.302V395.261L108.112 395.613V396.803H107.099V397.949H108.112V400.593C108.112 402.026 108.839 402.532 110.668 402.312V401.243C109.765 401.287 109.302 401.298 109.302 400.593V397.949H110.668ZM112.612 398.324C112.612 397.927 112.986 397.74 113.416 397.74C113.868 397.74 114.253 397.938 114.452 398.368L115.454 397.806C115.068 397.079 114.319 396.66 113.416 396.66C112.292 396.66 111.4 397.31 111.4 398.346C111.4 400.318 114.363 399.767 114.363 400.748C114.363 401.188 113.956 401.365 113.427 401.365C112.821 401.365 112.38 401.067 112.204 400.571L111.179 401.166C111.532 401.959 112.325 402.455 113.427 402.455C114.617 402.455 115.575 401.86 115.575 400.759C115.575 398.72 112.612 399.326 112.612 398.324Z" fill="#333333"/>
<path d="M91.8848 408.985H101.066L96.4753 414.494L91.8848 408.985Z" fill="white"/>
</g>
<defs>
<filter id="filter0_d_69_12543" x="21.8881" y="1.2774" width="52.3625" height="33.1169" filterUnits="userSpaceOnUse" color-interpolation-filters="sRGB">
<feFlood flood-opacity="0" result="BackgroundImageFix"/>
<feColorMatrix in="SourceAlpha" type="matrix" values="0 0 0 0 0 0 0 0 0 0 0 0 0 0 0 0 0 0 127 0" result="hardAlpha"/>
<feOffset dy="0.918114"/>
<feGaussianBlur stdDeviation="1.83623"/>
<feColorMatrix type="matrix" values="0 0 0 0 0.235294 0 0 0 0 0.25098 0 0 0 0 0.262745 0 0 0 0.2 0"/>
<feBlend mode="normal" in2="BackgroundImageFix" result="effect1_dropShadow_69_12543"/>
<feBlend mode="normal" in="SourceGraphic" in2="effect1_dropShadow_69_12543" result="shape"/>
</filter>
<filter id="filter1_d_69_12543" x="155.015" y="26.0665" width="57.3625" height="33.1169" filterUnits="userSpaceOnUse" color-interpolation-filters="sRGB">
<feFlood flood-opacity="0" result="BackgroundImageFix"/>
<feColorMatrix in="SourceAlpha" type="matrix" values="0 0 0 0 0 0 0 0 0 0 0 0 0 0 0 0 0 0 127 0" result="hardAlpha"/>
<feOffset dy="0.918114"/>
<feGaussianBlur stdDeviation="1.83623"/>
<feColorMatrix type="matrix" values="0 0 0 0 0.235294 0 0 0 0 0.25098 0 0 0 0 0.262745 0 0 0 0.2 0"/>
<feBlend mode="normal" in2="BackgroundImageFix" result="effect1_dropShadow_69_12543"/>
<feBlend mode="normal" in="SourceGraphic" in2="effect1_dropShadow_69_12543" result="shape"/>
</filter>
<filter id="filter2_d_69_12543" x="250.499" y="4.94976" width="53.3625" height="33.1169" filterUnits="userSpaceOnUse" color-interpolation-filters="sRGB">
<feFlood flood-opacity="0" result="BackgroundImageFix"/>
<feColorMatrix in="SourceAlpha" type="matrix" values="0 0 0 0 0 0 0 0 0 0 0 0 0 0 0 0 0 0 127 0" result="hardAlpha"/>
<feOffset dy="0.918114"/>
<feGaussianBlur stdDeviation="1.83623"/>
<feColorMatrix type="matrix" values="0 0 0 0 0.235294 0 0 0 0 0.25098 0 0 0 0 0.262745 0 0 0 0.2 0"/>
<feBlend mode="normal" in2="BackgroundImageFix" result="effect1_dropShadow_69_12543"/>
<feBlend mode="normal" in="SourceGraphic" in2="effect1_dropShadow_69_12543" result="shape"/>
</filter>
<filter id="filter3_d_69_12543" x="88.9115" y="126.141" width="47.3625" height="33.1169" filterUnits="userSpaceOnUse" color-interpolation-filters="sRGB">
<feFlood flood-opacity="0" result="BackgroundImageFix"/>
<feColorMatrix in="SourceAlpha" type="matrix" values="0 0 0 0 0 0 0 0 0 0 0 0 0 0 0 0 0 0 127 0" result="hardAlpha"/>
<feOffset dy="0.918114"/>
<feGaussianBlur stdDeviation="1.83623"/>
<feColorMatrix type="matrix" values="0 0 0 0 0.235294 0 0 0 0 0.25098 0 0 0 0 0.262745 0 0 0 0.2 0"/>
<feBlend mode="normal" in2="BackgroundImageFix" result="effect1_dropShadow_69_12543"/>
<feBlend mode="normal" in="SourceGraphic" in2="effect1_dropShadow_69_12543" result="shape"/>
</filter>
<filter id="filter4_d_69_12543" x="214.693" y="120.632" width="56.3625" height="33.1169" filterUnits="userSpaceOnUse" color-interpolation-filters="sRGB">
<feFlood flood-opacity="0" result="BackgroundImageFix"/>
<feColorMatrix in="SourceAlpha" type="matrix" values="0 0 0 0 0 0 0 0 0 0 0 0 0 0 0 0 0 0 127 0" result="hardAlpha"/>
<feOffset dy="0.918114"/>
<feGaussianBlur stdDeviation="1.83623"/>
<feColorMatrix type="matrix" values="0 0 0 0 0.235294 0 0 0 0 0.25098 0 0 0 0 0.262745 0 0 0 0.2 0"/>
<feBlend mode="normal" in2="BackgroundImageFix" result="effect1_dropShadow_69_12543"/>
<feBlend mode="normal" in="SourceGraphic" in2="effect1_dropShadow_69_12543" result="shape"/>
</filter>
<filter id="filter5_d_69_12543" x="246.826" y="80.2354" width="52.3625" height="33.1169" filterUnits="userSpaceOnUse" color-interpolation-filters="sRGB">
<feFlood flood-opacity="0" result="BackgroundImageFix"/>
<feColorMatrix in="SourceAlpha" type="matrix" values="0 0 0 0 0 0 0 0 0 0 0 0 0 0 0 0 0 0 127 0" result="hardAlpha"/>
<feOffset dy="0.918114"/>
<feGaussianBlur stdDeviation="1.83623"/>
<feColorMatrix type="matrix" values="0 0 0 0 0.235294 0 0 0 0 0.25098 0 0 0 0 0.262745 0 0 0 0.2 0"/>
<feBlend mode="normal" in2="BackgroundImageFix" result="effect1_dropShadow_69_12543"/>
<feBlend mode="normal" in="SourceGraphic" in2="effect1_dropShadow_69_12543" result="shape"/>
</filter>
<filter id="filter6_d_69_12543" x="265.189" y="383.213" width="52.3625" height="33.1169" filterUnits="userSpaceOnUse" color-interpolation-filters="sRGB">
<feFlood flood-opacity="0" result="BackgroundImageFix"/>
<feColorMatrix in="SourceAlpha" type="matrix" values="0 0 0 0 0 0 0 0 0 0 0 0 0 0 0 0 0 0 127 0" result="hardAlpha"/>
<feOffset dy="0.918114"/>
<feGaussianBlur stdDeviation="1.83623"/>
<feColorMatrix type="matrix" values="0 0 0 0 0.235294 0 0 0 0 0.25098 0 0 0 0 0.262745 0 0 0 0.2 0"/>
<feBlend mode="normal" in2="BackgroundImageFix" result="effect1_dropShadow_69_12543"/>
<feBlend mode="normal" in="SourceGraphic" in2="effect1_dropShadow_69_12543" result="shape"/>
</filter>
<filter id="filter7_d_69_12543" x="286.306" y="124.305" width="52.3625" height="33.1169" filterUnits="userSpaceOnUse" color-interpolation-filters="sRGB">
<feFlood flood-opacity="0" result="BackgroundImageFix"/>
<feColorMatrix in="SourceAlpha" type="matrix" values="0 0 0 0 0 0 0 0 0 0 0 0 0 0 0 0 0 0 127 0" result="hardAlpha"/>
<feOffset dy="0.918114"/>
<feGaussianBlur stdDeviation="1.83623"/>
<feColorMatrix type="matrix" values="0 0 0 0 0.235294 0 0 0 0 0.25098 0 0 0 0 0.262745 0 0 0 0.2 0"/>
<feBlend mode="normal" in2="BackgroundImageFix" result="effect1_dropShadow_69_12543"/>
<feBlend mode="normal" in="SourceGraphic" in2="effect1_dropShadow_69_12543" result="shape"/>
</filter>
<filter id="filter8_d_69_12543" x="141.244" y="93.0889" width="53.3625" height="33.1169" filterUnits="userSpaceOnUse" color-interpolation-filters="sRGB">
<feFlood flood-opacity="0" result="BackgroundImageFix"/>
<feColorMatrix in="SourceAlpha" type="matrix" values="0 0 0 0 0 0 0 0 0 0 0 0 0 0 0 0 0 0 127 0" result="hardAlpha"/>
<feOffset dy="0.918114"/>
<feGaussianBlur stdDeviation="1.83623"/>
<feColorMatrix type="matrix" values="0 0 0 0 0.235294 0 0 0 0 0.25098 0 0 0 0 0.262745 0 0 0 0.2 0"/>
<feBlend mode="normal" in2="BackgroundImageFix" result="effect1_dropShadow_69_12543"/>
<feBlend mode="normal" in="SourceGraphic" in2="effect1_dropShadow_69_12543" result="shape"/>
</filter>
<filter id="filter9_d_69_12543" x="29.2338" y="71.0543" width="52.3625" height="33.1169" filterUnits="userSpaceOnUse" color-interpolation-filters="sRGB">
<feFlood flood-opacity="0" result="BackgroundImageFix"/>
<feColorMatrix in="SourceAlpha" type="matrix" values="0 0 0 0 0 0 0 0 0 0 0 0 0 0 0 0 0 0 127 0" result="hardAlpha"/>
<feOffset dy="0.918114"/>
<feGaussianBlur stdDeviation="1.83623"/>
<feColorMatrix type="matrix" values="0 0 0 0 0.235294 0 0 0 0 0.25098 0 0 0 0 0.262745 0 0 0 0.2 0"/>
<feBlend mode="normal" in2="BackgroundImageFix" result="effect1_dropShadow_69_12543"/>
<feBlend mode="normal" in="SourceGraphic" in2="effect1_dropShadow_69_12543" result="shape"/>
</filter>
<filter id="filter10_d_69_12543" x="19.1342" y="170.211" width="56.3625" height="33.1169" filterUnits="userSpaceOnUse" color-interpolation-filters="sRGB">
<feFlood flood-opacity="0" result="BackgroundImageFix"/>
<feColorMatrix in="SourceAlpha" type="matrix" values="0 0 0 0 0 0 0 0 0 0 0 0 0 0 0 0 0 0 127 0" result="hardAlpha"/>
<feOffset dy="0.918114"/>
<feGaussianBlur stdDeviation="1.83623"/>
<feColorMatrix type="matrix" values="0 0 0 0 0.235294 0 0 0 0 0.25098 0 0 0 0 0.262745 0 0 0 0.2 0"/>
<feBlend mode="normal" in2="BackgroundImageFix" result="effect1_dropShadow_69_12543"/>
<feBlend mode="normal" in="SourceGraphic" in2="effect1_dropShadow_69_12543" result="shape"/>
</filter>
<filter id="filter11_d_69_12543" x="123.798" y="180.31" width="53.3625" height="33.1169" filterUnits="userSpaceOnUse" color-interpolation-filters="sRGB">
<feFlood flood-opacity="0" result="BackgroundImageFix"/>
<feColorMatrix in="SourceAlpha" type="matrix" values="0 0 0 0 0 0 0 0 0 0 0 0 0 0 0 0 0 0 127 0" result="hardAlpha"/>
<feOffset dy="0.918114"/>
<feGaussianBlur stdDeviation="1.83623"/>
<feColorMatrix type="matrix" values="0 0 0 0 0.235294 0 0 0 0 0.25098 0 0 0 0 0.262745 0 0 0 0.2 0"/>
<feBlend mode="normal" in2="BackgroundImageFix" result="effect1_dropShadow_69_12543"/>
<feBlend mode="normal" in="SourceGraphic" in2="effect1_dropShadow_69_12543" result="shape"/>
</filter>
<filter id="filter12_d_69_12543" x="261.517" y="183.064" width="52.3625" height="33.1169" filterUnits="userSpaceOnUse" color-interpolation-filters="sRGB">
<feFlood flood-opacity="0" result="BackgroundImageFix"/>
<feColorMatrix in="SourceAlpha" type="matrix" values="0 0 0 0 0 0 0 0 0 0 0 0 0 0 0 0 0 0 127 0" result="hardAlpha"/>
<feOffset dy="0.918114"/>
<feGaussianBlur stdDeviation="1.83623"/>
<feColorMatrix type="matrix" values="0 0 0 0 0.235294 0 0 0 0 0.25098 0 0 0 0 0.262745 0 0 0 0.2 0"/>
<feBlend mode="normal" in2="BackgroundImageFix" result="effect1_dropShadow_69_12543"/>
<feBlend mode="normal" in="SourceGraphic" in2="effect1_dropShadow_69_12543" result="shape"/>
</filter>
<filter id="filter13_d_69_12543" x="198.165" y="208.771" width="52.3625" height="33.1169" filterUnits="userSpaceOnUse" color-interpolation-filters="sRGB">
<feFlood flood-opacity="0" result="BackgroundImageFix"/>
<feColorMatrix in="SourceAlpha" type="matrix" values="0 0 0 0 0 0 0 0 0 0 0 0 0 0 0 0 0 0 127 0" result="hardAlpha"/>
<feOffset dy="0.918114"/>
<feGaussianBlur stdDeviation="1.83623"/>
<feColorMatrix type="matrix" values="0 0 0 0 0.235294 0 0 0 0 0.25098 0 0 0 0 0.262745 0 0 0 0.2 0"/>
<feBlend mode="normal" in2="BackgroundImageFix" result="effect1_dropShadow_69_12543"/>
<feBlend mode="normal" in="SourceGraphic" in2="effect1_dropShadow_69_12543" result="shape"/>
</filter>
<filter id="filter14_d_69_12543" x="292.732" y="273.039" width="51.3625" height="33.1169" filterUnits="userSpaceOnUse" color-interpolation-filters="sRGB">
<feFlood flood-opacity="0" result="BackgroundImageFix"/>
<feColorMatrix in="SourceAlpha" type="matrix" values="0 0 0 0 0 0 0 0 0 0 0 0 0 0 0 0 0 0 127 0" result="hardAlpha"/>
<feOffset dy="0.918114"/>
<feGaussianBlur stdDeviation="1.83623"/>
<feColorMatrix type="matrix" values="0 0 0 0 0.235294 0 0 0 0 0.25098 0 0 0 0 0.262745 0 0 0 0.2 0"/>
<feBlend mode="normal" in2="BackgroundImageFix" result="effect1_dropShadow_69_12543"/>
<feBlend mode="normal" in="SourceGraphic" in2="effect1_dropShadow_69_12543" result="shape"/>
</filter>
<filter id="filter15_d_69_12543" x="194.494" y="284.057" width="52.3625" height="33.1169" filterUnits="userSpaceOnUse" color-interpolation-filters="sRGB">
<feFlood flood-opacity="0" result="BackgroundImageFix"/>
<feColorMatrix in="SourceAlpha" type="matrix" values="0 0 0 0 0 0 0 0 0 0 0 0 0 0 0 0 0 0 127 0" result="hardAlpha"/>
<feOffset dy="0.918114"/>
<feGaussianBlur stdDeviation="1.83623"/>
<feColorMatrix type="matrix" values="0 0 0 0 0.235294 0 0 0 0 0.25098 0 0 0 0 0.262745 0 0 0 0.2 0"/>
<feBlend mode="normal" in2="BackgroundImageFix" result="effect1_dropShadow_69_12543"/>
<feBlend mode="normal" in="SourceGraphic" in2="effect1_dropShadow_69_12543" result="shape"/>
</filter>
<filter id="filter16_d_69_12543" x="14.5443" y="208.771" width="52.3625" height="33.1169" filterUnits="userSpaceOnUse" color-interpolation-filters="sRGB">
<feFlood flood-opacity="0" result="BackgroundImageFix"/>
<feColorMatrix in="SourceAlpha" type="matrix" values="0 0 0 0 0 0 0 0 0 0 0 0 0 0 0 0 0 0 127 0" result="hardAlpha"/>
<feOffset dy="0.918114"/>
<feGaussianBlur stdDeviation="1.83623"/>
<feColorMatrix type="matrix" values="0 0 0 0 0.235294 0 0 0 0 0.25098 0 0 0 0 0.262745 0 0 0 0.2 0"/>
<feBlend mode="normal" in2="BackgroundImageFix" result="effect1_dropShadow_69_12543"/>
<feBlend mode="normal" in="SourceGraphic" in2="effect1_dropShadow_69_12543" result="shape"/>
</filter>
<filter id="filter17_d_69_12543" x="13.6244" y="286.811" width="52.3625" height="33.1169" filterUnits="userSpaceOnUse" color-interpolation-filters="sRGB">
<feFlood flood-opacity="0" result="BackgroundImageFix"/>
<feColorMatrix in="SourceAlpha" type="matrix" values="0 0 0 0 0 0 0 0 0 0 0 0 0 0 0 0 0 0 127 0" result="hardAlpha"/>
<feOffset dy="0.918114"/>
<feGaussianBlur stdDeviation="1.83623"/>
<feColorMatrix type="matrix" values="0 0 0 0 0.235294 0 0 0 0 0.25098 0 0 0 0 0.262745 0 0 0 0.2 0"/>
<feBlend mode="normal" in2="BackgroundImageFix" result="effect1_dropShadow_69_12543"/>
<feBlend mode="normal" in="SourceGraphic" in2="effect1_dropShadow_69_12543" result="shape"/>
</filter>
<filter id="filter18_d_69_12543" x="87.0736" y="242.741" width="52.3625" height="33.1169" filterUnits="userSpaceOnUse" color-interpolation-filters="sRGB">
<feFlood flood-opacity="0" result="BackgroundImageFix"/>
<feColorMatrix in="SourceAlpha" type="matrix" values="0 0 0 0 0 0 0 0 0 0 0 0 0 0 0 0 0 0 127 0" result="hardAlpha"/>
<feOffset dy="0.918114"/>
<feGaussianBlur stdDeviation="1.83623"/>
<feColorMatrix type="matrix" values="0 0 0 0 0.235294 0 0 0 0 0.25098 0 0 0 0 0.262745 0 0 0 0.2 0"/>
<feBlend mode="normal" in2="BackgroundImageFix" result="effect1_dropShadow_69_12543"/>
<feBlend mode="normal" in="SourceGraphic" in2="effect1_dropShadow_69_12543" result="shape"/>
</filter>
<filter id="filter19_d_69_12543" x="110.945" y="306.091" width="53.3625" height="33.1169" filterUnits="userSpaceOnUse" color-interpolation-filters="sRGB">
<feFlood flood-opacity="0" result="BackgroundImageFix"/>
<feColorMatrix in="SourceAlpha" type="matrix" values="0 0 0 0 0 0 0 0 0 0 0 0 0 0 0 0 0 0 127 0" result="hardAlpha"/>
<feOffset dy="0.918114"/>
<feGaussianBlur stdDeviation="1.83623"/>
<feColorMatrix type="matrix" values="0 0 0 0 0.235294 0 0 0 0 0.25098 0 0 0 0 0.262745 0 0 0 0.2 0"/>
<feBlend mode="normal" in2="BackgroundImageFix" result="effect1_dropShadow_69_12543"/>
<feBlend mode="normal" in="SourceGraphic" in2="effect1_dropShadow_69_12543" result="shape"/>
</filter>
<filter id="filter20_d_69_12543" x="247.744" y="323.536" width="57.3625" height="33.1169" filterUnits="userSpaceOnUse" color-interpolation-filters="sRGB">
<feFlood flood-opacity="0" result="BackgroundImageFix"/>
<feColorMatrix in="SourceAlpha" type="matrix" values="0 0 0 0 0 0 0 0 0 0 0 0 0 0 0 0 0 0 127 0" result="hardAlpha"/>
<feOffset dy="0.918114"/>
<feGaussianBlur stdDeviation="1.83623"/>
<feColorMatrix type="matrix" values="0 0 0 0 0.235294 0 0 0 0 0.25098 0 0 0 0 0.262745 0 0 0 0.2 0"/>
<feBlend mode="normal" in2="BackgroundImageFix" result="effect1_dropShadow_69_12543"/>
<feBlend mode="normal" in="SourceGraphic" in2="effect1_dropShadow_69_12543" result="shape"/>
</filter>
<filter id="filter21_d_69_12543" x="67.7943" y="385.967" width="57.3625" height="33.1169" filterUnits="userSpaceOnUse" color-interpolation-filters="sRGB">
<feFlood flood-opacity="0" result="BackgroundImageFix"/>
<feColorMatrix in="SourceAlpha" type="matrix" values="0 0 0 0 0 0 0 0 0 0 0 0 0 0 0 0 0 0 127 0" result="hardAlpha"/>
<feOffset dy="0.918114"/>
<feGaussianBlur stdDeviation="1.83623"/>
<feColorMatrix type="matrix" values="0 0 0 0 0.235294 0 0 0 0 0.25098 0 0 0 0 0.262745 0 0 0 0.2 0"/>
<feBlend mode="normal" in2="BackgroundImageFix" result="effect1_dropShadow_69_12543"/>
<feBlend mode="normal" in="SourceGraphic" in2="effect1_dropShadow_69_12543" result="shape"/>
</filter>
</defs>
</svg>
