<svg width="526" height="526" viewBox="0 0 526 526" fill="none" xmlns="http://www.w3.org/2000/svg">
<g clip-path="url(#clip0_83_31197)">
<g clip-path="url(#clip1_83_31197)">
<path d="M91 72.0521C91 53.7979 105.798 39 124.052 39H401.948C420.202 39 435 53.7979 435 72.0521V178H91V72.0521Z" fill="white"/>
<path opacity="0.35" d="M401.785 55.3907H417.087C418.186 55.3907 419.076 56.2813 419.076 57.3799V62.8886C419.076 63.9873 418.186 64.8779 417.087 64.8779H401.785C400.687 64.8779 399.796 63.9873 399.796 62.8886V57.3799C399.796 56.2813 400.687 55.3907 401.785 55.3907Z" stroke="black" stroke-width="0.918114"/>
<path opacity="0.4" d="M420.453 58.2969V61.9693C421.192 61.6583 421.672 60.9347 421.672 60.1331C421.672 59.3315 421.192 58.6079 420.453 58.2969" fill="black"/>
<path d="M401.172 57.7765C401.172 57.2188 401.624 56.7666 402.182 56.7666H416.688C417.246 56.7666 417.698 57.2188 417.698 57.7765V62.4895C417.698 63.0473 417.246 63.4994 416.688 63.4994H402.182C401.624 63.4994 401.172 63.0473 401.172 62.4895V57.7765Z" fill="black"/>
<path fill-rule="evenodd" clip-rule="evenodd" d="M387.699 57.023C389.733 57.0231 391.69 57.8048 393.164 59.2066C393.275 59.3148 393.453 59.3134 393.562 59.2035L394.623 58.1324C394.679 58.0766 394.71 58.0011 394.709 57.9225C394.709 57.844 394.677 57.7688 394.621 57.7137C390.751 54.0049 384.646 54.0049 380.776 57.7137C380.72 57.7688 380.688 57.8439 380.688 57.9225C380.687 58.001 380.718 58.0766 380.773 58.1324L381.835 59.2035C381.944 59.3136 382.122 59.3149 382.233 59.2066C383.707 57.8047 385.664 57.023 387.699 57.023ZM387.699 60.5078C388.817 60.5078 389.894 60.9232 390.723 61.6735C390.835 61.78 391.012 61.7777 391.121 61.6683L392.181 60.5972C392.237 60.541 392.268 60.4648 392.267 60.3856C392.266 60.3064 392.234 60.2308 392.177 60.1758C389.654 57.8287 385.746 57.8287 383.223 60.1758C383.166 60.2308 383.133 60.3064 383.133 60.3857C383.132 60.4649 383.163 60.5411 383.219 60.5972L384.279 61.6683C384.388 61.7777 384.565 61.78 384.677 61.6735C385.505 60.9237 386.582 60.5083 387.699 60.5078ZM389.822 62.8525C389.824 62.932 389.793 63.0085 389.736 63.0642L387.902 64.9148C387.849 64.9692 387.775 64.9998 387.699 64.9998C387.622 64.9998 387.549 64.9692 387.495 64.9148L385.661 63.0642C385.605 63.0085 385.573 62.9319 385.575 62.8525C385.577 62.773 385.611 62.6978 385.67 62.6446C386.841 61.654 388.556 61.654 389.728 62.6446C389.786 62.6979 389.821 62.7731 389.822 62.8525Z" fill="black"/>
<path fill-rule="evenodd" clip-rule="evenodd" d="M375.159 55.2402H374.24C373.733 55.2402 373.322 55.6513 373.322 56.1583V64.1153C373.322 64.6224 373.733 65.0335 374.24 65.0335H375.159C375.666 65.0335 376.077 64.6224 376.077 64.1153V56.1583C376.077 55.6513 375.666 55.2402 375.159 55.2402ZM369.956 57.3825H370.874C371.381 57.3825 371.792 57.7936 371.792 58.3006V64.1153C371.792 64.6224 371.381 65.0335 370.874 65.0335H369.956C369.449 65.0335 369.038 64.6224 369.038 64.1153V58.3006C369.038 57.7936 369.449 57.3825 369.956 57.3825ZM366.59 59.5248H365.671C365.164 59.5248 364.753 59.9358 364.753 60.4429V64.1153C364.753 64.6224 365.164 65.0335 365.671 65.0335H366.59C367.097 65.0335 367.508 64.6224 367.508 64.1153V60.4429C367.508 59.9358 367.097 59.5248 366.59 59.5248ZM362.305 61.361H361.387C360.88 61.361 360.469 61.772 360.469 62.2791V64.1153C360.469 64.6224 360.88 65.0335 361.387 65.0335H362.305C362.812 65.0335 363.223 64.6224 363.223 64.1153V62.2791C363.223 61.772 362.812 61.361 362.305 61.361Z" fill="black"/>
<path d="M128.047 55.0076C125.942 55.0076 124.443 56.4467 124.443 58.4169V58.4304C124.443 60.2729 125.747 61.6312 127.61 61.6312C128.941 61.6312 129.789 60.9521 130.145 60.1855H130.28C130.28 60.2594 130.273 60.3334 130.273 60.4074C130.199 62.2633 129.547 63.7696 128.007 63.7696C127.153 63.7696 126.554 63.3258 126.299 62.6466L126.279 62.5794H124.571L124.584 62.6534C124.893 64.1395 126.225 65.1952 128.007 65.1952C130.448 65.1952 131.92 63.2586 131.92 59.9905V59.977C131.92 56.4803 130.118 55.0076 128.047 55.0076ZM128.04 60.2998C126.938 60.2998 126.137 59.4929 126.137 58.3699V58.3564C126.137 57.2738 126.991 56.4198 128.061 56.4198C129.136 56.4198 129.977 57.2872 129.977 58.3968V58.4102C129.977 59.5063 129.136 60.2998 128.04 60.2998ZM134.514 58.6657C135.133 58.6657 135.583 58.195 135.583 57.6033C135.583 57.0048 135.133 56.5408 134.514 56.5408C133.902 56.5408 133.445 57.0048 133.445 57.6033C133.445 58.195 133.902 58.6657 134.514 58.6657ZM134.514 63.6553C135.133 63.6553 135.583 63.1913 135.583 62.5928C135.583 61.9944 135.133 61.5304 134.514 61.5304C133.902 61.5304 133.445 61.9944 133.445 62.5928C133.445 63.1913 133.902 63.6553 134.514 63.6553ZM141.815 64.9531H143.476V63.0904H144.781V61.6581H143.476V55.2497H141.022C139.704 57.2536 138.325 59.4861 137.068 61.6716V63.0904H141.815V64.9531ZM138.682 61.6985V61.5976C139.623 59.9501 140.746 58.1547 141.741 56.635H141.842V61.6985H138.682ZM148.343 64.9531H150.078V55.2497H148.35L145.814 57.0317V58.6657L148.229 56.9577H148.343V64.9531Z" fill="black"/>
<rect x="90.8516" y="79.1445" width="344.293" height="0.302978" fill="#C6C6C8"/>
</g>
<g clip-path="url(#clip2_83_31197)" filter="url(#filter0_d_83_31197)">
<rect width="344.293" height="99.1563" transform="translate(90.8516 79.416)" fill="white"/>
<g clip-path="url(#clip3_83_31197)">
<path d="M115.641 114.308H132.167V112.472H115.641V114.308ZM115.641 109.717H132.167V107.881H115.641V109.717ZM115.641 103.291V105.127H132.167V103.291H115.641Z" fill="#5F6368"/>
</g>
<path d="M153.482 112.944C155.32 112.944 156.593 111.941 156.593 110.36C156.593 108.625 155.115 108.162 153.546 107.648C152.287 107.25 151.657 106.941 151.657 106.106C151.657 105.283 152.325 104.769 153.289 104.769C154.382 104.769 155.012 105.386 155.333 106.157L156.336 105.579C155.834 104.448 154.768 103.612 153.289 103.612C151.786 103.612 150.462 104.538 150.462 106.157C150.462 107.828 151.85 108.278 153.289 108.741C154.613 109.152 155.41 109.461 155.41 110.386C155.41 111.196 154.78 111.774 153.508 111.774C152.197 111.774 151.426 111.132 151.104 110.142L150.076 110.733C150.552 112.083 151.773 112.944 153.482 112.944ZM158.827 110.078H164.213C164.239 109.911 164.252 109.743 164.252 109.576C164.252 107.777 162.992 106.183 161.051 106.183C159.046 106.183 157.683 107.661 157.683 109.563C157.683 111.491 159.059 112.944 161.128 112.944C162.413 112.944 163.39 112.366 163.956 111.491L163.005 110.952C162.683 111.479 162.041 111.89 161.154 111.89C159.958 111.89 159.046 111.234 158.827 110.078ZM161.051 107.237C162.015 107.237 162.928 107.828 163.12 109.101H158.827C159.007 107.982 159.843 107.237 161.051 107.237ZM170.846 106.35V107.455C170.332 106.671 169.509 106.183 168.416 106.183C166.63 106.183 165.165 107.661 165.165 109.563C165.165 111.466 166.63 112.944 168.416 112.944C169.509 112.944 170.332 112.456 170.846 111.671V112.777H171.964V106.35H170.846ZM168.558 111.864C167.273 111.864 166.283 110.875 166.283 109.563C166.283 108.252 167.273 107.263 168.558 107.263C169.856 107.263 170.846 108.252 170.846 109.563C170.846 110.875 169.856 111.864 168.558 111.864ZM174.777 107.43V106.35H173.658V112.777H174.777V109.371C174.777 107.854 175.818 107.365 176.782 107.404V106.234C175.972 106.234 175.188 106.53 174.777 107.43ZM180.545 112.944C181.805 112.944 182.897 112.276 183.437 111.273L182.486 110.72C182.126 111.389 181.419 111.839 180.545 111.839C179.26 111.839 178.283 110.849 178.283 109.563C178.283 108.265 179.26 107.276 180.545 107.276C181.406 107.276 182.126 107.725 182.447 108.407L183.386 107.867C182.897 106.851 181.818 106.183 180.545 106.183C178.604 106.183 177.165 107.661 177.165 109.563C177.165 111.466 178.604 112.944 180.545 112.944ZM187.742 106.183C186.842 106.183 186.135 106.517 185.659 107.276V103.779H184.541V112.777H185.659V109.371C185.659 107.854 186.495 107.25 187.523 107.25C188.513 107.25 189.117 107.841 189.117 108.895V112.777H190.235V108.831C190.235 107.186 189.246 106.183 187.742 106.183ZM198.557 106.183C197.465 106.183 196.642 106.671 196.128 107.455V103.779H195.01V112.777H196.128V111.671C196.642 112.456 197.465 112.944 198.557 112.944C200.344 112.944 201.809 111.466 201.809 109.563C201.809 107.661 200.344 106.183 198.557 106.183ZM198.416 111.864C197.118 111.864 196.128 110.875 196.128 109.563C196.128 108.252 197.118 107.263 198.416 107.263C199.701 107.263 200.691 108.252 200.691 109.563C200.691 110.875 199.701 111.864 198.416 111.864ZM207.379 106.35L205.528 111.389L203.343 106.35H202.147L204.949 112.751L204.834 112.995C204.499 113.844 203.96 114.371 203.098 114.306V115.348C204.409 115.438 205.412 114.615 205.952 113.175L208.574 106.35H207.379ZM212.721 112.777H213.839V103.394H212.721V112.777ZM218.566 112.944C220.443 112.944 221.959 111.466 221.959 109.563C221.959 107.661 220.443 106.183 218.566 106.183C216.689 106.183 215.186 107.661 215.186 109.563C215.186 111.466 216.689 112.944 218.566 112.944ZM218.566 111.851C217.294 111.851 216.304 110.862 216.304 109.563C216.304 108.265 217.294 107.276 218.566 107.276C219.851 107.276 220.841 108.265 220.841 109.563C220.841 110.862 219.851 111.851 218.566 111.851ZM226.298 112.944C227.558 112.944 228.651 112.276 229.19 111.273L228.239 110.72C227.879 111.389 227.172 111.839 226.298 111.839C225.013 111.839 224.036 110.849 224.036 109.563C224.036 108.265 225.013 107.276 226.298 107.276C227.16 107.276 227.879 107.725 228.201 108.407L229.139 107.867C228.651 106.851 227.571 106.183 226.298 106.183C224.357 106.183 222.918 107.661 222.918 109.563C222.918 111.466 224.357 112.944 226.298 112.944ZM235.528 106.35V107.455C235.014 106.671 234.191 106.183 233.099 106.183C231.312 106.183 229.847 107.661 229.847 109.563C229.847 111.466 231.312 112.944 233.099 112.944C234.191 112.944 235.014 112.456 235.528 111.671V112.777H236.646V106.35H235.528ZM233.24 111.864C231.955 111.864 230.965 110.875 230.965 109.563C230.965 108.252 231.955 107.263 233.24 107.263C234.538 107.263 235.528 108.252 235.528 109.563C235.528 110.875 234.538 111.864 233.24 111.864ZM241.837 107.43V106.35H240.127V104.551L239.009 104.885V106.35H237.736V107.43H239.009V110.913C239.009 112.52 239.909 113.034 241.837 112.777V111.774C240.693 111.826 240.127 111.89 240.127 110.913V107.43H241.837ZM243.726 105.18C244.138 105.18 244.472 104.846 244.472 104.435C244.472 104.024 244.138 103.677 243.726 103.677C243.302 103.677 242.968 104.024 242.968 104.435C242.968 104.846 243.302 105.18 243.726 105.18ZM243.161 112.777H244.279V106.35H243.161V112.777ZM249.006 112.944C250.882 112.944 252.399 111.466 252.399 109.563C252.399 107.661 250.882 106.183 249.006 106.183C247.129 106.183 245.625 107.661 245.625 109.563C245.625 111.466 247.129 112.944 249.006 112.944ZM249.006 111.851C247.733 111.851 246.743 110.862 246.743 109.563C246.743 108.265 247.733 107.276 249.006 107.276C250.291 107.276 251.281 108.265 251.281 109.563C251.281 110.862 250.291 111.851 249.006 111.851ZM256.918 106.183C256.018 106.183 255.311 106.517 254.835 107.276V106.35H253.717V112.777H254.835V109.371C254.835 107.854 255.671 107.25 256.699 107.25C257.689 107.25 258.293 107.841 258.293 108.895V112.777H259.411V108.831C259.411 107.186 258.422 106.183 256.918 106.183ZM267.206 112.944C269.083 112.944 270.6 111.466 270.6 109.563C270.6 107.661 269.083 106.183 267.206 106.183C265.33 106.183 263.826 107.661 263.826 109.563C263.826 111.466 265.33 112.944 267.206 112.944ZM267.206 111.851C265.934 111.851 264.944 110.862 264.944 109.563C264.944 108.265 265.934 107.276 267.206 107.276C268.492 107.276 269.482 108.265 269.482 109.563C269.482 110.862 268.492 111.851 267.206 111.851ZM273.036 107.43V106.35H271.918V112.777H273.036V109.371C273.036 107.854 274.077 107.365 275.042 107.404V106.234C274.232 106.234 273.448 106.53 273.036 107.43ZM282.37 112.944C283.629 112.944 284.722 112.276 285.262 111.273L284.311 110.72C283.951 111.389 283.244 111.839 282.37 111.839C281.084 111.839 280.107 110.849 280.107 109.563C280.107 108.265 281.084 107.276 282.37 107.276C283.231 107.276 283.951 107.725 284.272 108.407L285.21 107.867C284.722 106.851 283.642 106.183 282.37 106.183C280.429 106.183 278.989 107.661 278.989 109.563C278.989 111.466 280.429 112.944 282.37 112.944ZM289.299 112.944C291.175 112.944 292.692 111.466 292.692 109.563C292.692 107.661 291.175 106.183 289.299 106.183C287.422 106.183 285.918 107.661 285.918 109.563C285.918 111.466 287.422 112.944 289.299 112.944ZM289.299 111.851C288.026 111.851 287.036 110.862 287.036 109.563C287.036 108.265 288.026 107.276 289.299 107.276C290.584 107.276 291.574 108.265 291.574 109.563C291.574 110.862 290.584 111.851 289.299 111.851ZM300.951 106.183C300.116 106.183 299.383 106.543 298.933 107.276C298.56 106.581 297.918 106.183 297.044 106.183C296.26 106.183 295.591 106.491 295.128 107.211V106.35H294.01V112.777H295.128V109.204C295.128 107.815 295.913 107.25 296.774 107.25C297.609 107.25 298.136 107.803 298.136 108.818V112.777H299.254V109.204C299.254 107.815 299.936 107.25 300.835 107.25C301.684 107.25 302.249 107.803 302.249 108.818V112.777H303.368V108.779C303.368 107.173 302.378 106.183 300.951 106.183ZM311.859 106.183C311.024 106.183 310.291 106.543 309.841 107.276C309.468 106.581 308.826 106.183 307.952 106.183C307.168 106.183 306.499 106.491 306.036 107.211V106.35H304.918V112.777H306.036V109.204C306.036 107.815 306.821 107.25 307.682 107.25C308.517 107.25 309.044 107.803 309.044 108.818V112.777H310.162V109.204C310.162 107.815 310.844 107.25 311.743 107.25C312.592 107.25 313.157 107.803 313.157 108.818V112.777H314.276V108.779C314.276 107.173 313.286 106.183 311.859 106.183ZM320.261 106.35V109.756C320.261 111.273 319.425 111.877 318.397 111.877C317.407 111.877 316.803 111.286 316.803 110.232V106.35H315.685V110.296C315.685 111.941 316.675 112.944 318.178 112.944C319.078 112.944 319.785 112.61 320.261 111.851V112.777H321.379V106.35H320.261ZM326.578 107.43V106.35H324.868V104.551L323.75 104.885V106.35H322.477V107.43H323.75V110.913C323.75 112.52 324.65 113.034 326.578 112.777V111.774C325.434 111.826 324.868 111.89 324.868 110.913V107.43H326.578ZM328.359 110.078H333.745C333.771 109.911 333.783 109.743 333.783 109.576C333.783 107.777 332.524 106.183 330.583 106.183C328.578 106.183 327.215 107.661 327.215 109.563C327.215 111.491 328.591 112.944 330.66 112.944C331.945 112.944 332.922 112.366 333.488 111.491L332.537 110.952C332.215 111.479 331.573 111.89 330.686 111.89C329.49 111.89 328.578 111.234 328.359 110.078ZM330.583 107.237C331.547 107.237 332.46 107.828 332.652 109.101H328.359C328.539 107.982 329.375 107.237 330.583 107.237Z" fill="#5F6368"/>
<g clip-path="url(#clip4_83_31197)">
<path d="M401.178 104.207H406.687V106.043H401.178V104.207ZM401.178 107.88H406.687V109.716H401.178V107.88ZM401.178 111.552H406.687V113.388H401.178V111.552ZM397.505 104.207H399.342V106.043H397.505V104.207ZM397.505 107.88H399.342V109.716H397.505V107.88ZM397.505 111.552H399.342V113.388H397.505V111.552ZM409.533 100.535H394.659C394.2 100.535 393.833 100.902 393.833 101.361V116.234C393.833 116.602 394.2 117.061 394.659 117.061H409.533C409.9 117.061 410.359 116.602 410.359 116.234V101.361C410.359 100.902 409.9 100.535 409.533 100.535V100.535ZM408.523 115.224H395.669V102.371H408.523V115.224Z" fill="#606367"/>
</g>
<rect x="375.468" y="95.9419" width="0.918114" height="25.7072" fill="#DDDDDD"/>
<rect x="98.6583" y="87.2188" width="328.685" height="43.1514" rx="6.88586" stroke="#DADCE0" stroke-width="0.918114"/>
<rect x="98.6553" y="138.634" width="94.5658" height="32.134" rx="6.88586" fill="white"/>
<path d="M115.412 153.322H114.035V154.699H115.412V153.322ZM118.166 153.322H116.789V154.699H118.166V153.322ZM120.92 153.322H119.543V154.699H120.92V153.322ZM122.298 148.502H121.609V147.125H120.232V148.502H114.723V147.125H113.346V148.502H112.657C111.893 148.502 111.28 149.122 111.28 149.879V159.52C111.28 159.885 111.425 160.235 111.684 160.493C111.942 160.752 112.292 160.897 112.657 160.897H122.298C122.663 160.897 123.013 160.752 123.271 160.493C123.53 160.235 123.675 159.885 123.675 159.52V149.879C123.675 149.514 123.53 149.164 123.271 148.906C123.013 148.647 122.663 148.502 122.298 148.502ZM122.298 159.52H112.657V151.945H122.298V159.52Z" fill="#366CA5"/>
<path d="M135.949 158.581C137.426 158.581 138.605 157.744 138.605 156.102V150.726H137.338V156.102C137.338 156.896 136.842 157.347 135.96 157.347C135.255 157.347 134.815 157.083 134.561 156.532L133.471 157.171C133.922 158.107 134.826 158.581 135.949 158.581ZM143.711 152.929V155.882C143.711 157.006 143.094 157.468 142.311 157.468C141.562 157.468 141.078 157.028 141.078 156.19V152.929H139.888V156.312C139.888 157.744 140.769 158.581 142.003 158.581C142.752 158.581 143.347 158.306 143.711 157.733V158.438H144.901V152.929H143.711ZM146.292 158.438H147.482V150.395H146.292V158.438ZM153.094 150.726L151.067 151.442L151.375 152.522L152.929 152.081V158.438H154.196V150.726H153.094ZM161.303 155.662H166.922V154.516H161.303V155.662ZM171.862 158.57C172.313 158.57 172.688 158.196 172.688 157.744C172.688 157.281 172.313 156.918 171.862 156.918C171.399 156.918 171.035 157.281 171.035 157.744C171.035 158.196 171.399 158.57 171.862 158.57ZM174.67 158.57C175.122 158.57 175.496 158.196 175.496 157.744C175.496 157.281 175.122 156.918 174.67 156.918C174.207 156.918 173.844 157.281 173.844 157.744C173.844 158.196 174.207 158.57 174.67 158.57ZM177.478 158.57C177.93 158.57 178.304 158.196 178.304 157.744C178.304 157.281 177.93 156.918 177.478 156.918C177.015 156.918 176.652 157.281 176.652 157.744C176.652 158.196 177.015 158.57 177.478 158.57Z" fill="#3C4043"/>
<rect x="98.6553" y="138.634" width="94.5658" height="32.134" rx="6.88586" stroke="#DADCE0" stroke-width="0.918114"/>
<rect x="199.649" y="138.634" width="70.6948" height="32.134" rx="6.88586" fill="white"/>
<path d="M217.493 150.726H214.65V158.438H215.917V155.794H217.493C218.947 155.794 220.049 154.681 220.049 153.26C220.049 151.828 218.947 150.726 217.493 150.726ZM217.493 154.604H215.917V151.916H217.493C218.242 151.916 218.782 152.478 218.782 153.26C218.782 154.031 218.242 154.604 217.493 154.604ZM222.154 153.855V152.929H220.964V158.438H222.154V155.662C222.154 154.428 223.068 154.064 223.85 154.119V152.83C223.156 152.83 222.484 153.106 222.154 153.855ZM225.325 152.103C225.743 152.103 226.085 151.75 226.085 151.343C226.085 150.924 225.743 150.583 225.325 150.583C224.906 150.583 224.564 150.924 224.564 151.343C224.564 151.75 224.906 152.103 225.325 152.103ZM224.73 158.438H225.92V152.929H224.73V158.438ZM229.901 158.581C230.981 158.581 231.917 158.019 232.38 157.149L231.355 156.565C231.091 157.072 230.551 157.413 229.89 157.413C228.921 157.413 228.182 156.675 228.182 155.684C228.182 154.692 228.921 153.954 229.89 153.954C230.551 153.954 231.091 154.284 231.333 154.802L232.358 154.207C231.917 153.348 230.981 152.786 229.901 152.786C228.238 152.786 226.993 154.042 226.993 155.684C226.993 157.314 228.238 158.581 229.901 158.581ZM234.091 156.19H238.475C238.497 156.036 238.52 155.86 238.52 155.695C238.52 154.108 237.396 152.786 235.754 152.786C234.024 152.786 232.846 154.053 232.846 155.684C232.846 157.336 234.024 158.581 235.842 158.581C236.922 158.581 237.748 158.13 238.255 157.38L237.275 156.807C237.01 157.193 236.514 157.49 235.853 157.49C234.972 157.49 234.278 157.05 234.091 156.19ZM234.08 155.221C234.245 154.395 234.851 153.866 235.743 153.866C236.459 153.866 237.153 154.273 237.319 155.221H234.08Z" fill="#3C4043"/>
<g clip-path="url(#clip5_83_31197)">
<path d="M251.371 153.172L255.197 156.998L259.022 153.172H251.371Z" fill="#3C4043"/>
</g>
<rect x="199.649" y="138.634" width="70.6948" height="32.134" rx="6.88586" stroke="#DADCE0" stroke-width="0.918114"/>
<rect x="276.77" y="138.634" width="79.8759" height="32.134" rx="6.88586" fill="white"/>
<path d="M296.167 158.438H297.555L295.804 155.441C296.707 155.078 297.335 154.196 297.335 153.205C297.335 151.828 296.233 150.726 294.856 150.726H291.771V158.438H293.038V155.629H294.537L296.167 158.438ZM293.038 151.916H294.856C295.528 151.916 296.068 152.478 296.068 153.205C296.068 153.921 295.528 154.494 294.856 154.494H293.038V151.916ZM300.76 158.581C302.38 158.581 303.669 157.314 303.669 155.684C303.669 154.042 302.38 152.786 300.76 152.786C299.152 152.786 297.852 154.042 297.852 155.684C297.852 157.314 299.152 158.581 300.76 158.581ZM300.76 157.424C299.791 157.424 299.042 156.686 299.042 155.684C299.042 154.681 299.791 153.943 300.76 153.943C301.73 153.943 302.479 154.681 302.479 155.684C302.479 156.686 301.73 157.424 300.76 157.424ZM307.345 158.581C308.965 158.581 310.254 157.314 310.254 155.684C310.254 154.042 308.965 152.786 307.345 152.786C305.737 152.786 304.436 154.042 304.436 155.684C304.436 157.314 305.737 158.581 307.345 158.581ZM307.345 157.424C306.376 157.424 305.626 156.686 305.626 155.684C305.626 154.681 306.376 153.943 307.345 153.943C308.315 153.943 309.064 154.681 309.064 155.684C309.064 156.686 308.315 157.424 307.345 157.424ZM317.345 152.786C316.607 152.786 316.023 153.084 315.659 153.656C315.34 153.106 314.811 152.786 314.095 152.786C313.412 152.786 312.872 153.05 312.519 153.59V152.929H311.33V158.438H312.519V155.353C312.519 154.351 313.07 153.899 313.742 153.899C314.392 153.899 314.778 154.329 314.778 155.1V158.438H315.968V155.353C315.968 154.351 316.464 153.899 317.169 153.899C317.819 153.899 318.237 154.329 318.237 155.1V158.438H319.427V155.023C319.427 153.645 318.59 152.786 317.345 152.786ZM321.769 154.45C321.769 154.053 322.144 153.866 322.574 153.866C323.025 153.866 323.411 154.064 323.609 154.494L324.612 153.932C324.226 153.205 323.477 152.786 322.574 152.786C321.45 152.786 320.558 153.436 320.558 154.472C320.558 156.444 323.521 155.893 323.521 156.874C323.521 157.314 323.114 157.49 322.585 157.49C321.979 157.49 321.538 157.193 321.362 156.697L320.337 157.292C320.69 158.085 321.483 158.581 322.585 158.581C323.775 158.581 324.733 157.986 324.733 156.885C324.733 154.846 321.769 155.452 321.769 154.45Z" fill="#3C4043"/>
<g clip-path="url(#clip6_83_31197)">
<path d="M337.677 153.172L341.502 156.998L345.328 153.172H337.677Z" fill="#3C4043"/>
</g>
<rect x="276.77" y="138.634" width="79.8759" height="32.134" rx="6.88586" stroke="#DADCE0" stroke-width="0.918114"/>
<rect x="363.072" y="138.634" width="95.4839" height="32.134" rx="6.88586" fill="white"/>
<path d="M383.098 158.438H384.464L381.677 150.726H380.156L377.358 158.438H378.735L379.275 156.885H382.558L383.098 158.438ZM379.694 155.695L380.916 152.213L382.139 155.695H379.694ZM391.232 152.786C390.494 152.786 389.91 153.084 389.546 153.656C389.227 153.106 388.698 152.786 387.982 152.786C387.299 152.786 386.759 153.05 386.406 153.59V152.929H385.216V158.438H386.406V155.353C386.406 154.351 386.957 153.899 387.629 153.899C388.279 153.899 388.665 154.329 388.665 155.1V158.438H389.855V155.353C389.855 154.351 390.35 153.899 391.055 153.899C391.705 153.899 392.124 154.329 392.124 155.1V158.438H393.314V155.023C393.314 153.645 392.477 152.786 391.232 152.786ZM395.524 156.19H399.909C399.931 156.036 399.953 155.86 399.953 155.695C399.953 154.108 398.829 152.786 397.188 152.786C395.458 152.786 394.279 154.053 394.279 155.684C394.279 157.336 395.458 158.581 397.276 158.581C398.355 158.581 399.182 158.13 399.688 157.38L398.708 156.807C398.444 157.193 397.948 157.49 397.287 157.49C396.405 157.49 395.711 157.05 395.524 156.19ZM395.513 155.221C395.678 154.395 396.284 153.866 397.177 153.866C397.893 153.866 398.587 154.273 398.752 155.221H395.513ZM403.897 152.786C403.148 152.786 402.553 153.062 402.19 153.634V152.929H401V158.438H402.19V155.485C402.19 154.362 402.807 153.899 403.589 153.899C404.338 153.899 404.823 154.34 404.823 155.177V158.438H406.013V155.056C406.013 153.623 405.131 152.786 403.897 152.786ZM407.889 152.103C408.308 152.103 408.649 151.75 408.649 151.343C408.649 150.924 408.308 150.583 407.889 150.583C407.47 150.583 407.129 150.924 407.129 151.343C407.129 151.75 407.47 152.103 407.889 152.103ZM407.294 158.438H408.484V152.929H407.294V158.438ZM412.939 154.075V152.929H411.573V151.387L410.383 151.739V152.929H409.37V154.075H410.383V156.719C410.383 158.152 411.11 158.658 412.939 158.438V157.369C412.036 157.413 411.573 157.424 411.573 156.719V154.075H412.939ZM414.613 152.103C415.032 152.103 415.374 151.75 415.374 151.343C415.374 150.924 415.032 150.583 414.613 150.583C414.195 150.583 413.853 150.924 413.853 151.343C413.853 151.75 414.195 152.103 414.613 152.103ZM414.018 158.438H415.208V152.929H414.018V158.438ZM417.526 156.19H421.911C421.933 156.036 421.955 155.86 421.955 155.695C421.955 154.108 420.832 152.786 419.19 152.786C417.46 152.786 416.281 154.053 416.281 155.684C416.281 157.336 417.46 158.581 419.278 158.581C420.358 158.581 421.184 158.13 421.691 157.38L420.71 156.807C420.446 157.193 419.95 157.49 419.289 157.49C418.408 157.49 417.714 157.05 417.526 156.19ZM417.515 155.221C417.681 154.395 418.287 153.866 419.179 153.866C419.895 153.866 420.589 154.273 420.754 155.221H417.515ZM423.856 154.45C423.856 154.053 424.23 153.866 424.66 153.866C425.112 153.866 425.497 154.064 425.696 154.494L426.698 153.932C426.313 153.205 425.564 152.786 424.66 152.786C423.536 152.786 422.644 153.436 422.644 154.472C422.644 156.444 425.608 155.893 425.608 156.874C425.608 157.314 425.2 157.49 424.671 157.49C424.065 157.49 423.624 157.193 423.448 156.697L422.424 157.292C422.776 158.085 423.569 158.581 424.671 158.581C425.861 158.581 426.82 157.986 426.82 156.885C426.82 154.846 423.856 155.452 423.856 154.45Z" fill="#3C4043"/>
<rect x="363.072" y="138.634" width="95.4839" height="32.134" rx="6.88586" stroke="#DADCE0" stroke-width="0.918114"/>
</g>
<path fill-rule="evenodd" clip-rule="evenodd" d="M392.913 28H133.087C103.677 28 79.8362 51.8412 79.8362 81.2506V123.641C78.7664 124.019 78 125.039 78 126.238V149.191C78 150.39 78.7664 151.411 79.8362 151.789V174.137C78.7664 174.515 78 175.535 78 176.734V220.804C78 222.003 78.7664 223.023 79.8362 223.402V240.241C78.7664 240.619 78 241.639 78 242.839V286.908C78 288.107 78.7664 289.128 79.8362 289.506V742.293C79.8362 771.702 103.677 795.543 133.087 795.543H392.913C422.323 795.543 446.164 771.702 446.164 742.293V277.57C447.234 277.192 448 276.172 448 274.973V198.769C448 197.57 447.234 196.55 446.164 196.172V81.2506C446.164 51.8412 422.323 28 392.913 28ZM90.8555 81.2513C90.8555 80.5064 90.8748 79.766 90.9129 79.0306C91.3221 71.1306 93.9023 63.8048 98.0682 57.6383C100.179 54.5141 102.697 51.6875 105.545 49.2346C112.94 42.8673 122.565 39.0181 133.089 39.0181H185.498C188.662 40.1314 190.93 43.1464 190.93 46.6909C190.93 57.9188 200.032 67.0205 211.26 67.0205H314.744C325.972 67.0205 335.074 57.9188 335.074 46.6909C335.074 43.1464 337.342 40.1314 340.506 39.0181H392.915C416.149 39.0181 435 57.7792 435.147 80.9782C435.148 81.0692 435.148 81.1602 435.148 81.2513V742.293C435.148 765.618 416.24 784.527 392.915 784.527H133.089C109.764 784.527 90.8555 765.618 90.8555 742.293V81.2513Z" fill="black"/>
</g>
<defs>
<filter id="filter0_d_83_31197" x="89.0153" y="78.4979" width="347.965" height="102.829" filterUnits="userSpaceOnUse" color-interpolation-filters="sRGB">
<feFlood flood-opacity="0" result="BackgroundImageFix"/>
<feColorMatrix in="SourceAlpha" type="matrix" values="0 0 0 0 0 0 0 0 0 0 0 0 0 0 0 0 0 0 127 0" result="hardAlpha"/>
<feOffset dy="0.918114"/>
<feGaussianBlur stdDeviation="0.918114"/>
<feColorMatrix type="matrix" values="0 0 0 0 0.235294 0 0 0 0 0.25098 0 0 0 0 0.262745 0 0 0 0.2 0"/>
<feBlend mode="normal" in2="BackgroundImageFix" result="effect1_dropShadow_83_31197"/>
<feBlend mode="normal" in="SourceGraphic" in2="effect1_dropShadow_83_31197" result="shape"/>
</filter>
<clipPath id="clip0_83_31197">
<path d="M0 0H526V263C526 408.251 408.251 526 263 526V526C117.749 526 0 408.251 0 263V0Z" fill="white"/>
</clipPath>
<clipPath id="clip1_83_31197">
<path d="M91 72.0521C91 53.7979 105.798 39 124.052 39H401.948C420.202 39 435 53.7979 435 72.0521V178H91V72.0521Z" fill="white"/>
</clipPath>
<clipPath id="clip2_83_31197">
<rect width="344.293" height="99.1563" fill="white" transform="translate(90.8516 79.416)"/>
</clipPath>
<clipPath id="clip3_83_31197">
<rect width="22.0347" height="22.0347" fill="white" transform="translate(112.89 97.7769)"/>
</clipPath>
<clipPath id="clip4_83_31197">
<rect width="22.0347" height="22.0347" fill="white" transform="translate(391.075 97.7769)"/>
</clipPath>
<clipPath id="clip5_83_31197">
<rect width="16.5261" height="16.5261" fill="white" transform="translate(246.932 146.438)"/>
</clipPath>
<clipPath id="clip6_83_31197">
<rect width="16.5261" height="16.5261" fill="white" transform="translate(333.233 146.438)"/>
</clipPath>
</defs>
</svg>
