<svg width="256" height="102" viewBox="0 0 256 102" fill="none" xmlns="http://www.w3.org/2000/svg">
<g clip-path="url(#clip0_601_31521)">
<rect width="255.071" height="70.6351" transform="translate(0 30.7383)" fill="white"/>
<g clip-path="url(#clip1_601_31521)">
<path d="M17.6562 55.5944H29.4288V54.2864H17.6562V55.5944ZM17.6562 52.3243H29.4288V51.0162H17.6562V52.3243ZM17.6562 47.7461V49.0542H29.4288V47.7461H17.6562Z" fill="#5F6368"/>
</g>
<path d="M44.6076 54.9354C45.917 54.9354 46.8235 54.2212 46.8235 53.095C46.8235 51.8589 45.7705 51.5293 44.6534 51.163C43.7561 50.8792 43.3074 50.6594 43.3074 50.0642C43.3074 49.4782 43.7836 49.112 44.4703 49.112C45.2486 49.112 45.6973 49.5515 45.9262 50.1009L46.6404 49.6888C46.2833 48.8831 45.5233 48.2879 44.4703 48.2879C43.399 48.2879 42.4559 48.9472 42.4559 50.1009C42.4559 51.2912 43.4448 51.6117 44.4703 51.9413C45.4134 52.2343 45.9811 52.4541 45.9811 53.1133C45.9811 53.6902 45.5324 54.1022 44.626 54.1022C43.692 54.1022 43.1426 53.6444 42.9137 52.9393L42.1812 53.3605C42.52 54.322 43.3898 54.9354 44.6076 54.9354ZM48.4153 52.8936H52.2518C52.2701 52.7745 52.2793 52.6555 52.2793 52.5365C52.2793 51.2546 51.3819 50.1192 49.9993 50.1192C48.5709 50.1192 47.6004 51.1722 47.6004 52.5273C47.6004 53.9008 48.5801 54.9354 50.0543 54.9354C50.9699 54.9354 51.6658 54.5234 52.0687 53.9008L51.3911 53.5162C51.1622 53.8916 50.7044 54.1846 50.0726 54.1846C49.221 54.1846 48.5709 53.7176 48.4153 52.8936ZM49.9993 50.87C50.6861 50.87 51.3362 51.2912 51.4735 52.1977H48.4153C48.5435 51.4011 49.1386 50.87 49.9993 50.87ZM56.9768 50.2382V51.0257C56.6105 50.4671 56.0245 50.1192 55.2462 50.1192C53.9735 50.1192 52.9297 51.1722 52.9297 52.5273C52.9297 53.8825 53.9735 54.9354 55.2462 54.9354C56.0245 54.9354 56.6105 54.5875 56.9768 54.029V54.8164H57.7734V50.2382H56.9768ZM55.347 54.1663C54.4313 54.1663 53.7263 53.4613 53.7263 52.5273C53.7263 51.5934 54.4313 50.8883 55.347 50.8883C56.2717 50.8883 56.9768 51.5934 56.9768 52.5273C56.9768 53.4613 56.2717 54.1663 55.347 54.1663ZM59.7769 51.0073V50.2382H58.9803V54.8164H59.7769V52.39C59.7769 51.3095 60.5186 50.9616 61.2053 50.989V50.1558C60.6285 50.1558 60.0699 50.3664 59.7769 51.0073ZM63.8861 54.9354C64.7835 54.9354 65.5618 54.4593 65.9463 53.7451L65.2688 53.3514C65.0124 53.8275 64.5088 54.148 63.8861 54.148C62.9705 54.148 62.2746 53.4429 62.2746 52.5273C62.2746 51.6025 62.9705 50.8975 63.8861 50.8975C64.4996 50.8975 65.0124 51.2179 65.2413 51.7032L65.9097 51.3187C65.5618 50.5953 64.7926 50.1192 63.8861 50.1192C62.5035 50.1192 61.478 51.1722 61.478 52.5273C61.478 53.8825 62.5035 54.9354 63.8861 54.9354ZM69.0128 50.1192C68.3719 50.1192 67.8683 50.3572 67.5295 50.8975V48.4069H66.7329V54.8164H67.5295V52.39C67.5295 51.3095 68.1246 50.8792 68.8571 50.8792C69.5622 50.8792 69.9925 51.3003 69.9925 52.0512V54.8164H70.7891V52.0054C70.7891 50.8334 70.0841 50.1192 69.0128 50.1192ZM76.7175 50.1192C75.9392 50.1192 75.3532 50.4671 74.9869 51.0257V48.4069H74.1903V54.8164H74.9869V54.029C75.3532 54.5875 75.9392 54.9354 76.7175 54.9354C77.9902 54.9354 79.0341 53.8825 79.0341 52.5273C79.0341 51.1722 77.9902 50.1192 76.7175 50.1192ZM76.6168 54.1663C75.692 54.1663 74.9869 53.4613 74.9869 52.5273C74.9869 51.5934 75.692 50.8883 76.6168 50.8883C77.5324 50.8883 78.2374 51.5934 78.2374 52.5273C78.2374 53.4613 77.5324 54.1663 76.6168 54.1663ZM83.0013 50.2382L81.6828 53.8275L80.1262 50.2382H79.2747L81.2708 54.7981L81.1884 54.9721C80.9503 55.5764 80.5657 55.9518 79.9523 55.906V56.6477C80.8862 56.7118 81.6004 56.1258 81.985 55.1003L83.8529 50.2382H83.0013ZM86.8072 54.8164H87.6038V48.1322H86.8072V54.8164ZM90.9708 54.9354C92.3077 54.9354 93.3881 53.8825 93.3881 52.5273C93.3881 51.1722 92.3077 50.1192 90.9708 50.1192C89.634 50.1192 88.5627 51.1722 88.5627 52.5273C88.5627 53.8825 89.634 54.9354 90.9708 54.9354ZM90.9708 54.1571C90.0644 54.1571 89.3593 53.4521 89.3593 52.5273C89.3593 51.6025 90.0644 50.8975 90.9708 50.8975C91.8865 50.8975 92.5915 51.6025 92.5915 52.5273C92.5915 53.4521 91.8865 54.1571 90.9708 54.1571ZM96.479 54.9354C97.3763 54.9354 98.1546 54.4593 98.5392 53.7451L97.8616 53.3514C97.6052 53.8275 97.1016 54.148 96.479 54.148C95.5634 54.148 94.8675 53.4429 94.8675 52.5273C94.8675 51.6025 95.5634 50.8975 96.479 50.8975C97.0925 50.8975 97.6052 51.2179 97.8341 51.7032L98.5026 51.3187C98.1546 50.5953 97.3855 50.1192 96.479 50.1192C95.0964 50.1192 94.0709 51.1722 94.0709 52.5273C94.0709 53.8825 95.0964 54.9354 96.479 54.9354ZM103.054 50.2382V51.0257C102.688 50.4671 102.102 50.1192 101.323 50.1192C100.051 50.1192 99.0067 51.1722 99.0067 52.5273C99.0067 53.8825 100.051 54.9354 101.323 54.9354C102.102 54.9354 102.688 54.5875 103.054 54.029V54.8164H103.85V50.2382H103.054ZM101.424 54.1663C100.508 54.1663 99.8033 53.4613 99.8033 52.5273C99.8033 51.5934 100.508 50.8883 101.424 50.8883C102.349 50.8883 103.054 51.5934 103.054 52.5273C103.054 53.4613 102.349 54.1663 101.424 54.1663ZM107.548 51.0073V50.2382H106.33V48.9563L105.534 49.1944V50.2382H104.627V51.0073H105.534V53.4887C105.534 54.6333 106.174 54.9995 107.548 54.8164V54.1022C106.733 54.1388 106.33 54.1846 106.33 53.4887V51.0073H107.548ZM108.894 49.405C109.187 49.405 109.425 49.1669 109.425 48.8739C109.425 48.5809 109.187 48.3337 108.894 48.3337C108.592 48.3337 108.354 48.5809 108.354 48.8739C108.354 49.1669 108.592 49.405 108.894 49.405ZM108.491 54.8164H109.288V50.2382H108.491V54.8164ZM112.655 54.9354C113.992 54.9354 115.072 53.8825 115.072 52.5273C115.072 51.1722 113.992 50.1192 112.655 50.1192C111.318 50.1192 110.247 51.1722 110.247 52.5273C110.247 53.8825 111.318 54.9354 112.655 54.9354ZM112.655 54.1571C111.748 54.1571 111.043 53.4521 111.043 52.5273C111.043 51.6025 111.748 50.8975 112.655 50.8975C113.57 50.8975 114.275 51.6025 114.275 52.5273C114.275 53.4521 113.57 54.1571 112.655 54.1571ZM118.291 50.1192C117.65 50.1192 117.146 50.3572 116.808 50.8975V50.2382H116.011V54.8164H116.808V52.39C116.808 51.3095 117.403 50.8792 118.135 50.8792C118.84 50.8792 119.271 51.3003 119.271 52.0512V54.8164H120.067V52.0054C120.067 50.8334 119.362 50.1192 118.291 50.1192ZM125.62 54.9354C126.957 54.9354 128.038 53.8825 128.038 52.5273C128.038 51.1722 126.957 50.1192 125.62 50.1192C124.283 50.1192 123.212 51.1722 123.212 52.5273C123.212 53.8825 124.283 54.9354 125.62 54.9354ZM125.62 54.1571C124.714 54.1571 124.009 53.4521 124.009 52.5273C124.009 51.6025 124.714 50.8975 125.62 50.8975C126.536 50.8975 127.241 51.6025 127.241 52.5273C127.241 53.4521 126.536 54.1571 125.62 54.1571ZM129.773 51.0073V50.2382H128.977V54.8164H129.773V52.39C129.773 51.3095 130.515 50.9616 131.202 50.989V50.1558C130.625 50.1558 130.066 50.3664 129.773 51.0073ZM136.422 54.9354C137.319 54.9354 138.098 54.4593 138.482 53.7451L137.805 53.3514C137.548 53.8275 137.045 54.148 136.422 54.148C135.506 54.148 134.81 53.4429 134.81 52.5273C134.81 51.6025 135.506 50.8975 136.422 50.8975C137.035 50.8975 137.548 51.2179 137.777 51.7032L138.446 51.3187C138.098 50.5953 137.328 50.1192 136.422 50.1192C135.039 50.1192 134.014 51.1722 134.014 52.5273C134.014 53.8825 135.039 54.9354 136.422 54.9354ZM141.358 54.9354C142.695 54.9354 143.775 53.8825 143.775 52.5273C143.775 51.1722 142.695 50.1192 141.358 50.1192C140.021 50.1192 138.95 51.1722 138.95 52.5273C138.95 53.8825 140.021 54.9354 141.358 54.9354ZM141.358 54.1571C140.451 54.1571 139.746 53.4521 139.746 52.5273C139.746 51.6025 140.451 50.8975 141.358 50.8975C142.274 50.8975 142.979 51.6025 142.979 52.5273C142.979 53.4521 142.274 54.1571 141.358 54.1571ZM149.659 50.1192C149.064 50.1192 148.542 50.3756 148.221 50.8975C147.956 50.403 147.498 50.1192 146.875 50.1192C146.317 50.1192 145.84 50.3389 145.511 50.8517V50.2382H144.714V54.8164H145.511V52.2709C145.511 51.282 146.069 50.8792 146.683 50.8792C147.278 50.8792 147.653 51.2729 147.653 51.9962V54.8164H148.45V52.2709C148.45 51.282 148.935 50.8792 149.576 50.8792C150.181 50.8792 150.584 51.2729 150.584 51.9962V54.8164H151.38V51.9688C151.38 50.8242 150.675 50.1192 149.659 50.1192ZM157.429 50.1192C156.834 50.1192 156.312 50.3756 155.992 50.8975C155.726 50.403 155.268 50.1192 154.646 50.1192C154.087 50.1192 153.611 50.3389 153.281 50.8517V50.2382H152.485V54.8164H153.281V52.2709C153.281 51.282 153.84 50.8792 154.453 50.8792C155.048 50.8792 155.424 51.2729 155.424 51.9962V54.8164H156.22V52.2709C156.22 51.282 156.706 50.8792 157.347 50.8792C157.951 50.8792 158.354 51.2729 158.354 51.9962V54.8164H159.151V51.9688C159.151 50.8242 158.445 50.1192 157.429 50.1192ZM163.414 50.2382V52.6647C163.414 53.7451 162.819 54.1755 162.086 54.1755C161.381 54.1755 160.951 53.7543 160.951 53.0034V50.2382H160.154V53.0492C160.154 54.2212 160.859 54.9354 161.931 54.9354C162.572 54.9354 163.075 54.6974 163.414 54.1571V54.8164H164.211V50.2382H163.414ZM167.914 51.0073V50.2382H166.696V48.9563L165.9 49.1944V50.2382H164.993V51.0073H165.9V53.4887C165.9 54.6333 166.541 54.9995 167.914 54.8164V54.1022C167.099 54.1388 166.696 54.1846 166.696 53.4887V51.0073H167.914ZM169.183 52.8936H173.02C173.038 52.7745 173.047 52.6555 173.047 52.5365C173.047 51.2546 172.15 50.1192 170.767 50.1192C169.339 50.1192 168.368 51.1722 168.368 52.5273C168.368 53.9008 169.348 54.9354 170.822 54.9354C171.738 54.9354 172.434 54.5234 172.837 53.9008L172.159 53.5162C171.93 53.8916 171.472 54.1846 170.84 54.1846C169.989 54.1846 169.339 53.7176 169.183 52.8936ZM170.767 50.87C171.454 50.87 172.104 51.2912 172.241 52.1977H169.183C169.311 51.4011 169.907 50.87 170.767 50.87Z" fill="#5F6368"/>
<g clip-path="url(#clip2_601_31521)">
<path d="M230.865 48.3974H234.789V49.7054H230.865V48.3974ZM230.865 51.0135H234.789V52.3215H230.865V51.0135ZM230.865 53.6296H234.789V54.9376H230.865V53.6296ZM228.249 48.3974H229.557V49.7054H228.249V48.3974ZM228.249 51.0135H229.557V52.3215H228.249V51.0135ZM228.249 53.6296H229.557V54.9376H228.249V53.6296ZM236.817 45.7812H226.221C225.894 45.7812 225.633 46.0429 225.633 46.3699V56.9651C225.633 57.2267 225.894 57.5538 226.221 57.5538H236.817C237.078 57.5538 237.405 57.2267 237.405 56.9651V46.3699C237.405 46.0429 237.078 45.7812 236.817 45.7812V45.7812ZM236.097 56.2457H226.941V47.0893H236.097V56.2457Z" fill="#5F6368"/>
</g>
<rect x="212.562" y="42.5117" width="0.654028" height="18.3128" fill="#DDDDDD"/>
<rect x="5.55358" y="36.2997" width="243.953" height="30.7393" rx="4.90521" stroke="#DADCE0" stroke-width="0.654028"/>
<rect x="5.23438" y="72.5977" width="70.6351" height="23.545" rx="5.23223" fill="#E7F0FE"/>
<g clip-path="url(#clip3_601_31521)">
<path d="M17.4978 83.3873H16.5168V84.3684H17.4978V83.3873ZM19.4599 83.3873H18.4789V84.3684H19.4599V83.3873ZM21.422 83.3873H20.4409V84.3684H21.422V83.3873ZM22.403 79.9537H21.9125V78.9727H20.9315V79.9537H17.0073V78.9727H16.0263V79.9537H15.5357C14.9913 79.9537 14.5547 80.3952 14.5547 80.9347V87.802C14.5547 88.0622 14.658 88.3118 14.842 88.4957C15.026 88.6797 15.2755 88.7831 15.5357 88.7831H22.403C22.6632 88.7831 22.9127 88.6797 23.0967 88.4957C23.2807 88.3118 23.3841 88.0622 23.3841 87.802V80.9347C23.3841 80.6746 23.2807 80.425 23.0967 80.241C22.9127 80.0571 22.6632 79.9537 22.403 79.9537ZM22.403 87.802H15.5357V82.4063H22.403V87.802Z" fill="#366CA5"/>
</g>
<path d="M32.1265 87.5864C33.1782 87.5864 34.018 86.9899 34.018 85.8205V81.9905H33.1154V85.8205C33.1154 86.3856 32.7622 86.7074 32.1344 86.7074C31.6321 86.7074 31.3181 86.519 31.1376 86.1266L30.3606 86.5818C30.6824 87.2489 31.326 87.5864 32.1265 87.5864ZM38.0724 83.5602V84.1174C37.7741 83.7093 37.3111 83.4582 36.6989 83.4582C35.6315 83.4582 34.7447 84.3529 34.7447 85.5223C34.7447 86.6838 35.6315 87.5864 36.6989 87.5864C37.3111 87.5864 37.7741 87.3353 38.0724 86.9193V87.4844H38.92V83.5602H38.0724ZM36.8323 86.778C36.126 86.778 35.5923 86.2522 35.5923 85.5223C35.5923 84.7924 36.126 84.2666 36.8323 84.2666C37.5387 84.2666 38.0724 84.7924 38.0724 85.5223C38.0724 86.2522 37.5387 86.778 36.8323 86.778ZM41.9721 83.4582C41.4384 83.4582 41.0146 83.6544 40.7556 84.0625V83.5602H39.908V87.4844H40.7556V85.381C40.7556 84.5805 41.1951 84.2509 41.7523 84.2509C42.286 84.2509 42.6313 84.5648 42.6313 85.1613V87.4844H43.4789V85.0749C43.4789 84.0546 42.8511 83.4582 41.9721 83.4582ZM46.1026 87.4844H49.7206V86.6132H47.4446L48.6847 85.3732C49.2105 84.8395 49.6186 84.2666 49.6186 83.5837C49.6186 82.4928 48.7632 81.8885 47.8606 81.8885C47.1307 81.8885 46.44 82.2495 46.0869 83.003L46.8482 83.4503C47.0601 83.0108 47.4132 82.7675 47.8684 82.7675C48.3393 82.7675 48.7161 83.0658 48.7161 83.6151C48.7161 84.0311 48.41 84.4314 48.0176 84.8238L46.1026 86.778V87.4844ZM51.4828 81.9905L50.0388 82.5007L50.2585 83.2698L51.3651 82.9559V87.4844H52.2677V81.9905H51.4828ZM55.3683 85.5066H59.371V84.6904H55.3683V85.5066ZM62.8901 87.5786C63.2119 87.5786 63.4787 87.3117 63.4787 86.9899C63.4787 86.6603 63.2119 86.4013 62.8901 86.4013C62.5605 86.4013 62.3015 86.6603 62.3015 86.9899C62.3015 87.3117 62.5605 87.5786 62.8901 87.5786ZM64.8905 87.5786C65.2123 87.5786 65.4791 87.3117 65.4791 86.9899C65.4791 86.6603 65.2123 86.4013 64.8905 86.4013C64.5609 86.4013 64.3019 86.6603 64.3019 86.9899C64.3019 87.3117 64.5609 87.5786 64.8905 87.5786ZM66.8909 87.5786C67.2127 87.5786 67.4795 87.3117 67.4795 86.9899C67.4795 86.6603 67.2127 86.4013 66.8909 86.4013C66.5613 86.4013 66.3023 86.6603 66.3023 86.9899C66.3023 87.3117 66.5613 87.5786 66.8909 87.5786Z" fill="#202124"/>
<rect x="79.7891" y="72.5977" width="73.2512" height="23.545" rx="5.23223" fill="#E7F0FE"/>
<path d="M94.3233 85.9775C94.3233 84.9337 93.5228 84.6354 92.7772 84.3529V82.7989C93.0989 82.8696 93.3344 83.0658 93.4757 83.4189L94.237 82.9794C93.9544 82.3359 93.4129 81.9905 92.7772 81.9042V81.2057H92.267V81.8964C91.4508 81.9748 90.7366 82.5085 90.7366 83.4346C90.7366 84.4392 91.5057 84.7767 92.267 85.0592V86.6917C91.7569 86.6368 91.4351 86.3621 91.2624 85.9226L90.4855 86.3699C90.7601 87.0841 91.3959 87.5236 92.267 87.5786V88.2692H92.7772V87.5707C93.6719 87.4608 94.3233 86.8879 94.3233 85.9775ZM91.6392 83.4346C91.6392 83.0815 91.8825 82.846 92.267 82.7832V84.1488C91.8275 83.9448 91.6392 83.7643 91.6392 83.4346ZM92.7772 86.6838V85.2554C93.1774 85.436 93.4207 85.6165 93.4207 85.9853C93.4207 86.3228 93.2088 86.5975 92.7772 86.6838ZM96.1035 81.9905L94.6594 82.5007L94.8792 83.2698L95.9858 82.9559V87.4844H96.8883V81.9905H96.1035ZM98.4821 87.5786C98.8039 87.5786 99.0707 87.3117 99.0707 86.9899C99.0707 86.6603 98.8039 86.4013 98.4821 86.4013C98.1525 86.4013 97.8935 86.6603 97.8935 86.9899C97.8935 87.3117 98.1525 87.5786 98.4821 87.5786ZM101.636 84.0625H100.946L101.04 82.8382H103.269V81.9905H100.208L99.9959 84.9415H101.597C102.193 84.9415 102.602 85.2711 102.602 85.8205C102.602 86.3699 102.193 86.7074 101.581 86.7074C101.008 86.7074 100.632 86.4484 100.49 85.9618L99.7134 86.4092C100.004 87.2018 100.749 87.5864 101.581 87.5864C102.594 87.5864 103.504 86.9742 103.504 85.8205C103.504 84.6747 102.633 84.0625 101.636 84.0625ZM108.448 87.4844L106.148 84.6668L108.369 81.9905H107.294L105.207 84.4549V81.9905H104.304V87.4844H105.207V84.8709L107.373 87.4844H108.448ZM110.995 85.5066H114.998V84.6904H110.995V85.5066ZM121.586 85.9775C121.586 84.9337 120.785 84.6354 120.039 84.3529V82.7989C120.361 82.8696 120.597 83.0658 120.738 83.4189L121.499 82.9794C121.217 82.3359 120.675 81.9905 120.039 81.9042V81.2057H119.529V81.8964C118.713 81.9748 117.999 82.5085 117.999 83.4346C117.999 84.4392 118.768 84.7767 119.529 85.0592V86.6917C119.019 86.6368 118.697 86.3621 118.525 85.9226L117.748 86.3699C118.022 87.0841 118.658 87.5236 119.529 87.5786V88.2692H120.039V87.5707C120.934 87.4608 121.586 86.8879 121.586 85.9775ZM118.901 83.4346C118.901 83.0815 119.145 82.846 119.529 82.7832V84.1488C119.09 83.9448 118.901 83.7643 118.901 83.4346ZM120.039 86.6838V85.2554C120.44 85.436 120.683 85.6165 120.683 85.9853C120.683 86.3228 120.471 86.5975 120.039 86.6838ZM124.441 84.2352L125.555 82.7597V81.9905H122.181V82.8382H124.48L123.295 84.4L123.656 84.9415H123.86C124.48 84.9415 124.881 85.2711 124.881 85.8205C124.881 86.3699 124.48 86.7074 123.86 86.7074C123.311 86.7074 122.942 86.4641 122.785 86.001L122.016 86.4484C122.322 87.2175 123.052 87.5864 123.86 87.5864C124.873 87.5864 125.783 86.9742 125.783 85.8205C125.783 84.9651 125.194 84.4157 124.441 84.2352ZM130.751 87.4844L128.452 84.6668L130.673 81.9905H129.598L127.51 84.4549V81.9905H126.607V87.4844H127.51V84.8709L129.676 87.4844H130.751Z" fill="#202124"/>
<g clip-path="url(#clip4_601_31521)">
<path d="M139.203 83.2773L141.928 86.0025L144.653 83.2773H139.203Z" fill="#366CA5"/>
</g>
<rect x="156.969" y="72.5977" width="60.1706" height="23.545" rx="5.23223" fill="#E7F0FE"/>
<path d="M168.976 81.9905L167.532 82.5007L167.751 83.2698L168.858 82.9559V87.4844H169.761V81.9905H168.976ZM174.235 84.3372H172.908V83.0108H172.108V84.3372H170.781V85.1377H172.108V86.4641H172.908V85.1377H174.235V84.3372ZM180.41 84.6354C180.755 84.3843 180.967 83.9919 180.967 83.5131C180.967 82.6341 180.245 81.9905 179.358 81.9905H177.176V87.4844H179.531C180.441 87.4844 181.179 86.8251 181.179 85.9147C181.179 85.3261 180.873 84.8787 180.41 84.6354ZM179.358 82.8382C179.758 82.8382 180.065 83.1521 180.065 83.5602C180.065 83.9683 179.758 84.2823 179.358 84.2823H178.079V82.8382H179.358ZM179.531 86.6368H178.079V85.0985H179.531C179.955 85.0985 180.276 85.436 180.276 85.8676C180.276 86.2993 179.955 86.6368 179.531 86.6368ZM182.617 85.8833H185.741C185.756 85.7734 185.772 85.6479 185.772 85.5301C185.772 84.4 184.972 83.4582 183.802 83.4582C182.57 83.4582 181.73 84.3607 181.73 85.5223C181.73 86.6995 182.57 87.5864 183.865 87.5864C184.634 87.5864 185.223 87.2646 185.584 86.7309L184.885 86.3228C184.697 86.5975 184.344 86.8094 183.873 86.8094C183.245 86.8094 182.751 86.4955 182.617 85.8833ZM182.609 85.1927C182.727 84.604 183.159 84.2273 183.794 84.2273C184.304 84.2273 184.799 84.5177 184.917 85.1927H182.609ZM189.603 81.9905V84.1174C189.305 83.7093 188.842 83.4582 188.229 83.4582C187.162 83.4582 186.275 84.3529 186.275 85.5223C186.275 86.6838 187.162 87.5864 188.229 87.5864C188.842 87.5864 189.305 87.3353 189.603 86.9193V87.4844H190.451V81.9905H189.603ZM188.363 86.778C187.657 86.778 187.123 86.2522 187.123 85.5223C187.123 84.7924 187.657 84.2666 188.363 84.2666C189.069 84.2666 189.603 84.7924 189.603 85.5223C189.603 86.2522 189.069 86.778 188.363 86.778ZM192.177 84.6433C192.177 84.3607 192.444 84.2273 192.75 84.2273C193.072 84.2273 193.346 84.3686 193.487 84.6747L194.202 84.2744C193.927 83.7564 193.393 83.4582 192.75 83.4582C191.949 83.4582 191.313 83.9212 191.313 84.659C191.313 86.0638 193.425 85.6714 193.425 86.3699C193.425 86.6838 193.134 86.8094 192.758 86.8094C192.326 86.8094 192.012 86.5975 191.886 86.2443L191.157 86.6681C191.408 87.2332 191.973 87.5864 192.758 87.5864C193.605 87.5864 194.288 87.1626 194.288 86.3778C194.288 84.9258 192.177 85.3575 192.177 84.6433Z" fill="#202124"/>
<g clip-path="url(#clip5_601_31521)">
<path d="M203.297 83.2773L206.022 86.0025L208.747 83.2773H203.297Z" fill="#366CA5"/>
</g>
<rect x="221.062" y="72.5977" width="117.725" height="23.545" rx="5.23223" fill="#E7F0FE"/>
<path d="M232.073 81.9905V87.4844H232.975V81.9905H232.073ZM236.082 83.4582C235.549 83.4582 235.125 83.6544 234.866 84.0625V83.5602H234.018V87.4844H234.866V85.381C234.866 84.5805 235.305 84.2509 235.863 84.2509C236.396 84.2509 236.742 84.5648 236.742 85.1613V87.4844H237.589V85.0749C237.589 84.0546 236.961 83.4582 236.082 83.4582ZM243.109 83.5602V85.6636C243.109 86.4641 242.669 86.7937 242.112 86.7937C241.579 86.7937 241.233 86.4798 241.233 85.8833V83.5602H240.386V85.9696C240.386 86.9899 241.013 87.5864 241.892 87.5864C242.426 87.5864 242.85 87.3902 243.109 86.9821V87.4844H243.957V83.5602H243.109ZM247.012 83.4582C246.478 83.4582 246.054 83.6544 245.795 84.0625V83.5602H244.948V87.4844H245.795V85.381C245.795 84.5805 246.235 84.2509 246.792 84.2509C247.326 84.2509 247.671 84.5648 247.671 85.1613V87.4844H248.519V85.0749C248.519 84.0546 247.891 83.4582 247.012 83.4582ZM249.855 82.9716C250.153 82.9716 250.397 82.7204 250.397 82.43C250.397 82.1318 250.153 81.8885 249.855 81.8885C249.557 81.8885 249.314 82.1318 249.314 82.43C249.314 82.7204 249.557 82.9716 249.855 82.9716ZM249.431 87.4844H250.279V83.5602H249.431V87.4844ZM253.453 84.3764V83.5602H252.48V82.4614L251.632 82.7126V83.5602H250.91V84.3764H251.632V86.26C251.632 87.2803 252.15 87.6413 253.453 87.4844V86.7231C252.809 86.7545 252.48 86.7623 252.48 86.26V84.3764H253.453ZM256.222 87.4844H257.07V81.7551H256.222V87.4844ZM261.162 83.5602V84.1174C260.864 83.7093 260.4 83.4582 259.788 83.4582C258.721 83.4582 257.834 84.3529 257.834 85.5223C257.834 86.6838 258.721 87.5864 259.788 87.5864C260.4 87.5864 260.864 87.3353 261.162 86.9193V87.4844H262.009V83.5602H261.162ZM259.922 86.778C259.215 86.778 258.682 86.2522 258.682 85.5223C258.682 84.7924 259.215 84.2666 259.922 84.2666C260.628 84.2666 261.162 84.7924 261.162 85.5223C261.162 86.2522 260.628 86.778 259.922 86.778ZM265.642 83.5602V85.6636C265.642 86.4641 265.203 86.7937 264.646 86.7937C264.112 86.7937 263.767 86.4798 263.767 85.8833V83.5602H262.919V85.9696C262.919 86.9899 263.547 87.5864 264.426 87.5864C264.959 87.5864 265.383 87.3902 265.642 86.9821V87.4844H266.49V83.5602H265.642ZM269.545 83.4582C269.011 83.4582 268.588 83.6544 268.329 84.0625V83.5602H267.481V87.4844H268.329V85.381C268.329 84.5805 268.768 84.2509 269.325 84.2509C269.859 84.2509 270.204 84.5648 270.204 85.1613V87.4844H271.052V85.0749C271.052 84.0546 270.424 83.4582 269.545 83.4582ZM275.073 81.9905V84.1174C274.774 83.7093 274.311 83.4582 273.699 83.4582C272.632 83.4582 271.745 84.3529 271.745 85.5223C271.745 86.6838 272.632 87.5864 273.699 87.5864C274.311 87.5864 274.774 87.3353 275.073 86.9193V87.4844H275.92V81.9905H275.073ZM273.833 86.778C273.126 86.778 272.593 86.2522 272.593 85.5223C272.593 84.7924 273.126 84.2666 273.833 84.2666C274.539 84.2666 275.073 84.7924 275.073 85.5223C275.073 86.2522 274.539 86.778 273.833 86.778ZM277.756 84.2195V83.5602H276.908V87.4844H277.756V85.5066C277.756 84.6276 278.407 84.3686 278.965 84.4078V83.4896C278.47 83.4896 277.991 83.6858 277.756 84.2195ZM282.312 83.5602L281.308 86.4092L280.138 83.5602H279.212L280.876 87.4137L280.837 87.4922C280.641 88.0102 280.342 88.2928 279.793 88.2614V89.054C280.696 89.109 281.339 88.6067 281.708 87.6099L283.215 83.5602H282.312ZM289.097 84.3372H287.771V83.0108H286.971V84.3372H285.644V85.1377H286.971V86.4641H287.771V85.1377H289.097V84.3372ZM294.111 84.2352L295.225 82.7597V81.9905H291.851V82.8382H294.15L292.965 84.4L293.326 84.9415H293.53C294.15 84.9415 294.551 85.2711 294.551 85.8205C294.551 86.3699 294.15 86.7074 293.53 86.7074C292.981 86.7074 292.612 86.4641 292.455 86.001L291.686 86.4484C291.992 87.2175 292.722 87.5864 293.53 87.5864C294.543 87.5864 295.453 86.9742 295.453 85.8205C295.453 84.9651 294.864 84.4157 294.111 84.2352ZM302.47 83.4582C301.944 83.4582 301.528 83.6701 301.269 84.0782C301.041 83.6858 300.665 83.4582 300.155 83.4582C299.668 83.4582 299.283 83.6465 299.032 84.0311V83.5602H298.185V87.4844H299.032V85.2868C299.032 84.5726 299.425 84.2509 299.903 84.2509C300.366 84.2509 300.641 84.5569 300.641 85.1063V87.4844H301.489V85.2868C301.489 84.5726 301.842 84.2509 302.344 84.2509C302.807 84.2509 303.106 84.5569 303.106 85.1063V87.4844H303.953V85.0514C303.953 84.0703 303.357 83.4582 302.47 83.4582ZM306.713 87.5864C307.866 87.5864 308.784 86.6838 308.784 85.5223C308.784 84.3529 307.866 83.4582 306.713 83.4582C305.567 83.4582 304.641 84.3529 304.641 85.5223C304.641 86.6838 305.567 87.5864 306.713 87.5864ZM306.713 86.7623C306.022 86.7623 305.488 86.2365 305.488 85.5223C305.488 84.8081 306.022 84.2823 306.713 84.2823C307.403 84.2823 307.937 84.8081 307.937 85.5223C307.937 86.2365 307.403 86.7623 306.713 86.7623ZM310.399 84.2195V83.5602H309.551V87.4844H310.399V85.5066C310.399 84.6276 311.05 84.3686 311.607 84.4078V83.4896C311.113 83.4896 310.634 83.6858 310.399 84.2195ZM312.717 85.8833H315.84C315.856 85.7734 315.872 85.6479 315.872 85.5301C315.872 84.4 315.071 83.4582 313.902 83.4582C312.67 83.4582 311.83 84.3607 311.83 85.5223C311.83 86.6995 312.67 87.5864 313.965 87.5864C314.734 87.5864 315.322 87.2646 315.683 86.7309L314.985 86.3228C314.796 86.5975 314.443 86.8094 313.972 86.8094C313.344 86.8094 312.85 86.4955 312.717 85.8833ZM312.709 85.1927C312.826 84.604 313.258 84.2273 313.894 84.2273C314.404 84.2273 314.898 84.5177 315.016 85.1927H312.709Z" fill="#202124"/>
</g>
<rect width="255.071" height="30.7393" fill="white"/>
<path fill-rule="evenodd" clip-rule="evenodd" d="M198.625 12.7539H197.862C197.441 12.7539 197.099 13.0833 197.099 13.4897V19.8665C197.099 20.2728 197.441 20.6022 197.862 20.6022H198.625C199.047 20.6022 199.388 20.2728 199.388 19.8665V13.4897C199.388 13.0833 199.047 12.7539 198.625 12.7539ZM194.27 14.4707H195.033C195.455 14.4707 195.796 14.8002 195.796 15.2065V19.8665C195.796 20.2728 195.455 20.6022 195.033 20.6022H194.27C193.849 20.6022 193.507 20.2728 193.507 19.8665V15.2065C193.507 14.8002 193.849 14.4707 194.27 14.4707ZM191.446 16.1876H190.683C190.262 16.1876 189.92 16.517 189.92 16.9233V19.8665C189.92 20.2728 190.262 20.6022 190.683 20.6022H191.446C191.868 20.6022 192.209 20.2728 192.209 19.8665V16.9233C192.209 16.517 191.868 16.1876 191.446 16.1876ZM187.854 17.6591H187.091C186.67 17.6591 186.328 17.9885 186.328 18.3949V19.8665C186.328 20.2728 186.67 20.6022 187.091 20.6022H187.854C188.276 20.6022 188.617 20.2728 188.617 19.8665V18.3949C188.617 17.9885 188.276 17.6591 187.854 17.6591Z" fill="black"/>
<path fill-rule="evenodd" clip-rule="evenodd" d="M209.52 14.2877C211.134 14.2878 212.685 14.9226 213.854 16.0609C213.942 16.1487 214.083 16.1476 214.17 16.0584L215.011 15.1886C215.055 15.1433 215.08 15.082 215.079 15.0182C215.079 14.9544 215.054 14.8933 215.009 14.8486C211.941 11.8369 207.1 11.8369 204.031 14.8486C203.987 14.8933 203.961 14.9543 203.961 15.0181C203.961 15.0819 203.985 15.1433 204.029 15.1886L204.871 16.0584C204.957 16.1478 205.098 16.1489 205.186 16.0609C206.355 14.9225 207.907 14.2877 209.52 14.2877ZM209.518 17.1171C210.404 17.117 211.259 17.4544 211.916 18.0637C212.005 18.1501 212.145 18.1483 212.232 18.0594L213.072 17.1896C213.117 17.144 213.141 17.0821 213.14 17.0178C213.14 16.9535 213.114 16.8921 213.069 16.8474C211.068 14.9415 207.97 14.9415 205.969 16.8474C205.924 16.8921 205.898 16.9535 205.897 17.0179C205.897 17.0822 205.922 17.1441 205.966 17.1896L206.806 18.0594C206.893 18.1483 207.033 18.1501 207.122 18.0637C207.778 17.4548 208.632 17.1174 209.518 17.1171ZM211.202 19.0208C211.203 19.0853 211.178 19.1475 211.134 19.1927L209.679 20.6955C209.637 20.7396 209.579 20.7645 209.518 20.7645C209.457 20.7645 209.399 20.7396 209.357 20.6955L207.902 19.1927C207.857 19.1475 207.833 19.0853 207.834 19.0208C207.835 18.9563 207.863 18.8952 207.909 18.852C208.838 18.0476 210.198 18.0476 211.127 18.852C211.173 18.8953 211.201 18.9564 211.202 19.0208Z" fill="black"/>
<g clip-path="url(#clip6_601_31521)">
<rect opacity="0.4" x="219.991" y="12.7528" width="15.6967" height="7.84834" rx="2.2891" stroke="black" stroke-width="0.654028"/>
<path opacity="0.5" d="M236.664 15.3711V17.9872C237.191 17.7656 237.534 17.2502 237.534 16.6792C237.534 16.1081 237.191 15.5927 236.664 15.3711" fill="black"/>
<rect x="220.969" y="13.7344" width="11.1185" height="5.88626" rx="1.30806" fill="black"/>
</g>
<path d="M34.4828 11.9511C32.7836 11.9511 31.5729 13.1129 31.5729 14.7035V14.7144C31.5729 16.2019 32.6261 17.2986 34.1299 17.2986C35.2049 17.2986 35.8889 16.7502 36.1767 16.1313H36.2852C36.2852 16.1911 36.2798 16.2508 36.2798 16.3105C36.2201 17.8089 35.6935 19.025 34.4503 19.025C33.7608 19.025 33.2776 18.6667 33.0713 18.1183L33.055 18.0641H31.6761L31.6869 18.1238C31.9367 19.3236 33.0116 20.1759 34.4503 20.1759C36.421 20.1759 37.6099 18.6124 37.6099 15.9739V15.963C37.6099 13.14 36.1549 11.9511 34.4828 11.9511ZM34.4774 16.2236C33.5871 16.2236 32.941 15.5722 32.941 14.6655V14.6547C32.941 13.7806 33.6305 13.0911 34.4937 13.0911C35.3623 13.0911 36.0409 13.7915 36.0409 14.6872V14.6981C36.0409 15.583 35.3623 16.2236 34.4774 16.2236ZM39.7476 14.9044C40.2471 14.9044 40.6108 14.5244 40.6108 14.0466C40.6108 13.5635 40.2471 13.1889 39.7476 13.1889C39.2536 13.1889 38.8844 13.5635 38.8844 14.0466C38.8844 14.5244 39.2536 14.9044 39.7476 14.9044ZM39.7476 18.9327C40.2471 18.9327 40.6108 18.5581 40.6108 18.0749C40.6108 17.5917 40.2471 17.2171 39.7476 17.2171C39.2536 17.2171 38.8844 17.5917 38.8844 18.0749C38.8844 18.5581 39.2536 18.9327 39.7476 18.9327ZM45.6856 19.9805H47.0266V18.4767H48.0798V17.3203H47.0266V12.1465H45.045C43.9809 13.7643 42.868 15.5667 41.8528 17.3311V18.4767H45.6856V19.9805ZM43.1557 17.3529V17.2714C43.9158 15.9413 44.8224 14.4918 45.6259 13.2649H45.7073V17.3529H43.1557ZM50.9993 19.9805H52.4V12.1465H51.0047L48.958 13.5852V14.9044L50.907 13.5255H50.9993V19.9805Z" fill="black"/>
<defs>
<clipPath id="clip0_601_31521">
<rect width="255.071" height="70.6351" fill="white" transform="translate(0 30.7383)"/>
</clipPath>
<clipPath id="clip1_601_31521">
<rect width="15.6967" height="15.6967" fill="white" transform="translate(15.6953 43.8164)"/>
</clipPath>
<clipPath id="clip2_601_31521">
<rect width="15.6967" height="15.6967" fill="white" transform="translate(223.68 43.8164)"/>
</clipPath>
<clipPath id="clip3_601_31521">
<rect width="11.7725" height="11.7725" fill="white" transform="translate(13.0859 78.4844)"/>
</clipPath>
<clipPath id="clip4_601_31521">
<rect width="11.7725" height="11.7725" fill="white" transform="translate(136.039 78.4844)"/>
</clipPath>
<clipPath id="clip5_601_31521">
<rect width="11.7725" height="11.7725" fill="white" transform="translate(200.133 78.4844)"/>
</clipPath>
<clipPath id="clip6_601_31521">
<rect width="17.8746" height="8.50237" fill="white" transform="translate(219.664 12.4258)"/>
</clipPath>
</defs>
</svg>
