<svg width="256" height="31" viewBox="0 0 256 31" fill="none" xmlns="http://www.w3.org/2000/svg">
<rect width="255.071" height="30.7393" fill="white"/>
<path fill-rule="evenodd" clip-rule="evenodd" d="M198.625 12.7539H197.862C197.441 12.7539 197.099 13.0833 197.099 13.4897V19.8665C197.099 20.2728 197.441 20.6022 197.862 20.6022H198.625C199.047 20.6022 199.388 20.2728 199.388 19.8665V13.4897C199.388 13.0833 199.047 12.7539 198.625 12.7539ZM194.27 14.4707H195.033C195.455 14.4707 195.796 14.8002 195.796 15.2065V19.8665C195.796 20.2728 195.455 20.6022 195.033 20.6022H194.27C193.849 20.6022 193.507 20.2728 193.507 19.8665V15.2065C193.507 14.8002 193.849 14.4707 194.27 14.4707ZM191.446 16.1876H190.683C190.262 16.1876 189.92 16.517 189.92 16.9233V19.8665C189.92 20.2728 190.262 20.6022 190.683 20.6022H191.446C191.868 20.6022 192.209 20.2728 192.209 19.8665V16.9233C192.209 16.517 191.868 16.1876 191.446 16.1876ZM187.854 17.6591H187.091C186.67 17.6591 186.328 17.9885 186.328 18.3949V19.8665C186.328 20.2728 186.67 20.6022 187.091 20.6022H187.854C188.276 20.6022 188.617 20.2728 188.617 19.8665V18.3949C188.617 17.9885 188.276 17.6591 187.854 17.6591Z" fill="black"/>
<path fill-rule="evenodd" clip-rule="evenodd" d="M209.52 14.2877C211.134 14.2878 212.685 14.9226 213.854 16.0609C213.942 16.1487 214.083 16.1476 214.17 16.0584L215.011 15.1886C215.055 15.1433 215.08 15.082 215.079 15.0182C215.079 14.9544 215.054 14.8933 215.009 14.8486C211.941 11.8369 207.1 11.8369 204.031 14.8486C203.987 14.8933 203.961 14.9543 203.961 15.0181C203.961 15.0819 203.985 15.1433 204.029 15.1886L204.871 16.0584C204.957 16.1478 205.098 16.1489 205.186 16.0609C206.355 14.9225 207.907 14.2877 209.52 14.2877ZM209.518 17.1171C210.404 17.117 211.259 17.4544 211.916 18.0637C212.005 18.1501 212.145 18.1483 212.232 18.0594L213.072 17.1896C213.117 17.144 213.141 17.0821 213.14 17.0178C213.14 16.9535 213.114 16.8921 213.069 16.8474C211.068 14.9415 207.97 14.9415 205.969 16.8474C205.924 16.8921 205.898 16.9535 205.897 17.0179C205.897 17.0822 205.922 17.1441 205.966 17.1896L206.806 18.0594C206.893 18.1483 207.033 18.1501 207.122 18.0637C207.778 17.4548 208.632 17.1174 209.518 17.1171ZM211.202 19.0208C211.203 19.0853 211.178 19.1475 211.134 19.1927L209.679 20.6955C209.637 20.7396 209.579 20.7645 209.518 20.7645C209.457 20.7645 209.399 20.7396 209.357 20.6955L207.902 19.1927C207.857 19.1475 207.833 19.0853 207.834 19.0208C207.835 18.9563 207.863 18.8952 207.909 18.852C208.838 18.0476 210.198 18.0476 211.127 18.852C211.173 18.8953 211.201 18.9564 211.202 19.0208Z" fill="black"/>
<g clip-path="url(#clip0_601_31361)">
<rect opacity="0.4" x="219.991" y="12.7528" width="15.6967" height="7.84834" rx="2.2891" stroke="black" stroke-width="0.654028"/>
<path opacity="0.5" d="M236.664 15.3711V17.9872C237.191 17.7656 237.534 17.2502 237.534 16.6792C237.534 16.1081 237.191 15.5927 236.664 15.3711" fill="black"/>
<rect x="220.969" y="13.7344" width="11.1185" height="5.88626" rx="1.30806" fill="black"/>
</g>
<path d="M34.4828 11.9511C32.7836 11.9511 31.5729 13.1129 31.5729 14.7035V14.7144C31.5729 16.2019 32.6261 17.2986 34.1299 17.2986C35.2049 17.2986 35.8889 16.7502 36.1767 16.1313H36.2852C36.2852 16.1911 36.2798 16.2508 36.2798 16.3105C36.2201 17.8089 35.6935 19.025 34.4503 19.025C33.7608 19.025 33.2776 18.6667 33.0713 18.1183L33.055 18.0641H31.6761L31.6869 18.1238C31.9367 19.3236 33.0116 20.1759 34.4503 20.1759C36.421 20.1759 37.6099 18.6124 37.6099 15.9739V15.963C37.6099 13.14 36.1549 11.9511 34.4828 11.9511ZM34.4774 16.2236C33.5871 16.2236 32.941 15.5722 32.941 14.6655V14.6547C32.941 13.7806 33.6305 13.0911 34.4937 13.0911C35.3623 13.0911 36.0409 13.7915 36.0409 14.6872V14.6981C36.0409 15.583 35.3623 16.2236 34.4774 16.2236ZM39.7476 14.9044C40.2471 14.9044 40.6108 14.5244 40.6108 14.0466C40.6108 13.5635 40.2471 13.1889 39.7476 13.1889C39.2536 13.1889 38.8844 13.5635 38.8844 14.0466C38.8844 14.5244 39.2536 14.9044 39.7476 14.9044ZM39.7476 18.9327C40.2471 18.9327 40.6108 18.5581 40.6108 18.0749C40.6108 17.5917 40.2471 17.2171 39.7476 17.2171C39.2536 17.2171 38.8844 17.5917 38.8844 18.0749C38.8844 18.5581 39.2536 18.9327 39.7476 18.9327ZM45.6856 19.9805H47.0266V18.4767H48.0798V17.3203H47.0266V12.1465H45.045C43.9809 13.7643 42.868 15.5667 41.8528 17.3311V18.4767H45.6856V19.9805ZM43.1557 17.3529V17.2714C43.9158 15.9413 44.8224 14.4918 45.6259 13.2649H45.7073V17.3529H43.1557ZM50.9993 19.9805H52.4V12.1465H51.0047L48.958 13.5852V14.9044L50.907 13.5255H50.9993V19.9805Z" fill="black"/>
<defs>
<clipPath id="clip0_601_31361">
<rect width="17.8746" height="8.50237" fill="white" transform="translate(219.664 12.4258)"/>
</clipPath>
</defs>
</svg>
