<svg width="199" height="24" viewBox="0 0 199 24" fill="none" xmlns="http://www.w3.org/2000/svg">
<g clip-path="url(#clip0_632_32116)">
<rect width="198.419" height="23.8103" fill="white"/>
<path fill-rule="evenodd" clip-rule="evenodd" d="M179.683 9.0791H187.525C188.185 9.0791 188.425 9.14786 188.666 9.27698C188.908 9.4061 189.097 9.59558 189.226 9.83702C189.356 10.0785 189.424 10.3179 189.424 10.9783V13.2647C189.424 13.9251 189.356 14.1646 189.226 14.406C189.097 14.6475 188.908 14.837 188.666 14.9661C188.425 15.0952 188.185 15.164 187.525 15.164H179.683C179.023 15.164 178.783 15.0952 178.542 14.9661C178.3 14.837 178.111 14.6475 177.982 14.406C177.852 14.1646 177.784 13.9251 177.784 13.2647V10.9783C177.784 10.3179 177.852 10.0785 177.982 9.83702C178.111 9.59558 178.3 9.4061 178.542 9.27698C178.783 9.14786 179.023 9.0791 179.683 9.0791ZM179.683 9.60812C179.161 9.60812 178.978 9.64333 178.791 9.74347C178.642 9.82328 178.528 9.93723 178.448 10.0865C178.348 10.2737 178.313 10.456 178.313 10.9782V13.2646C178.313 13.7869 178.348 13.9692 178.448 14.1564C178.528 14.3056 178.642 14.4196 178.791 14.4994C178.978 14.5995 179.161 14.6347 179.683 14.6347H187.525C188.047 14.6347 188.23 14.5995 188.417 14.4994C188.566 14.4196 188.68 14.3056 188.76 14.1564C188.86 13.9692 188.895 13.7869 188.895 13.2646V10.9782C188.895 10.456 188.86 10.2737 188.76 10.0865C188.68 9.93723 188.566 9.82328 188.417 9.74347C188.23 9.64333 188.047 9.60812 187.525 9.60812H179.683ZM190.747 12.0897C190.747 12.7439 189.953 13.1479 189.953 13.1479V11.0314C189.953 11.0314 190.747 11.4354 190.747 12.0897Z" fill="black" fill-opacity="0.36"/>
<rect x="178.842" y="10.0933" width="9.52413" height="4.05657" rx="0.846589" fill="black"/>
<path fill-rule="evenodd" clip-rule="evenodd" d="M162.769 9.82308C162.757 9.88442 162.757 9.95817 162.757 10.1057V14.1799C162.757 14.3274 162.757 14.4012 162.769 14.4625C162.82 14.7144 163.016 14.9113 163.268 14.9614C163.33 14.9736 163.403 14.9736 163.551 14.9736C163.698 14.9736 163.772 14.9736 163.834 14.9614C164.085 14.9113 164.282 14.7144 164.332 14.4625C164.345 14.4012 164.345 14.3274 164.345 14.1799V10.1057C164.345 9.95817 164.345 9.88442 164.332 9.82308C164.282 9.57121 164.085 9.37431 163.834 9.32421C163.772 9.31201 163.698 9.31201 163.551 9.31201C163.403 9.31201 163.33 9.31201 163.268 9.32421C163.016 9.37431 162.82 9.57121 162.769 9.82308ZM160.269 11.3758C160.269 11.2283 160.269 11.1545 160.281 11.0932C160.331 10.8413 160.528 10.6444 160.78 10.5943C160.841 10.5821 160.915 10.5821 161.062 10.5821C161.21 10.5821 161.284 10.5821 161.345 10.5943C161.597 10.6444 161.794 10.8413 161.844 11.0932C161.856 11.1545 161.856 11.2283 161.856 11.3758V14.1801C161.856 14.3276 161.856 14.4014 161.844 14.4627C161.794 14.7146 161.597 14.9115 161.345 14.9616C161.284 14.9738 161.21 14.9738 161.062 14.9738C160.915 14.9738 160.841 14.9738 160.78 14.9616C160.528 14.9115 160.331 14.7146 160.281 14.4627C160.269 14.4014 160.269 14.3276 160.269 14.1801V11.3758ZM157.848 12.31C157.836 12.3714 157.836 12.4451 157.836 12.5926V14.18C157.836 14.3275 157.836 14.4013 157.848 14.4626C157.898 14.7145 158.095 14.9114 158.347 14.9615C158.408 14.9737 158.482 14.9737 158.629 14.9737C158.777 14.9737 158.851 14.9737 158.912 14.9615C159.164 14.9114 159.361 14.7145 159.411 14.4626C159.423 14.4013 159.423 14.3275 159.423 14.18V12.5926C159.423 12.4451 159.423 12.3714 159.411 12.31C159.361 12.0582 159.164 11.8613 158.912 11.8112C158.851 11.799 158.777 11.799 158.629 11.799C158.482 11.799 158.408 11.799 158.347 11.8112C158.095 11.8613 157.898 12.0582 157.848 12.31ZM155.308 13.3683C155.296 13.4296 155.296 13.5034 155.296 13.6509V14.18C155.296 14.3275 155.296 14.4013 155.308 14.4626C155.358 14.7145 155.555 14.9114 155.807 14.9615C155.868 14.9737 155.942 14.9737 156.09 14.9737C156.237 14.9737 156.311 14.9737 156.372 14.9615C156.624 14.9114 156.821 14.7145 156.871 14.4626C156.883 14.4013 156.883 14.3275 156.883 14.18V13.6509C156.883 13.5034 156.883 13.4296 156.871 13.3683C156.821 13.1164 156.624 12.9195 156.372 12.8694C156.311 12.8572 156.237 12.8572 156.09 12.8572C155.942 12.8572 155.868 12.8572 155.807 12.8694C155.555 12.9195 155.358 13.1164 155.308 13.3683Z" fill="black"/>
<path fill-rule="evenodd" clip-rule="evenodd" d="M171.065 10.4211C172.247 10.4212 173.384 10.8754 174.241 11.69C174.305 11.7529 174.408 11.7521 174.472 11.6883L175.089 11.0658C175.121 11.0334 175.139 10.9895 175.139 10.9439C175.138 10.8982 175.12 10.8545 175.087 10.8225C172.838 8.66724 169.291 8.66724 167.042 10.8225C167.009 10.8545 166.991 10.8982 166.99 10.9438C166.99 10.9895 167.008 11.0334 167.04 11.0658L167.657 11.6883C167.72 11.7522 167.824 11.753 167.888 11.69C168.745 10.8754 169.882 10.4211 171.065 10.4211V10.4211ZM171.064 12.4465C171.713 12.4464 172.34 12.6879 172.821 13.1239C172.886 13.1858 172.989 13.1844 173.052 13.1209L173.668 12.4984C173.701 12.4657 173.719 12.4215 173.718 12.3754C173.718 12.3294 173.699 12.2855 173.666 12.2535C172.2 10.8896 169.929 10.8896 168.463 12.2535C168.43 12.2855 168.411 12.3294 168.41 12.3755C168.41 12.4215 168.428 12.4658 168.46 12.4984L169.076 13.1209C169.14 13.1844 169.242 13.1858 169.307 13.1239C169.789 12.6882 170.414 12.4467 171.064 12.4465V12.4465ZM172.248 13.9319C172.281 13.8996 172.3 13.8551 172.299 13.8089C172.298 13.7627 172.278 13.719 172.244 13.6881C171.563 13.1124 170.566 13.1124 169.886 13.6881C169.851 13.719 169.831 13.7627 169.83 13.8089C169.829 13.855 169.848 13.8995 169.88 13.9319L170.946 15.0073C170.978 15.0389 171.02 15.0567 171.065 15.0567C171.109 15.0567 171.152 15.0389 171.183 15.0073L172.248 13.9319Z" fill="black"/>
<path d="M18.1783 8.67554C16.9653 8.67554 16.1011 9.50487 16.1011 10.6404V10.6481C16.1011 11.71 16.8529 12.4928 17.9264 12.4928C18.6937 12.4928 19.182 12.1014 19.3874 11.6596H19.4649C19.4649 11.7022 19.461 11.7448 19.461 11.7875C19.4184 12.8571 19.0425 13.7252 18.155 13.7252C17.6628 13.7252 17.3179 13.4694 17.1707 13.078L17.159 13.0392H16.1747L16.1824 13.0818C16.3607 13.9383 17.128 14.5467 18.155 14.5467C19.5618 14.5467 20.4105 13.4306 20.4105 11.5472V11.5394C20.4105 9.52425 19.3719 8.67554 18.1783 8.67554ZM18.1744 11.7255C17.5388 11.7255 17.0777 11.2604 17.0777 10.6132V10.6055C17.0777 9.98155 17.5698 9.48937 18.186 9.48937C18.8061 9.48937 19.2905 9.9893 19.2905 10.6287V10.6365C19.2905 11.2682 18.8061 11.7255 18.1744 11.7255ZM22.0826 10.7837C22.4391 10.7837 22.6988 10.5125 22.6988 10.1714C22.6988 9.82653 22.4391 9.55913 22.0826 9.55913C21.7299 9.55913 21.4664 9.82653 21.4664 10.1714C21.4664 10.5125 21.7299 10.7837 22.0826 10.7837ZM22.0826 13.6593C22.4391 13.6593 22.6988 13.3919 22.6988 13.047C22.6988 12.7021 22.4391 12.4347 22.0826 12.4347C21.7299 12.4347 21.4664 12.7021 21.4664 13.047C21.4664 13.3919 21.7299 13.6593 22.0826 13.6593ZM26.4675 14.4072H27.4247V13.3337H28.1765V12.5083H27.4247V8.81506H26.0102C25.2506 9.96992 24.4562 11.2565 23.7315 12.516V13.3337H26.4675V14.4072ZM24.6616 12.5315V12.4734C25.2041 11.5239 25.8513 10.4892 26.4248 9.61339H26.483V12.5315H24.6616ZM30.4067 14.4072H31.4065V8.81506H30.4106L28.9495 9.84203V10.7837L30.3408 9.7994H30.4067V14.4072Z" fill="black"/>
</g>
<defs>
<clipPath id="clip0_632_32116">
<rect width="198.419" height="23.2812" fill="white"/>
</clipPath>
</defs>
</svg>
