<svg width="42" height="24" viewBox="0 0 42 24" fill="none" xmlns="http://www.w3.org/2000/svg">
<g filter="url(#filter0_d_603_31352)">
<rect x="2.82812" y="2.65625" width="35.8483" height="13.8863" rx="2.61611" fill="#366CA5"/>
<path d="M8.43889 7.43585L6.9948 7.94599L7.21455 8.71513L8.32117 8.40119V12.9297H9.22373V7.43585H8.43889ZM12.2851 13.0317C13.6664 13.0317 14.4434 11.878 14.4434 10.1828C14.4434 8.48753 13.6664 7.33382 12.2851 7.33382C10.9038 7.33382 10.1268 8.48753 10.1268 10.1828C10.1268 11.878 10.9038 13.0317 12.2851 13.0317ZM12.2851 12.1527C11.4768 12.1527 11.0294 11.4464 11.0294 10.1828C11.0294 8.91918 11.4768 8.21283 12.2851 8.21283C13.1014 8.21283 13.5409 8.91918 13.5409 10.1828C13.5409 11.4464 13.1014 12.1527 12.2851 12.1527ZM19.2928 13.0317C20.4936 13.0317 21.3726 12.294 21.3726 11.1089V7.43585H20.47V11.0539C20.47 11.6975 20.1012 12.1527 19.2928 12.1527C18.4844 12.1527 18.1155 11.6975 18.1155 11.0539V7.43585H17.213V11.1089C17.213 12.294 18.0841 13.0317 19.2928 13.0317ZM24.4199 8.90349C23.8862 8.90349 23.4624 9.0997 23.2034 9.50781V9.00552H22.3558V12.9297H23.2034V10.8263C23.2034 10.0258 23.6429 9.69617 24.2001 9.69617C24.7338 9.69617 25.0792 10.0101 25.0792 10.6066V12.9297H25.9268V10.5202C25.9268 9.49996 25.2989 8.90349 24.4199 8.90349ZM27.2633 8.41689C27.5615 8.41689 27.8048 8.16574 27.8048 7.87535C27.8048 7.57712 27.5615 7.33382 27.2633 7.33382C26.965 7.33382 26.7217 7.57712 26.7217 7.87535C26.7217 8.16574 26.965 8.41689 27.2633 8.41689ZM26.8395 12.9297H27.6871V9.00552H26.8395V12.9297ZM30.8609 9.82174V9.00552H29.8877V7.90675L29.0401 8.1579V9.00552H28.3181V9.82174H29.0401V11.7053C29.0401 12.7256 29.5581 13.0867 30.8609 12.9297V12.1684C30.2174 12.1998 29.8877 12.2076 29.8877 11.7053V9.82174H30.8609ZM32.2454 10.0886C32.2454 9.80605 32.5122 9.67263 32.8183 9.67263C33.1401 9.67263 33.4148 9.8139 33.556 10.12L34.2702 9.71972C33.9955 9.20172 33.4619 8.90349 32.8183 8.90349C32.0178 8.90349 31.3821 9.36654 31.3821 10.1043C31.3821 11.5091 33.4933 11.1167 33.4933 11.8152C33.4933 12.1292 33.2029 12.2547 32.8261 12.2547C32.3945 12.2547 32.0806 12.0428 31.955 11.6896L31.2251 12.1135C31.4762 12.6785 32.0413 13.0317 32.8261 13.0317C33.6738 13.0317 34.3566 12.6079 34.3566 11.8231C34.3566 10.3711 32.2454 10.8028 32.2454 10.0886Z" fill="white"/>
<path d="M17.4844 16.5391H24.0247L20.7545 20.4632L17.4844 16.5391Z" fill="#366CA5"/>
</g>
<defs>
<filter id="filter0_d_603_31352" x="0.212011" y="0.694165" width="41.0838" height="23.0447" filterUnits="userSpaceOnUse" color-interpolation-filters="sRGB">
<feFlood flood-opacity="0" result="BackgroundImageFix"/>
<feColorMatrix in="SourceAlpha" type="matrix" values="0 0 0 0 0 0 0 0 0 0 0 0 0 0 0 0 0 0 127 0" result="hardAlpha"/>
<feOffset dy="0.654028"/>
<feGaussianBlur stdDeviation="1.30806"/>
<feColorMatrix type="matrix" values="0 0 0 0 0.235294 0 0 0 0 0.25098 0 0 0 0 0.262745 0 0 0 0.2 0"/>
<feBlend mode="normal" in2="BackgroundImageFix" result="effect1_dropShadow_603_31352"/>
<feBlend mode="normal" in="SourceGraphic" in2="effect1_dropShadow_603_31352" result="shape"/>
</filter>
</defs>
</svg>
