<svg width="42" height="24" viewBox="0 0 42 24" fill="none" xmlns="http://www.w3.org/2000/svg">
<g filter="url(#filter0_d_603_31358)">
<rect x="2.82812" y="2" width="35.8483" height="13.8863" rx="2.61611" fill="white"/>
<path d="M8.43889 6.7796L6.9948 7.28974L7.21455 8.05888L8.32117 7.74494V12.2734H9.22373V6.7796H8.43889ZM12.2851 12.3755C13.6664 12.3755 14.4434 11.2218 14.4434 9.52652C14.4434 7.83128 13.6664 6.67757 12.2851 6.67757C10.9038 6.67757 10.1268 7.83128 10.1268 9.52652C10.1268 11.2218 10.9038 12.3755 12.2851 12.3755ZM12.2851 11.4965C11.4768 11.4965 11.0294 10.7901 11.0294 9.52652C11.0294 8.26293 11.4768 7.55658 12.2851 7.55658C13.1014 7.55658 13.5409 8.26293 13.5409 9.52652C13.5409 10.7901 13.1014 11.4965 12.2851 11.4965ZM19.2928 12.3755C20.4936 12.3755 21.3726 11.6377 21.3726 10.4526V6.7796H20.47V10.3977C20.47 11.0412 20.1012 11.4965 19.2928 11.4965C18.4844 11.4965 18.1155 11.0412 18.1155 10.3977V6.7796H17.213V10.4526C17.213 11.6377 18.0841 12.3755 19.2928 12.3755ZM24.4199 8.24724C23.8862 8.24724 23.4624 8.44345 23.2034 8.85156V8.34927H22.3558V12.2734H23.2034V10.1701C23.2034 9.36955 23.6429 9.03992 24.2001 9.03992C24.7338 9.03992 25.0792 9.35385 25.0792 9.95033V12.2734H25.9268V9.864C25.9268 8.84371 25.2989 8.24724 24.4199 8.24724ZM27.2633 7.76064C27.5615 7.76064 27.8048 7.50949 27.8048 7.2191C27.8048 6.92087 27.5615 6.67757 27.2633 6.67757C26.965 6.67757 26.7217 6.92087 26.7217 7.2191C26.7217 7.50949 26.965 7.76064 27.2633 7.76064ZM26.8395 12.2734H27.6871V8.34927H26.8395V12.2734ZM30.8609 9.16549V8.34927H29.8877V7.2505L29.0401 7.50165V8.34927H28.3181V9.16549H29.0401V11.0491C29.0401 12.0694 29.5581 12.4304 30.8609 12.2734V11.5121C30.2174 11.5435 29.8877 11.5514 29.8877 11.0491V9.16549H30.8609ZM32.2454 9.43234C32.2454 9.1498 32.5122 9.01638 32.8183 9.01638C33.1401 9.01638 33.4148 9.15765 33.556 9.46373L34.2702 9.06347C33.9955 8.54547 33.4619 8.24724 32.8183 8.24724C32.0178 8.24724 31.3821 8.71029 31.3821 9.44803C31.3821 10.8529 33.4933 10.4605 33.4933 11.159C33.4933 11.4729 33.2029 11.5985 32.8261 11.5985C32.3945 11.5985 32.0806 11.3866 31.955 11.0334L31.2251 11.4572C31.4762 12.0223 32.0413 12.3755 32.8261 12.3755C33.6738 12.3755 34.3566 11.9517 34.3566 11.1668C34.3566 9.71488 32.2454 10.1465 32.2454 9.43234Z" fill="#333333"/>
<path d="M17.4844 15.8828H24.0247L20.7545 19.807L17.4844 15.8828Z" fill="white"/>
</g>
<defs>
<filter id="filter0_d_603_31358" x="0.212011" y="0.0379146" width="41.0838" height="23.0447" filterUnits="userSpaceOnUse" color-interpolation-filters="sRGB">
<feFlood flood-opacity="0" result="BackgroundImageFix"/>
<feColorMatrix in="SourceAlpha" type="matrix" values="0 0 0 0 0 0 0 0 0 0 0 0 0 0 0 0 0 0 127 0" result="hardAlpha"/>
<feOffset dy="0.654028"/>
<feGaussianBlur stdDeviation="1.30806"/>
<feColorMatrix type="matrix" values="0 0 0 0 0.235294 0 0 0 0 0.25098 0 0 0 0 0.262745 0 0 0 0.2 0"/>
<feBlend mode="normal" in2="BackgroundImageFix" result="effect1_dropShadow_603_31358"/>
<feBlend mode="normal" in="SourceGraphic" in2="effect1_dropShadow_603_31358" result="shape"/>
</filter>
</defs>
</svg>
