<svg width="39" height="24" viewBox="0 0 39 24" fill="none" xmlns="http://www.w3.org/2000/svg">
<g filter="url(#filter0_d_603_31344)">
<rect x="3" y="2" width="32.8483" height="13.8863" rx="2.61611" fill="white"/>
<path d="M9.51641 8.85156H8.82576L8.91994 7.62722H11.1489V6.7796H8.08801L7.87611 9.73057H9.47717C10.0736 9.73057 10.4818 10.0602 10.4818 10.6096C10.4818 11.159 10.0736 11.4965 9.46147 11.4965C8.88854 11.4965 8.51182 11.2375 8.37055 10.7509L7.59357 11.1982C7.88395 11.9909 8.62955 12.3755 9.46147 12.3755C10.4739 12.3755 11.3843 11.7633 11.3843 10.6096C11.3843 9.46373 10.5131 8.85156 9.51641 8.85156ZM16.1712 12.3755C17.372 12.3755 18.251 11.6377 18.251 10.4526V6.7796H17.3484V10.3977C17.3484 11.0412 16.9796 11.4965 16.1712 11.4965C15.3628 11.4965 14.9939 11.0412 14.9939 10.3977V6.7796H14.0914V10.4526C14.0914 11.6377 14.9625 12.3755 16.1712 12.3755ZM21.2983 8.24724C20.7646 8.24724 20.3408 8.44345 20.0818 8.85156V8.34927H19.2342V12.2734H20.0818V10.1701C20.0818 9.36955 20.5213 9.03992 21.0786 9.03992C21.6122 9.03992 21.9576 9.35385 21.9576 9.95033V12.2734H22.8052V9.864C22.8052 8.84371 22.1773 8.24724 21.2983 8.24724ZM24.1417 7.76064C24.4399 7.76064 24.6832 7.50949 24.6832 7.2191C24.6832 6.92087 24.4399 6.67757 24.1417 6.67757C23.8434 6.67757 23.6001 6.92087 23.6001 7.2191C23.6001 7.50949 23.8434 7.76064 24.1417 7.76064ZM23.7179 12.2734H24.5655V8.34927H23.7179V12.2734ZM27.7393 9.16549V8.34927H26.7661V7.2505L25.9185 7.50165V8.34927H25.1965V9.16549H25.9185V11.0491C25.9185 12.0694 26.4365 12.4304 27.7393 12.2734V11.5121C27.0958 11.5435 26.7661 11.5514 26.7661 11.0491V9.16549H27.7393ZM29.1238 9.43234C29.1238 9.1498 29.3906 9.01638 29.6967 9.01638C30.0185 9.01638 30.2932 9.15765 30.4344 9.46373L31.1486 9.06347C30.874 8.54547 30.3403 8.24724 29.6967 8.24724C28.8962 8.24724 28.2605 8.71029 28.2605 9.44803C28.2605 10.8529 30.3717 10.4605 30.3717 11.159C30.3717 11.4729 30.0813 11.5985 29.7046 11.5985C29.2729 11.5985 28.959 11.3866 28.8334 11.0334L28.1035 11.4572C28.3546 12.0223 28.9197 12.3755 29.7046 12.3755C30.5522 12.3755 31.235 11.9517 31.235 11.1668C31.235 9.71488 29.1238 10.1465 29.1238 9.43234Z" fill="#3C4043" fill-opacity="0.5"/>
<path d="M16.1562 15.8828H22.6965L19.4264 19.807L16.1562 15.8828Z" fill="white"/>
</g>
<defs>
<filter id="filter0_d_603_31344" x="0.383886" y="0.0379146" width="38.0838" height="23.0447" filterUnits="userSpaceOnUse" color-interpolation-filters="sRGB">
<feFlood flood-opacity="0" result="BackgroundImageFix"/>
<feColorMatrix in="SourceAlpha" type="matrix" values="0 0 0 0 0 0 0 0 0 0 0 0 0 0 0 0 0 0 127 0" result="hardAlpha"/>
<feOffset dy="0.654028"/>
<feGaussianBlur stdDeviation="1.30806"/>
<feColorMatrix type="matrix" values="0 0 0 0 0.235294 0 0 0 0 0.25098 0 0 0 0 0.262745 0 0 0 0.2 0"/>
<feBlend mode="normal" in2="BackgroundImageFix" result="effect1_dropShadow_603_31344"/>
<feBlend mode="normal" in="SourceGraphic" in2="effect1_dropShadow_603_31344" result="shape"/>
</filter>
</defs>
</svg>
